ISO-10303-21;
HEADER;
/* Generated by software containing ST-Developer
 * from STEP Tools, Inc. (www.steptools.com) 
 */

FILE_DESCRIPTION(
/* description */ (''),
/* implementation_level */ '2;1');

FILE_NAME(
/* name */ 'Pulse_button.step',
/* time_stamp */ '2026-08-27T16:27:09+08:00',
/* author */ (''),
/* organization */ (''),
/* preprocessor_version */ 'ST-DEVELOPER v20.1',
/* originating_system */ 'Autodesk Translation Framework v15.8.0.0',
/* authorisation */ '');

FILE_SCHEMA (('AUTOMOTIVE_DESIGN { 1 0 10303 214 3 1 1 }'));
ENDSEC;

DATA;
#10=MECHANICAL_DESIGN_GEOMETRIC_PRESENTATION_REPRESENTATION('',(#13,#14),
#896);
#11=SHAPE_REPRESENTATION_RELATIONSHIP('SRR','None',#903,#12);
#12=ADVANCED_BREP_SHAPE_REPRESENTATION('',(#15,#16),#895);
#13=STYLED_ITEM('',(#912),#15);
#14=STYLED_ITEM('',(#912),#16);
#15=MANIFOLD_SOLID_BREP('\X2\5B9E4F53\X0\1',#519);
#16=MANIFOLD_SOLID_BREP('\X2\5B9E4F53\X0\2',#520);
#17=FACE_BOUND('',#102,.T.);
#18=CIRCLE('',#536,0.5);
#19=CIRCLE('',#537,0.5);
#20=CIRCLE('',#540,0.499999999999999);
#21=CIRCLE('',#541,0.499999999999999);
#22=CIRCLE('',#544,0.5);
#23=CIRCLE('',#545,0.5);
#24=CIRCLE('',#548,0.5);
#25=CIRCLE('',#549,0.5);
#26=CIRCLE('',#553,1.);
#27=CIRCLE('',#554,1.);
#28=CIRCLE('',#557,1.);
#29=CIRCLE('',#558,1.);
#30=CIRCLE('',#561,1.);
#31=CIRCLE('',#562,1.);
#32=CIRCLE('',#565,1.);
#33=CIRCLE('',#566,1.);
#34=CIRCLE('',#570,0.5);
#35=CIRCLE('',#571,0.5);
#36=CIRCLE('',#572,0.499999999999999);
#37=CIRCLE('',#573,0.5);
#38=CIRCLE('',#576,0.5);
#39=CIRCLE('',#579,0.5);
#40=CIRCLE('',#581,0.499999999999999);
#41=CIRCLE('',#584,0.5);
#42=CYLINDRICAL_SURFACE('',#535,0.5);
#43=CYLINDRICAL_SURFACE('',#539,0.499999999999999);
#44=CYLINDRICAL_SURFACE('',#543,0.5);
#45=CYLINDRICAL_SURFACE('',#547,0.5);
#46=CYLINDRICAL_SURFACE('',#552,1.);
#47=CYLINDRICAL_SURFACE('',#556,1.);
#48=CYLINDRICAL_SURFACE('',#560,1.);
#49=CYLINDRICAL_SURFACE('',#564,1.);
#50=CYLINDRICAL_SURFACE('',#575,0.5);
#51=CYLINDRICAL_SURFACE('',#578,0.5);
#52=CYLINDRICAL_SURFACE('',#580,0.499999999999999);
#53=CYLINDRICAL_SURFACE('',#583,0.5);
#54=FACE_OUTER_BOUND('',#83,.T.);
#55=FACE_OUTER_BOUND('',#84,.T.);
#56=FACE_OUTER_BOUND('',#85,.T.);
#57=FACE_OUTER_BOUND('',#86,.T.);
#58=FACE_OUTER_BOUND('',#87,.T.);
#59=FACE_OUTER_BOUND('',#88,.T.);
#60=FACE_OUTER_BOUND('',#89,.T.);
#61=FACE_OUTER_BOUND('',#90,.T.);
#62=FACE_OUTER_BOUND('',#91,.T.);
#63=FACE_OUTER_BOUND('',#92,.T.);
#64=FACE_OUTER_BOUND('',#93,.T.);
#65=FACE_OUTER_BOUND('',#94,.T.);
#66=FACE_OUTER_BOUND('',#95,.T.);
#67=FACE_OUTER_BOUND('',#96,.T.);
#68=FACE_OUTER_BOUND('',#97,.T.);
#69=FACE_OUTER_BOUND('',#98,.T.);
#70=FACE_OUTER_BOUND('',#99,.T.);
#71=FACE_OUTER_BOUND('',#100,.T.);
#72=FACE_OUTER_BOUND('',#101,.T.);
#73=FACE_OUTER_BOUND('',#103,.T.);
#74=FACE_OUTER_BOUND('',#104,.T.);
#75=FACE_OUTER_BOUND('',#105,.T.);
#76=FACE_OUTER_BOUND('',#106,.T.);
#77=FACE_OUTER_BOUND('',#107,.T.);
#78=FACE_OUTER_BOUND('',#108,.T.);
#79=FACE_OUTER_BOUND('',#109,.T.);
#80=FACE_OUTER_BOUND('',#110,.T.);
#81=FACE_OUTER_BOUND('',#111,.T.);
#82=FACE_OUTER_BOUND('',#112,.T.);
#83=EDGE_LOOP('',(#329,#330,#331,#332));
#84=EDGE_LOOP('',(#333,#334,#335,#336));
#85=EDGE_LOOP('',(#337,#338,#339,#340));
#86=EDGE_LOOP('',(#341,#342,#343,#344));
#87=EDGE_LOOP('',(#345,#346,#347,#348));
#88=EDGE_LOOP('',(#349,#350,#351,#352));
#89=EDGE_LOOP('',(#353,#354,#355,#356));
#90=EDGE_LOOP('',(#357,#358,#359,#360));
#91=EDGE_LOOP('',(#361,#362,#363,#364,#365,#366,#367,#368));
#92=EDGE_LOOP('',(#369,#370,#371,#372));
#93=EDGE_LOOP('',(#373,#374,#375,#376));
#94=EDGE_LOOP('',(#377,#378,#379,#380));
#95=EDGE_LOOP('',(#381,#382,#383,#384));
#96=EDGE_LOOP('',(#385,#386,#387,#388));
#97=EDGE_LOOP('',(#389,#390,#391,#392));
#98=EDGE_LOOP('',(#393,#394,#395,#396));
#99=EDGE_LOOP('',(#397,#398,#399,#400));
#100=EDGE_LOOP('',(#401,#402,#403,#404,#405,#406,#407,#408));
#101=EDGE_LOOP('',(#409,#410,#411,#412,#413,#414,#415,#416));
#102=EDGE_LOOP('',(#417,#418,#419,#420,#421,#422,#423,#424));
#103=EDGE_LOOP('',(#425,#426,#427,#428,#429,#430,#431,#432));
#104=EDGE_LOOP('',(#433,#434,#435,#436));
#105=EDGE_LOOP('',(#437,#438,#439,#440));
#106=EDGE_LOOP('',(#441,#442,#443,#444));
#107=EDGE_LOOP('',(#445,#446,#447,#448));
#108=EDGE_LOOP('',(#449,#450,#451,#452));
#109=EDGE_LOOP('',(#453,#454,#455,#456));
#110=EDGE_LOOP('',(#457,#458,#459,#460));
#111=EDGE_LOOP('',(#461,#462,#463,#464));
#112=EDGE_LOOP('',(#465,#466,#467,#468,#469,#470,#471,#472));
#113=LINE('',#747,#161);
#114=LINE('',#749,#162);
#115=LINE('',#751,#163);
#116=LINE('',#752,#164);
#117=LINE('',#757,#165);
#118=LINE('',#761,#166);
#119=LINE('',#763,#167);
#120=LINE('',#764,#168);
#121=LINE('',#769,#169);
#122=LINE('',#773,#170);
#123=LINE('',#775,#171);
#124=LINE('',#776,#172);
#125=LINE('',#781,#173);
#126=LINE('',#785,#174);
#127=LINE('',#787,#175);
#128=LINE('',#788,#176);
#129=LINE('',#796,#177);
#130=LINE('',#798,#178);
#131=LINE('',#800,#179);
#132=LINE('',#801,#180);
#133=LINE('',#807,#181);
#134=LINE('',#810,#182);
#135=LINE('',#812,#183);
#136=LINE('',#813,#184);
#137=LINE('',#819,#185);
#138=LINE('',#822,#186);
#139=LINE('',#824,#187);
#140=LINE('',#825,#188);
#141=LINE('',#831,#189);
#142=LINE('',#834,#190);
#143=LINE('',#836,#191);
#144=LINE('',#837,#192);
#145=LINE('',#848,#193);
#146=LINE('',#852,#194);
#147=LINE('',#856,#195);
#148=LINE('',#859,#196);
#149=LINE('',#862,#197);
#150=LINE('',#864,#198);
#151=LINE('',#865,#199);
#152=LINE('',#868,#200);
#153=LINE('',#872,#201);
#154=LINE('',#873,#202);
#155=LINE('',#876,#203);
#156=LINE('',#881,#204);
#157=LINE('',#884,#205);
#158=LINE('',#885,#206);
#159=LINE('',#889,#207);
#160=LINE('',#891,#208);
#161=VECTOR('',#591,10.);
#162=VECTOR('',#592,10.);
#163=VECTOR('',#593,10.);
#164=VECTOR('',#594,10.);
#165=VECTOR('',#599,10.);
#166=VECTOR('',#604,10.);
#167=VECTOR('',#605,10.);
#168=VECTOR('',#606,10.);
#169=VECTOR('',#611,10.);
#170=VECTOR('',#616,10.);
#171=VECTOR('',#617,10.);
#172=VECTOR('',#618,10.);
#173=VECTOR('',#623,10.);
#174=VECTOR('',#628,10.);
#175=VECTOR('',#629,10.);
#176=VECTOR('',#630,10.);
#177=VECTOR('',#641,10.);
#178=VECTOR('',#642,10.);
#179=VECTOR('',#643,10.);
#180=VECTOR('',#644,10.);
#181=VECTOR('',#651,10.);
#182=VECTOR('',#654,10.);
#183=VECTOR('',#655,10.);
#184=VECTOR('',#656,10.);
#185=VECTOR('',#663,10.);
#186=VECTOR('',#666,10.);
#187=VECTOR('',#667,10.);
#188=VECTOR('',#668,10.);
#189=VECTOR('',#675,10.);
#190=VECTOR('',#678,10.);
#191=VECTOR('',#679,10.);
#192=VECTOR('',#680,10.);
#193=VECTOR('',#695,10.);
#194=VECTOR('',#698,10.);
#195=VECTOR('',#701,10.);
#196=VECTOR('',#704,10.);
#197=VECTOR('',#707,10.);
#198=VECTOR('',#708,10.);
#199=VECTOR('',#709,10.);
#200=VECTOR('',#712,10.);
#201=VECTOR('',#717,10.);
#202=VECTOR('',#718,10.);
#203=VECTOR('',#721,10.);
#204=VECTOR('',#728,10.);
#205=VECTOR('',#731,10.);
#206=VECTOR('',#732,10.);
#207=VECTOR('',#737,10.);
#208=VECTOR('',#740,10.);
#209=VERTEX_POINT('',#745);
#210=VERTEX_POINT('',#746);
#211=VERTEX_POINT('',#748);
#212=VERTEX_POINT('',#750);
#213=VERTEX_POINT('',#754);
#214=VERTEX_POINT('',#756);
#215=VERTEX_POINT('',#760);
#216=VERTEX_POINT('',#762);
#217=VERTEX_POINT('',#766);
#218=VERTEX_POINT('',#768);
#219=VERTEX_POINT('',#772);
#220=VERTEX_POINT('',#774);
#221=VERTEX_POINT('',#778);
#222=VERTEX_POINT('',#780);
#223=VERTEX_POINT('',#784);
#224=VERTEX_POINT('',#786);
#225=VERTEX_POINT('',#794);
#226=VERTEX_POINT('',#795);
#227=VERTEX_POINT('',#797);
#228=VERTEX_POINT('',#799);
#229=VERTEX_POINT('',#803);
#230=VERTEX_POINT('',#805);
#231=VERTEX_POINT('',#809);
#232=VERTEX_POINT('',#811);
#233=VERTEX_POINT('',#815);
#234=VERTEX_POINT('',#817);
#235=VERTEX_POINT('',#821);
#236=VERTEX_POINT('',#823);
#237=VERTEX_POINT('',#827);
#238=VERTEX_POINT('',#829);
#239=VERTEX_POINT('',#833);
#240=VERTEX_POINT('',#835);
#241=VERTEX_POINT('',#844);
#242=VERTEX_POINT('',#845);
#243=VERTEX_POINT('',#847);
#244=VERTEX_POINT('',#849);
#245=VERTEX_POINT('',#851);
#246=VERTEX_POINT('',#853);
#247=VERTEX_POINT('',#855);
#248=VERTEX_POINT('',#857);
#249=VERTEX_POINT('',#861);
#250=VERTEX_POINT('',#863);
#251=VERTEX_POINT('',#867);
#252=VERTEX_POINT('',#871);
#253=VERTEX_POINT('',#875);
#254=VERTEX_POINT('',#879);
#255=VERTEX_POINT('',#883);
#256=VERTEX_POINT('',#887);
#257=EDGE_CURVE('',#209,#210,#113,.T.);
#258=EDGE_CURVE('',#209,#211,#114,.T.);
#259=EDGE_CURVE('',#211,#212,#115,.T.);
#260=EDGE_CURVE('',#210,#212,#116,.T.);
#261=EDGE_CURVE('',#213,#209,#18,.T.);
#262=EDGE_CURVE('',#213,#214,#117,.T.);
#263=EDGE_CURVE('',#214,#211,#19,.T.);
#264=EDGE_CURVE('',#215,#213,#118,.T.);
#265=EDGE_CURVE('',#215,#216,#119,.T.);
#266=EDGE_CURVE('',#216,#214,#120,.T.);
#267=EDGE_CURVE('',#217,#215,#20,.T.);
#268=EDGE_CURVE('',#217,#218,#121,.T.);
#269=EDGE_CURVE('',#218,#216,#21,.T.);
#270=EDGE_CURVE('',#219,#217,#122,.T.);
#271=EDGE_CURVE('',#219,#220,#123,.T.);
#272=EDGE_CURVE('',#220,#218,#124,.T.);
#273=EDGE_CURVE('',#221,#219,#22,.T.);
#274=EDGE_CURVE('',#221,#222,#125,.T.);
#275=EDGE_CURVE('',#222,#220,#23,.T.);
#276=EDGE_CURVE('',#223,#221,#126,.T.);
#277=EDGE_CURVE('',#223,#224,#127,.T.);
#278=EDGE_CURVE('',#224,#222,#128,.T.);
#279=EDGE_CURVE('',#210,#223,#24,.T.);
#280=EDGE_CURVE('',#212,#224,#25,.T.);
#281=EDGE_CURVE('',#225,#226,#129,.T.);
#282=EDGE_CURVE('',#226,#227,#130,.T.);
#283=EDGE_CURVE('',#228,#227,#131,.T.);
#284=EDGE_CURVE('',#225,#228,#132,.T.);
#285=EDGE_CURVE('',#229,#225,#26,.T.);
#286=EDGE_CURVE('',#230,#228,#27,.T.);
#287=EDGE_CURVE('',#229,#230,#133,.T.);
#288=EDGE_CURVE('',#231,#229,#134,.T.);
#289=EDGE_CURVE('',#232,#230,#135,.T.);
#290=EDGE_CURVE('',#231,#232,#136,.T.);
#291=EDGE_CURVE('',#233,#231,#28,.T.);
#292=EDGE_CURVE('',#234,#232,#29,.T.);
#293=EDGE_CURVE('',#233,#234,#137,.T.);
#294=EDGE_CURVE('',#235,#233,#138,.T.);
#295=EDGE_CURVE('',#236,#234,#139,.T.);
#296=EDGE_CURVE('',#235,#236,#140,.T.);
#297=EDGE_CURVE('',#237,#235,#30,.T.);
#298=EDGE_CURVE('',#238,#236,#31,.T.);
#299=EDGE_CURVE('',#237,#238,#141,.T.);
#300=EDGE_CURVE('',#239,#237,#142,.T.);
#301=EDGE_CURVE('',#240,#238,#143,.T.);
#302=EDGE_CURVE('',#239,#240,#144,.T.);
#303=EDGE_CURVE('',#226,#239,#32,.T.);
#304=EDGE_CURVE('',#227,#240,#33,.T.);
#305=EDGE_CURVE('',#241,#242,#34,.T.);
#306=EDGE_CURVE('',#243,#241,#145,.T.);
#307=EDGE_CURVE('',#244,#243,#35,.T.);
#308=EDGE_CURVE('',#245,#244,#146,.T.);
#309=EDGE_CURVE('',#246,#245,#36,.T.);
#310=EDGE_CURVE('',#247,#246,#147,.T.);
#311=EDGE_CURVE('',#248,#247,#37,.T.);
#312=EDGE_CURVE('',#242,#248,#148,.T.);
#313=EDGE_CURVE('',#244,#249,#149,.T.);
#314=EDGE_CURVE('',#250,#249,#150,.T.);
#315=EDGE_CURVE('',#245,#250,#151,.T.);
#316=EDGE_CURVE('',#243,#251,#152,.T.);
#317=EDGE_CURVE('',#249,#251,#38,.T.);
#318=EDGE_CURVE('',#241,#252,#153,.T.);
#319=EDGE_CURVE('',#251,#252,#154,.T.);
#320=EDGE_CURVE('',#242,#253,#155,.T.);
#321=EDGE_CURVE('',#252,#253,#39,.T.);
#322=EDGE_CURVE('',#254,#250,#40,.T.);
#323=EDGE_CURVE('',#246,#254,#156,.T.);
#324=EDGE_CURVE('',#255,#254,#157,.T.);
#325=EDGE_CURVE('',#247,#255,#158,.T.);
#326=EDGE_CURVE('',#256,#255,#41,.T.);
#327=EDGE_CURVE('',#248,#256,#159,.T.);
#328=EDGE_CURVE('',#253,#256,#160,.T.);
#329=ORIENTED_EDGE('',*,*,#257,.F.);
#330=ORIENTED_EDGE('',*,*,#258,.T.);
#331=ORIENTED_EDGE('',*,*,#259,.T.);
#332=ORIENTED_EDGE('',*,*,#260,.F.);
#333=ORIENTED_EDGE('',*,*,#261,.F.);
#334=ORIENTED_EDGE('',*,*,#262,.T.);
#335=ORIENTED_EDGE('',*,*,#263,.T.);
#336=ORIENTED_EDGE('',*,*,#258,.F.);
#337=ORIENTED_EDGE('',*,*,#264,.F.);
#338=ORIENTED_EDGE('',*,*,#265,.T.);
#339=ORIENTED_EDGE('',*,*,#266,.T.);
#340=ORIENTED_EDGE('',*,*,#262,.F.);
#341=ORIENTED_EDGE('',*,*,#267,.F.);
#342=ORIENTED_EDGE('',*,*,#268,.T.);
#343=ORIENTED_EDGE('',*,*,#269,.T.);
#344=ORIENTED_EDGE('',*,*,#265,.F.);
#345=ORIENTED_EDGE('',*,*,#270,.F.);
#346=ORIENTED_EDGE('',*,*,#271,.T.);
#347=ORIENTED_EDGE('',*,*,#272,.T.);
#348=ORIENTED_EDGE('',*,*,#268,.F.);
#349=ORIENTED_EDGE('',*,*,#273,.F.);
#350=ORIENTED_EDGE('',*,*,#274,.T.);
#351=ORIENTED_EDGE('',*,*,#275,.T.);
#352=ORIENTED_EDGE('',*,*,#271,.F.);
#353=ORIENTED_EDGE('',*,*,#276,.F.);
#354=ORIENTED_EDGE('',*,*,#277,.T.);
#355=ORIENTED_EDGE('',*,*,#278,.T.);
#356=ORIENTED_EDGE('',*,*,#274,.F.);
#357=ORIENTED_EDGE('',*,*,#279,.F.);
#358=ORIENTED_EDGE('',*,*,#260,.T.);
#359=ORIENTED_EDGE('',*,*,#280,.T.);
#360=ORIENTED_EDGE('',*,*,#277,.F.);
#361=ORIENTED_EDGE('',*,*,#280,.F.);
#362=ORIENTED_EDGE('',*,*,#259,.F.);
#363=ORIENTED_EDGE('',*,*,#263,.F.);
#364=ORIENTED_EDGE('',*,*,#266,.F.);
#365=ORIENTED_EDGE('',*,*,#269,.F.);
#366=ORIENTED_EDGE('',*,*,#272,.F.);
#367=ORIENTED_EDGE('',*,*,#275,.F.);
#368=ORIENTED_EDGE('',*,*,#278,.F.);
#369=ORIENTED_EDGE('',*,*,#281,.T.);
#370=ORIENTED_EDGE('',*,*,#282,.T.);
#371=ORIENTED_EDGE('',*,*,#283,.F.);
#372=ORIENTED_EDGE('',*,*,#284,.F.);
#373=ORIENTED_EDGE('',*,*,#285,.T.);
#374=ORIENTED_EDGE('',*,*,#284,.T.);
#375=ORIENTED_EDGE('',*,*,#286,.F.);
#376=ORIENTED_EDGE('',*,*,#287,.F.);
#377=ORIENTED_EDGE('',*,*,#288,.T.);
#378=ORIENTED_EDGE('',*,*,#287,.T.);
#379=ORIENTED_EDGE('',*,*,#289,.F.);
#380=ORIENTED_EDGE('',*,*,#290,.F.);
#381=ORIENTED_EDGE('',*,*,#291,.T.);
#382=ORIENTED_EDGE('',*,*,#290,.T.);
#383=ORIENTED_EDGE('',*,*,#292,.F.);
#384=ORIENTED_EDGE('',*,*,#293,.F.);
#385=ORIENTED_EDGE('',*,*,#294,.T.);
#386=ORIENTED_EDGE('',*,*,#293,.T.);
#387=ORIENTED_EDGE('',*,*,#295,.F.);
#388=ORIENTED_EDGE('',*,*,#296,.F.);
#389=ORIENTED_EDGE('',*,*,#297,.T.);
#390=ORIENTED_EDGE('',*,*,#296,.T.);
#391=ORIENTED_EDGE('',*,*,#298,.F.);
#392=ORIENTED_EDGE('',*,*,#299,.F.);
#393=ORIENTED_EDGE('',*,*,#300,.T.);
#394=ORIENTED_EDGE('',*,*,#299,.T.);
#395=ORIENTED_EDGE('',*,*,#301,.F.);
#396=ORIENTED_EDGE('',*,*,#302,.F.);
#397=ORIENTED_EDGE('',*,*,#303,.T.);
#398=ORIENTED_EDGE('',*,*,#302,.T.);
#399=ORIENTED_EDGE('',*,*,#304,.F.);
#400=ORIENTED_EDGE('',*,*,#282,.F.);
#401=ORIENTED_EDGE('',*,*,#304,.T.);
#402=ORIENTED_EDGE('',*,*,#301,.T.);
#403=ORIENTED_EDGE('',*,*,#298,.T.);
#404=ORIENTED_EDGE('',*,*,#295,.T.);
#405=ORIENTED_EDGE('',*,*,#292,.T.);
#406=ORIENTED_EDGE('',*,*,#289,.T.);
#407=ORIENTED_EDGE('',*,*,#286,.T.);
#408=ORIENTED_EDGE('',*,*,#283,.T.);
#409=ORIENTED_EDGE('',*,*,#303,.F.);
#410=ORIENTED_EDGE('',*,*,#281,.F.);
#411=ORIENTED_EDGE('',*,*,#285,.F.);
#412=ORIENTED_EDGE('',*,*,#288,.F.);
#413=ORIENTED_EDGE('',*,*,#291,.F.);
#414=ORIENTED_EDGE('',*,*,#294,.F.);
#415=ORIENTED_EDGE('',*,*,#297,.F.);
#416=ORIENTED_EDGE('',*,*,#300,.F.);
#417=ORIENTED_EDGE('',*,*,#257,.T.);
#418=ORIENTED_EDGE('',*,*,#279,.T.);
#419=ORIENTED_EDGE('',*,*,#276,.T.);
#420=ORIENTED_EDGE('',*,*,#273,.T.);
#421=ORIENTED_EDGE('',*,*,#270,.T.);
#422=ORIENTED_EDGE('',*,*,#267,.T.);
#423=ORIENTED_EDGE('',*,*,#264,.T.);
#424=ORIENTED_EDGE('',*,*,#261,.T.);
#425=ORIENTED_EDGE('',*,*,#305,.F.);
#426=ORIENTED_EDGE('',*,*,#306,.F.);
#427=ORIENTED_EDGE('',*,*,#307,.F.);
#428=ORIENTED_EDGE('',*,*,#308,.F.);
#429=ORIENTED_EDGE('',*,*,#309,.F.);
#430=ORIENTED_EDGE('',*,*,#310,.F.);
#431=ORIENTED_EDGE('',*,*,#311,.F.);
#432=ORIENTED_EDGE('',*,*,#312,.F.);
#433=ORIENTED_EDGE('',*,*,#308,.T.);
#434=ORIENTED_EDGE('',*,*,#313,.T.);
#435=ORIENTED_EDGE('',*,*,#314,.F.);
#436=ORIENTED_EDGE('',*,*,#315,.F.);
#437=ORIENTED_EDGE('',*,*,#307,.T.);
#438=ORIENTED_EDGE('',*,*,#316,.T.);
#439=ORIENTED_EDGE('',*,*,#317,.F.);
#440=ORIENTED_EDGE('',*,*,#313,.F.);
#441=ORIENTED_EDGE('',*,*,#306,.T.);
#442=ORIENTED_EDGE('',*,*,#318,.T.);
#443=ORIENTED_EDGE('',*,*,#319,.F.);
#444=ORIENTED_EDGE('',*,*,#316,.F.);
#445=ORIENTED_EDGE('',*,*,#305,.T.);
#446=ORIENTED_EDGE('',*,*,#320,.T.);
#447=ORIENTED_EDGE('',*,*,#321,.F.);
#448=ORIENTED_EDGE('',*,*,#318,.F.);
#449=ORIENTED_EDGE('',*,*,#309,.T.);
#450=ORIENTED_EDGE('',*,*,#315,.T.);
#451=ORIENTED_EDGE('',*,*,#322,.F.);
#452=ORIENTED_EDGE('',*,*,#323,.F.);
#453=ORIENTED_EDGE('',*,*,#310,.T.);
#454=ORIENTED_EDGE('',*,*,#323,.T.);
#455=ORIENTED_EDGE('',*,*,#324,.F.);
#456=ORIENTED_EDGE('',*,*,#325,.F.);
#457=ORIENTED_EDGE('',*,*,#311,.T.);
#458=ORIENTED_EDGE('',*,*,#325,.T.);
#459=ORIENTED_EDGE('',*,*,#326,.F.);
#460=ORIENTED_EDGE('',*,*,#327,.F.);
#461=ORIENTED_EDGE('',*,*,#312,.T.);
#462=ORIENTED_EDGE('',*,*,#327,.T.);
#463=ORIENTED_EDGE('',*,*,#328,.F.);
#464=ORIENTED_EDGE('',*,*,#320,.F.);
#465=ORIENTED_EDGE('',*,*,#321,.T.);
#466=ORIENTED_EDGE('',*,*,#328,.T.);
#467=ORIENTED_EDGE('',*,*,#326,.T.);
#468=ORIENTED_EDGE('',*,*,#324,.T.);
#469=ORIENTED_EDGE('',*,*,#322,.T.);
#470=ORIENTED_EDGE('',*,*,#314,.T.);
#471=ORIENTED_EDGE('',*,*,#317,.T.);
#472=ORIENTED_EDGE('',*,*,#319,.T.);
#473=PLANE('',#534);
#474=PLANE('',#538);
#475=PLANE('',#542);
#476=PLANE('',#546);
#477=PLANE('',#550);
#478=PLANE('',#551);
#479=PLANE('',#555);
#480=PLANE('',#559);
#481=PLANE('',#563);
#482=PLANE('',#567);
#483=PLANE('',#568);
#484=PLANE('',#569);
#485=PLANE('',#574);
#486=PLANE('',#577);
#487=PLANE('',#582);
#488=PLANE('',#585);
#489=PLANE('',#586);
#490=ADVANCED_FACE('',(#54),#473,.F.);
#491=ADVANCED_FACE('',(#55),#42,.F.);
#492=ADVANCED_FACE('',(#56),#474,.F.);
#493=ADVANCED_FACE('',(#57),#43,.F.);
#494=ADVANCED_FACE('',(#58),#475,.F.);
#495=ADVANCED_FACE('',(#59),#44,.F.);
#496=ADVANCED_FACE('',(#60),#476,.F.);
#497=ADVANCED_FACE('',(#61),#45,.F.);
#498=ADVANCED_FACE('',(#62),#477,.F.);
#499=ADVANCED_FACE('',(#63),#478,.T.);
#500=ADVANCED_FACE('',(#64),#46,.T.);
#501=ADVANCED_FACE('',(#65),#479,.T.);
#502=ADVANCED_FACE('',(#66),#47,.T.);
#503=ADVANCED_FACE('',(#67),#480,.T.);
#504=ADVANCED_FACE('',(#68),#48,.T.);
#505=ADVANCED_FACE('',(#69),#481,.T.);
#506=ADVANCED_FACE('',(#70),#49,.T.);
#507=ADVANCED_FACE('',(#71),#482,.T.);
#508=ADVANCED_FACE('',(#72,#17),#483,.F.);
#509=ADVANCED_FACE('',(#73),#484,.F.);
#510=ADVANCED_FACE('',(#74),#485,.T.);
#511=ADVANCED_FACE('',(#75),#50,.T.);
#512=ADVANCED_FACE('',(#76),#486,.T.);
#513=ADVANCED_FACE('',(#77),#51,.T.);
#514=ADVANCED_FACE('',(#78),#52,.T.);
#515=ADVANCED_FACE('',(#79),#487,.T.);
#516=ADVANCED_FACE('',(#80),#53,.T.);
#517=ADVANCED_FACE('',(#81),#488,.T.);
#518=ADVANCED_FACE('',(#82),#489,.T.);
#519=CLOSED_SHELL('',(#490,#491,#492,#493,#494,#495,#496,#497,#498,#499,
#500,#501,#502,#503,#504,#505,#506,#507,#508));
#520=CLOSED_SHELL('',(#509,#510,#511,#512,#513,#514,#515,#516,#517,#518));
#521=DERIVED_UNIT_ELEMENT(#523,1.);
#522=DERIVED_UNIT_ELEMENT(#898,-3.);
#523=(
MASS_UNIT()
NAMED_UNIT(*)
SI_UNIT(.KILO.,.GRAM.)
);
#524=DERIVED_UNIT((#521,#522));
#525=MEASURE_REPRESENTATION_ITEM('density measure',
POSITIVE_RATIO_MEASURE(7850.),#524);
#526=PROPERTY_DEFINITION_REPRESENTATION(#531,#528);
#527=PROPERTY_DEFINITION_REPRESENTATION(#532,#529);
#528=REPRESENTATION('material name',(#530),#895);
#529=REPRESENTATION('density',(#525),#895);
#530=DESCRIPTIVE_REPRESENTATION_ITEM('\X2\94A2\X0\','\X2\94A2\X0\');
#531=PROPERTY_DEFINITION('material property','material name',#905);
#532=PROPERTY_DEFINITION('material property','density of part',#905);
#533=AXIS2_PLACEMENT_3D('',#743,#587,#588);
#534=AXIS2_PLACEMENT_3D('',#744,#589,#590);
#535=AXIS2_PLACEMENT_3D('',#753,#595,#596);
#536=AXIS2_PLACEMENT_3D('',#755,#597,#598);
#537=AXIS2_PLACEMENT_3D('',#758,#600,#601);
#538=AXIS2_PLACEMENT_3D('',#759,#602,#603);
#539=AXIS2_PLACEMENT_3D('',#765,#607,#608);
#540=AXIS2_PLACEMENT_3D('',#767,#609,#610);
#541=AXIS2_PLACEMENT_3D('',#770,#612,#613);
#542=AXIS2_PLACEMENT_3D('',#771,#614,#615);
#543=AXIS2_PLACEMENT_3D('',#777,#619,#620);
#544=AXIS2_PLACEMENT_3D('',#779,#621,#622);
#545=AXIS2_PLACEMENT_3D('',#782,#624,#625);
#546=AXIS2_PLACEMENT_3D('',#783,#626,#627);
#547=AXIS2_PLACEMENT_3D('',#789,#631,#632);
#548=AXIS2_PLACEMENT_3D('',#790,#633,#634);
#549=AXIS2_PLACEMENT_3D('',#791,#635,#636);
#550=AXIS2_PLACEMENT_3D('',#792,#637,#638);
#551=AXIS2_PLACEMENT_3D('',#793,#639,#640);
#552=AXIS2_PLACEMENT_3D('',#802,#645,#646);
#553=AXIS2_PLACEMENT_3D('',#804,#647,#648);
#554=AXIS2_PLACEMENT_3D('',#806,#649,#650);
#555=AXIS2_PLACEMENT_3D('',#808,#652,#653);
#556=AXIS2_PLACEMENT_3D('',#814,#657,#658);
#557=AXIS2_PLACEMENT_3D('',#816,#659,#660);
#558=AXIS2_PLACEMENT_3D('',#818,#661,#662);
#559=AXIS2_PLACEMENT_3D('',#820,#664,#665);
#560=AXIS2_PLACEMENT_3D('',#826,#669,#670);
#561=AXIS2_PLACEMENT_3D('',#828,#671,#672);
#562=AXIS2_PLACEMENT_3D('',#830,#673,#674);
#563=AXIS2_PLACEMENT_3D('',#832,#676,#677);
#564=AXIS2_PLACEMENT_3D('',#838,#681,#682);
#565=AXIS2_PLACEMENT_3D('',#839,#683,#684);
#566=AXIS2_PLACEMENT_3D('',#840,#685,#686);
#567=AXIS2_PLACEMENT_3D('',#841,#687,#688);
#568=AXIS2_PLACEMENT_3D('',#842,#689,#690);
#569=AXIS2_PLACEMENT_3D('',#843,#691,#692);
#570=AXIS2_PLACEMENT_3D('',#846,#693,#694);
#571=AXIS2_PLACEMENT_3D('',#850,#696,#697);
#572=AXIS2_PLACEMENT_3D('',#854,#699,#700);
#573=AXIS2_PLACEMENT_3D('',#858,#702,#703);
#574=AXIS2_PLACEMENT_3D('',#860,#705,#706);
#575=AXIS2_PLACEMENT_3D('',#866,#710,#711);
#576=AXIS2_PLACEMENT_3D('',#869,#713,#714);
#577=AXIS2_PLACEMENT_3D('',#870,#715,#716);
#578=AXIS2_PLACEMENT_3D('',#874,#719,#720);
#579=AXIS2_PLACEMENT_3D('',#877,#722,#723);
#580=AXIS2_PLACEMENT_3D('',#878,#724,#725);
#581=AXIS2_PLACEMENT_3D('',#880,#726,#727);
#582=AXIS2_PLACEMENT_3D('',#882,#729,#730);
#583=AXIS2_PLACEMENT_3D('',#886,#733,#734);
#584=AXIS2_PLACEMENT_3D('',#888,#735,#736);
#585=AXIS2_PLACEMENT_3D('',#890,#738,#739);
#586=AXIS2_PLACEMENT_3D('',#892,#741,#742);
#587=DIRECTION('axis',(0.,0.,1.));
#588=DIRECTION('refdir',(1.,0.,0.));
#589=DIRECTION('center_axis',(0.,-1.,0.));
#590=DIRECTION('ref_axis',(1.,0.,0.));
#591=DIRECTION('',(1.,0.,0.));
#592=DIRECTION('',(0.,0.,1.));
#593=DIRECTION('',(1.,0.,0.));
#594=DIRECTION('',(0.,0.,1.));
#595=DIRECTION('center_axis',(0.,0.,1.));
#596=DIRECTION('ref_axis',(-1.,0.,0.));
#597=DIRECTION('center_axis',(0.,0.,1.));
#598=DIRECTION('ref_axis',(-1.,0.,0.));
#599=DIRECTION('',(0.,0.,1.));
#600=DIRECTION('center_axis',(0.,0.,1.));
#601=DIRECTION('ref_axis',(-1.,0.,0.));
#602=DIRECTION('center_axis',(-1.,0.,0.));
#603=DIRECTION('ref_axis',(0.,-1.,0.));
#604=DIRECTION('',(0.,-1.,0.));
#605=DIRECTION('',(0.,0.,1.));
#606=DIRECTION('',(0.,-1.,0.));
#607=DIRECTION('center_axis',(0.,0.,1.));
#608=DIRECTION('ref_axis',(0.,1.,0.));
#609=DIRECTION('center_axis',(0.,0.,1.));
#610=DIRECTION('ref_axis',(0.,1.,0.));
#611=DIRECTION('',(0.,0.,1.));
#612=DIRECTION('center_axis',(0.,0.,1.));
#613=DIRECTION('ref_axis',(0.,1.,0.));
#614=DIRECTION('center_axis',(0.,1.,0.));
#615=DIRECTION('ref_axis',(-1.,0.,0.));
#616=DIRECTION('',(-1.,0.,0.));
#617=DIRECTION('',(0.,0.,1.));
#618=DIRECTION('',(-1.,0.,0.));
#619=DIRECTION('center_axis',(0.,0.,1.));
#620=DIRECTION('ref_axis',(1.,-5.55111512312578E-16,0.));
#621=DIRECTION('center_axis',(0.,0.,1.));
#622=DIRECTION('ref_axis',(1.,-5.55111512312578E-16,0.));
#623=DIRECTION('',(0.,0.,1.));
#624=DIRECTION('center_axis',(0.,0.,1.));
#625=DIRECTION('ref_axis',(1.,-5.55111512312578E-16,0.));
#626=DIRECTION('center_axis',(1.,0.,0.));
#627=DIRECTION('ref_axis',(0.,1.,0.));
#628=DIRECTION('',(0.,1.,0.));
#629=DIRECTION('',(0.,0.,1.));
#630=DIRECTION('',(0.,1.,0.));
#631=DIRECTION('center_axis',(0.,0.,1.));
#632=DIRECTION('ref_axis',(1.11022302462516E-15,-1.,0.));
#633=DIRECTION('center_axis',(0.,0.,1.));
#634=DIRECTION('ref_axis',(1.11022302462516E-15,-1.,0.));
#635=DIRECTION('center_axis',(0.,0.,1.));
#636=DIRECTION('ref_axis',(1.11022302462516E-15,-1.,0.));
#637=DIRECTION('center_axis',(0.,0.,1.));
#638=DIRECTION('ref_axis',(1.,0.,0.));
#639=DIRECTION('center_axis',(0.,-1.,0.));
#640=DIRECTION('ref_axis',(1.,0.,0.));
#641=DIRECTION('',(1.,0.,0.));
#642=DIRECTION('',(0.,0.,1.));
#643=DIRECTION('',(1.,0.,0.));
#644=DIRECTION('',(0.,0.,1.));
#645=DIRECTION('center_axis',(0.,0.,1.));
#646=DIRECTION('ref_axis',(-1.,4.16333634234434E-16,0.));
#647=DIRECTION('center_axis',(0.,0.,1.));
#648=DIRECTION('ref_axis',(-1.,4.16333634234434E-16,0.));
#649=DIRECTION('center_axis',(0.,0.,1.));
#650=DIRECTION('ref_axis',(-1.,4.16333634234434E-16,0.));
#651=DIRECTION('',(0.,0.,1.));
#652=DIRECTION('center_axis',(-1.,0.,0.));
#653=DIRECTION('ref_axis',(0.,-1.,0.));
#654=DIRECTION('',(0.,-1.,0.));
#655=DIRECTION('',(0.,-1.,0.));
#656=DIRECTION('',(0.,0.,1.));
#657=DIRECTION('center_axis',(0.,0.,1.));
#658=DIRECTION('ref_axis',(1.38777878078145E-16,1.,0.));
#659=DIRECTION('center_axis',(0.,0.,1.));
#660=DIRECTION('ref_axis',(1.38777878078145E-16,1.,0.));
#661=DIRECTION('center_axis',(0.,0.,1.));
#662=DIRECTION('ref_axis',(1.38777878078145E-16,1.,0.));
#663=DIRECTION('',(0.,0.,1.));
#664=DIRECTION('center_axis',(0.,1.,0.));
#665=DIRECTION('ref_axis',(-1.,0.,0.));
#666=DIRECTION('',(-1.,0.,0.));
#667=DIRECTION('',(-1.,0.,0.));
#668=DIRECTION('',(0.,0.,1.));
#669=DIRECTION('center_axis',(0.,0.,1.));
#670=DIRECTION('ref_axis',(1.,0.,0.));
#671=DIRECTION('center_axis',(0.,0.,1.));
#672=DIRECTION('ref_axis',(1.,0.,0.));
#673=DIRECTION('center_axis',(0.,0.,1.));
#674=DIRECTION('ref_axis',(1.,0.,0.));
#675=DIRECTION('',(0.,0.,1.));
#676=DIRECTION('center_axis',(1.,0.,0.));
#677=DIRECTION('ref_axis',(0.,1.,0.));
#678=DIRECTION('',(0.,1.,0.));
#679=DIRECTION('',(0.,1.,0.));
#680=DIRECTION('',(0.,0.,1.));
#681=DIRECTION('center_axis',(0.,0.,1.));
#682=DIRECTION('ref_axis',(1.11022302462516E-15,-1.,0.));
#683=DIRECTION('center_axis',(0.,0.,1.));
#684=DIRECTION('ref_axis',(1.11022302462516E-15,-1.,0.));
#685=DIRECTION('center_axis',(0.,0.,1.));
#686=DIRECTION('ref_axis',(1.11022302462516E-15,-1.,0.));
#687=DIRECTION('center_axis',(0.,0.,1.));
#688=DIRECTION('ref_axis',(1.,0.,0.));
#689=DIRECTION('center_axis',(0.,0.,1.));
#690=DIRECTION('ref_axis',(1.,0.,0.));
#691=DIRECTION('center_axis',(0.,0.,1.));
#692=DIRECTION('ref_axis',(1.,0.,0.));
#693=DIRECTION('center_axis',(0.,0.,1.));
#694=DIRECTION('ref_axis',(1.11022302462516E-15,-1.,0.));
#695=DIRECTION('',(1.,0.,0.));
#696=DIRECTION('center_axis',(0.,0.,1.));
#697=DIRECTION('ref_axis',(-1.,0.,0.));
#698=DIRECTION('',(0.,-1.,0.));
#699=DIRECTION('center_axis',(0.,0.,1.));
#700=DIRECTION('ref_axis',(0.,1.,0.));
#701=DIRECTION('',(-1.,0.,0.));
#702=DIRECTION('center_axis',(0.,0.,1.));
#703=DIRECTION('ref_axis',(1.,-5.55111512312578E-16,0.));
#704=DIRECTION('',(0.,1.,0.));
#705=DIRECTION('center_axis',(-1.,0.,0.));
#706=DIRECTION('ref_axis',(0.,-1.,0.));
#707=DIRECTION('',(0.,0.,1.));
#708=DIRECTION('',(0.,-1.,0.));
#709=DIRECTION('',(0.,0.,1.));
#710=DIRECTION('center_axis',(0.,0.,1.));
#711=DIRECTION('ref_axis',(-1.,0.,0.));
#712=DIRECTION('',(0.,0.,1.));
#713=DIRECTION('center_axis',(0.,0.,1.));
#714=DIRECTION('ref_axis',(-1.,0.,0.));
#715=DIRECTION('center_axis',(0.,-1.,0.));
#716=DIRECTION('ref_axis',(1.,0.,0.));
#717=DIRECTION('',(0.,0.,1.));
#718=DIRECTION('',(1.,0.,0.));
#719=DIRECTION('center_axis',(0.,0.,1.));
#720=DIRECTION('ref_axis',(1.11022302462516E-15,-1.,0.));
#721=DIRECTION('',(0.,0.,1.));
#722=DIRECTION('center_axis',(0.,0.,1.));
#723=DIRECTION('ref_axis',(1.11022302462516E-15,-1.,0.));
#724=DIRECTION('center_axis',(0.,0.,1.));
#725=DIRECTION('ref_axis',(0.,1.,0.));
#726=DIRECTION('center_axis',(0.,0.,1.));
#727=DIRECTION('ref_axis',(0.,1.,0.));
#728=DIRECTION('',(0.,0.,1.));
#729=DIRECTION('center_axis',(0.,1.,0.));
#730=DIRECTION('ref_axis',(-1.,0.,0.));
#731=DIRECTION('',(-1.,0.,0.));
#732=DIRECTION('',(0.,0.,1.));
#733=DIRECTION('center_axis',(0.,0.,1.));
#734=DIRECTION('ref_axis',(1.,-5.55111512312578E-16,0.));
#735=DIRECTION('center_axis',(0.,0.,1.));
#736=DIRECTION('ref_axis',(1.,-5.55111512312578E-16,0.));
#737=DIRECTION('',(0.,0.,1.));
#738=DIRECTION('center_axis',(1.,0.,0.));
#739=DIRECTION('ref_axis',(0.,1.,0.));
#740=DIRECTION('',(0.,1.,0.));
#741=DIRECTION('center_axis',(0.,0.,1.));
#742=DIRECTION('ref_axis',(1.,0.,0.));
#743=CARTESIAN_POINT('',(0.,0.,0.));
#744=CARTESIAN_POINT('Origin',(1.39999997764826,0.999999977648258,0.));
#745=CARTESIAN_POINT('',(1.39999997764826,0.999999977648258,0.));
#746=CARTESIAN_POINT('',(4.49999988824129,0.999999977648258,0.));
#747=CARTESIAN_POINT('',(2.19999998882413,0.999999977648258,0.));
#748=CARTESIAN_POINT('',(1.39999997764826,0.999999977648258,0.5));
#749=CARTESIAN_POINT('',(1.39999997764826,0.999999977648258,0.));
#750=CARTESIAN_POINT('',(4.49999988824129,0.999999977648258,0.5));
#751=CARTESIAN_POINT('',(1.39999997764826,0.999999977648258,0.5));
#752=CARTESIAN_POINT('',(4.49999988824129,0.999999977648258,0.));
#753=CARTESIAN_POINT('Origin',(1.39999997764826,1.49999997764826,0.));
#754=CARTESIAN_POINT('',(0.899999977648258,1.49999997764826,0.));
#755=CARTESIAN_POINT('Origin',(1.39999997764826,1.49999997764826,0.));
#756=CARTESIAN_POINT('',(0.899999977648258,1.49999997764826,0.5));
#757=CARTESIAN_POINT('',(0.899999977648258,1.49999997764826,0.));
#758=CARTESIAN_POINT('Origin',(1.39999997764826,1.49999997764826,0.5));
#759=CARTESIAN_POINT('Origin',(0.899999977648258,2.49999993294478,0.));
#760=CARTESIAN_POINT('',(0.899999977648258,2.49999993294478,0.));
#761=CARTESIAN_POINT('',(0.899999977648258,2.24999996647239,0.));
#762=CARTESIAN_POINT('',(0.899999977648258,2.49999993294478,0.5));
#763=CARTESIAN_POINT('',(0.899999977648258,2.49999993294478,0.));
#764=CARTESIAN_POINT('',(0.899999977648258,2.49999993294478,0.5));
#765=CARTESIAN_POINT('Origin',(1.39999997764826,2.49999993294478,0.));
#766=CARTESIAN_POINT('',(1.39999997764826,2.99999993294477,0.));
#767=CARTESIAN_POINT('Origin',(1.39999997764826,2.49999993294478,0.));
#768=CARTESIAN_POINT('',(1.39999997764826,2.99999993294477,0.5));
#769=CARTESIAN_POINT('',(1.39999997764826,2.99999993294477,0.));
#770=CARTESIAN_POINT('Origin',(1.39999997764826,2.49999993294478,0.5));
#771=CARTESIAN_POINT('Origin',(4.49999988824129,2.99999993294477,0.));
#772=CARTESIAN_POINT('',(4.49999988824129,2.99999993294477,0.));
#773=CARTESIAN_POINT('',(3.74999994412065,2.99999993294477,0.));
#774=CARTESIAN_POINT('',(4.49999988824129,2.99999993294477,0.5));
#775=CARTESIAN_POINT('',(4.49999988824129,2.99999993294477,0.));
#776=CARTESIAN_POINT('',(4.49999988824129,2.99999993294477,0.5));
#777=CARTESIAN_POINT('Origin',(4.49999988824129,2.49999993294478,0.));
#778=CARTESIAN_POINT('',(4.99999988824129,2.49999993294477,0.));
#779=CARTESIAN_POINT('Origin',(4.49999988824129,2.49999993294478,0.));
#780=CARTESIAN_POINT('',(4.99999988824129,2.49999993294477,0.5));
#781=CARTESIAN_POINT('',(4.99999988824129,2.49999993294477,0.));
#782=CARTESIAN_POINT('Origin',(4.49999988824129,2.49999993294478,0.5));
#783=CARTESIAN_POINT('Origin',(4.99999988824129,1.49999997764826,0.));
#784=CARTESIAN_POINT('',(4.99999988824129,1.49999997764826,0.));
#785=CARTESIAN_POINT('',(4.99999988824129,1.74999998882413,0.));
#786=CARTESIAN_POINT('',(4.99999988824129,1.49999997764826,0.5));
#787=CARTESIAN_POINT('',(4.99999988824129,1.49999997764826,0.));
#788=CARTESIAN_POINT('',(4.99999988824129,1.49999997764826,0.5));
#789=CARTESIAN_POINT('Origin',(4.49999988824129,1.49999997764826,0.));
#790=CARTESIAN_POINT('Origin',(4.49999988824129,1.49999997764826,0.));
#791=CARTESIAN_POINT('Origin',(4.49999988824129,1.49999997764826,0.5));
#792=CARTESIAN_POINT('Origin',(2.94999993294477,1.99999995529652,0.5));
#793=CARTESIAN_POINT('Origin',(1.,0.,0.));
#794=CARTESIAN_POINT('',(1.,0.,0.));
#795=CARTESIAN_POINT('',(5.,0.,0.));
#796=CARTESIAN_POINT('',(1.,0.,0.));
#797=CARTESIAN_POINT('',(5.,0.,1.));
#798=CARTESIAN_POINT('',(5.,0.,0.));
#799=CARTESIAN_POINT('',(1.,0.,1.));
#800=CARTESIAN_POINT('',(1.,0.,1.));
#801=CARTESIAN_POINT('',(1.,0.,0.));
#802=CARTESIAN_POINT('Origin',(1.,1.,0.));
#803=CARTESIAN_POINT('',(-1.38777878078145E-16,1.,0.));
#804=CARTESIAN_POINT('Origin',(1.,1.,0.));
#805=CARTESIAN_POINT('',(0.,1.,1.));
#806=CARTESIAN_POINT('Origin',(1.,1.,1.));
#807=CARTESIAN_POINT('',(-1.38777878078145E-16,1.,0.));
#808=CARTESIAN_POINT('Origin',(-1.38777878078145E-16,3.,0.));
#809=CARTESIAN_POINT('',(-1.38777878078145E-16,3.,0.));
#810=CARTESIAN_POINT('',(-1.38777878078145E-16,3.,0.));
#811=CARTESIAN_POINT('',(0.,3.,1.));
#812=CARTESIAN_POINT('',(-1.38777878078145E-16,3.,1.));
#813=CARTESIAN_POINT('',(-1.38777878078145E-16,3.,0.));
#814=CARTESIAN_POINT('Origin',(1.,3.,0.));
#815=CARTESIAN_POINT('',(1.,4.,0.));
#816=CARTESIAN_POINT('Origin',(1.,3.,0.));
#817=CARTESIAN_POINT('',(1.,4.,1.));
#818=CARTESIAN_POINT('Origin',(1.,3.,1.));
#819=CARTESIAN_POINT('',(1.,4.,0.));
#820=CARTESIAN_POINT('Origin',(5.,4.,0.));
#821=CARTESIAN_POINT('',(5.,4.,0.));
#822=CARTESIAN_POINT('',(5.,4.,0.));
#823=CARTESIAN_POINT('',(5.,4.,1.));
#824=CARTESIAN_POINT('',(5.,4.,1.));
#825=CARTESIAN_POINT('',(5.,4.,0.));
#826=CARTESIAN_POINT('Origin',(5.,3.,0.));
#827=CARTESIAN_POINT('',(6.,3.,0.));
#828=CARTESIAN_POINT('Origin',(5.,3.,0.));
#829=CARTESIAN_POINT('',(6.,3.,1.));
#830=CARTESIAN_POINT('Origin',(5.,3.,1.));
#831=CARTESIAN_POINT('',(6.,3.,0.));
#832=CARTESIAN_POINT('Origin',(6.,1.,0.));
#833=CARTESIAN_POINT('',(6.,1.,0.));
#834=CARTESIAN_POINT('',(6.,1.,0.));
#835=CARTESIAN_POINT('',(6.,1.,1.));
#836=CARTESIAN_POINT('',(6.,1.,1.));
#837=CARTESIAN_POINT('',(6.,1.,0.));
#838=CARTESIAN_POINT('Origin',(5.,1.,0.));
#839=CARTESIAN_POINT('Origin',(5.,1.,0.));
#840=CARTESIAN_POINT('Origin',(5.,1.,1.));
#841=CARTESIAN_POINT('Origin',(3.,2.,1.));
#842=CARTESIAN_POINT('Origin',(3.,2.,0.));
#843=CARTESIAN_POINT('Origin',(2.94999993294477,1.99999995529652,0.5));
#844=CARTESIAN_POINT('',(4.49999988824129,0.999999977648258,0.5));
#845=CARTESIAN_POINT('',(4.99999988824129,1.49999997764826,0.5));
#846=CARTESIAN_POINT('Origin',(4.49999988824129,1.49999997764826,0.5));
#847=CARTESIAN_POINT('',(1.39999997764826,0.999999977648258,0.5));
#848=CARTESIAN_POINT('',(2.17499995529652,0.999999977648258,0.5));
#849=CARTESIAN_POINT('',(0.899999977648258,1.49999997764826,0.5));
#850=CARTESIAN_POINT('Origin',(1.39999997764826,1.49999997764826,0.5));
#851=CARTESIAN_POINT('',(0.899999977648258,2.49999993294478,0.5));
#852=CARTESIAN_POINT('',(0.899999977648258,2.24999994412065,0.5));
#853=CARTESIAN_POINT('',(1.39999997764826,2.99999993294477,0.5));
#854=CARTESIAN_POINT('Origin',(1.39999997764826,2.49999993294478,0.5));
#855=CARTESIAN_POINT('',(4.49999988824129,2.99999993294477,0.5));
#856=CARTESIAN_POINT('',(3.72499991059303,2.99999993294477,0.5));
#857=CARTESIAN_POINT('',(4.99999988824129,2.49999993294477,0.5));
#858=CARTESIAN_POINT('Origin',(4.49999988824129,2.49999993294478,0.5));
#859=CARTESIAN_POINT('',(4.99999988824129,1.74999996647239,0.5));
#860=CARTESIAN_POINT('Origin',(0.899999977648258,2.49999993294478,0.));
#861=CARTESIAN_POINT('',(0.899999977648258,1.49999997764826,4.));
#862=CARTESIAN_POINT('',(0.899999977648258,1.49999997764826,0.));
#863=CARTESIAN_POINT('',(0.899999977648258,2.49999993294478,4.));
#864=CARTESIAN_POINT('',(0.899999977648258,2.49999993294478,4.));
#865=CARTESIAN_POINT('',(0.899999977648258,2.49999993294478,0.));
#866=CARTESIAN_POINT('Origin',(1.39999997764826,1.49999997764826,0.));
#867=CARTESIAN_POINT('',(1.39999997764826,0.999999977648258,4.));
#868=CARTESIAN_POINT('',(1.39999997764826,0.999999977648258,0.));
#869=CARTESIAN_POINT('Origin',(1.39999997764826,1.49999997764826,4.));
#870=CARTESIAN_POINT('Origin',(1.39999997764826,0.999999977648258,0.));
#871=CARTESIAN_POINT('',(4.49999988824129,0.999999977648258,4.));
#872=CARTESIAN_POINT('',(4.49999988824129,0.999999977648258,0.));
#873=CARTESIAN_POINT('',(1.39999997764826,0.999999977648258,4.));
#874=CARTESIAN_POINT('Origin',(4.49999988824129,1.49999997764826,0.));
#875=CARTESIAN_POINT('',(4.99999988824129,1.49999997764826,4.));
#876=CARTESIAN_POINT('',(4.99999988824129,1.49999997764826,0.));
#877=CARTESIAN_POINT('Origin',(4.49999988824129,1.49999997764826,4.));
#878=CARTESIAN_POINT('Origin',(1.39999997764826,2.49999993294478,0.));
#879=CARTESIAN_POINT('',(1.39999997764826,2.99999993294477,4.));
#880=CARTESIAN_POINT('Origin',(1.39999997764826,2.49999993294478,4.));
#881=CARTESIAN_POINT('',(1.39999997764826,2.99999993294477,0.));
#882=CARTESIAN_POINT('Origin',(4.49999988824129,2.99999993294477,0.));
#883=CARTESIAN_POINT('',(4.49999988824129,2.99999993294477,4.));
#884=CARTESIAN_POINT('',(4.49999988824129,2.99999993294477,4.));
#885=CARTESIAN_POINT('',(4.49999988824129,2.99999993294477,0.));
#886=CARTESIAN_POINT('Origin',(4.49999988824129,2.49999993294478,0.));
#887=CARTESIAN_POINT('',(4.99999988824129,2.49999993294477,4.));
#888=CARTESIAN_POINT('Origin',(4.49999988824129,2.49999993294478,4.));
#889=CARTESIAN_POINT('',(4.99999988824129,2.49999993294477,0.));
#890=CARTESIAN_POINT('Origin',(4.99999988824129,1.49999997764826,0.));
#891=CARTESIAN_POINT('',(4.99999988824129,1.49999997764826,4.));
#892=CARTESIAN_POINT('Origin',(2.94999993294477,1.99999995529652,4.));
#893=UNCERTAINTY_MEASURE_WITH_UNIT(LENGTH_MEASURE(0.01),#897,
'DISTANCE_ACCURACY_VALUE',
'Maximum model space distance between geometric entities at asserted c
onnectivities');
#894=UNCERTAINTY_MEASURE_WITH_UNIT(LENGTH_MEASURE(0.01),#897,
'DISTANCE_ACCURACY_VALUE',
'Maximum model space distance between geometric entities at asserted c
onnectivities');
#895=(
GEOMETRIC_REPRESENTATION_CONTEXT(3)
GLOBAL_UNCERTAINTY_ASSIGNED_CONTEXT((#893))
GLOBAL_UNIT_ASSIGNED_CONTEXT((#897,#899,#900))
REPRESENTATION_CONTEXT('','3D')
);
#896=(
GEOMETRIC_REPRESENTATION_CONTEXT(3)
GLOBAL_UNCERTAINTY_ASSIGNED_CONTEXT((#894))
GLOBAL_UNIT_ASSIGNED_CONTEXT((#897,#899,#900))
REPRESENTATION_CONTEXT('','3D')
);
#897=(
LENGTH_UNIT()
NAMED_UNIT(*)
SI_UNIT(.MILLI.,.METRE.)
);
#898=(
LENGTH_UNIT()
NAMED_UNIT(*)
SI_UNIT($,.METRE.)
);
#899=(
NAMED_UNIT(*)
PLANE_ANGLE_UNIT()
SI_UNIT($,.RADIAN.)
);
#900=(
NAMED_UNIT(*)
SI_UNIT($,.STERADIAN.)
SOLID_ANGLE_UNIT()
);
#901=SHAPE_DEFINITION_REPRESENTATION(#902,#903);
#902=PRODUCT_DEFINITION_SHAPE('',$,#905);
#903=SHAPE_REPRESENTATION('',(#533),#895);
#904=PRODUCT_DEFINITION_CONTEXT('part definition',#909,'design');
#905=PRODUCT_DEFINITION('2026-08-25-02-05-47-490','button',#906,#904);
#906=PRODUCT_DEFINITION_FORMATION('',$,#911);
#907=PRODUCT_RELATED_PRODUCT_CATEGORY('button','button',(#911));
#908=APPLICATION_PROTOCOL_DEFINITION('international standard',
'automotive_design',2009,#909);
#909=APPLICATION_CONTEXT(
'Core Data for Automotive Mechanical Design Process');
#910=PRODUCT_CONTEXT('part definition',#909,'mechanical');
#911=PRODUCT('2026-08-25-02-05-47-490','button',$,(#910));
#912=PRESENTATION_STYLE_ASSIGNMENT((#913));
#913=SURFACE_STYLE_USAGE(.BOTH.,#914);
#914=SURFACE_SIDE_STYLE('',(#915));
#915=SURFACE_STYLE_FILL_AREA(#916);
#916=FILL_AREA_STYLE('\X2\94A2\X0\ - \X2\7F0E5149\X0\',(#917));
#917=FILL_AREA_STYLE_COLOUR('\X2\94A2\X0\ - \X2\7F0E5149\X0\',#918);
#918=COLOUR_RGB('\X2\94A2\X0\ - \X2\7F0E5149\X0\',0.627450980392157,0.627450980392157,
0.627450980392157);
ENDSEC;
END-ISO-10303-21;
