;TYPE=PLATED
;Layer: PTH_Through_Via
;EasyEDA Pro v3.2.186, 2026-08-27 16:02:27
;Gerber Generator version 0.3
M48
METRIC,LZ,0000.00000
;Hole size 1 = 0.30480 METRIC
T01C0.30480
;Hole size 2 = 0.30500 METRIC
T02C0.30500
%
G05
G90
T01
X5.1Y0.255
X5.1Y-0.765
X24.78587Y2.16188
X25.78587Y2.16188
X24.78613Y4.16162
X25.78587Y4.16162
X23.78588Y2.16188
X23.78588Y4.16187
X24.78587Y3.16187
X23.78638Y3.16137
X25.78587Y3.16187
T02
X29.784Y9.384
X29.121Y9.384
X29.121Y10.047
X28.46496Y10.047
X28.46496Y10.71314
X27.81247Y10.71314
X27.81247Y11.37401
X27.16833Y11.37401
X27.16833Y12.03487
X26.5493Y12.03487
X26.52Y12.6734
X26.0102Y13.1578
X24.174Y14.92994
X24.174Y14.28
X24.83335Y14.28
X24.83335Y13.62673
X25.5Y13.617
X29.427Y8.772
X28.866Y8.415
X28.17619Y8.41592
X27.693Y7.956
X27.897Y7.293
X31.263Y7.956
X30.651Y7.701
X30.039Y7.446
X29.58Y6.987
X29.019Y6.579
X31.263Y7.31369
X31.926Y7.293
X31.926Y6.65933
X32.56523Y6.65933
X32.56523Y6.02573
X33.201Y6.018
X33.201Y5.38625
X33.83676Y5.38625
X33.78576Y4.75792
X34.39528Y4.743
X22.94599Y-3.88175
X24.27997Y-3.88175
X24.276Y-5.253
X22.94599Y-5.253
X11.679Y3.468
X13.70198Y3.468
X13.70198Y1.44489
X11.6943Y1.44489
X12.6989Y3.46373
X12.6989Y2.448
X12.6989Y1.44489
X11.6692Y2.448
X13.71035Y2.448
X19.17539Y12.9368
X17.82462Y12.9368
X24.42162Y5.72904
X25.1825Y5.6927
X19.17539Y13.7872
X9.32225Y5.67425
X10.37595Y4.86583
X26.70623Y5.71416
X25.9445Y5.71296
X23.919Y11.118
X15.20003Y-13.33729
X7.70003Y-13.33729
X22.746Y5.712
X3.774Y4.437
X4.6654Y1.65793
X4.67807Y-2.0658
X3.76262Y-4.50271
X22.79375Y0.54396
X23.868Y-6.762
X23.562Y0.54396
X21.1245Y-6.783
X22.70003Y-13.33729
X24.378Y0.561
X22.44Y-6.783
X29.223Y5.253
X30.6Y-8.415
X7.05718Y2.29795
X7.06968Y-2.37768
X8.78439Y0.02019
X20.553Y1.938
X20.553Y1.14508
X16.422Y-7.038
X16.422Y-8.976
X12.342Y10.404
X12.342Y9.642
X9.44012Y1.122
X10.12838Y0.15664
X32.589Y-1.43391
X32.589Y-2.55
X32.589Y-4.692
X32.589Y-6.783
X32.589Y-8.007
X32.589Y-9.129
X27.24313Y2.856
X27.285Y2.094
X27.27498Y1.33206
X27.28639Y0.57014
X27.27731Y3.61796
X27.285Y4.386
X21.114Y12.138
X23.46Y10.29192
X21.267Y7.14
X22.185Y3.774
X15.861Y5.559
X23.559Y5.712
X28.81742Y-13.38219
X5.304Y-11.934
X21.17388Y-13.38219
X7.548Y14.433
X15.453Y13.617
X15.504Y11.475
X19.788Y9.027
X17.748Y-1.275
X17.85Y1.989
X25.245Y7.446
X27.948Y-1.785
X28.31755Y-7.50211
X19.278Y-9.639
X6.12Y-8.466
X2.295Y-9.435
X17.799Y3.009
X17.799Y4.131
X13.617Y-0.918
X17.748Y-3.825
X16.32896Y-5.50093
X32.538Y-5.61
X6.171Y10.302
X5.712Y12.852
X2.397Y0.306
X8.619Y-5.202
X31.518Y-11.118
X29.60974Y-6.426
X29.58Y-3.111
X29.886Y4.794
X21.726Y7.599
X14.09152Y8.84718
M30