G04 Layer: BottomLayer*
G04 EasyEDA Pro v3.2.186, 2026-08-27 16:02:27*
G04 Gerber Generator version 0.3*
G04 Scale: 100 percent, Rotated: No, Reflected: No*
G04 Dimensions in millimeters*
G04 Leading zeros omitted, absolute positions, 4 integers and 5 decimals*
G04 Generated by one-click*
G04 Object Configs: Pad,Via,Track,Text,Image,Dimension,BoardOutline,BoardCutout,CopperFilled,SolidRegion,FPCStiffener,Line,PlaneZone,ComponentProperty,ComponentSilkscreen,TearDrop*
G04 Layer Configs: 1,15,16,2,3,4,5,6,7,8,9,10,11,13,14,56*
G04 Copper Areas: 51*
%FSLAX45Y45*%
%MOMM*%
%ADD10C,0.127*%
%ADD11C,0.254*%
%ADD12C,1.524*%
%ADD13R,1.524X1.524*%
%ADD14R,1.35001X1.55001*%
%ADD15R,1.8X1.17*%
%ADD16R,1.35001X1.9*%
%ADD17R,1.0038X1.2*%
%ADD18R,1.0X1.2*%
%ADD19R,1.2X0.7*%
%ADD20O,2.1X0.9*%
%ADD21O,1.8X0.9*%
%ADD22C,1.8*%
%ADD23C,0.61*%
%ADD24C,0.508*%
%ADD25C,0.6096*%
%ADD26C,0.2032*%
G75*

G54D10*

G04 Copper Start*
G01X86051Y-354987D02*
G03X32004Y-377141I0J-77004D01*
G01X32004Y377141D01*
G03X86051Y354987I54047J54850D01*
G01X176051Y354987D01*
G03X176051Y508994I0J77004D01*
G01X86051Y508994D01*
G03X32004Y486840I0J-77004D01*
G01X32004Y1053466D01*
G02X154508Y1369149I467996J0D01*
G03X348746Y1252808I120492J-19149D01*
G03X289001Y1471198I-73746J97193D01*
G02X500000Y1521462I210999J-417732D01*
G01X2436998Y1521462D01*
G01X3467996Y490464D01*
G01X3467996Y-1046534D01*
G02X3461258Y-1125661I-467996J0D01*
G01X3461258Y-1078952D01*
G03X3429254Y-1046948I-32004J0D01*
G01X3294253Y-1046948D01*
G03X3262249Y-1078952I0J-32004D01*
G01X3262249Y-1233847D01*
G03X3106962Y-1318994I-37292J-116165D01*
G03X3200302Y-1469499I117995J-31018D01*
G02X3000000Y-1514530I-200302J422965D01*
G01X2844931Y-1514530D01*
G01X2844931Y-1467534D01*
G03X2812927Y-1435530I-32004J0D01*
G01X687303Y-1435530D01*
G03X655299Y-1467534I0J-32004D01*
G01X655299Y-1514530D01*
G01X500000Y-1514530D01*
G02X299695Y-1469497I0J467996D01*
G03X347688Y-1252001I-24662J119485D01*
G03X153539Y-1361153I-72655J-98011D01*
G02X32004Y-1046534I346461J314619D01*
G01X32004Y-486840D01*
G03X86051Y-508994I54047J54850D01*
G01X176051Y-508994D01*
G03X176051Y-354987I0J77004D01*
G01X86051Y-354987D01*
G01X107400Y903804D02*
G03X75396Y871800I0J-32004D01*
G01X75396Y719400D01*
G03X107400Y687396I32004J0D01*
G01X259800Y687396D01*
G03X291804Y719400I0J32004D01*
G01X291804Y871800D01*
G03X259800Y903804I-32004J0D01*
G01X233911Y903804D01*
G03X183600Y1107804I-50311J95796D01*
G03X133289Y903804I0J-108204D01*
G01X107400Y903804D01*
G01X335098Y-497306D02*
G03X430263Y-481746I41164J47035D01*
G03X489034Y-508994I58771J49755D01*
G01X609034Y-508994D01*
G03X609034Y-354987I0J77004D01*
G01X489034Y-354987D01*
G03X417555Y-403349I0J-77004D01*
G03X414616Y-400918I-41293J-46922D01*
G01X414616Y-314011D01*
G01X429371Y-299256D01*
G03X530001Y-341860I63681J10267D01*
G03X524583Y-232717I-36949J52872D01*
G03X477353Y-144809I-56777J26137D01*
G03X405788Y-214357I-9547J-61771D01*
G01X349142Y-271004D01*
G03X337908Y-298124I27120J-27120D01*
G01X337908Y-400918D01*
G03X335098Y-497306I38354J-49353D01*
G01X499441Y112649D02*
G03X487230Y224774I-32901J53144D01*
G03X506620Y352074I5822J64240D01*
G03X471939Y228064I-13568J-63060D01*
G03X458763Y227812I-5398J-62271D01*
G01X415754Y270820D01*
G01X415754Y394347D01*
G03X419970Y397934I-38354J49353D01*
G03X489034Y354987I69063J34057D01*
G01X609034Y354987D01*
G03X609034Y508994I0J77004D01*
G01X489034Y508994D01*
G03X428540Y479636I0J-77004D01*
G03X334279Y488947I-51140J-35937D01*
G03X339046Y394347I43121J-45247D01*
G01X339046Y254934D01*
G03X350280Y227813I38354J0D01*
G01X404522Y173571D01*
G03X499441Y112649I62018J-7778D01*
G01X553003Y63526D02*
G03X462608Y57892I-43003J-38026D01*
G03X459785Y55314I26992J-32392D01*
G01X429186Y24714D01*
G03X416836Y-5100I29815J-29814D01*
G01X416836Y-51000D01*
G03X429185Y-80814I42164J0D01*
G01X454685Y-106314D01*
G03X467497Y-115084I29815J29814D01*
G03X555514Y-111481I42503J38584D01*
G03X536348Y-25500I-45514J34981D01*
G03X553003Y63526I-26348J51000D01*
G01X853608Y90640D02*
G03X864841Y63520I38354J0D01*
G01X865246Y63115D01*
G03X832647Y44562I13192J-61096D01*
G01X750422Y44562D01*
G01X750422Y186110D01*
G03X705718Y292299I-44704J43684D01*
G03X661014Y186110I0J-62504D01*
G01X661014Y-195401D01*
G03X708758Y-300247I45954J-42367D01*
G03X750422Y-192840I-1790J62478D01*
G01X750422Y-44846D01*
G01X837081Y-44846D01*
G03X939535Y-11174I41358J46865D01*
G01X939818Y-11457D01*
G03X963355Y-22523I27120J27120D01*
G03X1068346Y-13070I49483J38186D01*
G01X1068346Y-981145D01*
G01X777781Y-1271711D01*
G03X725806Y-1377926I-7778J-62018D01*
G03X832021Y-1325952I44197J44197D01*
G01X856021Y-1301952D01*
G03X962391Y-1381109I58991J-31777D01*
G03X883235Y-1274738I-47380J47380D01*
G01X1133820Y-1024152D01*
G03X1145054Y-997032I-27120J27120D01*
G01X1145054Y417477D01*
G03X1133820Y444598I-38354J0D01*
G01X1125681Y452738D01*
G01X1602097Y452738D01*
G01X1492883Y343523D01*
G03X1481649Y316403I27120J-27120D01*
G01X1481649Y-1284376D01*
G03X1520003Y-1396233I38354J-49353D01*
G03X1558357Y-1284376I0J62504D01*
G01X1558357Y300516D01*
G01X1687678Y429838D01*
G01X2184485Y429838D01*
G03X2218500Y314896I34015J-52438D01*
G03X2252515Y429838I0J62504D01*
G01X2490782Y429838D01*
G03X2517903Y441071I0J38354D01*
G01X2586174Y509343D01*
G03X2632269Y521532I8276J61954D01*
G01X2632269Y250529D01*
G01X2584252Y202511D01*
G01X2188857Y202511D01*
G03X2161737Y191278I0J-38354D01*
G01X2111767Y141308D01*
G03X2103621Y154154I-56467J-26800D01*
G03X2072644Y253850I-48321J39646D01*
G03X1993282Y186022I-17344J-60050D01*
G01X1900680Y93420D01*
G03X1889446Y66300I27120J-27120D01*
G01X1889446Y-21031D01*
G03X1868860Y-31704I6534J-37793D01*
G01X1859880Y-40684D01*
G03X1848646Y-67804I27120J-27120D01*
G01X1848646Y-100644D01*
G03X1859880Y-127764I38354J0D01*
G01X1867139Y-135024D01*
G01X1859880Y-142284D01*
G03X1848646Y-169404I27120J-27120D01*
G01X1848646Y-202244D01*
G03X1859880Y-229364I38354J0D01*
G01X1868860Y-238344D01*
G03X1889446Y-249017I27120J27120D01*
G01X1889446Y-560413D01*
G01X1784413Y-665446D01*
G01X1691553Y-665446D01*
G03X1579696Y-703800I-49353J-38354D01*
G03X1691553Y-742154I62504J0D01*
G01X1800300Y-742154D01*
G03X1827420Y-730920I0J38354D01*
G01X1930246Y-628095D01*
G01X1930246Y-708313D01*
G01X1779313Y-859246D01*
G01X1691553Y-859246D01*
G03X1579696Y-897600I-49353J-38354D01*
G03X1691553Y-935954I62504J0D01*
G01X1795200Y-935954D01*
G03X1822320Y-924720I0J38354D01*
G01X1976146Y-770895D01*
G01X1976146Y-1078226D01*
G03X1987380Y-1105346I38354J0D01*
G01X2207985Y-1325952D01*
G03X2314200Y-1377926I62018J-7778D01*
G03X2262226Y-1271711I-44197J44197D01*
G01X2052854Y-1062339D01*
G01X2052854Y-746555D01*
G01X2078020Y-771720D01*
G03X2105140Y-782954I27120J27120D01*
G01X2177700Y-782954D01*
G03X2197253Y-777596I0J38354D01*
G01X2197253Y-918966D01*
G03X2229257Y-950970I32004J0D01*
G01X2364258Y-950970D01*
G03X2396262Y-918966I0J32004D01*
G01X2396262Y-737984D01*
G03X2447248Y-660300I-9462J61784D01*
G03X2364637Y-617757I-60448J-15900D01*
G01X2195654Y-448773D01*
G01X2195654Y-83565D01*
G01X2271597Y-7622D01*
G03X2317787Y5089I7778J62018D01*
G03X2397988Y7915I38413J49307D01*
G03X2498843Y42664I39812J48185D01*
G03X2421899Y116548I-61043J13436D01*
G01X2412644Y125803D01*
G01X2600139Y125803D01*
G03X2627259Y137037I0J38354D01*
G01X2672289Y182067D01*
G03X2678454Y171954I56211J27333D01*
G03X2678525Y94368I49044J-38748D01*
G03X2674631Y25551I50114J-37354D01*
G03X2736416Y-5004I54008J31463D01*
G01X2987303Y-255891D01*
G03X2913803Y-355297I-29303J-55209D01*
G03X3013209Y-281797I44197J44197D01*
G01X3070246Y-338834D01*
G01X3070246Y-762600D01*
G03X3074829Y-780780I38354J0D01*
G03X3014755Y-884624I-14829J-60720D01*
G03X3121361Y-829602I45245J43124D01*
G01X3196882Y-905122D01*
G03X3221480Y-962965I62018J-7777D01*
G03X3283921Y-970177I37420J50065D01*
G03X3304243Y-977458I20322J24724D01*
G01X3424243Y-977458D01*
G03X3456247Y-945454I0J32004D01*
G01X3456247Y-875454D01*
G03X3449225Y-855450I-32004J0D01*
G03X3456247Y-835446I-24982J20004D01*
G01X3456247Y-765446D01*
G03X3449235Y-745455I-32004J0D01*
G03X3456247Y-725464I-24992J19991D01*
G01X3456247Y-655464D01*
G03X3449225Y-635461I-32004J0D01*
G03X3456247Y-615457I-24982J20004D01*
G01X3456247Y-545457D01*
G03X3449225Y-525453I-32004J0D01*
G03X3456247Y-505449I-24982J20004D01*
G01X3456247Y-435449D01*
G03X3449225Y-415446I-32004J0D01*
G03X3456247Y-395442I-24982J20004D01*
G01X3456247Y-325442D01*
G03X3449235Y-305451I-32004J0D01*
G03X3456247Y-285460I-24992J19991D01*
G01X3456247Y-215460D01*
G03X3449225Y-195456I-32004J0D01*
G03X3456247Y-175453I-24982J20004D01*
G01X3456247Y-105453D01*
G03X3455993Y-101433I-32004J0D01*
G03X3466257Y-77947I-21740J23486D01*
G01X3466257Y39053D01*
G03X3434253Y71057I-32004J0D01*
G01X3254253Y71057D01*
G03X3222249Y39053I0J-32004D01*
G01X3222249Y-4871D01*
G01X2789990Y427388D01*
G03X2769561Y485725I-61490J11212D01*
G03X2708977Y497977I-41061J-47125D01*
G01X2708977Y522063D01*
G03X2733127Y571416I-38354J49353D01*
G03X2708977Y620769I-62504J0D01*
G01X2708977Y833077D01*
G03X2697744Y860197I-38354J0D01*
G01X2453918Y1104022D01*
G03X2436097Y1155997I-62018J7778D01*
G03X2384122Y1173818I-44197J-44197D01*
G01X2100050Y1457890D01*
G03X2072930Y1469124I-27120J-27120D01*
G01X1400170Y1469124D01*
G03X1373049Y1457890I0J-38354D01*
G01X905105Y989945D01*
G03X893871Y962825I27120J-27120D01*
G01X893871Y616778D01*
G03X898787Y514617I38354J-49353D01*
G01X864841Y480672D01*
G03X853608Y453552I27120J-27120D01*
G01X853608Y90640D01*
G01X1018009Y-1333729D02*
G03X1152019Y-1333729I67005J0D01*
G03X1018009Y-1333729I-67005J0D01*
G01X1598006Y-1333729D02*
G03X1732017Y-1333729I67005J0D01*
G03X1598006Y-1333729I-67005J0D01*
G01X1712296Y-382500D02*
G03X1837304Y-382500I62504J0D01*
G03X1712296Y-382500I-62504J0D01*
G01X1717396Y300900D02*
G03X1842404Y300900I62504J0D01*
G03X1717396Y300900I-62504J0D01*
G01X1768009Y-1333729D02*
G03X1902019Y-1333729I67005J0D01*
G03X1768009Y-1333729I-67005J0D01*
G01X2229257Y-99961D02*
G03X2197253Y-131965I0J-32004D01*
G01X2197253Y-321965D01*
G03X2229257Y-353969I32004J0D01*
G01X2364258Y-353969D01*
G03X2396262Y-321965I0J32004D01*
G01X2396262Y-131965D01*
G03X2364258Y-99961I-32004J0D01*
G01X2229257Y-99961D01*
G01X2344242Y-1081949D02*
G03X2312238Y-1113953I0J-32004D01*
G01X2312238Y-1233953D01*
G03X2344242Y-1265957I32004J0D01*
G01X2444242Y-1265957D01*
G03X2476246Y-1233953I0J32004D01*
G01X2476246Y-1113953D01*
G03X2444242Y-1081949I-32004J0D01*
G01X2344242Y-1081949D01*
G01X2348006Y-1333729D02*
G03X2482017Y-1333729I67005J0D01*
G03X2348006Y-1333729I-67005J0D01*
G01X2518009Y-1333729D02*
G03X2652019Y-1333729I67005J0D01*
G03X2518009Y-1333729I-67005J0D01*
G01X2714244Y-1081949D02*
G03X2682240Y-1113953I0J-32004D01*
G01X2682240Y-1233953D01*
G03X2714244Y-1265957I32004J0D01*
G01X2814244Y-1265957D01*
G03X2846248Y-1233953I0J32004D01*
G01X2846248Y-1113953D01*
G03X2814244Y-1081949I-32004J0D01*
G01X2714244Y-1081949D01*
G01X2870910Y560878D02*
G03X2928264Y463081I51390J-35578D01*
G03X3039991Y443822I60336J16319D01*
G03X2982636Y541619I-51390J35578D01*
G03X2870910Y560878I-60336J-16319D01*
G01X2898469Y-642600D02*
G03X3023478Y-642600I62504J0D01*
G03X2898469Y-642600I-62504J0D01*
G01X148200Y1362104D02*
G01X154373Y1368277D01*
G01X78175Y1256157D02*
G01X154291Y1332273D01*
G01X292727Y1470709D02*
G01X297309Y1475292D01*
G01X54378Y1196440D02*
G01X161982Y1304044D01*
G01X320956Y1463018D02*
G01X357026Y1499088D01*
G01X41597Y1147738D02*
G01X174577Y1280717D01*
G01X344283Y1450423D02*
G01X405728Y1511869D01*
G01X34859Y1105078D02*
G01X191154Y1261373D01*
G01X363627Y1433846D02*
G01X448388Y1518608D01*
G01X32185Y1066484D02*
G01X211516Y1245814D01*
G01X379186Y1413484D02*
G01X486983Y1521281D01*
G01X32004Y1030382D02*
G01X236015Y1234393D01*
G01X390608Y1388985D02*
G01X523085Y1521462D01*
G01X32004Y994461D02*
G01X88198Y1050655D01*
G01X132545Y1095002D02*
G01X265881Y1228338D01*
G01X396663Y1359119D02*
G01X559006Y1521462D01*
G01X32004Y958539D02*
G01X75422Y1001957D01*
G01X181243Y1107778D02*
G01X305277Y1231813D01*
G01X393187Y1319723D02*
G01X594927Y1521462D01*
G01X32004Y922618D02*
G01X79493Y970107D01*
G01X213093Y1103707D02*
G01X630848Y1521462D01*
G01X32004Y886697D02*
G01X90228Y944921D01*
G01X238279Y1092972D02*
G01X666769Y1521462D01*
G01X32004Y850776D02*
G01X105715Y924487D01*
G01X258713Y1077485D02*
G01X702690Y1521462D01*
G01X32004Y814855D02*
G01X75396Y858247D01*
G01X120952Y903804D02*
G01X125479Y908331D01*
G01X274869Y1057721D02*
G01X738611Y1521462D01*
G01X32004Y778934D02*
G01X75396Y822326D01*
G01X286409Y1033340D02*
G01X774532Y1521462D01*
G01X32004Y743013D02*
G01X75396Y786405D01*
G01X291758Y1002767D02*
G01X810453Y1521462D01*
G01X32004Y707092D02*
G01X75396Y750484D01*
G01X283889Y958978D02*
G01X846374Y1521462D01*
G01X32004Y671171D02*
G01X75716Y714884D01*
G01X264316Y903484D02*
G01X882295Y1521462D01*
G01X32004Y635250D02*
G01X89574Y692820D01*
G01X286380Y889626D02*
G01X918216Y1521462D01*
G01X32004Y599329D02*
G01X120071Y687396D01*
G01X291804Y859129D02*
G01X954137Y1521462D01*
G01X32004Y563408D02*
G01X155992Y687396D01*
G01X291804Y823208D02*
G01X990058Y1521462D01*
G01X32004Y527487D02*
G01X191913Y687396D01*
G01X291804Y787287D02*
G01X1025979Y1521462D01*
G01X32004Y491566D02*
G01X227834Y687396D01*
G01X291804Y751366D02*
G01X1061900Y1521462D01*
G01X85350Y508991D02*
G01X264036Y687677D01*
G01X291522Y715164D02*
G01X1097821Y1521462D01*
G01X121274Y508994D02*
G01X1133742Y1521462D01*
G01X157195Y508994D02*
G01X1169663Y1521462D01*
G01X32004Y347882D02*
G01X48748Y364626D01*
G01X191542Y507420D02*
G01X1205584Y1521462D01*
G01X32004Y311961D02*
G01X75725Y355682D01*
G01X217152Y497109D02*
G01X1241505Y1521462D01*
G01X32004Y276040D02*
G01X110951Y354987D01*
G01X236127Y480163D02*
G01X1277426Y1521462D01*
G01X32004Y240119D02*
G01X146872Y354987D01*
G01X248882Y456997D02*
G01X1313347Y1521462D01*
G01X32004Y204198D02*
G01X183118Y355311D01*
G01X252730Y424924D02*
G01X1349268Y1521462D01*
G01X32004Y168277D02*
G01X315408Y451681D01*
G01X369419Y505692D02*
G01X1385189Y1521462D01*
G01X32004Y132356D02*
G01X319588Y419940D01*
G01X401160Y501512D02*
G01X1421110Y1521462D01*
G01X32004Y96435D02*
G01X334147Y398578D01*
G01X422522Y486953D02*
G01X893871Y958302D01*
G01X1404693Y1469124D02*
G01X1457031Y1521462D01*
G01X32004Y60514D02*
G01X339046Y367556D01*
G01X479946Y508456D02*
G01X893871Y922381D01*
G01X1440614Y1469124D02*
G01X1492952Y1521462D01*
G01X32004Y24593D02*
G01X339046Y331635D01*
G01X516406Y508994D02*
G01X893871Y886460D01*
G01X1476535Y1469124D02*
G01X1528873Y1521462D01*
G01X32004Y-11328D02*
G01X339046Y295714D01*
G01X415754Y372422D02*
G01X428162Y384829D01*
G01X552327Y508994D02*
G01X893871Y850539D01*
G01X1512456Y1469124D02*
G01X1564794Y1521462D01*
G01X32004Y-47249D02*
G01X339046Y259793D01*
G01X415754Y336501D02*
G01X446833Y367580D01*
G01X588248Y508994D02*
G01X893871Y814618D01*
G01X1548377Y1469124D02*
G01X1600715Y1521462D01*
G01X32004Y-83170D02*
G01X346880Y231706D01*
G01X415754Y300580D02*
G01X438318Y323144D01*
G01X458922Y343748D02*
G01X472056Y356882D01*
G01X622908Y507734D02*
G01X893871Y778697D01*
G01X1584298Y1469124D02*
G01X1636637Y1521462D01*
G01X32004Y-119091D02*
G01X364594Y213499D01*
G01X418835Y267740D02*
G01X429438Y278342D01*
G01X503724Y352628D02*
G01X506082Y354987D01*
G01X648941Y497846D02*
G01X893871Y742776D01*
G01X1620219Y1469124D02*
G01X1672558Y1521462D01*
G01X32004Y-155012D02*
G01X382555Y195538D01*
G01X436795Y249779D02*
G01X439732Y252715D01*
G01X529351Y342334D02*
G01X542003Y354987D01*
G01X668241Y481225D02*
G01X893871Y706855D01*
G01X1656140Y1469124D02*
G01X1708479Y1521462D01*
G01X32004Y-190933D02*
G01X400515Y177578D01*
G01X454756Y231819D02*
G01X457881Y234943D01*
G01X547123Y324185D02*
G01X577924Y354987D01*
G01X681359Y458422D02*
G01X893871Y670934D01*
G01X1692061Y1469124D02*
G01X1744400Y1521462D01*
G01X32004Y-226854D02*
G01X406677Y147818D01*
G01X556918Y298060D02*
G01X614006Y355147D01*
G01X685877Y427018D02*
G01X893871Y635013D01*
G01X1727982Y1469124D02*
G01X1780321Y1521462D01*
G01X32004Y-262775D02*
G01X419460Y124681D01*
G01X507653Y212873D02*
G01X533748Y238969D01*
G01X543097Y248318D02*
G01X870240Y575460D01*
G01X1763903Y1469124D02*
G01X1816242Y1521462D01*
G01X32004Y-298696D02*
G01X439935Y109235D01*
G01X523099Y192399D02*
G01X874399Y543699D01*
G01X1799824Y1469124D02*
G01X1852163Y1521462D01*
G01X32004Y-334617D02*
G01X470007Y103386D01*
G01X528948Y162327D02*
G01X888948Y522327D01*
G01X1835745Y1469124D02*
G01X1888084Y1521462D01*
G01X32004Y-370538D02*
G01X644386Y241844D01*
G01X693669Y291126D02*
G01X853608Y451065D01*
G01X1871666Y1469124D02*
G01X1924005Y1521462D01*
G01X83432Y-355031D02*
G01X416836Y-21627D01*
G01X520415Y81951D02*
G01X646956Y208492D01*
G01X727020Y288557D02*
G01X853608Y415144D01*
G01X1907587Y1469124D02*
G01X1959926Y1521462D01*
G01X119398Y-354987D02*
G01X417280Y-57104D01*
G01X545217Y70832D02*
G01X660758Y186374D01*
G01X749139Y274754D02*
G01X853608Y379223D01*
G01X1943508Y1469124D02*
G01X1995847Y1521462D01*
G01X155319Y-354987D02*
G01X429338Y-80967D01*
G01X561388Y51083D02*
G01X661014Y150708D01*
G01X763626Y253320D02*
G01X853608Y343302D01*
G01X1979429Y1469124D02*
G01X2031768Y1521462D01*
G01X32004Y-514223D02*
G01X47549Y-498678D01*
G01X189971Y-356255D02*
G01X447299Y-98928D01*
G01X567227Y21001D02*
G01X661014Y114787D01*
G01X767660Y221434D02*
G01X853608Y307381D01*
G01X2015350Y1469124D02*
G01X2067689Y1521462D01*
G01X32004Y-550144D02*
G01X74088Y-508059D01*
G01X215992Y-366155D02*
G01X467197Y-114950D01*
G01X548356Y-33791D02*
G01X661014Y78866D01*
G01X750422Y168274D02*
G01X853608Y271460D01*
G01X2051271Y1469124D02*
G01X2103610Y1521462D01*
G01X32004Y-586065D02*
G01X109074Y-508994D01*
G01X235283Y-382785D02*
G01X405582Y-212486D01*
G01X473713Y-144355D02*
G01X488388Y-129680D01*
G01X563180Y-54888D02*
G01X661014Y42945D01*
G01X750422Y132353D02*
G01X853608Y235539D01*
G01X2085183Y1467114D02*
G01X2139531Y1521462D01*
G01X32004Y-621986D02*
G01X144995Y-508994D01*
G01X248391Y-405598D02*
G01X337908Y-316081D01*
G01X500613Y-153377D02*
G01X521186Y-132804D01*
G01X566304Y-87686D02*
G01X661014Y7024D01*
G01X750422Y96432D02*
G01X853608Y199618D01*
G01X2105965Y1451976D02*
G01X2175452Y1521462D01*
G01X32004Y-657907D02*
G01X181081Y-508830D01*
G01X252891Y-437020D02*
G01X337908Y-352002D01*
G01X519079Y-170832D02*
G01X661014Y-28897D01*
G01X750422Y60511D02*
G01X853608Y163697D01*
G01X1134162Y444252D02*
G01X1142648Y452738D01*
G01X2123926Y1434015D02*
G01X2211373Y1521462D01*
G01X32004Y-693828D02*
G01X337908Y-387923D01*
G01X529470Y-196362D02*
G01X661014Y-64818D01*
G01X770393Y44562D02*
G01X853608Y127776D01*
G01X1145016Y419184D02*
G01X1178569Y452738D01*
G01X2141886Y1416054D02*
G01X2247294Y1521462D01*
G01X32004Y-729749D02*
G01X313801Y-447952D01*
G01X414616Y-347137D02*
G01X438440Y-323313D01*
G01X527377Y-234376D02*
G01X661014Y-100739D01*
G01X806314Y44562D02*
G01X853608Y91855D01*
G01X1145054Y383301D02*
G01X1214490Y452738D01*
G01X2159847Y1398094D02*
G01X2283215Y1521462D01*
G01X32004Y-765670D02*
G01X320057Y-477616D01*
G01X414616Y-383058D02*
G01X455933Y-341741D01*
G01X545805Y-251869D02*
G01X661014Y-136660D01*
G01X750422Y-47252D02*
G01X752827Y-44846D01*
G01X859143Y61470D02*
G01X863079Y65405D01*
G01X1145054Y347380D02*
G01X1250411Y452738D01*
G01X2177807Y1380133D02*
G01X2319136Y1521462D01*
G01X32004Y-801591D02*
G01X335737Y-497858D01*
G01X477782Y-355813D02*
G01X481201Y-352394D01*
G01X556457Y-277137D02*
G01X661014Y-172581D01*
G01X750422Y-83173D02*
G01X788748Y-44846D01*
G01X1145054Y311459D02*
G01X1286332Y452738D01*
G01X2195768Y1362173D02*
G01X2355057Y1521462D01*
G01X32004Y-837512D02*
G01X359134Y-510382D01*
G01X514529Y-354987D02*
G01X523853Y-345663D01*
G01X549727Y-319789D02*
G01X646145Y-223371D01*
G01X750422Y-119094D02*
G01X824669Y-44846D01*
G01X1145054Y275538D02*
G01X1322253Y452738D01*
G01X2213728Y1344212D02*
G01X2390978Y1521462D01*
G01X32004Y-873433D02*
G01X395791Y-509646D01*
G01X550450Y-354987D02*
G01X647730Y-257707D01*
G01X750422Y-155015D02*
G01X851199Y-54238D01*
G01X1145054Y239617D02*
G01X1358174Y452738D01*
G01X2231689Y1326252D02*
G01X2426899Y1521462D01*
G01X32004Y-909354D02*
G01X445708Y-495650D01*
G01X586371Y-354987D02*
G01X661114Y-280244D01*
G01X750422Y-190936D02*
G01X880922Y-60436D01*
G01X1145054Y203696D02*
G01X1394096Y452738D01*
G01X2249649Y1308291D02*
G01X2449909Y1508551D01*
G01X32004Y-945275D02*
G01X470539Y-506740D01*
G01X621308Y-355971D02*
G01X682147Y-295132D01*
G01X764332Y-212947D02*
G01X956140Y-21139D01*
G01X1145054Y167775D02*
G01X1430017Y452738D01*
G01X2267610Y1290331D02*
G01X2467870Y1490591D01*
G01X32004Y-981196D02*
G01X504205Y-508994D01*
G01X647764Y-365436D02*
G01X713243Y-299956D01*
G01X769156Y-244043D02*
G01X977386Y-35814D01*
G01X1145054Y131854D02*
G01X1465938Y452738D01*
G01X2285570Y1272370D02*
G01X2485830Y1472630D01*
G01X32004Y-1017117D02*
G01X540126Y-508994D01*
G01X667381Y-381740D02*
G01X1003051Y-46069D01*
G01X1145054Y95933D02*
G01X1501859Y452738D01*
G01X2303531Y1254410D02*
G01X2503791Y1454670D01*
G01X32049Y-1052993D02*
G01X576047Y-508994D01*
G01X680846Y-404196D02*
G01X1051955Y-33087D01*
G01X1061588Y-23453D02*
G01X1068346Y-16696D01*
G01X1145054Y60012D02*
G01X1537780Y452738D01*
G01X2321491Y1236449D02*
G01X2521751Y1436709D01*
G01X33773Y-1087190D02*
G01X612027Y-508936D01*
G01X685979Y-434984D02*
G01X1068346Y-52617D01*
G01X1145054Y24091D02*
G01X1573701Y452738D01*
G01X2339452Y1218489D02*
G01X2539712Y1418749D01*
G01X37680Y-1119203D02*
G01X1068346Y-88538D01*
G01X1145054Y-11830D02*
G01X1482864Y325980D01*
G01X2357412Y1200528D02*
G01X2557672Y1400788D01*
G01X43441Y-1149364D02*
G01X1068346Y-124459D01*
G01X1145054Y-47751D02*
G01X1481649Y288844D01*
G01X2375373Y1182568D02*
G01X2575633Y1382828D01*
G01X50821Y-1177905D02*
G01X1068346Y-160380D01*
G01X1145054Y-83672D02*
G01X1481649Y252923D01*
G01X2402179Y1173453D02*
G01X2593593Y1364867D01*
G01X59649Y-1204998D02*
G01X1068346Y-196301D01*
G01X1145054Y-119593D02*
G01X1481649Y217002D01*
G01X1558357Y293710D02*
G01X1694485Y429838D01*
G01X2427690Y1163043D02*
G01X2611554Y1346907D01*
G01X69795Y-1230773D02*
G01X1068346Y-232222D01*
G01X1145054Y-155514D02*
G01X1481649Y181081D01*
G01X1558357Y257789D02*
G01X1730406Y429838D01*
G01X2445130Y1144562D02*
G01X2629514Y1328946D01*
G01X81162Y-1255327D02*
G01X1068346Y-268143D01*
G01X1145054Y-191435D02*
G01X1481649Y145160D01*
G01X1558357Y221868D02*
G01X1766327Y429838D01*
G01X2454130Y1117641D02*
G01X2647475Y1310986D01*
G01X93673Y-1278737D02*
G01X1068346Y-304064D01*
G01X1145054Y-227356D02*
G01X1481649Y109239D01*
G01X1558357Y185947D02*
G01X1802248Y429838D01*
G01X2465175Y1092765D02*
G01X2665435Y1293025D01*
G01X107271Y-1301060D02*
G01X1068346Y-339985D01*
G01X1145054Y-263277D02*
G01X1481649Y73318D01*
G01X1558357Y150026D02*
G01X1718016Y309685D01*
G01X1771115Y362784D02*
G01X1838169Y429838D01*
G01X2483136Y1074805D02*
G01X2683396Y1275065D01*
G01X121912Y-1322340D02*
G01X1068346Y-375906D01*
G01X1145054Y-299198D02*
G01X1481649Y37397D01*
G01X1558357Y114105D02*
G01X1721887Y277635D01*
G01X1803165Y358913D02*
G01X1874090Y429838D01*
G01X2501096Y1056844D02*
G01X2701356Y1257104D01*
G01X137564Y-1342609D02*
G01X155742Y-1324432D01*
G01X249453Y-1230720D02*
G01X1068346Y-411827D01*
G01X1145054Y-335119D02*
G01X1481649Y1476D01*
G01X1558357Y78184D02*
G01X1736293Y256120D01*
G01X1824680Y344507D02*
G01X1910011Y429838D01*
G01X2519057Y1038884D02*
G01X2719317Y1239144D01*
G01X287452Y-1228642D02*
G01X1068346Y-447748D01*
G01X1145054Y-371040D02*
G01X1481649Y-34445D01*
G01X1558357Y42263D02*
G01X1758330Y242236D01*
G01X1838564Y322470D02*
G01X1945932Y429838D01*
G01X2537017Y1020923D02*
G01X2737277Y1221183D01*
G01X316679Y-1235336D02*
G01X1068346Y-483669D01*
G01X1145054Y-406961D02*
G01X1481649Y-70366D01*
G01X1558357Y6342D02*
G01X1791496Y239481D01*
G01X1841319Y289304D02*
G01X1981853Y429838D01*
G01X2554978Y1002963D02*
G01X2755238Y1203223D01*
G01X340730Y-1247207D02*
G01X1068346Y-519590D01*
G01X1145054Y-442882D02*
G01X1481649Y-106287D01*
G01X1558357Y-29579D02*
G01X2017774Y429838D01*
G01X2572938Y985002D02*
G01X2773198Y1185262D01*
G01X360707Y-1263150D02*
G01X1068346Y-555511D01*
G01X1145054Y-478803D02*
G01X1481649Y-142208D01*
G01X1558357Y-65500D02*
G01X2053695Y429838D01*
G01X2590899Y967042D02*
G01X2791159Y1167302D01*
G01X376904Y-1282875D02*
G01X1068346Y-591432D01*
G01X1145054Y-514724D02*
G01X1481649Y-178129D01*
G01X1558357Y-101421D02*
G01X2089616Y429838D01*
G01X2608860Y949081D02*
G01X2809119Y1149341D01*
G01X389065Y-1306634D02*
G01X1068346Y-627353D01*
G01X1145054Y-550645D02*
G01X1481649Y-214050D01*
G01X1558357Y-137342D02*
G01X2125537Y429838D01*
G01X2626820Y931121D02*
G01X2827080Y1131381D01*
G01X396166Y-1335455D02*
G01X1068346Y-663274D01*
G01X1145054Y-586566D02*
G01X1481649Y-249971D01*
G01X1558357Y-173263D02*
G01X2161458Y429838D01*
G01X2644781Y913160D02*
G01X2845040Y1113420D01*
G01X394925Y-1372616D02*
G01X1068346Y-699195D01*
G01X1145054Y-622487D02*
G01X1481649Y-285892D01*
G01X1558357Y-209184D02*
G01X2157212Y389671D01*
G01X2662741Y895200D02*
G01X2863001Y1095460D01*
G01X323494Y-1479969D02*
G01X1068346Y-735116D01*
G01X1145054Y-658408D02*
G01X1481649Y-321813D01*
G01X1558357Y-245105D02*
G01X1992945Y189483D01*
G01X2059617Y256155D02*
G01X2159691Y356228D01*
G01X2680702Y877239D02*
G01X2880961Y1077499D01*
G01X349659Y-1489724D02*
G01X1068346Y-771037D01*
G01X1145054Y-694329D02*
G01X1481649Y-357734D01*
G01X1558357Y-281026D02*
G01X1889446Y50063D01*
G01X2087033Y247650D02*
G01X2173453Y334070D01*
G01X2261830Y422447D02*
G01X2269221Y429838D01*
G01X2698647Y859263D02*
G01X2898922Y1059539D01*
G01X377179Y-1498125D02*
G01X1068346Y-806958D01*
G01X1145054Y-730250D02*
G01X1481649Y-393655D01*
G01X1558357Y-316947D02*
G01X1889446Y14142D01*
G01X2105857Y230553D02*
G01X2194848Y319544D01*
G01X2276356Y401052D02*
G01X2305142Y429838D01*
G01X2708973Y833668D02*
G01X2916882Y1041578D01*
G01X406194Y-1505032D02*
G01X1068346Y-842879D01*
G01X1145054Y-766171D02*
G01X1481649Y-429576D01*
G01X1558357Y-352868D02*
G01X1849063Y-62162D01*
G01X2116703Y205478D02*
G01X2226656Y315430D01*
G01X2280470Y369244D02*
G01X2341063Y429838D01*
G01X2708977Y797752D02*
G01X2934843Y1023618D01*
G01X436891Y-1510255D02*
G01X1068346Y-878800D01*
G01X1145054Y-802092D02*
G01X1481649Y-465497D01*
G01X1558357Y-388789D02*
G01X1848646Y-98500D01*
G01X2109057Y161911D02*
G01X2376984Y429838D01*
G01X2708977Y761831D02*
G01X2952804Y1005657D01*
G01X469531Y-1513537D02*
G01X1068346Y-914721D01*
G01X1145054Y-838013D02*
G01X1481649Y-501418D01*
G01X1558357Y-424710D02*
G01X1857688Y-125379D01*
G01X2185425Y202358D02*
G01X2412905Y429838D01*
G01X2708977Y725910D02*
G01X2970764Y987697D01*
G01X504459Y-1514530D02*
G01X715061Y-1303927D01*
G01X740201Y-1278787D02*
G01X1068346Y-950642D01*
G01X1145054Y-873934D02*
G01X1481649Y-537339D01*
G01X1558357Y-460631D02*
G01X1848646Y-170342D01*
G01X2221500Y202511D02*
G01X2448826Y429838D01*
G01X2708977Y689989D02*
G01X2988725Y969736D01*
G01X540380Y-1514530D02*
G01X708748Y-1346162D01*
G01X1145054Y-909855D02*
G01X1481649Y-573260D01*
G01X1558357Y-496552D02*
G01X1848838Y-206072D01*
G01X2257421Y202511D02*
G01X2484747Y429838D01*
G01X2708977Y654068D02*
G01X3006685Y951776D01*
G01X576301Y-1514530D02*
G01X719828Y-1371002D01*
G01X1145054Y-945776D02*
G01X1481649Y-609182D01*
G01X1558357Y-532474D02*
G01X1712431Y-378400D01*
G01X1770700Y-320130D02*
G01X1860673Y-230158D01*
G01X2293342Y202511D02*
G01X2599857Y509027D01*
G01X2710433Y619602D02*
G01X3024646Y933815D01*
G01X612222Y-1514530D02*
G01X655299Y-1471452D01*
G01X691222Y-1435530D02*
G01X738841Y-1387911D01*
G01X1145054Y-981697D02*
G01X1481649Y-645103D01*
G01X1558357Y-568395D02*
G01X1718052Y-408700D01*
G01X1801000Y-325752D02*
G01X1880456Y-246296D01*
G01X2329263Y202511D02*
G01X2632269Y505518D01*
G01X2726392Y599640D02*
G01X3042606Y915854D01*
G01X648143Y-1514530D02*
G01X655299Y-1507373D01*
G01X727143Y-1435530D02*
G01X766536Y-1396137D01*
G01X832411Y-1330262D02*
G01X852155Y-1310517D01*
G01X891800Y-1270873D02*
G01X1481649Y-681024D01*
G01X1558357Y-604316D02*
G01X1733371Y-429302D01*
G01X1821602Y-341071D02*
G01X1889446Y-273227D01*
G01X2365184Y202511D02*
G01X2632269Y469597D01*
G01X2733120Y570447D02*
G01X3060567Y897894D01*
G01X763064Y-1435530D02*
G01X849737Y-1348857D01*
G01X930140Y-1268454D02*
G01X1481649Y-716945D01*
G01X1558357Y-640237D02*
G01X1756369Y-442225D01*
G01X1834525Y-364069D02*
G01X1889446Y-309148D01*
G01X2401105Y202511D02*
G01X2632269Y433676D01*
G01X2708977Y510384D02*
G01X3078527Y879933D01*
G01X798985Y-1435530D02*
G01X861056Y-1373459D01*
G01X954741Y-1279773D02*
G01X1481649Y-752866D01*
G01X1558357Y-676158D02*
G01X1791893Y-442621D01*
G01X1834921Y-399593D02*
G01X1889446Y-345069D01*
G01X2437026Y202511D02*
G01X2632269Y397755D01*
G01X2735253Y500738D02*
G01X3096488Y861973D01*
G01X834906Y-1435530D02*
G01X879738Y-1390698D01*
G01X971980Y-1298455D02*
G01X1481649Y-788787D01*
G01X1558357Y-712079D02*
G01X1581485Y-688950D01*
G01X1627350Y-643086D02*
G01X1889446Y-380990D01*
G01X2472947Y202511D02*
G01X2632269Y361834D01*
G01X2761880Y491444D02*
G01X3114448Y844012D01*
G01X870827Y-1435530D02*
G01X906204Y-1400153D01*
G01X981435Y-1324921D02*
G01X1481649Y-824708D01*
G01X1558357Y-748000D02*
G01X1582875Y-723481D01*
G01X1661881Y-644475D02*
G01X1889446Y-416911D01*
G01X2195654Y-110703D02*
G01X2302808Y-3549D01*
G01X2423242Y116885D02*
G01X2432160Y125803D01*
G01X2508868Y202511D02*
G01X2632269Y325913D01*
G01X2780153Y473796D02*
G01X3132409Y826052D01*
G01X906748Y-1435530D02*
G01X954194Y-1388084D01*
G01X969367Y-1372911D02*
G01X1018797Y-1323481D01*
G01X1074765Y-1267512D02*
G01X1481649Y-860629D01*
G01X1558357Y-783921D02*
G01X1596181Y-746097D01*
G01X1684497Y-657781D02*
G01X1889446Y-452832D01*
G01X2195654Y-146624D02*
G01X2197253Y-145025D01*
G01X2242317Y-99961D02*
G01X2337145Y-5132D01*
G01X2457647Y115369D02*
G01X2468081Y125803D01*
G01X2544789Y202511D02*
G01X2632269Y289992D01*
G01X2790291Y448013D02*
G01X2860229Y517952D01*
G01X2929648Y587371D02*
G01X3150369Y808091D01*
G01X942669Y-1435530D02*
G01X1021918Y-1356281D01*
G01X1107566Y-1270633D02*
G01X1481649Y-896550D01*
G01X1558357Y-819842D02*
G01X1617139Y-761060D01*
G01X1712753Y-665446D02*
G01X1889446Y-488753D01*
G01X2195654Y-182545D02*
G01X2197253Y-180946D01*
G01X2278238Y-99961D02*
G01X2372164Y-6035D01*
G01X2480212Y102013D02*
G01X2504002Y125803D01*
G01X2580710Y202511D02*
G01X2632269Y254071D01*
G01X2797788Y419590D02*
G01X2869714Y491515D01*
G01X2956085Y577886D02*
G01X3168330Y790131D01*
G01X978590Y-1435530D02*
G01X1035379Y-1378741D01*
G01X1130026Y-1284094D02*
G01X1481649Y-932471D01*
G01X1558357Y-855763D02*
G01X1648094Y-766025D01*
G01X1748674Y-665446D02*
G01X1889446Y-524674D01*
G01X2195654Y-218466D02*
G01X2197253Y-216867D01*
G01X2314159Y-99961D02*
G01X2412893Y-1227D01*
G01X2495127Y81007D02*
G01X2539923Y125803D01*
G01X2815749Y401629D02*
G01X2887500Y473380D01*
G01X2974220Y560100D02*
G01X3186290Y772170D01*
G01X1014511Y-1435530D02*
G01X1055942Y-1394099D01*
G01X1145384Y-1304657D02*
G01X1481649Y-968392D01*
G01X1558357Y-891684D02*
G01X1707887Y-742154D01*
G01X2195654Y-254387D02*
G01X2197253Y-252788D01*
G01X2350080Y-99961D02*
G01X2443939Y-6102D01*
G01X2500002Y49961D02*
G01X2575844Y125803D01*
G01X2833709Y383669D02*
G01X2913464Y463424D01*
G01X2991860Y541819D02*
G01X3204251Y754210D01*
G01X1050432Y-1435530D02*
G01X1085228Y-1400734D01*
G01X1152019Y-1333943D02*
G01X1481649Y-1004313D01*
G01X1558357Y-927605D02*
G01X1580227Y-905734D01*
G01X1650334Y-835627D02*
G01X1743808Y-742154D01*
G01X2195654Y-290308D02*
G01X2197253Y-288709D01*
G01X2381168Y-104794D02*
G01X2614593Y128632D01*
G01X2851670Y365708D02*
G01X2934339Y448377D01*
G01X3019623Y533662D02*
G01X3222211Y736249D01*
G01X1086353Y-1435530D02*
G01X1481649Y-1040234D01*
G01X1558357Y-963526D02*
G01X1589962Y-931921D01*
G01X1676521Y-845362D02*
G01X1779729Y-742154D01*
G01X2195654Y-326229D02*
G01X2197355Y-324527D01*
G01X2395730Y-126153D02*
G01X2665944Y144061D01*
G01X2869631Y347748D02*
G01X2951202Y429319D01*
G01X3038681Y516798D02*
G01X3240172Y718289D01*
G01X1122274Y-1435530D02*
G01X1481649Y-1076155D01*
G01X1558357Y-999447D02*
G01X1607931Y-949873D01*
G01X1698558Y-859246D02*
G01X1823346Y-734458D01*
G01X2195654Y-362150D02*
G01X2210158Y-347646D01*
G01X2396262Y-161542D02*
G01X2668998Y111194D01*
G01X2887591Y329787D02*
G01X2975986Y418182D01*
G01X3049818Y492014D02*
G01X3258132Y700328D01*
G01X1158195Y-1435530D02*
G01X1481649Y-1112076D01*
G01X1558357Y-1035368D02*
G01X1634142Y-959582D01*
G01X1734479Y-859246D02*
G01X1930246Y-663479D01*
G01X2195654Y-398071D02*
G01X2239756Y-353969D01*
G01X2396262Y-197463D02*
G01X2668802Y75077D01*
G01X2905552Y311827D02*
G01X3017930Y424205D01*
G01X3043796Y450071D02*
G01X3276093Y682368D01*
G01X1194116Y-1435530D02*
G01X1481649Y-1147997D01*
G01X1558357Y-1071289D02*
G01X1693692Y-935954D01*
G01X1770400Y-859246D02*
G01X1930246Y-699400D01*
G01X2195654Y-433992D02*
G01X2275677Y-353969D01*
G01X2396262Y-233384D02*
G01X2668755Y39109D01*
G01X2923512Y293866D02*
G01X3294053Y664407D01*
G01X1230037Y-1435530D02*
G01X1481649Y-1183918D01*
G01X1558357Y-1107210D02*
G01X1729613Y-935954D01*
G01X2206224Y-459343D02*
G01X2311598Y-353969D01*
G01X2396262Y-269305D02*
G01X2681517Y15950D01*
G01X2941473Y275906D02*
G01X3312014Y646447D01*
G01X1265958Y-1435530D02*
G01X1481649Y-1219839D01*
G01X1558357Y-1143131D02*
G01X1765534Y-935954D01*
G01X2224184Y-477304D02*
G01X2347519Y-353969D01*
G01X2396262Y-305226D02*
G01X2701972Y484D01*
G01X2959433Y257945D02*
G01X3329974Y628486D01*
G01X1301879Y-1435530D02*
G01X1481649Y-1255760D01*
G01X1558357Y-1179052D02*
G01X1802077Y-935332D01*
G01X2242145Y-495264D02*
G01X2732010Y-5399D01*
G01X2977394Y239985D02*
G01X3347935Y610526D01*
G01X1337801Y-1435530D02*
G01X1461438Y-1311893D01*
G01X1558357Y-1214973D02*
G01X1976146Y-797184D01*
G01X2260105Y-513225D02*
G01X2752371Y-20959D01*
G01X2995354Y222024D02*
G01X3365895Y592565D01*
G01X1373722Y-1435530D02*
G01X1459569Y-1349682D01*
G01X1558357Y-1250894D02*
G01X1976146Y-833105D01*
G01X2052854Y-756397D02*
G01X2057775Y-751476D01*
G01X2278066Y-531185D02*
G01X2770332Y-38919D01*
G01X3013315Y204064D02*
G01X3383856Y574605D01*
G01X1409643Y-1435530D02*
G01X1471734Y-1373438D01*
G01X1559712Y-1285460D02*
G01X1976146Y-869026D01*
G01X2052854Y-792318D02*
G01X2075736Y-769436D01*
G01X2296026Y-549146D02*
G01X2788292Y-56880D01*
G01X3031275Y186103D02*
G01X3401816Y556644D01*
G01X1445564Y-1435530D02*
G01X1491657Y-1389436D01*
G01X1575710Y-1305383D02*
G01X1976146Y-904947D01*
G01X2052854Y-828239D02*
G01X2098686Y-782407D01*
G01X2313987Y-567106D02*
G01X2806253Y-74840D01*
G01X3049236Y168143D02*
G01X3419777Y538684D01*
G01X1481485Y-1435530D02*
G01X1520786Y-1396228D01*
G01X1582502Y-1334512D02*
G01X1600168Y-1316846D01*
G01X1648128Y-1268886D02*
G01X1976146Y-940868D01*
G01X2052854Y-864160D02*
G01X2134060Y-782954D01*
G01X2331947Y-585067D02*
G01X2824213Y-92801D01*
G01X3067196Y150182D02*
G01X3437737Y520723D01*
G01X1517406Y-1435530D02*
G01X1600632Y-1352303D01*
G01X1683585Y-1269350D02*
G01X1976146Y-976789D01*
G01X2052854Y-900081D02*
G01X2169981Y-782954D01*
G01X2349908Y-603027D02*
G01X2842174Y-110761D01*
G01X3085157Y132222D02*
G01X3455698Y502763D01*
G01X1553327Y-1435530D02*
G01X1612948Y-1375908D01*
G01X1707191Y-1281665D02*
G01X1976146Y-1012710D01*
G01X2052854Y-936002D02*
G01X2197253Y-791604D01*
G01X2373792Y-615064D02*
G01X2860134Y-128722D01*
G01X3103117Y114261D02*
G01X3467996Y479140D01*
G01X1589248Y-1435530D02*
G01X1632474Y-1392304D01*
G01X1723586Y-1301191D02*
G01X1976146Y-1048631D01*
G01X2052854Y-971923D02*
G01X2197253Y-827525D01*
G01X2407540Y-617237D02*
G01X2878095Y-146682D01*
G01X3121078Y96300D02*
G01X3467996Y443219D01*
G01X1625169Y-1435530D02*
G01X1660141Y-1400557D01*
G01X1731840Y-1328859D02*
G01X1976598Y-1084100D01*
G01X2052854Y-1007844D02*
G01X2197253Y-863446D01*
G01X2429831Y-630867D02*
G01X2896055Y-164643D01*
G01X3139038Y78340D02*
G01X3467996Y407298D01*
G01X1661090Y-1435530D02*
G01X1768221Y-1328398D01*
G01X1829683Y-1266936D02*
G01X1989326Y-1107293D01*
G01X2052854Y-1043765D02*
G01X2197253Y-899367D01*
G01X2444485Y-652134D02*
G01X2914016Y-182603D01*
G01X3156999Y60379D02*
G01X3467996Y371377D01*
G01X1697011Y-1435530D02*
G01X1773127Y-1359413D01*
G01X1860698Y-1271842D02*
G01X2007287Y-1125254D01*
G01X2061527Y-1071013D02*
G01X2200187Y-932353D01*
G01X2448854Y-683686D02*
G01X2931976Y-200564D01*
G01X3174959Y42419D02*
G01X3467996Y335456D01*
G01X1732932Y-1435530D02*
G01X1787493Y-1380968D01*
G01X1882253Y-1286209D02*
G01X2025247Y-1143214D01*
G01X2079488Y-1088973D02*
G01X2219134Y-949327D01*
G01X2396262Y-772200D02*
G01X2949937Y-218524D01*
G01X3192920Y24458D02*
G01X3467996Y299535D01*
G01X1768853Y-1435530D02*
G01X1808932Y-1395450D01*
G01X1896735Y-1307648D02*
G01X2043208Y-1161175D01*
G01X2097449Y-1106934D02*
G01X2253412Y-950970D01*
G01X2396262Y-808121D02*
G01X2895537Y-308846D01*
G01X2955746Y-248637D02*
G01X2967897Y-236485D01*
G01X3210880Y6498D02*
G01X3222249Y17867D01*
G01X3275439Y71057D02*
G01X3467996Y263614D01*
G01X1804774Y-1435530D02*
G01X1839736Y-1400568D01*
G01X1901852Y-1338451D02*
G01X2061168Y-1179135D01*
G01X2115409Y-1124894D02*
G01X2289333Y-950970D01*
G01X2396262Y-844042D02*
G01X2901816Y-338488D01*
G01X2985388Y-254916D02*
G01X2985858Y-254445D01*
G01X3311360Y71057D02*
G01X3467996Y227693D01*
G01X1840695Y-1435530D02*
G01X2079129Y-1197096D01*
G01X2133370Y-1142855D02*
G01X2325254Y-950970D01*
G01X2396262Y-879963D02*
G01X2917509Y-358715D01*
G01X3347281Y71057D02*
G01X3467996Y191772D01*
G01X1876616Y-1435530D02*
G01X2097089Y-1215056D01*
G01X2151330Y-1160815D02*
G01X2361175Y-950970D01*
G01X2396262Y-915884D02*
G01X2940920Y-371225D01*
G01X3018125Y-294020D02*
G01X3021779Y-290366D01*
G01X3383202Y71057D02*
G01X3467996Y155851D01*
G01X1912537Y-1435530D02*
G01X2115050Y-1233017D01*
G01X2169291Y-1178776D02*
G01X2977622Y-370444D01*
G01X3017344Y-330722D02*
G01X3039739Y-308327D01*
G01X3419123Y71057D02*
G01X3467996Y119930D01*
G01X1948458Y-1435530D02*
G01X2133010Y-1250977D01*
G01X2187251Y-1196736D02*
G01X3057700Y-326287D01*
G01X3450572Y66584D02*
G01X3467996Y84009D01*
G01X1984379Y-1435530D02*
G01X2150971Y-1268938D01*
G01X2205212Y-1214697D02*
G01X2313030Y-1106878D01*
G01X2337167Y-1082741D02*
G01X3070246Y-349662D01*
G01X3465568Y45659D02*
G01X3467996Y48088D01*
G01X2020300Y-1435530D02*
G01X2168931Y-1286898D01*
G01X2223172Y-1232657D02*
G01X2312238Y-1143591D01*
G01X2373880Y-1081949D02*
G01X3070246Y-385583D01*
G01X3466257Y10427D02*
G01X3467996Y12167D01*
G01X2056221Y-1435530D02*
G01X2186892Y-1304859D01*
G01X2241133Y-1250618D02*
G01X2312238Y-1179512D01*
G01X2409801Y-1081949D02*
G01X3070246Y-421504D01*
G01X3466257Y-25494D02*
G01X3467996Y-23754D01*
G01X2092142Y-1435530D02*
G01X2204852Y-1322819D01*
G01X2259093Y-1268578D02*
G01X2312238Y-1215433D01*
G01X2445689Y-1081982D02*
G01X2900371Y-627301D01*
G01X2945674Y-581997D02*
G01X3070246Y-457425D01*
G01X3466257Y-61415D02*
G01X3467996Y-59675D01*
G01X2128063Y-1435530D02*
G01X2210556Y-1353037D01*
G01X2289311Y-1274282D02*
G01X2315521Y-1248072D01*
G01X2469410Y-1094183D02*
G01X2901565Y-662027D01*
G01X2980401Y-583192D02*
G01X3070246Y-493346D01*
G01X3456247Y-107346D02*
G01X3467996Y-95596D01*
G01X2163984Y-1435530D02*
G01X2223747Y-1375766D01*
G01X2312040Y-1287473D02*
G01X2334939Y-1264575D01*
G01X2476246Y-1123267D02*
G01X2914793Y-684720D01*
G01X3003094Y-596420D02*
G01X3070246Y-529267D01*
G01X3456247Y-143267D02*
G01X3467996Y-131517D01*
G01X2199905Y-1435530D02*
G01X2244598Y-1390837D01*
G01X2327111Y-1308324D02*
G01X2369478Y-1265957D01*
G01X2476246Y-1159188D02*
G01X2935678Y-699757D01*
G01X3018130Y-617304D02*
G01X3070246Y-565188D01*
G01X3455998Y-179437D02*
G01X3467996Y-167439D01*
G01X2235826Y-1435530D02*
G01X2275352Y-1396004D01*
G01X2332278Y-1339078D02*
G01X2348974Y-1322381D01*
G01X2403664Y-1267692D02*
G01X2405399Y-1265957D01*
G01X2476246Y-1195109D02*
G01X2966496Y-704860D01*
G01X3023233Y-648123D02*
G01X3070246Y-601109D01*
G01X3456245Y-215111D02*
G01X3467996Y-203360D01*
G01X2271747Y-1435530D02*
G01X2351676Y-1355600D01*
G01X2436883Y-1270394D02*
G01X2441320Y-1265957D01*
G01X2476246Y-1231030D02*
G01X3070246Y-637030D01*
G01X3456247Y-251030D02*
G01X3467996Y-239281D01*
G01X2307668Y-1435530D02*
G01X2364941Y-1378256D01*
G01X2459539Y-1283659D02*
G01X3070246Y-672951D01*
G01X3456210Y-286987D02*
G01X3467996Y-275202D01*
G01X2343589Y-1435530D02*
G01X2385321Y-1393797D01*
G01X2475080Y-1304039D02*
G01X3070246Y-708872D01*
G01X3456151Y-322968D02*
G01X3467996Y-311123D01*
G01X2379510Y-1435530D02*
G01X2414309Y-1400731D01*
G01X2482013Y-1333027D02*
G01X2682240Y-1132799D01*
G01X2733090Y-1081949D02*
G01X3007575Y-807464D01*
G01X3025964Y-789075D02*
G01X3070246Y-744793D01*
G01X3456247Y-358793D02*
G01X3467996Y-347044D01*
G01X2415431Y-1435530D02*
G01X2518013Y-1332948D01*
G01X2584232Y-1266728D02*
G01X2682240Y-1168721D01*
G01X2769011Y-1081949D02*
G01X2998470Y-852491D01*
G01X3070991Y-779970D02*
G01X3073319Y-777642D01*
G01X3456247Y-394714D02*
G01X3467996Y-382965D01*
G01X2451352Y-1435530D02*
G01X2524462Y-1362420D01*
G01X2613705Y-1273177D02*
G01X2682240Y-1204642D01*
G01X2804932Y-1081949D02*
G01X3009102Y-877779D01*
G01X3455929Y-430952D02*
G01X3467996Y-418886D01*
G01X2487273Y-1435530D02*
G01X2539707Y-1383095D01*
G01X2634380Y-1288423D02*
G01X2682814Y-1239988D01*
G01X2834016Y-1088787D02*
G01X3027757Y-895046D01*
G01X3456247Y-466556D02*
G01X3467996Y-454807D01*
G01X2523194Y-1435530D02*
G01X2562048Y-1396676D01*
G01X2647960Y-1310763D02*
G01X2697498Y-1261226D01*
G01X2846215Y-1112508D02*
G01X3054926Y-903798D01*
G01X3122298Y-836426D02*
G01X3125242Y-833482D01*
G01X3456247Y-502477D02*
G01X3467996Y-490728D01*
G01X2559115Y-1435530D02*
G01X2594600Y-1400045D01*
G01X2651330Y-1343315D02*
G01X2728688Y-1265957D01*
G01X2846248Y-1148397D02*
G01X3143202Y-851443D01*
G01X3455598Y-539047D02*
G01X3467996Y-526649D01*
G01X2595036Y-1435530D02*
G01X2764609Y-1265957D01*
G01X2846248Y-1184318D02*
G01X3161163Y-869403D01*
G01X3456247Y-574319D02*
G01X3467996Y-562570D01*
G01X2630957Y-1435530D02*
G01X2800530Y-1265957D01*
G01X2846248Y-1220239D02*
G01X3179123Y-887364D01*
G01X3456247Y-610240D02*
G01X3467996Y-598491D01*
G01X2666878Y-1435530D02*
G01X3196826Y-905582D01*
G01X3455171Y-647237D02*
G01X3467996Y-634412D01*
G01X2702799Y-1435530D02*
G01X3201259Y-937070D01*
G01X3456247Y-682082D02*
G01X3467996Y-670333D01*
G01X2738720Y-1435530D02*
G01X3215945Y-958305D01*
G01X3456247Y-718003D02*
G01X3467996Y-706254D01*
G01X2774641Y-1435530D02*
G01X3238270Y-971901D01*
G01X3454664Y-755507D02*
G01X3467996Y-742175D01*
G01X2810563Y-1435530D02*
G01X3272097Y-973995D01*
G01X3456247Y-789845D02*
G01X3467996Y-778096D01*
G01X2836320Y-1445693D02*
G01X3304556Y-977458D01*
G01X3456247Y-825766D02*
G01X3467996Y-814017D01*
G01X2844931Y-1473003D02*
G01X3340477Y-977458D01*
G01X3454073Y-863861D02*
G01X3467996Y-849938D01*
G01X2844931Y-1508924D02*
G01X3262249Y-1091606D01*
G01X3306907Y-1046948D02*
G01X3376398Y-977458D01*
G01X3456247Y-897608D02*
G01X3467996Y-885859D01*
G01X2875247Y-1514530D02*
G01X3262249Y-1127527D01*
G01X3342828Y-1046948D02*
G01X3412319Y-977458D01*
G01X3456247Y-933529D02*
G01X3467996Y-921780D01*
G01X2911168Y-1514530D02*
G01X3107055Y-1318642D01*
G01X3193587Y-1232110D02*
G01X3262249Y-1163448D01*
G01X3378749Y-1046948D02*
G01X3467996Y-957701D01*
G01X2947089Y-1514530D02*
G01X3103241Y-1358378D01*
G01X3233323Y-1228295D02*
G01X3262249Y-1199369D01*
G01X3414670Y-1046948D02*
G01X3467996Y-993622D01*
G01X2983010Y-1514530D02*
G01X3109147Y-1388392D01*
G01X3445913Y-1051626D02*
G01X3467996Y-1029543D01*
G01X3019330Y-1514130D02*
G01X3120467Y-1412994D01*
G01X3460661Y-1072799D02*
G01X3467597Y-1065863D01*
G01X3058526Y-1510856D02*
G01X3135939Y-1433443D01*
G01X3461258Y-1108123D02*
G01X3464322Y-1105059D01*
G01X3102030Y-1503272D02*
G01X3155198Y-1450105D01*
G01X3152100Y-1489124D02*
G01X3178428Y-1462795D01*
G01X112121Y-1308393D02*
G01X153032Y-1349303D01*
G01X69329Y-1229679D02*
G01X157378Y-1317729D01*
G01X307316Y-1467667D02*
G01X316854Y-1477205D01*
G01X49747Y-1174177D02*
G01X167657Y-1292087D01*
G01X332958Y-1457388D02*
G01X372356Y-1496786D01*
G01X39076Y-1127585D02*
G01X182264Y-1270773D01*
G01X354272Y-1442781D02*
G01X418949Y-1507458D01*
G01X33695Y-1086283D02*
G01X200689Y-1253276D01*
G01X371769Y-1424357D02*
G01X460251Y-1512839D01*
G01X32009Y-1048676D02*
G01X222996Y-1239663D01*
G01X385383Y-1402050D02*
G01X497858Y-1514525D01*
G01X32004Y-1012750D02*
G01X249883Y-1230629D01*
G01X394417Y-1375162D02*
G01X533784Y-1514530D01*
G01X32004Y-976829D02*
G01X283476Y-1228301D01*
G01X396745Y-1341569D02*
G01X569705Y-1514530D01*
G01X32004Y-940908D02*
G01X334678Y-1243581D01*
G01X381464Y-1290368D02*
G01X605626Y-1514530D01*
G01X32004Y-904987D02*
G01X641547Y-1514530D01*
G01X32004Y-869066D02*
G01X655299Y-1492361D01*
G01X32004Y-833144D02*
G01X656778Y-1457918D01*
G01X32004Y-797223D02*
G01X673459Y-1438679D01*
G01X32004Y-761302D02*
G01X706231Y-1435530D01*
G01X32004Y-725381D02*
G01X742152Y-1435530D01*
G01X32004Y-689460D02*
G01X778073Y-1435530D01*
G01X32004Y-653539D02*
G01X707663Y-1329199D01*
G01X774533Y-1396069D02*
G01X813994Y-1435530D01*
G01X32004Y-617618D02*
G01X716238Y-1301853D01*
G01X801880Y-1387494D02*
G01X849915Y-1435530D01*
G01X32004Y-581697D02*
G01X733383Y-1283076D01*
G01X820656Y-1370349D02*
G01X885836Y-1435530D01*
G01X32004Y-545776D02*
G01X758517Y-1272289D01*
G01X831443Y-1345215D02*
G01X921757Y-1435530D01*
G01X32004Y-509855D02*
G01X785820Y-1263671D01*
G01X840061Y-1317912D02*
G01X848422Y-1326274D01*
G01X922467Y-1400318D02*
G01X957678Y-1435530D01*
G01X63770Y-505700D02*
G01X803781Y-1245711D01*
G01X949342Y-1391272D02*
G01X993599Y-1435530D01*
G01X102985Y-508994D02*
G01X821741Y-1227750D01*
G01X968318Y-1374327D02*
G01X1029520Y-1435530D01*
G01X138906Y-508994D02*
G01X839702Y-1209790D01*
G01X893942Y-1264031D02*
G01X898661Y-1268749D01*
G01X979991Y-1350080D02*
G01X1065441Y-1435530D01*
G01X32004Y-366171D02*
G01X37806Y-371974D01*
G01X174827Y-508994D02*
G01X857662Y-1191829D01*
G01X911903Y-1246070D02*
G01X935894Y-1270061D01*
G01X978680Y-1312847D02*
G01X1021810Y-1355977D01*
G01X1062766Y-1396933D02*
G01X1101362Y-1435530D01*
G01X32004Y-330250D02*
G01X60947Y-359194D01*
G01X205071Y-503317D02*
G01X875623Y-1173869D01*
G01X929863Y-1228110D02*
G01X1019856Y-1318102D01*
G01X1100640Y-1398887D02*
G01X1137283Y-1435530D01*
G01X32004Y-294329D02*
G01X92661Y-354987D01*
G01X227215Y-489540D02*
G01X893583Y-1155908D01*
G01X947824Y-1210149D02*
G01X1031320Y-1293645D01*
G01X1125098Y-1387423D02*
G01X1173204Y-1435530D01*
G01X32004Y-258408D02*
G01X128582Y-354987D01*
G01X243228Y-469632D02*
G01X911544Y-1137948D01*
G01X965784Y-1192188D02*
G01X1050122Y-1276526D01*
G01X1142217Y-1368621D02*
G01X1209125Y-1435530D01*
G01X32004Y-222487D02*
G01X164504Y-354987D01*
G01X252296Y-442779D02*
G01X929504Y-1119987D01*
G01X983745Y-1174228D02*
G01X1076752Y-1267235D01*
G01X1151508Y-1341991D02*
G01X1245046Y-1435530D01*
G01X32004Y-186566D02*
G01X206854Y-361416D01*
G01X246626Y-401188D02*
G01X317787Y-472349D01*
G01X354184Y-508746D02*
G01X947465Y-1102027D01*
G01X1001705Y-1156267D02*
G01X1126739Y-1281301D01*
G01X1137442Y-1292004D02*
G01X1280967Y-1435530D01*
G01X32004Y-150645D02*
G01X315797Y-434438D01*
G01X392095Y-510736D02*
G01X965425Y-1084066D01*
G01X1019666Y-1138307D02*
G01X1316888Y-1435530D01*
G01X32004Y-114724D02*
G01X327925Y-410645D01*
G01X415888Y-498608D02*
G01X983386Y-1066106D01*
G01X1037626Y-1120346D02*
G01X1352810Y-1435530D01*
G01X32004Y-78803D02*
G01X337908Y-384707D01*
G01X453514Y-500313D02*
G01X1001346Y-1048145D01*
G01X1055587Y-1102386D02*
G01X1388731Y-1435530D01*
G01X32004Y-42882D02*
G01X337908Y-348786D01*
G01X498116Y-508994D02*
G01X1019307Y-1030185D01*
G01X1073547Y-1084425D02*
G01X1424652Y-1435530D01*
G01X32004Y-6961D02*
G01X337908Y-312865D01*
G01X414616Y-389573D02*
G01X420988Y-395945D01*
G01X534037Y-508994D02*
G01X1037267Y-1012224D01*
G01X1091508Y-1066465D02*
G01X1460573Y-1435530D01*
G01X32004Y28960D02*
G01X341950Y-280986D01*
G01X414616Y-353652D02*
G01X436580Y-375615D01*
G01X569959Y-508994D02*
G01X1055228Y-994264D01*
G01X1109468Y-1048504D02*
G01X1496494Y-1435530D01*
G01X32004Y64881D02*
G01X358515Y-261630D01*
G01X414616Y-317731D02*
G01X458280Y-361395D01*
G01X605880Y-508994D02*
G01X1068346Y-971461D01*
G01X1127429Y-1030544D02*
G01X1532415Y-1435530D01*
G01X32004Y100802D02*
G01X376476Y-243670D01*
G01X485900Y-353094D02*
G01X487803Y-354996D01*
G01X636670Y-503864D02*
G01X1068346Y-935540D01*
G01X1142798Y-1009992D02*
G01X1458074Y-1325268D01*
G01X1528464Y-1395658D02*
G01X1568336Y-1435530D01*
G01X32004Y136723D02*
G01X394436Y-225709D01*
G01X517434Y-348706D02*
G01X523714Y-354987D01*
G01X659167Y-490439D02*
G01X1068346Y-899619D01*
G01X1145054Y-976327D02*
G01X1467912Y-1299185D01*
G01X1554547Y-1385820D02*
G01X1604257Y-1435530D01*
G01X32004Y172644D02*
G01X405560Y-200912D01*
G01X538954Y-334306D02*
G01X559635Y-354987D01*
G01X675508Y-470859D02*
G01X1068346Y-863698D01*
G01X1145054Y-940406D02*
G01X1481649Y-1277001D01*
G01X1572422Y-1367774D02*
G01X1640178Y-1435530D01*
G01X32004Y208565D02*
G01X414505Y-173935D01*
G01X553104Y-312535D02*
G01X595556Y-354987D01*
G01X685022Y-444453D02*
G01X1068346Y-827777D01*
G01X1145054Y-904485D02*
G01X1481649Y-1241080D01*
G01X1582027Y-1341458D02*
G01X1605957Y-1365388D01*
G01X1633353Y-1392783D02*
G01X1676099Y-1435530D01*
G01X32004Y244486D02*
G01X431905Y-155415D01*
G01X556995Y-280505D02*
G01X636568Y-360078D01*
G01X680946Y-404456D02*
G01X1068346Y-791856D01*
G01X1145054Y-868564D02*
G01X1481649Y-1205159D01*
G01X1558357Y-1281867D02*
G01X1598959Y-1322469D01*
G01X1676272Y-1399781D02*
G01X1712020Y-1435530D01*
G01X32004Y280407D02*
G01X457365Y-144954D01*
G01X529432Y-217021D02*
G01X1068346Y-755935D01*
G01X1145054Y-832643D02*
G01X1481649Y-1169238D01*
G01X1558357Y-1245946D02*
G01X1609145Y-1296734D01*
G01X1702007Y-1389596D02*
G01X1747941Y-1435530D01*
G01X32004Y316328D02*
G01X503840Y-155508D01*
G01X518878Y-170546D02*
G01X1068346Y-720014D01*
G01X1145054Y-796722D02*
G01X1481649Y-1133317D01*
G01X1558357Y-1210025D02*
G01X1626930Y-1278598D01*
G01X1720143Y-1371811D02*
G01X1783862Y-1435530D01*
G01X32004Y352249D02*
G01X416836Y-32583D01*
G01X517646Y-133393D02*
G01X652272Y-268019D01*
G01X676718Y-292464D02*
G01X1068346Y-684093D01*
G01X1145054Y-760801D02*
G01X1481649Y-1097396D01*
G01X1558357Y-1174104D02*
G01X1652211Y-1267958D01*
G01X1730783Y-1346530D02*
G01X1819783Y-1435530D01*
G01X60998Y359176D02*
G01X417550Y2625D01*
G01X543377Y-123203D02*
G01X645679Y-225505D01*
G01X719232Y-299057D02*
G01X1068346Y-648172D01*
G01X1145054Y-724880D02*
G01X1481649Y-1061475D01*
G01X1558357Y-1138183D02*
G01X1693044Y-1272869D01*
G01X1725871Y-1305697D02*
G01X1769961Y-1349787D01*
G01X1818956Y-1398782D02*
G01X1855704Y-1435530D01*
G01X101109Y354987D02*
G01X430283Y25812D01*
G01X560284Y-104189D02*
G01X656707Y-200612D01*
G01X744124Y-288029D02*
G01X1068346Y-612251D01*
G01X1145054Y-688959D02*
G01X1481649Y-1025554D01*
G01X1558357Y-1102262D02*
G01X1770774Y-1314679D01*
G01X1854064Y-1397969D02*
G01X1891625Y-1435530D01*
G01X137030Y354987D02*
G01X448244Y43773D01*
G01X567393Y-75377D02*
G01X661014Y-168998D01*
G01X761076Y-269059D02*
G01X1068346Y-576330D01*
G01X1145054Y-653038D02*
G01X1481649Y-989633D01*
G01X1558357Y-1066341D02*
G01X1783227Y-1291211D01*
G01X1877532Y-1385516D02*
G01X1927546Y-1435530D01*
G01X32004Y495933D02*
G01X36774Y491163D01*
G01X172951Y354987D02*
G01X465804Y62133D01*
G01X546633Y-18695D02*
G01X661014Y-133076D01*
G01X769365Y-241428D02*
G01X1068346Y-540409D01*
G01X1145054Y-617117D02*
G01X1481649Y-953712D01*
G01X1558357Y-1030420D02*
G01X1802873Y-1274936D01*
G01X1893807Y-1365870D02*
G01X1963467Y-1435530D01*
G01X32004Y531854D02*
G01X59563Y504295D01*
G01X203727Y360132D02*
G01X404353Y159505D01*
G01X460252Y103606D02*
G01X486146Y77713D01*
G01X562213Y1646D02*
G01X661014Y-97155D01*
G01X750422Y-186563D02*
G01X1068346Y-504488D01*
G01X1145054Y-581196D02*
G01X1481649Y-917791D01*
G01X1558357Y-994499D02*
G01X1830720Y-1266862D01*
G01X1901881Y-1338023D02*
G01X1999388Y-1435530D01*
G01X32004Y567775D02*
G01X90785Y508994D01*
G01X226213Y373566D02*
G01X339046Y260733D01*
G01X491354Y108426D02*
G01X517348Y82432D01*
G01X566932Y32848D02*
G01X661014Y-61234D01*
G01X750422Y-150642D02*
G01X1068346Y-468567D01*
G01X1145054Y-545275D02*
G01X1481649Y-881870D01*
G01X1558357Y-958578D02*
G01X2035309Y-1435530D01*
G01X32004Y603696D02*
G01X126706Y508994D01*
G01X242545Y393155D02*
G01X339046Y296654D01*
G01X512389Y123312D02*
G01X661014Y-25313D01*
G01X750422Y-114721D02*
G01X1068346Y-432646D01*
G01X1145054Y-509354D02*
G01X1481649Y-845949D01*
G01X1558357Y-922657D02*
G01X2071230Y-1435530D01*
G01X32004Y639618D02*
G01X162627Y508994D01*
G01X252047Y419574D02*
G01X339046Y332575D01*
G01X525776Y145846D02*
G01X661014Y10608D01*
G01X750422Y-78800D02*
G01X1068346Y-396725D01*
G01X1145054Y-473433D02*
G01X1481649Y-810028D01*
G01X1558357Y-886736D02*
G01X1580772Y-909151D01*
G01X1630649Y-959027D02*
G01X2107151Y-1435530D01*
G01X32004Y675539D02*
G01X203673Y503870D01*
G01X247931Y459612D02*
G01X339046Y368496D01*
G01X415754Y291788D02*
G01X429486Y278056D01*
G01X527367Y180175D02*
G01X661014Y46529D01*
G01X752389Y-44846D02*
G01X1068346Y-360804D01*
G01X1145054Y-437512D02*
G01X1481649Y-774107D01*
G01X1558357Y-850815D02*
G01X1583546Y-876003D01*
G01X1663797Y-956254D02*
G01X2143072Y-1435530D01*
G01X32004Y711460D02*
G01X317451Y426013D01*
G01X415754Y327710D02*
G01X432425Y311038D01*
G01X515076Y228387D02*
G01X661014Y82450D01*
G01X788310Y-44846D02*
G01X1068346Y-324883D01*
G01X1145054Y-401591D02*
G01X1481649Y-738185D01*
G01X1558357Y-814893D02*
G01X1597438Y-853975D01*
G01X1685825Y-942362D02*
G01X2178993Y-1435530D01*
G01X32004Y747381D02*
G01X317577Y461808D01*
G01X415754Y363631D02*
G01X446120Y333264D01*
G01X537302Y242082D02*
G01X661014Y118371D01*
G01X824231Y-44846D02*
G01X1068346Y-288962D01*
G01X1145054Y-365670D02*
G01X1481649Y-702264D01*
G01X1558357Y-778972D02*
G01X1618961Y-839577D01*
G01X1715339Y-935954D02*
G01X2214914Y-1435530D01*
G01X32004Y783302D02*
G01X75396Y739910D01*
G01X127910Y687396D02*
G01X330401Y484905D01*
G01X418605Y396701D02*
G01X423110Y392196D01*
G01X449239Y366066D02*
G01X467197Y348109D01*
G01X552147Y263159D02*
G01X661014Y154292D01*
G01X750422Y64884D02*
G01X770744Y44562D01*
G01X875733Y-60427D02*
G01X1068346Y-253040D01*
G01X1145054Y-329748D02*
G01X1481649Y-666343D01*
G01X1558357Y-743051D02*
G01X1651028Y-835722D01*
G01X1751260Y-935954D02*
G01X2250835Y-1435530D01*
G01X32004Y819223D02*
G01X75396Y775831D01*
G01X163831Y687396D02*
G01X350913Y500314D01*
G01X496240Y354987D02*
G01X497891Y353335D01*
G01X557374Y293853D02*
G01X650258Y200969D01*
G01X750422Y100805D02*
G01X806665Y44562D01*
G01X905534Y-54307D02*
G01X1068346Y-217119D01*
G01X1145054Y-293827D02*
G01X1481649Y-630422D01*
G01X1558357Y-707130D02*
G01X1591293Y-740067D01*
G01X1605933Y-754707D02*
G01X1710473Y-859246D01*
G01X1787181Y-935954D02*
G01X2215433Y-1364206D01*
G01X2239526Y-1388299D02*
G01X2286756Y-1435530D01*
G01X32004Y855144D02*
G01X75396Y811752D01*
G01X199752Y687396D02*
G01X381050Y506097D01*
G01X532161Y354987D02*
G01X644541Y242607D01*
G01X750422Y136726D02*
G01X837714Y49434D01*
G01X925854Y-38707D02*
G01X1068346Y-181198D01*
G01X1145054Y-257906D02*
G01X1481649Y-594501D01*
G01X1558357Y-671209D02*
G01X1580564Y-693417D01*
G01X1652583Y-765436D02*
G01X1746394Y-859246D01*
G01X1816586Y-929438D02*
G01X1978440Y-1091293D01*
G01X2282183Y-1395035D02*
G01X2322677Y-1435530D01*
G01X32004Y891065D02*
G01X75396Y847673D01*
G01X235673Y687396D02*
G01X435616Y487453D01*
G01X568082Y354987D02*
G01X655739Y267330D01*
G01X750422Y172647D02*
G01X861022Y62047D01*
G01X938467Y-15398D02*
G01X1068346Y-145277D01*
G01X1145054Y-221985D02*
G01X1481649Y-558580D01*
G01X1558357Y-635288D02*
G01X1591007Y-667938D01*
G01X1678061Y-754993D02*
G01X1780814Y-857745D01*
G01X1835055Y-911986D02*
G01X1976146Y-1053077D01*
G01X2307102Y-1384033D02*
G01X2358598Y-1435530D01*
G01X32004Y926986D02*
G01X77046Y881944D01*
G01X269944Y689046D02*
G01X456983Y502007D01*
G01X604003Y354987D02*
G01X674847Y284143D01*
G01X760066Y198924D02*
G01X853608Y105382D01*
G01X1005384Y-46394D02*
G01X1068346Y-109356D01*
G01X1145054Y-186064D02*
G01X1481649Y-522659D01*
G01X1558357Y-599367D02*
G01X1609513Y-650524D01*
G01X1701144Y-742154D02*
G01X1798774Y-839785D01*
G01X1853015Y-894025D02*
G01X1976146Y-1017156D01*
G01X2324074Y-1365084D02*
G01X2394519Y-1435530D01*
G01X32004Y962907D02*
G01X94032Y900878D01*
G01X288879Y706032D02*
G01X485977Y508934D01*
G01X635304Y359606D02*
G01X702686Y292225D01*
G01X768148Y226762D02*
G01X853608Y141303D01*
G01X1036924Y-42013D02*
G01X1068346Y-73435D01*
G01X1145054Y-150143D02*
G01X1481649Y-486738D01*
G01X1558357Y-563446D02*
G01X1636470Y-641559D01*
G01X1737065Y-742154D02*
G01X1816735Y-821824D01*
G01X1870976Y-876065D02*
G01X1976146Y-981235D01*
G01X2052854Y-1057943D02*
G01X2266249Y-1271338D01*
G01X2332394Y-1337484D02*
G01X2352337Y-1357426D01*
G01X2391315Y-1396404D02*
G01X2430440Y-1435530D01*
G01X32004Y998828D02*
G01X100343Y930489D01*
G01X114489Y916343D02*
G01X127028Y903804D01*
G01X291804Y739028D02*
G01X521837Y508994D01*
G01X658148Y372683D02*
G01X853608Y177224D01*
G01X1058185Y-27353D02*
G01X1068346Y-37514D01*
G01X1145054Y-114222D02*
G01X1481649Y-450817D01*
G01X1558357Y-527525D02*
G01X1696278Y-665446D01*
G01X1772986Y-742154D02*
G01X1834695Y-803864D01*
G01X1888936Y-858104D02*
G01X1976146Y-945314D01*
G01X2052854Y-1022022D02*
G01X2349680Y-1318848D01*
G01X2429893Y-1399061D02*
G01X2466361Y-1435530D01*
G01X32004Y1034749D02*
G01X75737Y991016D01*
G01X291804Y774949D02*
G01X557758Y508994D01*
G01X674806Y391946D02*
G01X853608Y213145D01*
G01X1145054Y-78301D02*
G01X1481649Y-414896D01*
G01X1558357Y-491604D02*
G01X1732199Y-665446D01*
G01X1808104Y-741352D02*
G01X1852656Y-785903D01*
G01X1906897Y-840144D02*
G01X1976146Y-909393D01*
G01X2052854Y-986101D02*
G01X2316288Y-1249535D01*
G01X2328660Y-1261908D02*
G01X2360927Y-1294174D01*
G01X2454566Y-1387814D02*
G01X2502282Y-1435530D01*
G01X32309Y1070365D02*
G01X78276Y1024398D01*
G01X291804Y810870D02*
G01X593679Y508994D01*
G01X684743Y417931D02*
G01X853608Y249066D01*
G01X1145054Y-42380D02*
G01X1481649Y-378975D01*
G01X1558357Y-455683D02*
G01X1768120Y-665446D01*
G01X1830507Y-727833D02*
G01X1870617Y-767943D01*
G01X1924857Y-822183D02*
G01X1976146Y-873472D01*
G01X2052854Y-950180D02*
G01X2312238Y-1209565D01*
G01X2368631Y-1265957D02*
G01X2379550Y-1276877D01*
G01X2471864Y-1369190D02*
G01X2538203Y-1435530D01*
G01X34726Y1103869D02*
G01X88108Y1050486D01*
G01X234487Y904108D02*
G01X234791Y903804D01*
G01X291804Y846791D02*
G01X633637Y504958D01*
G01X682001Y456593D02*
G01X853608Y284987D01*
G01X1145054Y-6459D02*
G01X1481649Y-343054D01*
G01X1558357Y-419762D02*
G01X1794227Y-655632D01*
G01X1848468Y-709873D02*
G01X1888577Y-749982D01*
G01X1942818Y-804223D02*
G01X1976146Y-837551D01*
G01X2052854Y-914259D02*
G01X2312238Y-1173644D01*
G01X2404552Y-1265957D02*
G01X2405936Y-1267341D01*
G01X2481399Y-1342805D02*
G01X2574124Y-1435530D01*
G01X39215Y1135301D02*
G01X102870Y1071646D01*
G01X255646Y918869D02*
G01X274069Y900447D01*
G01X288447Y886069D02*
G01X853608Y320908D01*
G01X1145054Y29462D02*
G01X1481649Y-307133D01*
G01X1558357Y-383841D02*
G01X1812188Y-637672D01*
G01X1866428Y-691912D02*
G01X1906538Y-732022D01*
G01X1960778Y-786262D02*
G01X1976146Y-801630D01*
G01X2052854Y-878338D02*
G01X2312238Y-1137723D01*
G01X2440473Y-1265957D02*
G01X2453159Y-1278643D01*
G01X2470098Y-1295582D02*
G01X2518854Y-1344338D01*
G01X2574405Y-1399889D02*
G01X2610045Y-1435530D01*
G01X45479Y1164958D02*
G01X121928Y1088508D01*
G01X272509Y937928D02*
G01X853608Y356829D01*
G01X1145054Y65383D02*
G01X1481649Y-271212D01*
G01X1558357Y-347920D02*
G01X1830148Y-619711D01*
G01X1884389Y-673952D02*
G01X1924498Y-714061D01*
G01X2052854Y-842417D02*
G01X2313979Y-1103542D01*
G01X2466946Y-1256509D02*
G01X2521838Y-1311401D01*
G01X2607342Y-1396905D02*
G01X2645966Y-1435530D01*
G01X53306Y1193052D02*
G01X145488Y1100870D01*
G01X284870Y961488D02*
G01X853608Y392750D01*
G01X1145054Y101304D02*
G01X1481649Y-235291D01*
G01X1558357Y-311999D02*
G01X1848109Y-601751D01*
G01X1902349Y-655991D02*
G01X1930246Y-683888D01*
G01X2052854Y-806496D02*
G01X2331121Y-1084763D01*
G01X2476246Y-1229888D02*
G01X2535235Y-1288877D01*
G01X2629866Y-1383508D02*
G01X2681887Y-1435530D01*
G01X62538Y1219741D02*
G01X174831Y1107448D01*
G01X291448Y990831D02*
G01X853608Y428671D01*
G01X1145054Y137225D02*
G01X1481649Y-199370D01*
G01X1558357Y-276078D02*
G01X1866069Y-583790D01*
G01X1920310Y-638031D02*
G01X1930246Y-647967D01*
G01X2052854Y-770575D02*
G01X2197253Y-914974D01*
G01X2233249Y-950970D02*
G01X2364228Y-1081949D01*
G01X2476246Y-1193967D02*
G01X2555737Y-1273458D01*
G01X2645285Y-1363006D02*
G01X2717808Y-1435530D01*
G01X73057Y1245143D02*
G01X215075Y1103125D01*
G01X287125Y1031075D02*
G01X854874Y463326D01*
G01X1145054Y173146D02*
G01X1481649Y-163449D01*
G01X1558357Y-240157D02*
G01X1713653Y-395453D01*
G01X1761847Y-443647D02*
G01X1884030Y-565830D01*
G01X2100921Y-782721D02*
G01X2197253Y-879053D01*
G01X2269170Y-950970D02*
G01X2400149Y-1081949D01*
G01X2476246Y-1158046D02*
G01X2584924Y-1266724D01*
G01X2652019Y-1333819D02*
G01X2753729Y-1435530D01*
G01X84772Y1269349D02*
G01X869145Y484976D01*
G01X1145054Y209067D02*
G01X1481649Y-127528D01*
G01X1558357Y-204236D02*
G01X1715849Y-361728D01*
G01X1795572Y-441451D02*
G01X1889446Y-535325D01*
G01X2137075Y-782954D02*
G01X2197253Y-843132D01*
G01X2305091Y-950970D02*
G01X2436070Y-1081949D01*
G01X2476246Y-1122125D02*
G01X2789650Y-1435530D01*
G01X2844931Y-1490810D02*
G01X2868651Y-1514530D01*
G01X97612Y1292430D02*
G01X887106Y502936D01*
G01X1145054Y244988D02*
G01X1481649Y-91607D01*
G01X1558357Y-168315D02*
G01X1729488Y-339446D01*
G01X1817854Y-427812D02*
G01X1889446Y-499404D01*
G01X2172996Y-782954D02*
G01X2197253Y-807211D01*
G01X2341012Y-950970D02*
G01X2831542Y-1441500D01*
G01X2838961Y-1448919D02*
G01X2904572Y-1514530D01*
G01X111524Y1314439D02*
G01X870970Y554993D01*
G01X1145054Y280909D02*
G01X1481649Y-55686D01*
G01X1558357Y-132394D02*
G01X1750765Y-324802D01*
G01X1832498Y-406535D02*
G01X1889446Y-463483D01*
G01X2375057Y-949093D02*
G01X2940493Y-1514530D01*
G01X126469Y1335415D02*
G01X165322Y1296563D01*
G01X221562Y1240322D02*
G01X873382Y588502D01*
G01X1145054Y316830D02*
G01X1481649Y-19765D01*
G01X1558357Y-96473D02*
G01X1782336Y-320452D01*
G01X1836848Y-374964D02*
G01X1889446Y-427562D01*
G01X2393609Y-931725D02*
G01X2682240Y-1220356D01*
G01X2727841Y-1265957D02*
G01X2976414Y-1514530D01*
G01X142419Y1355386D02*
G01X153112Y1344693D01*
G01X269693Y1228112D02*
G01X887115Y610690D01*
G01X1145054Y352751D02*
G01X1481649Y16156D01*
G01X1558357Y-60552D02*
G01X1889446Y-391641D01*
G01X2396262Y-898457D02*
G01X2682240Y-1184435D01*
G01X2763762Y-1265957D02*
G01X3012176Y-1514371D01*
G01X302573Y1231153D02*
G01X893871Y639855D01*
G01X1145054Y388672D02*
G01X1481649Y52077D01*
G01X1558357Y-24631D02*
G01X1889446Y-355720D01*
G01X2396262Y-862536D02*
G01X2682240Y-1148514D01*
G01X2799683Y-1265957D02*
G01X3045990Y-1512264D01*
G01X329033Y1240614D02*
G01X893871Y675776D01*
G01X1144222Y425426D02*
G01X1481649Y87998D01*
G01X1558357Y11290D02*
G01X1889446Y-319799D01*
G01X2396262Y-826615D02*
G01X2682268Y-1112621D01*
G01X2830918Y-1261271D02*
G01X3077684Y-1508037D01*
G01X351005Y1254563D02*
G01X893871Y711697D01*
G01X1152830Y452738D02*
G01X1481649Y123919D01*
G01X1558357Y47211D02*
G01X1889446Y-283878D01*
G01X2396262Y-790693D02*
G01X2694407Y-1088839D01*
G01X2845655Y-1240087D02*
G01X3107568Y-1502000D01*
G01X369119Y1272370D02*
G01X893871Y747618D01*
G01X1188751Y452738D02*
G01X1481649Y159840D01*
G01X1558357Y83132D02*
G01X1849011Y-207522D01*
G01X2396262Y-754772D02*
G01X2723439Y-1081949D01*
G01X2846248Y-1204759D02*
G01X3135864Y-1494374D01*
G01X383398Y1294012D02*
G01X893871Y783539D01*
G01X1224672Y452738D02*
G01X1481649Y195761D01*
G01X1558357Y119053D02*
G01X1848646Y-171236D01*
G01X2411168Y-733758D02*
G01X2759360Y-1081949D01*
G01X2846248Y-1168838D02*
G01X3162735Y-1485325D01*
G01X393273Y1320059D02*
G01X893871Y819460D01*
G01X1260594Y452738D02*
G01X1481649Y231682D01*
G01X1558357Y154974D02*
G01X1857831Y-144500D01*
G01X2432341Y-719010D02*
G01X2795281Y-1081949D01*
G01X2846248Y-1132917D02*
G01X3113939Y-1400608D01*
G01X3174361Y-1461030D02*
G01X3188305Y-1474974D01*
G01X396983Y1352270D02*
G01X893871Y855381D01*
G01X1296515Y452738D02*
G01X1481649Y267603D01*
G01X1558357Y190895D02*
G01X1848646Y-99394D01*
G01X2195654Y-446402D02*
G01X2366378Y-617126D01*
G01X2445874Y-696621D02*
G01X3103011Y-1353759D01*
G01X305873Y1479301D02*
G01X323015Y1462159D01*
G01X387158Y1398015D02*
G01X893871Y891302D01*
G01X1332436Y452738D02*
G01X1481649Y303524D01*
G01X1558357Y226816D02*
G01X1848867Y-63694D01*
G01X2195654Y-410481D02*
G01X2400357Y-615184D01*
G01X2447816Y-662643D02*
G01X3106398Y-1321225D01*
G01X331153Y1489942D02*
G01X893871Y927223D01*
G01X1368357Y452738D02*
G01X1486330Y334764D01*
G01X1558357Y262737D02*
G01X1860829Y-39735D01*
G01X2195654Y-374560D02*
G01X3116072Y-1294977D01*
G01X357709Y1499306D02*
G01X893872Y963143D01*
G01X1404278Y452738D02*
G01X1503187Y353828D01*
G01X1558357Y298658D02*
G01X1880673Y-23657D01*
G01X2195654Y-338639D02*
G01X3130190Y-1273174D01*
G01X385657Y1507279D02*
G01X904068Y988868D01*
G01X1440199Y452738D02*
G01X1521148Y371789D01*
G01X1575389Y317548D02*
G01X1889446Y3490D01*
G01X2195654Y-302718D02*
G01X2197253Y-304316D01*
G01X2246905Y-353969D02*
G01X3148153Y-1255217D01*
G01X415151Y1513706D02*
G01X922008Y1006849D01*
G01X1476120Y452738D02*
G01X1539108Y389749D01*
G01X1593349Y335508D02*
G01X1889446Y39411D01*
G01X2195654Y-266797D02*
G01X2197253Y-268395D01*
G01X2282826Y-353969D02*
G01X3169963Y-1241106D01*
G01X446396Y1518382D02*
G01X939969Y1024810D01*
G01X1512041Y452738D02*
G01X1557069Y407710D01*
G01X1611310Y353469D02*
G01X1890323Y74455D01*
G01X2195654Y-230876D02*
G01X2197253Y-232474D01*
G01X2318747Y-353969D02*
G01X3196219Y-1231441D01*
G01X479679Y1521021D02*
G01X957929Y1042770D01*
G01X1547962Y452738D02*
G01X1575029Y425670D01*
G01X1629270Y371429D02*
G01X1721159Y279541D01*
G01X1758541Y242159D02*
G01X1903979Y96720D01*
G01X2195654Y-194955D02*
G01X2197253Y-196553D01*
G01X2354668Y-353969D02*
G01X3228767Y-1228068D01*
G01X515158Y1521462D02*
G01X975890Y1060731D01*
G01X1583883Y452738D02*
G01X1592990Y443631D01*
G01X1647231Y389390D02*
G01X1719529Y317091D01*
G01X1796091Y240529D02*
G01X1921940Y114681D01*
G01X2195654Y-159034D02*
G01X2197253Y-160632D01*
G01X2383873Y-347253D02*
G01X3262249Y-1225629D01*
G01X551079Y1521462D02*
G01X993850Y1078691D01*
G01X1665191Y407350D02*
G01X1731767Y340775D01*
G01X1819774Y252767D02*
G01X1939900Y132641D01*
G01X2195654Y-123113D02*
G01X2197935Y-125393D01*
G01X2396216Y-323674D02*
G01X3262249Y-1189708D01*
G01X587000Y1521462D02*
G01X1011811Y1096652D01*
G01X1683152Y425311D02*
G01X1751754Y356708D01*
G01X1835708Y272754D02*
G01X1957861Y150602D01*
G01X2195654Y-87191D02*
G01X2212912Y-104450D01*
G01X2396262Y-287799D02*
G01X3262249Y-1153787D01*
G01X622921Y1521462D02*
G01X1029771Y1114612D01*
G01X1714546Y429838D02*
G01X1780989Y363395D01*
G01X1842394Y301989D02*
G01X1975821Y168562D01*
G01X2211801Y-67418D02*
G01X2244345Y-99961D01*
G01X2396262Y-251878D02*
G01X2998857Y-854474D01*
G01X3047026Y-902643D02*
G01X3262249Y-1117866D01*
G01X658842Y1521462D02*
G01X1047732Y1132573D01*
G01X1750467Y429838D02*
G01X1993150Y187154D01*
G01X2229762Y-49457D02*
G01X2280266Y-99961D01*
G01X2396262Y-215957D02*
G01X3001044Y-820740D01*
G01X3080760Y-900456D02*
G01X3262249Y-1081945D01*
G01X694763Y1521462D02*
G01X1065692Y1150533D01*
G01X1786388Y429838D02*
G01X1997836Y218390D01*
G01X2247722Y-31497D02*
G01X2316187Y-99961D01*
G01X2396262Y-180036D02*
G01X3014680Y-798455D01*
G01X3103045Y-886820D02*
G01X3272090Y-1055864D01*
G01X730684Y1521462D02*
G01X1083653Y1168494D01*
G01X1822309Y429838D02*
G01X2012652Y239494D01*
G01X2265683Y-13536D02*
G01X2352108Y-99961D01*
G01X2396262Y-144115D02*
G01X2898588Y-646441D01*
G01X2957132Y-704986D02*
G01X3035953Y-783807D01*
G01X3117693Y-865547D02*
G01X3299095Y-1046948D01*
G01X766605Y1521462D02*
G01X1101613Y1186454D01*
G01X1858230Y429838D02*
G01X2035113Y252954D01*
G01X2114454Y173613D02*
G01X2129263Y158804D01*
G01X2294354Y-6286D02*
G01X2904302Y-616235D01*
G01X2987339Y-699271D02*
G01X3067517Y-779450D01*
G01X3122050Y-833983D02*
G01X3196552Y-908484D01*
G01X3263315Y-975248D02*
G01X3335016Y-1046948D01*
G01X802526Y1521462D02*
G01X1119574Y1204415D01*
G01X1894151Y429838D02*
G01X2069265Y254724D01*
G01X2116224Y207765D02*
G01X2147224Y176765D01*
G01X2321737Y2252D02*
G01X2919673Y-595685D01*
G01X3007889Y-683900D02*
G01X3070246Y-746258D01*
G01X3301312Y-977323D02*
G01X3370937Y-1046948D01*
G01X838447Y1521462D02*
G01X1137534Y1222375D01*
G01X1930072Y429838D02*
G01X2165404Y194505D01*
G01X2367066Y-7156D02*
G01X2942728Y-582818D01*
G01X3020755Y-660846D02*
G01X3070246Y-710337D01*
G01X3337367Y-977458D02*
G01X3406858Y-1046948D01*
G01X3461258Y-1101349D02*
G01X3464394Y-1104485D01*
G01X874368Y1521462D02*
G01X1155495Y1240336D01*
G01X1965993Y429838D02*
G01X2193319Y202511D01*
G01X2392393Y3437D02*
G01X2978407Y-582576D01*
G01X3020997Y-625166D02*
G01X3070246Y-674416D01*
G01X3373288Y-977458D02*
G01X3467330Y-1071499D01*
G01X910289Y1521462D02*
G01X1173455Y1258296D01*
G01X2001914Y429838D02*
G01X2229240Y202511D01*
G01X2438155Y-6403D02*
G01X3070246Y-638495D01*
G01X3409209Y-977458D02*
G01X3467996Y-1036244D01*
G01X946210Y1521462D02*
G01X1191416Y1276257D01*
G01X2037835Y429838D02*
G01X2265161Y202511D01*
G01X2466893Y780D02*
G01X3070246Y-602574D01*
G01X3440622Y-972949D02*
G01X3467996Y-1000323D01*
G01X982131Y1521462D02*
G01X1209376Y1294217D01*
G01X2073756Y429838D02*
G01X2301082Y202511D01*
G01X2486577Y17016D02*
G01X3070246Y-566653D01*
G01X3455574Y-951980D02*
G01X3467996Y-964402D01*
G01X1018053Y1521462D02*
G01X1227337Y1312178D01*
G01X2109677Y429838D02*
G01X2156270Y383245D01*
G01X2224345Y315170D02*
G01X2337003Y202511D01*
G01X2413711Y125803D02*
G01X2422750Y116765D01*
G01X2498465Y41050D02*
G01X3070246Y-530732D01*
G01X3456247Y-916732D02*
G01X3467996Y-928481D01*
G01X1053974Y1521462D02*
G01X1245297Y1330138D01*
G01X2145598Y429838D02*
G01X2165272Y410164D01*
G01X2251264Y324172D02*
G01X2372924Y202511D01*
G01X2449632Y125803D02*
G01X2461499Y113937D01*
G01X2495637Y79799D02*
G01X2896256Y-320821D01*
G01X2948279Y-372844D02*
G01X3070246Y-494811D01*
G01X3456247Y-880811D02*
G01X3467996Y-892560D01*
G01X1089895Y1521462D02*
G01X1263258Y1348099D01*
G01X2181519Y429838D02*
G01X2182712Y428645D01*
G01X2269744Y341612D02*
G01X2408845Y202511D01*
G01X2485553Y125803D02*
G01X2899762Y-288405D01*
G01X2980695Y-369338D02*
G01X3070246Y-458889D01*
G01X3455141Y-843785D02*
G01X3467996Y-856639D01*
G01X1125816Y1521462D02*
G01X1281218Y1366059D01*
G01X2280154Y367124D02*
G01X2444766Y202511D01*
G01X2521474Y125803D02*
G01X2913992Y-266714D01*
G01X3002386Y-355108D02*
G01X3070246Y-422968D01*
G01X3456247Y-808969D02*
G01X3467996Y-820718D01*
G01X1161737Y1521462D02*
G01X1299179Y1384020D01*
G01X2253361Y429838D02*
G01X2255213Y427985D01*
G01X2269085Y414113D02*
G01X2480687Y202511D01*
G01X2557395Y125803D02*
G01X2935851Y-252652D01*
G01X3016448Y-333249D02*
G01X3070246Y-387047D01*
G01X3456247Y-773048D02*
G01X3467996Y-784797D01*
G01X1197658Y1521462D02*
G01X1317140Y1401980D01*
G01X2289282Y429838D02*
G01X2516609Y202511D01*
G01X2593317Y125803D02*
G01X2666274Y52846D01*
G01X2724470Y-5351D02*
G01X2968626Y-249506D01*
G01X3019594Y-300474D02*
G01X3070246Y-351126D01*
G01X3454629Y-735510D02*
G01X3467996Y-748876D01*
G01X1233579Y1521462D02*
G01X1335100Y1419941D01*
G01X2325203Y429838D02*
G01X2552530Y202511D01*
G01X2622234Y132807D02*
G01X2671871Y83170D01*
G01X3456247Y-701206D02*
G01X3467996Y-712955D01*
G01X1269500Y1521462D02*
G01X1353061Y1437901D01*
G01X2361124Y429838D02*
G01X2586351Y204611D01*
G01X2640592Y150370D02*
G01X2665472Y125490D01*
G01X3456247Y-665285D02*
G01X3467996Y-677034D01*
G01X1305421Y1521462D02*
G01X1371021Y1455862D01*
G01X2397045Y429838D02*
G01X2604312Y222571D01*
G01X2658553Y168330D02*
G01X2669754Y157129D01*
G01X3454034Y-627151D02*
G01X3467996Y-641113D01*
G01X1341342Y1521462D02*
G01X1394155Y1468649D01*
G01X2432966Y429838D02*
G01X2622272Y240532D01*
G01X3456247Y-593443D02*
G01X3467996Y-605192D01*
G01X1377263Y1521462D02*
G01X1429601Y1469124D01*
G01X2468887Y429838D02*
G01X2632269Y266456D01*
G01X3456247Y-557522D02*
G01X3467996Y-569271D01*
G01X1413184Y1521462D02*
G01X1465522Y1469124D01*
G01X2502858Y431788D02*
G01X2632269Y302377D01*
G01X3453366Y-518720D02*
G01X3467996Y-533350D01*
G01X1449105Y1521462D02*
G01X1501443Y1469124D01*
G01X2523699Y446868D02*
G01X2632269Y338298D01*
G01X3456247Y-485680D02*
G01X3467996Y-497429D01*
G01X1485026Y1521462D02*
G01X1537364Y1469124D01*
G01X2541660Y464829D02*
G01X2632269Y374219D01*
G01X3456247Y-449759D02*
G01X3467996Y-461508D01*
G01X1520947Y1521462D02*
G01X1573285Y1469124D01*
G01X2559620Y482789D02*
G01X2632269Y410140D01*
G01X3452630Y-410221D02*
G01X3467996Y-425587D01*
G01X1556868Y1521462D02*
G01X1609206Y1469124D01*
G01X2577581Y500750D02*
G01X2632269Y446061D01*
G01X3456247Y-377917D02*
G01X3467996Y-389666D01*
G01X1592789Y1521462D02*
G01X1645127Y1469124D01*
G01X2604625Y509626D02*
G01X2632269Y481982D01*
G01X3456247Y-341996D02*
G01X3467996Y-353745D01*
G01X1628710Y1521462D02*
G01X1681048Y1469124D01*
G01X2630169Y520004D02*
G01X2632269Y517903D01*
G01X3451840Y-301667D02*
G01X3467996Y-317824D01*
G01X1664631Y1521462D02*
G01X1716969Y1469124D01*
G01X3456247Y-270154D02*
G01X3467996Y-281903D01*
G01X1700552Y1521462D02*
G01X1752890Y1469124D01*
G01X2708977Y513037D02*
G01X2721323Y500691D01*
G01X2790591Y431424D02*
G01X3222249Y-235D01*
G01X3456247Y-234233D02*
G01X3467996Y-245982D01*
G01X1736473Y1521462D02*
G01X1788811Y1469124D01*
G01X2722048Y535887D02*
G01X3222249Y35686D01*
G01X3450979Y-193044D02*
G01X3467996Y-210061D01*
G01X1772394Y1521462D02*
G01X1824732Y1469124D01*
G01X2732339Y561518D02*
G01X3231900Y61957D01*
G01X3456247Y-162391D02*
G01X3467996Y-174140D01*
G01X1808315Y1521462D02*
G01X1860654Y1469124D01*
G01X2708977Y620800D02*
G01X2709118Y620660D01*
G01X2719867Y609910D02*
G01X3258720Y71057D01*
G01X3456247Y-126470D02*
G01X3467996Y-138219D01*
G01X1844236Y1521462D02*
G01X1896575Y1469124D01*
G01X2708977Y656721D02*
G01X2864724Y500975D01*
G01X2897975Y467723D02*
G01X3294641Y71057D01*
G01X3461087Y-95388D02*
G01X3467996Y-102298D01*
G01X1880157Y1521462D02*
G01X1932496Y1469124D01*
G01X2708977Y692642D02*
G01X2861563Y540057D01*
G01X2984595Y417024D02*
G01X3330562Y71057D01*
G01X3466257Y-64638D02*
G01X3467996Y-66377D01*
G01X1916078Y1521462D02*
G01X1968417Y1469124D01*
G01X2708977Y728563D02*
G01X2873360Y564180D01*
G01X3014860Y422680D02*
G01X3366483Y71057D01*
G01X3466257Y-28717D02*
G01X3467996Y-30456D01*
G01X1951999Y1521462D02*
G01X2004338Y1469124D01*
G01X2708977Y764484D02*
G01X2892968Y580494D01*
G01X3035443Y438018D02*
G01X3402404Y71057D01*
G01X3466257Y7204D02*
G01X3467996Y5465D01*
G01X1987920Y1521462D02*
G01X2040259Y1469124D01*
G01X2708977Y800405D02*
G01X2921583Y587800D01*
G01X3048346Y461037D02*
G01X3438626Y70757D01*
G01X3465957Y43426D02*
G01X3467996Y41386D01*
G01X2023841Y1521462D02*
G01X2076331Y1468973D01*
G01X2708826Y836477D02*
G01X3005817Y539486D01*
G01X3048686Y496617D02*
G01X3467996Y77307D01*
G01X2059762Y1521462D02*
G01X2409429Y1171796D01*
G01X2451896Y1129329D02*
G01X3467996Y113228D01*
G01X2095683Y1521462D02*
G01X3467996Y149149D01*
G01X2131604Y1521462D02*
G01X3467996Y185070D01*
G01X2167525Y1521462D02*
G01X3467996Y220991D01*
G01X2203446Y1521462D02*
G01X3467996Y256912D01*
G01X2239367Y1521462D02*
G01X3467996Y292834D01*
G01X2275288Y1521462D02*
G01X3467996Y328755D01*
G01X2311209Y1521462D02*
G01X3467996Y364676D01*
G01X2347130Y1521462D02*
G01X3467996Y400597D01*
G01X2383051Y1521462D02*
G01X3467996Y436518D01*
G01X2418972Y1521462D02*
G01X3467996Y472439D01*
G01X1856554Y1392416D02*
G03X1871726Y1336200I60985J-13696D01*
G03X1879185Y1244327I45813J-42520D01*
G01X1879185Y1190121D01*
G01X1823108Y1246198D01*
G03X1780982Y1356167I-40647J47483D01*
G03X1744108Y1244327I1479J-62487D01*
G01X1744108Y1232604D01*
G03X1755341Y1205483I38354J0D01*
G01X2144896Y815929D01*
G03X2111879Y774721I27704J-56029D01*
G03X2082503Y669803I14822J-60721D01*
G03X2187421Y699179I44197J44197D01*
G03X2228629Y732196I-14822J60721D01*
G01X2299354Y661471D01*
G03X2296160Y661604I-3194J-38221D01*
G01X2253040Y661604D01*
G03X2225920Y650371I0J-38354D01*
G01X2169803Y594254D01*
G01X1635453Y594254D01*
G03X1553492Y609224I-49353J-38354D01*
G03X1529470Y529446I32608J-53324D01*
G01X1083087Y529446D01*
G03X1071033Y539391I-45492J-42863D01*
G01X1261320Y729678D01*
G03X1272554Y756799I-27120J27120D01*
G01X1272554Y914847D01*
G03X1283749Y1002300I-38354J49353D01*
G03X1250593Y1100716I-49549J38100D01*
G03X1172182Y1032622I-16393J-60316D01*
G01X1155029Y1015470D01*
G03X1143796Y988350I27120J-27120D01*
G01X1143796Y759626D01*
G01X985033Y600863D01*
G03X970579Y616778I-52808J-33438D01*
G01X970579Y946938D01*
G01X1416056Y1392416D01*
G01X1856554Y1392416D01*
G01X970579Y927247D02*
G01X1435748Y1392416D01*
G01X970579Y891326D02*
G01X1471669Y1392416D01*
G01X970579Y855405D02*
G01X1174691Y1059517D01*
G01X1215083Y1099909D02*
G01X1507590Y1392416D01*
G01X970579Y819484D02*
G01X1144076Y992981D01*
G01X1251545Y1100449D02*
G01X1543511Y1392416D01*
G01X970579Y783563D02*
G01X1143796Y956780D01*
G01X1274875Y1087859D02*
G01X1579432Y1392416D01*
G01X970579Y747642D02*
G01X1143796Y920858D01*
G01X1290496Y1067558D02*
G01X1615353Y1392416D01*
G01X970579Y711721D02*
G01X1143796Y884937D01*
G01X1296650Y1037791D02*
G01X1651274Y1392416D01*
G01X970579Y675800D02*
G01X1143796Y849016D01*
G01X1289014Y994235D02*
G01X1687195Y1392416D01*
G01X970579Y639879D02*
G01X1143796Y813095D01*
G01X1296679Y965978D02*
G01X1723116Y1392416D01*
G01X977323Y610702D02*
G01X1143796Y777174D01*
G01X1272554Y905933D02*
G01X1759037Y1392416D01*
G01X1272554Y870012D02*
G01X1729642Y1327099D01*
G01X1749043Y1346500D02*
G01X1794958Y1392416D01*
G01X1272554Y834091D02*
G01X1720965Y1282502D01*
G01X1793640Y1355177D02*
G01X1830879Y1392416D01*
G01X1272554Y798170D02*
G01X1731656Y1257272D01*
G01X1818870Y1344486D02*
G01X1855065Y1380681D01*
G01X1272554Y762248D02*
G01X1744108Y1233802D01*
G01X1836090Y1325785D02*
G01X1861447Y1351142D01*
G01X1079334Y533108D02*
G01X1753586Y1207360D01*
G01X1844776Y1298549D02*
G01X1857587Y1311361D01*
G01X1111593Y529446D02*
G01X1771486Y1189339D01*
G01X1825727Y1243579D02*
G01X1857716Y1275569D01*
G01X1147514Y529446D02*
G01X1789447Y1171378D01*
G01X1843687Y1225619D02*
G01X1870542Y1252473D01*
G01X1183435Y529446D02*
G01X1807407Y1153418D01*
G01X1861648Y1207658D02*
G01X1879185Y1225195D01*
G01X1219356Y529446D02*
G01X1825368Y1135457D01*
G01X1255277Y529446D02*
G01X1843328Y1117496D01*
G01X1291198Y529446D02*
G01X1861289Y1099536D01*
G01X1327119Y529446D02*
G01X1879249Y1081575D01*
G01X1363040Y529446D02*
G01X1897210Y1063615D01*
G01X1398961Y529446D02*
G01X1915170Y1045654D01*
G01X1434882Y529446D02*
G01X1933131Y1027694D01*
G01X1470804Y529446D02*
G01X1951091Y1009733D01*
G01X1506725Y529446D02*
G01X1524239Y546960D01*
G01X1595040Y617761D02*
G01X1969052Y991773D01*
G01X1620972Y607772D02*
G01X1987012Y973812D01*
G01X1643375Y594254D02*
G01X2004973Y955852D01*
G01X1679296Y594254D02*
G01X2022933Y937891D01*
G01X1715217Y594254D02*
G01X2040894Y919931D01*
G01X1751138Y594254D02*
G01X2058854Y901970D01*
G01X1787059Y594254D02*
G01X2076815Y884010D01*
G01X1822980Y594254D02*
G01X2094775Y866049D01*
G01X1858901Y594254D02*
G01X2112736Y848089D01*
G01X1894822Y594254D02*
G01X2130696Y830128D01*
G01X1930743Y594254D02*
G01X2066204Y729715D01*
G01X2110986Y774496D02*
G01X2112104Y775615D01*
G01X1966664Y594254D02*
G01X2067216Y694806D01*
G01X2002585Y594254D02*
G01X2080373Y672042D01*
G01X2038506Y594254D02*
G01X2101191Y656939D01*
G01X2074427Y594254D02*
G01X2131885Y651711D01*
G01X2110348Y594254D02*
G01X2238459Y722365D01*
G01X2146269Y594254D02*
G01X2256420Y704405D01*
G01X2249364Y661428D02*
G01X2274380Y686444D01*
G01X2285461Y661604D02*
G01X2292341Y668484D01*
G01X970579Y634989D02*
G01X994869Y610699D01*
G01X970579Y670910D02*
G01X1012829Y628660D01*
G01X1086566Y554923D02*
G01X1112043Y529446D01*
G01X970579Y706831D02*
G01X1030790Y646620D01*
G01X1104526Y572884D02*
G01X1147964Y529446D01*
G01X970579Y742752D02*
G01X1048750Y664581D01*
G01X1122487Y590844D02*
G01X1183886Y529446D01*
G01X970579Y778673D02*
G01X1066711Y682541D01*
G01X1140447Y608805D02*
G01X1219807Y529446D01*
G01X970579Y814594D02*
G01X1084671Y700502D01*
G01X1158408Y626766D02*
G01X1255728Y529446D01*
G01X970579Y850515D02*
G01X1102632Y718462D01*
G01X1176368Y644726D02*
G01X1291649Y529446D01*
G01X970579Y886436D02*
G01X1120592Y736423D01*
G01X1194329Y662687D02*
G01X1327570Y529446D01*
G01X970579Y922357D02*
G01X1138553Y754384D01*
G01X1212289Y680647D02*
G01X1363491Y529446D01*
G01X976249Y952608D02*
G01X1143796Y785062D01*
G01X1230250Y698608D02*
G01X1399412Y529446D01*
G01X994210Y970569D02*
G01X1143796Y820983D01*
G01X1248210Y716568D02*
G01X1435333Y529446D01*
G01X1012170Y988529D02*
G01X1143796Y856904D01*
G01X1265734Y734966D02*
G01X1471254Y529446D01*
G01X1030131Y1006490D02*
G01X1143796Y892825D01*
G01X1272554Y764066D02*
G01X1507175Y529446D01*
G01X1048091Y1024450D02*
G01X1143796Y928746D01*
G01X1272554Y799988D02*
G01X1524035Y548507D01*
G01X1066052Y1042411D02*
G01X1143796Y964667D01*
G01X1272554Y835909D02*
G01X1528439Y580024D01*
G01X1084012Y1060371D02*
G01X1145322Y999062D01*
G01X1272554Y871830D02*
G01X1543111Y601273D01*
G01X1101973Y1078332D02*
G01X1159932Y1020373D01*
G01X1272554Y907751D02*
G01X1565420Y614884D01*
G01X1119933Y1096292D02*
G01X1171824Y1044401D01*
G01X1286402Y929824D02*
G01X1599212Y617013D01*
G01X1137894Y1114253D02*
G01X1180226Y1071921D01*
G01X1296162Y955985D02*
G01X1657893Y594254D01*
G01X1155854Y1132214D02*
G01X1197253Y1090815D01*
G01X1284615Y1003453D02*
G01X1693814Y594254D01*
G01X1173815Y1150174D02*
G01X1222240Y1101749D01*
G01X1295549Y1028440D02*
G01X1729735Y594254D01*
G01X1191775Y1168135D02*
G01X1265281Y1094628D01*
G01X1288428Y1071481D02*
G01X1765656Y594254D01*
G01X1209736Y1186095D02*
G01X1801577Y594254D01*
G01X1227696Y1204056D02*
G01X1837498Y594254D01*
G01X1245657Y1222016D02*
G01X1873419Y594254D01*
G01X1263617Y1239977D02*
G01X1909340Y594254D01*
G01X1281578Y1257937D02*
G01X1945261Y594254D01*
G01X1299538Y1275898D02*
G01X1981182Y594254D01*
G01X1317499Y1293858D02*
G01X2017103Y594254D01*
G01X1335459Y1311819D02*
G01X2053024Y594254D01*
G01X1353420Y1329779D02*
G01X2088945Y594254D01*
G01X1371380Y1347740D02*
G01X2124866Y594254D01*
G01X1389341Y1365700D02*
G01X2072962Y682079D01*
G01X2094779Y660262D02*
G01X2160787Y594254D01*
G01X1407301Y1383661D02*
G01X2065295Y725667D01*
G01X2138367Y652595D02*
G01X2183256Y607706D01*
G01X1434467Y1392416D02*
G01X2076138Y750745D01*
G01X2163445Y663438D02*
G01X2201216Y625667D01*
G01X1470388Y1392416D02*
G01X2094959Y767845D01*
G01X2180545Y682259D02*
G01X2219177Y643627D01*
G01X1506309Y1392416D02*
G01X2114869Y783856D01*
G01X2196556Y702169D02*
G01X2239566Y659159D01*
G01X1542230Y1392416D02*
G01X2129489Y805157D01*
G01X2217857Y716789D02*
G01X2273042Y661604D01*
G01X1578151Y1392416D02*
G01X1744705Y1225862D01*
G01X1614072Y1392416D02*
G01X1720423Y1286065D01*
G01X1649993Y1392416D02*
G01X1724743Y1317666D01*
G01X1685914Y1392416D02*
G01X1739372Y1338958D01*
G01X1827739Y1250591D02*
G01X1879185Y1199145D01*
G01X1721835Y1392416D02*
G01X1761638Y1352614D01*
G01X1841395Y1272856D02*
G01X1879185Y1235066D01*
G01X1757756Y1392416D02*
G01X1795326Y1354846D01*
G01X1843627Y1306545D02*
G01X1855051Y1295121D01*
G01X1793677Y1392416D02*
G01X1862602Y1323491D01*
G01X1829598Y1392416D02*
G01X1856431Y1365584D01*
G01X1963352Y1336200D02*
G03X1978524Y1392416I-45813J42520D01*
G01X2057043Y1392416D01*
G01X2329882Y1119577D01*
G03X2333185Y1090368I62018J-7778D01*
G03X2311953Y976775I12815J-61176D01*
G03X2407102Y1042358I34047J52417D01*
G01X2632269Y817190D01*
G01X2632269Y621060D01*
G03X2555033Y619804I-37819J-49764D01*
G03X2511507Y631409I-36783J-50535D01*
G01X1955893Y1187024D01*
G01X1955893Y1244327D01*
G03X1963352Y1336200I-38354J49353D01*
G01X2048896Y1213800D02*
G03X2173904Y1213800I62504J0D01*
G03X2048896Y1213800I-62504J0D01*
G01X1976740Y1358672D02*
G01X2010484Y1392416D01*
G01X1974154Y1320165D02*
G01X2046405Y1392416D01*
G01X1979936Y1290025D02*
G01X2069685Y1379774D01*
G01X1955893Y1230061D02*
G01X2087645Y1361814D01*
G01X1955893Y1194140D02*
G01X2105606Y1343853D01*
G01X1970295Y1172621D02*
G01X2123566Y1325893D01*
G01X1988255Y1154661D02*
G01X2048914Y1215320D01*
G01X2109880Y1276286D02*
G01X2141527Y1307932D01*
G01X2006216Y1136700D02*
G01X2055451Y1185935D01*
G01X2139265Y1269749D02*
G01X2159487Y1289972D01*
G01X2024177Y1118740D02*
G01X2071295Y1165859D01*
G01X2159341Y1253905D02*
G01X2177448Y1272011D01*
G01X2042137Y1100779D02*
G01X2094877Y1153519D01*
G01X2171681Y1230323D02*
G01X2195408Y1254051D01*
G01X2060098Y1082819D02*
G01X2132103Y1154824D01*
G01X2170376Y1193097D02*
G01X2213369Y1236090D01*
G01X2078058Y1064858D02*
G01X2231329Y1218130D01*
G01X2096019Y1046898D02*
G01X2249290Y1200169D01*
G01X2113979Y1028937D02*
G01X2267251Y1182209D01*
G01X2131940Y1010977D02*
G01X2285211Y1164248D01*
G01X2149900Y993016D02*
G01X2303172Y1146288D01*
G01X2167861Y975056D02*
G01X2321132Y1128327D01*
G01X2185821Y957095D02*
G01X2298248Y1069522D01*
G01X2305670Y1076944D02*
G01X2330247Y1101521D01*
G01X2203782Y939135D02*
G01X2284238Y1019591D01*
G01X2221742Y921174D02*
G01X2294435Y993867D01*
G01X2239703Y903214D02*
G01X2312753Y976264D01*
G01X2257663Y885253D02*
G01X2339443Y967033D01*
G01X2408159Y1035749D02*
G01X2410935Y1038525D01*
G01X2275624Y867293D02*
G01X2428895Y1020564D01*
G01X2293584Y849332D02*
G01X2446856Y1002604D01*
G01X2311545Y831372D02*
G01X2464816Y984643D01*
G01X2329505Y813411D02*
G01X2482777Y966683D01*
G01X2347466Y795450D02*
G01X2500737Y948722D01*
G01X2365426Y777490D02*
G01X2518698Y930762D01*
G01X2383387Y759529D02*
G01X2536658Y912801D01*
G01X2401347Y741569D02*
G01X2554619Y894841D01*
G01X2419308Y723608D02*
G01X2572579Y876880D01*
G01X2437268Y705648D02*
G01X2590540Y858920D01*
G01X2455229Y687687D02*
G01X2608500Y840959D01*
G01X2473189Y669727D02*
G01X2626461Y822998D01*
G01X2491150Y651766D02*
G01X2632269Y792886D01*
G01X2509110Y633806D02*
G01X2632269Y756965D01*
G01X2539335Y628110D02*
G01X2632269Y721044D01*
G01X2579010Y631863D02*
G01X2632269Y685123D01*
G01X2613798Y630730D02*
G01X2632269Y649202D01*
G01X1955893Y1194279D02*
G01X2518399Y631774D01*
G01X1955893Y1230201D02*
G01X2561613Y624480D01*
G01X1966802Y1255212D02*
G01X2588498Y633516D01*
G01X1978417Y1279518D02*
G01X2049093Y1208843D01*
G01X2106442Y1151493D02*
G01X2632269Y625666D01*
G01X1974547Y1319310D02*
G01X2054403Y1239453D01*
G01X2137053Y1156803D02*
G01X2288026Y1005831D01*
G01X2322638Y971218D02*
G01X2632269Y661587D01*
G01X1975194Y1354583D02*
G01X2069551Y1260226D01*
G01X2157826Y1171951D02*
G01X2285375Y1044403D01*
G01X2361210Y968567D02*
G01X2632269Y697508D01*
G01X1979606Y1386092D02*
G01X2092364Y1273335D01*
G01X2170935Y1194764D02*
G01X2297312Y1068387D01*
G01X2385195Y980504D02*
G01X2632269Y733429D01*
G01X2009204Y1392416D02*
G01X2127397Y1274222D01*
G01X2171822Y1229797D02*
G01X2317038Y1084581D01*
G01X2401389Y1000230D02*
G01X2632269Y769350D01*
G01X2045125Y1392416D02*
G01X2329510Y1108031D01*
G01X2408504Y1029037D02*
G01X2632269Y805271D01*
G01X3215654Y-300128D02*
G03X3273754Y-315714I43246J45128D01*
G03X3272239Y-325442I30490J-9729D01*
G01X3272239Y-395442D01*
G03X3275185Y-408855I32004J0D01*
G03X3251122Y-407182I-16285J-60345D01*
G01X3215654Y-371713D01*
G01X3215654Y-300128D01*
G01X3215654Y-312018D02*
G01X3222128Y-305543D01*
G01X3215654Y-347939D02*
G01X3247194Y-316398D01*
G01X3221727Y-377786D02*
G01X3272239Y-327275D01*
G01X3239688Y-395747D02*
G01X3272239Y-363196D01*
G01X3264416Y-406940D02*
G01X3272429Y-398926D01*
G01X3215654Y-352850D02*
G01X3270606Y-407802D01*
G01X3215654Y-316929D02*
G01X3272239Y-373514D01*
G01X3251738Y-317092D02*
G01X3272239Y-337593D01*
G01X3313386Y-1265957D02*
G01X3413369Y-1265957D01*
G02X3346450Y-1361164I-413369J219423D01*
G03X3313386Y-1265957I-121493J11152D01*
G01X3325050Y-1280252D02*
G01X3339345Y-1265957D01*
G01X3337740Y-1303483D02*
G01X3375266Y-1265957D01*
G01X3345561Y-1331583D02*
G01X3411187Y-1265957D01*
G01X3346902Y-1346202D02*
G01X3353696Y-1352997D01*
G01X3335924Y-1299303D02*
G01X3369878Y-1333258D01*
G01X3338499Y-1265957D02*
G01X3385061Y-1312519D01*
G01X3374420Y-1265957D02*
G01X3399219Y-1290756D01*
G01X3410341Y-1265957D02*
G01X3412315Y-1267931D01*
G54D11*
G01X131051Y431991D02*
G01X131051Y502644D01*
G01X131051Y431991D02*
G01X131051Y361337D01*
G01X131051Y431991D02*
G01X246705Y431991D01*
G01X131051Y-431990D02*
G01X131051Y-361337D01*
G01X131051Y-431990D02*
G01X131051Y-502644D01*
G01X131051Y-431990D02*
G01X246705Y-431990D01*
G01X183600Y999600D02*
G01X81746Y999600D01*
G01X183600Y999600D02*
G01X285454Y999600D01*
G01X183600Y999600D02*
G01X183600Y1101454D01*
G01X275000Y1350000D02*
G01X275000Y1234346D01*
G01X275000Y1350000D02*
G01X159346Y1350000D01*
G01X275000Y1350000D02*
G01X390654Y1350000D01*
G01X275033Y-1350012D02*
G01X275033Y-1234358D01*
G01X275033Y-1350012D02*
G01X159380Y-1350012D01*
G01X275033Y-1350012D02*
G01X390687Y-1350012D01*
G01X549034Y431991D02*
G01X549034Y502644D01*
G01X549034Y431991D02*
G01X549034Y361337D01*
G01X549034Y431991D02*
G01X679687Y431991D01*
G01X549034Y-431990D02*
G01X549034Y-361337D01*
G01X549034Y-431990D02*
G01X549034Y-502644D01*
G01X549034Y-431990D02*
G01X679687Y-431990D01*
G01X3224957Y-1350012D02*
G01X3224957Y-1234358D01*
G01X3224957Y-1350012D02*
G01X3109303Y-1350012D01*
G01X3224957Y-1350012D02*
G01X3340611Y-1350012D01*
G01X2296757Y-226965D02*
G01X2296757Y-106311D01*
G01X2296757Y-226965D02*
G01X2296757Y-347619D01*
G01X2296757Y-226965D02*
G01X2389912Y-226965D01*
G01X2296757Y-226965D02*
G01X2203603Y-226965D01*
G01X2296757Y-823967D02*
G01X2296757Y-944620D01*
G01X2296757Y-823967D02*
G01X2389912Y-823967D01*
G01X2296757Y-823967D02*
G01X2203603Y-823967D01*
G01X2394242Y-1173953D02*
G01X2394242Y-1088299D01*
G01X2394242Y-1173953D02*
G01X2394242Y-1259607D01*
G01X2394242Y-1173953D02*
G01X2469896Y-1173953D01*
G01X2394242Y-1173953D02*
G01X2318588Y-1173953D01*
G01X2764244Y-1173953D02*
G01X2764244Y-1088299D01*
G01X2764244Y-1173953D02*
G01X2764244Y-1259607D01*
G01X2764244Y-1173953D02*
G01X2839898Y-1173953D01*
G01X2764244Y-1173953D02*
G01X2688590Y-1173953D01*
G01X3344253Y-19447D02*
G01X3344253Y64707D01*
G01X3344253Y-19447D02*
G01X3459907Y-19447D01*
G01X3361754Y-1156453D02*
G01X3361754Y-1053298D01*
G01X3361754Y-1156453D02*
G01X3361754Y-1259607D01*
G01X3361754Y-1156453D02*
G01X3268599Y-1156453D01*
G01X3364243Y-360442D02*
G01X3449897Y-360442D01*
G01X3364243Y-360442D02*
G01X3278589Y-360442D01*
G04 Copper End*

G04 Pad Start*
G54D12*
G01X183600Y999600D03*
G54D13*
G01X183600Y795600D03*
G54D14*
G01X3361754Y-1156453D03*
G54D15*
G01X3344253Y-19447D03*
G54D16*
G01X2296757Y-226965D03*
G01X2296757Y-823967D03*
G54D18*
G01X2394242Y-1173953D03*
G01X2764244Y-1173953D03*
G54D19*
G01X3364243Y-140453D03*
G01X3364243Y-250460D03*
G01X3364243Y-360442D03*
G01X3364243Y-470449D03*
G01X3364243Y-580457D03*
G01X3364243Y-690464D03*
G01X3364243Y-800446D03*
G01X3364243Y-910454D03*
G54D20*
G01X549034Y-431990D03*
G54D21*
G01X131051Y-431990D03*
G01X131051Y431991D03*
G54D20*
G01X549034Y431991D03*
G54D22*
G01X275000Y1350000D03*
G01X275033Y-1350012D03*
G01X3224957Y-1350012D03*
G04 Pad End*

G04 Via Start*
G54D23*
G01X2978400Y938400D03*
G01X2912100Y938400D03*
G01X2912100Y1004700D03*
G01X2846496Y1004700D03*
G01X2846496Y1071314D03*
G01X2781247Y1071314D03*
G01X2781247Y1137401D03*
G01X2716833Y1137401D03*
G01X2716833Y1203487D03*
G01X2654930Y1203487D03*
G01X2652000Y1267340D03*
G01X2601020Y1315780D03*
G01X2417400Y1492994D03*
G01X2417400Y1428000D03*
G01X2483335Y1428000D03*
G01X2483335Y1362673D03*
G01X2550000Y1361700D03*
G01X2942700Y877200D03*
G01X2886600Y841500D03*
G01X2817619Y841592D03*
G01X2769300Y795600D03*
G01X2789700Y729300D03*
G01X3126300Y795600D03*
G01X3065100Y770100D03*
G01X3003900Y744600D03*
G01X2958000Y698700D03*
G01X2901900Y657900D03*
G01X3126300Y731369D03*
G01X3192600Y729300D03*
G01X3192600Y665933D03*
G01X3256523Y665933D03*
G01X3256523Y602573D03*
G01X3320100Y601800D03*
G01X3320100Y538625D03*
G01X3383676Y538625D03*
G01X3378576Y475792D03*
G01X3439528Y474300D03*
G01X2294599Y-388175D03*
G01X2427997Y-388175D03*
G01X2427600Y-525300D03*
G01X2294599Y-525300D03*
G01X1167900Y346800D03*
G01X1370198Y346800D03*
G01X1370198Y144489D03*
G01X1169430Y144489D03*
G01X1269890Y346373D03*
G01X1269890Y244800D03*
G01X1269890Y144489D03*
G01X1166920Y244800D03*
G01X1371035Y244800D03*
G01X1917539Y1293680D03*
G01X1782462Y1293680D03*
G01X2442162Y572904D03*
G01X2518250Y569270D03*
G01X1917539Y1378720D03*
G01X932225Y567425D03*
G01X1037595Y486583D03*
G01X2670623Y571416D03*
G01X2594450Y571296D03*
G01X2391900Y1111800D03*
G01X1520003Y-1333729D03*
G01X770003Y-1333729D03*
G01X2274600Y571200D03*
G01X377400Y443700D03*
G01X466540Y165793D03*
G01X467807Y-206580D03*
G01X376262Y-450271D03*
G01X2279375Y54396D03*
G01X2386800Y-676200D03*
G01X2356200Y54396D03*
G01X2112450Y-678300D03*
G01X2270003Y-1333729D03*
G01X2437800Y56100D03*
G01X2244000Y-678300D03*
G01X2922300Y525300D03*
G01X3060000Y-841500D03*
G54D24*
G01X510000Y25500D03*
G01X510000Y-76500D03*
G54D23*
G01X705718Y229795D03*
G01X706968Y-237768D03*
G01X878439Y2019D03*
G01X2055300Y193800D03*
G01X2055300Y114508D03*
G01X1642200Y-703800D03*
G01X1642200Y-897600D03*
G01X1234200Y1040400D03*
G01X1234200Y964200D03*
G01X944012Y112200D03*
G01X1012838Y15664D03*
G01X3258900Y-143391D03*
G01X3258900Y-255000D03*
G01X3258900Y-469200D03*
G01X3258900Y-678300D03*
G01X3258900Y-800700D03*
G01X3258900Y-912900D03*
G01X2724313Y285600D03*
G01X2728500Y209400D03*
G01X2727498Y133206D03*
G01X2728639Y57014D03*
G01X2727731Y361796D03*
G01X2728500Y438600D03*
G01X2111400Y1213800D03*
G01X2346000Y1029192D03*
G01X2126700Y714000D03*
G01X2218500Y377400D03*
G01X1586100Y555900D03*
G01X2355900Y571200D03*
G01X2881742Y-1338219D03*
G01X530400Y-1193400D03*
G01X2117388Y-1338219D03*
G01X754800Y1443300D03*
G01X1545300Y1361700D03*
G01X1550400Y1147500D03*
G01X1978800Y902700D03*
G01X1774800Y-127500D03*
G01X1785000Y198900D03*
G01X2524500Y744600D03*
G01X2794800Y-178500D03*
G01X2831755Y-750211D03*
G01X1927800Y-963900D03*
G01X612000Y-846600D03*
G01X229500Y-943500D03*
G01X1779900Y300900D03*
G01X1779900Y413100D03*
G01X1361700Y-91800D03*
G01X1774800Y-382500D03*
G01X1632896Y-550093D03*
G01X3253800Y-561000D03*
G01X617100Y1030200D03*
G01X571200Y1285200D03*
G01X239700Y30600D03*
G01X861900Y-520200D03*
G01X3151800Y-1111800D03*
G01X2960974Y-642600D03*
G01X2958000Y-311100D03*
G01X2988600Y479400D03*
G01X2172600Y759900D03*
G01X1409152Y884718D03*
G54D25*
G01X2478587Y216188D03*
G01X2578587Y216188D03*
G01X2478613Y416162D03*
G01X2578587Y416162D03*
G01X2378588Y216188D03*
G01X2378588Y416187D03*
G01X2478587Y316187D03*
G01X2378638Y316137D03*
G01X2578587Y316187D03*
G04 Via End*

G04 Track Start*
G54D10*
G01X1782462Y1293680D02*
G01X1782462Y1232604D01*
G01X2442162Y572904D01*
G01X2518250Y569270D02*
G01X2518250Y570426D01*
G01X1917539Y1171137D01*
G01X1917539Y1293680D01*
G01X2391900Y1111800D02*
G01X2670623Y833077D01*
G01X2670623Y571416D01*
G01X2391900Y1111800D02*
G01X2072930Y1430770D01*
G01X1400170Y1430770D01*
G01X1520003Y-1333729D02*
G01X1520003Y316403D01*
G01X1037595Y486583D02*
G01X1042104Y491092D01*
G01X2383800Y-673200D02*
G01X2386800Y-676200D01*
G01X2300935Y106447D02*
G01X2352985Y54396D01*
G01X2356200Y54396D01*
G01X2112450Y-678300D02*
G01X2112450Y-38918D01*
G01X2257815Y106447D01*
G01X2300935Y106447D01*
G01X2593887Y571296D02*
G01X2594450Y571296D01*
G01X1520003Y316403D02*
G01X1671792Y468192D01*
G01X2490782Y468192D01*
G01X2593887Y571296D01*
G01X2600139Y164157D02*
G01X2670623Y234642D01*
G01X2670623Y571416D01*
G01X2279375Y54396D02*
G01X2157300Y-67678D01*
G01X2437800Y56100D02*
G01X2428106Y56100D01*
G01X2354860Y129346D01*
G01X2220346Y129346D01*
G01X2177700Y-744600D02*
G01X2244000Y-678300D01*
G01X2220346Y129346D02*
G01X2060400Y-30600D01*
G01X2060400Y-699860D01*
G01X2105140Y-744600D01*
G01X2177700Y-744600D01*
G01X2270003Y-1333729D02*
G01X2014500Y-1078226D01*
G01X2014500Y-10200D01*
G01X2188857Y164157D01*
G01X2600139Y164157D01*
G01X2157300Y-67678D02*
G01X2157300Y-464660D01*
G01X2365840Y-673200D01*
G01X2383800Y-673200D01*
G01X376262Y-450271D02*
G01X376262Y-298124D01*
G01X467807Y-206580D01*
G01X377400Y443700D02*
G01X377400Y254934D01*
G01X466540Y165793D01*
G54D26*
G01X510000Y25500D02*
G01X489600Y25500D01*
G01X459000Y-5100D01*
G01X459000Y-51000D01*
G01X484500Y-76500D01*
G01X510000Y-76500D01*
G54D11*
G01X705718Y-236518D02*
G01X706968Y-237768D01*
G01X878439Y2019D02*
G01X876278Y-142D01*
G01X705718Y-142D01*
G01X705718Y229795D02*
G01X705718Y-142D01*
G01X705718Y-236518D01*
G54D10*
G01X2055300Y114508D02*
G01X1968600Y27808D01*
G01X1968600Y-724200D01*
G01X1795200Y-897600D01*
G01X1642200Y-897600D01*
G01X1400170Y1430770D02*
G01X932225Y962825D01*
G01X932225Y567425D01*
G01X1234200Y756799D02*
G01X1234200Y964200D01*
G01X1182150Y743740D02*
G01X1182150Y988350D01*
G01X1234200Y1040400D01*
G01X891962Y453552D02*
G01X1182150Y743740D01*
G01X944012Y112200D02*
G01X944012Y466610D01*
G01X1234200Y756799D01*
G01X3258900Y-912900D02*
G01X3361797Y-912900D01*
G01X3364243Y-910454D01*
G01X3258900Y-800700D02*
G01X3363989Y-800700D01*
G01X3364243Y-800446D01*
G01X3258900Y-678300D02*
G01X3352079Y-678300D01*
G01X3364243Y-690464D01*
G01X3258900Y-469200D02*
G01X3362994Y-469200D01*
G01X3364243Y-470449D01*
G01X3258900Y-255000D02*
G01X3359703Y-255000D01*
G01X3364243Y-250460D01*
G01X3177300Y-165790D02*
G01X3177300Y-387600D01*
G01X3258900Y-469200D01*
G01X2728500Y209400D02*
G01X3154400Y-216500D01*
G01X3154400Y-573800D01*
G01X3258900Y-678300D01*
G01X2727498Y133206D02*
G01X3131500Y-270796D01*
G01X3131500Y-673300D01*
G01X3258900Y-800700D01*
G01X2728639Y57014D02*
G01X3108600Y-322947D01*
G01X3108600Y-762600D01*
G01X3258900Y-912900D01*
G01X3206850Y-202950D02*
G01X3258900Y-255000D01*
G01X3258900Y-143391D02*
G01X3361304Y-143391D01*
G01X3364243Y-140453D01*
G01X3233400Y-117891D02*
G01X3258900Y-143391D01*
G01X891962Y90640D02*
G01X891962Y453552D01*
G01X1012838Y15664D02*
G01X966938Y15664D01*
G01X891962Y90640D01*
G01X770003Y-1333729D02*
G01X1106700Y-997032D01*
G01X1106700Y417477D01*
G01X1037595Y486583D01*
G01X1042104Y491092D02*
G01X2194492Y491092D01*
G01X2274600Y571200D01*
G01X1586100Y555900D02*
G01X2185690Y555900D01*
G01X2253040Y623250D01*
G01X2296160Y623250D01*
G01X2348210Y571200D01*
G01X2355900Y571200D01*
G01X2727731Y361796D02*
G01X2727731Y359979D01*
G01X3206850Y-119140D01*
G01X3206850Y-202950D01*
G01X2728500Y438600D02*
G01X2728500Y434637D01*
G01X3233400Y-70262D01*
G01X3233400Y-117891D01*
G01X2055300Y193800D02*
G01X1927800Y66300D01*
G01X1927800Y-49844D01*
G01X1918820Y-58824D01*
G01X1895980Y-58824D01*
G01X1887000Y-67804D01*
G01X1887000Y-100644D01*
G01X1895980Y-109624D01*
G01X1918820Y-109624D01*
G01X1927800Y-118604D01*
G01X1927800Y-151444D01*
G01X1918820Y-160424D01*
G01X1895980Y-160424D01*
G01X1887000Y-169404D01*
G01X1887000Y-202244D01*
G01X1895980Y-211224D01*
G01X1918820Y-211224D01*
G01X1927800Y-220204D01*
G01X1927800Y-576300D02*
G01X1800300Y-703800D01*
G01X1642200Y-703800D01*
G01X1927800Y-220204D02*
G01X1927800Y-576300D01*
G54D24*
G01X3253800Y-561000D02*
G01X3274200Y-581400D01*
G01X3363300Y-581400D01*
G01X3364243Y-580457D01*
G54D10*
G01X2724313Y285600D02*
G01X2725910Y285600D01*
G01X3177300Y-165790D01*
G04 Track End*

M02*

