G04 Layer: TopSolderMaskLayer*
G04 EasyEDA Pro v3.2.186, 2026-08-27 16:02:27*
G04 Gerber Generator version 0.3*
G04 Scale: 100 percent, Rotated: No, Reflected: No*
G04 Dimensions in millimeters*
G04 Leading zeros omitted, absolute positions, 4 integers and 5 decimals*
G04 Generated by one-click*
G04 Object Configs: Pad,Via,Track,Text,Image,Dimension,BoardOutline,BoardCutout,CopperFilled,SolidRegion,FPCStiffener,Line,PlaneZone,ComponentProperty,ComponentSilkscreen,TearDrop*
G04 Layer Configs: 1,15,16,2,3,4,5,6,7,8,9,10,11,13,14,56*
G04 Copper Areas: 0*
%FSLAX45Y45*%
%MOMM*%
%AMRoundRect*1,1,$1,$2,$3*1,1,$1,$4,$5*1,1,$1,0-$2,0-$3*1,1,$1,0-$4,0-$5*20,1,$1,$2,$3,$4,$5,0*20,1,$1,$4,$5,0-$2,0-$3,0*20,1,$1,0-$2,0-$3,0-$4,0-$5,0*20,1,$1,0-$4,0-$5,$2,$3,0*4,1,4,$2,$3,$4,$5,0-$2,0-$3,0-$4,0-$5,$2,$3,0*%
%ADD10C,1.6256*%
%ADD11RoundRect,0.1016X-0.762X0.762X0.762X0.762*%
%ADD12RoundRect,0.1016X-0.25X0.27X0.25X0.27*%
%ADD13RoundRect,0.1016X-0.27X-0.25X-0.27X0.25*%
%ADD14RoundRect,0.1016X-0.3677X0.01414X-0.01414X0.3677*%
%ADD15RoundRect,0.1016X-0.45X-0.4X-0.45X0.4*%
%ADD16RoundRect,0.1016X0.01571X-0.24481X-0.24481X0.01571*%
%ADD17RoundRect,0.1016X-0.536X-0.266X-0.536X0.266*%
%ADD18RoundRect,0.1X-0.4X-0.15X-0.4X0.15*%
%ADD19RoundRect,0.1094X-0.4X-0.2X-0.4X0.2*%
%ADD20RoundRect,0.1X-0.4X-0.2X-0.4X0.2*%
%ADD21RoundRect,0.1016X-0.27X-0.27X-0.27X0.27*%
%ADD22RoundRect,0.1016X-0.55X0.9X0.55X0.9*%
%ADD23RoundRect,0.1016X-0.24481X-0.01571X0.01571X0.24481*%
%ADD24RoundRect,0.10003X-1.3X-0.22501X-1.3X0.22501*%
%ADD25RoundRect,0.10003X-0.27501X-0.75X-0.27501X0.75*%
%ADD26RoundRect,0.10003X-0.52501X-0.32501X-0.52501X0.32501*%
%ADD27RoundRect,0.1016X-0.32501X-0.5X-0.32501X0.5*%
%ADD28RoundRect,0.1016X-0.27X-0.28283X-0.27X0.28283*%
%ADD29RoundRect,0.1016X-0.28283X0.27X0.28283X0.27*%
%ADD30RoundRect,0.1016X-0.432X-0.40324X-0.432X0.40324*%
%ADD31RoundRect,0.1016X-0.1X-0.3325X-0.1X0.3325*%
%ADD32RoundRect,0.1016X-0.3325X-0.1X-0.3325X0.1*%
%ADD33RoundRect,0.1016X-2.0X-2.0X-2.0X2.0*%
%ADD34O,0.6826X1.37711*%
%ADD35RoundRect,0.1016X-2.15X1.7X2.15X1.7*%
%ADD36RoundRect,0.5019X-0.26492X-0.6895X-0.6895X-0.26492*%
%ADD37O,0.30002X0.90002*%
%ADD38O,0.90002X0.30002*%
%ADD39RoundRect,0.10003X-1.7X1.7X1.7X1.7*%
%ADD40O,1.7936X0.46561*%
%ADD41RoundRect,0.4616X-0.52X0.42X0.52X0.42*%
%ADD42RoundRect,0.1016X-0.52501X0.85X0.52501X0.85*%
%ADD43RoundRect,0.1016X-0.45X0.6X0.45X0.6*%
%ADD44RoundRect,0.1016X-0.6X0.65X0.6X0.65*%
%ADD45RoundRect,0.1016X-0.57501X-0.3X-0.57501X0.3*%
%ADD46RoundRect,0.1016X-0.57501X-0.15X-0.57501X0.15*%
%ADD47O,2.2016X1.0016*%
%ADD48O,1.9016X1.0016*%
%ADD49C,1.902*%
G75*


G04 Pad Start*
G54D10*
G01X183600Y999600D03*
G54D11*
G01X183600Y795600D03*
G54D12*
G01X2446788Y1285200D03*
G01X2530812Y1285200D03*
G01X2492688Y1183200D03*
G01X2576712Y1183200D03*
G01X2523288Y1081200D03*
G01X2607312Y1081200D03*
G54D13*
G01X2657100Y875988D03*
G01X2657100Y960012D03*
G01X2055300Y712789D03*
G01X2055300Y796812D03*
G01X2932500Y-85489D03*
G01X2932500Y-169512D03*
G54D14*
G01X3071093Y526193D03*
G01X3130507Y585607D03*
G01X3001038Y595498D03*
G01X3060451Y654912D03*
G54D13*
G01X2973300Y302112D03*
G01X2973300Y218088D03*
G54D12*
G01X3201588Y413100D03*
G01X3285612Y413100D03*
G01X613212Y-1336200D03*
G01X529188Y-1336200D03*
G01X3061212Y-418200D03*
G01X2977188Y-418200D03*
G01X2291111Y1111800D03*
G01X2207088Y1111800D03*
G54D13*
G01X2315400Y1375788D03*
G01X2315400Y1459812D03*
G01X2208300Y1375788D03*
G01X2208300Y1459812D03*
G01X864848Y658840D03*
G01X864848Y742864D03*
G54D12*
G01X873312Y102000D03*
G01X789288Y102000D03*
G54D13*
G01X1198500Y-230712D03*
G01X1198500Y-146688D03*
G54D12*
G01X873312Y204000D03*
G01X789288Y204000D03*
G01X872261Y302919D03*
G01X788238Y302919D03*
G54D13*
G01X1065900Y661788D03*
G01X1065900Y745812D03*
G54D12*
G01X873312Y402900D03*
G01X789288Y402900D03*
G54D13*
G01X966848Y658840D03*
G01X966848Y742864D03*
G54D15*
G01X1550400Y684798D03*
G01X1550400Y824803D03*
G01X1693200Y684798D03*
G01X1693200Y824803D03*
G01X1836000Y684798D03*
G01X1836000Y824803D03*
G54D13*
G01X1958400Y712789D03*
G01X1958400Y796812D03*
G54D12*
G01X2337012Y-912900D03*
G01X2252988Y-912900D03*
G01X2441688Y-912900D03*
G01X2525711Y-912900D03*
G54D13*
G01X861900Y1357988D03*
G01X861900Y1442012D03*
G01X1438200Y1357988D03*
G01X1438200Y1442012D03*
G54D16*
G01X2885597Y730303D03*
G01X2846803Y769097D03*
G01X3040603Y881297D03*
G01X3079397Y842503D03*
G54D17*
G01X1522510Y-895696D03*
G01X1522510Y-800700D03*
G01X1522510Y-705704D03*
G01X1292690Y-705704D03*
G01X1292690Y-895696D03*
G01X1292690Y-800700D03*
G54D18*
G01X1674994Y-425005D03*
G01X1674994Y-374993D03*
G01X1674994Y-325006D03*
G01X1674994Y-274993D03*
G01X1674994Y-225006D03*
G01X1674994Y-174993D03*
G01X1674994Y-125006D03*
G01X1674994Y-74993D03*
G01X1674994Y-25006D03*
G01X1674994Y25006D03*
G01X1674994Y74994D03*
G01X1674994Y125006D03*
G01X1674994Y174993D03*
G01X1674994Y225006D03*
G01X1674994Y274993D03*
G01X1674994Y325006D03*
G01X1674994Y374993D03*
G01X1674994Y425006D03*
G54D20*
G01X1925006Y-525005D03*
G01X1925006Y525005D03*
G54D21*
G01X2550000Y876001D03*
G01X2550000Y959999D03*
G54D22*
G01X1380196Y719100D03*
G01X1190204Y719100D03*
G54D23*
G01X2943703Y786403D03*
G01X2982497Y825197D03*
G54D24*
G01X1849949Y1213645D03*
G54D25*
G01X1677356Y1336149D03*
G01X2022644Y1336149D03*
G54D24*
G01X1849949Y1458755D03*
G54D26*
G01X1782462Y1293680D03*
G01X1782462Y1378720D03*
G01X1917539Y1293680D03*
G01X1917539Y1378720D03*
G54D27*
G01X1306110Y-488994D03*
G01X1496102Y-488994D03*
G01X1401106Y-288994D03*
G54D28*
G01X2346000Y869618D03*
G01X2346000Y956181D03*
G01X2448000Y869618D03*
G01X2448000Y956181D03*
G54D29*
G01X2205818Y1213800D03*
G01X2292381Y1213800D03*
G01X374782Y550800D03*
G01X288218Y550800D03*
G01X374782Y-550800D03*
G01X288218Y-550800D03*
G01X3062618Y-530400D03*
G01X3149182Y-530400D03*
G01X3062618Y-642600D03*
G01X3149182Y-642600D03*
G01X3062618Y-749700D03*
G01X3149182Y-749700D03*
G01X3062618Y-86700D03*
G01X3149182Y-86700D03*
G01X3062618Y-198900D03*
G01X3149182Y-198900D03*
G01X3062618Y-311100D03*
G01X3149182Y-311100D03*
G54D28*
G01X1300870Y-232925D03*
G01X1300870Y-146362D03*
G01X1498006Y-233376D03*
G01X1498006Y-146813D03*
G54D30*
G01X747548Y676516D03*
G01X747548Y827188D03*
G54D31*
G01X2738607Y656954D03*
G01X2698602Y656954D03*
G01X2658597Y656954D03*
G01X2618618Y656954D03*
G01X2578613Y656954D03*
G01X2538608Y656954D03*
G01X2498603Y656954D03*
G01X2458598Y656954D03*
G01X2418618Y656954D03*
G01X2378613Y656954D03*
G01X2338608Y656954D03*
G01X2298603Y656954D03*
G01X2258598Y656954D03*
G01X2218618Y656954D03*
G54D32*
G01X2137846Y576182D03*
G01X2137846Y536202D03*
G01X2137846Y496197D03*
G01X2137846Y456192D03*
G01X2137846Y416187D03*
G01X2137846Y376182D03*
G01X2137846Y336203D03*
G01X2137846Y296198D03*
G01X2137846Y256193D03*
G01X2137846Y216188D03*
G01X2137846Y176183D03*
G01X2137846Y136203D03*
G01X2137846Y96198D03*
G01X2137846Y56193D03*
G54D31*
G01X2218618Y-24554D03*
G01X2258598Y-24554D03*
G01X2298603Y-24554D03*
G01X2338608Y-24554D03*
G01X2378613Y-24554D03*
G01X2418618Y-24554D03*
G01X2458598Y-24554D03*
G01X2498603Y-24554D03*
G01X2538608Y-24554D03*
G01X2578613Y-24554D03*
G01X2618618Y-24554D03*
G01X2658597Y-24554D03*
G01X2698602Y-24554D03*
G01X2738607Y-24554D03*
G54D32*
G01X2819354Y56193D03*
G01X2819354Y96198D03*
G01X2819354Y136203D03*
G01X2819354Y176183D03*
G01X2819354Y216188D03*
G01X2819354Y256193D03*
G01X2819354Y296198D03*
G01X2819354Y336203D03*
G01X2819354Y376182D03*
G01X2819354Y416187D03*
G01X2819354Y456192D03*
G01X2819354Y496197D03*
G01X2819354Y536202D03*
G01X2819354Y576182D03*
G54D33*
G01X2478613Y316187D03*
G54D34*
G01X2175900Y-760269D03*
G01X2302900Y-760269D03*
G01X2429900Y-760269D03*
G01X2556900Y-760269D03*
G01X2175900Y-157731D03*
G01X2302900Y-157731D03*
G01X2429900Y-157731D03*
G01X2556900Y-157731D03*
G54D35*
G01X2366400Y-459000D03*
G54D36*
G01X3263335Y1102265D03*
G01X3040265Y1325335D03*
G54D37*
G01X1409895Y-5199D03*
G01X1449900Y-5199D03*
G01X1449900Y494800D03*
G01X1409895Y494800D03*
G01X1369890Y494800D03*
G01X1329885Y494800D03*
G01X1289880Y494800D03*
G01X1249900Y494800D03*
G01X1209895Y494800D03*
G01X1169890Y494800D03*
G01X1129885Y494800D03*
G01X1089880Y494800D03*
G54D38*
G01X1019900Y64790D03*
G01X1019900Y104795D03*
G01X1019900Y144800D03*
G01X1019900Y184805D03*
G01X1019900Y224810D03*
G01X1019900Y264790D03*
G01X1019900Y304795D03*
G01X1019900Y344800D03*
G01X1019900Y384805D03*
G01X1019900Y424810D03*
G01X1519899Y424810D03*
G01X1519899Y384805D03*
G01X1519899Y344800D03*
G01X1519899Y304795D03*
G01X1519899Y264790D03*
G01X1519899Y224810D03*
G01X1519899Y184805D03*
G01X1519899Y144800D03*
G01X1519899Y104795D03*
G01X1519899Y64790D03*
G54D39*
G01X1269890Y244800D03*
G54D37*
G01X1089880Y-5199D03*
G01X1129885Y-5199D03*
G01X1169890Y-5199D03*
G01X1209895Y-5199D03*
G01X1249900Y-5199D03*
G01X1289880Y-5199D03*
G01X1329885Y-5199D03*
G01X1369890Y-5199D03*
G54D40*
G01X935395Y1173611D03*
G01X935395Y1108587D03*
G01X935395Y1043588D03*
G01X1364605Y1173611D03*
G01X1364605Y1108587D03*
G01X1364605Y1043588D03*
G01X1364605Y978589D03*
G01X935395Y978589D03*
G54D41*
G01X3118293Y113899D03*
G01X3338308Y283901D03*
G01X3338308Y113899D03*
G01X3118293Y283901D03*
G54D42*
G01X1022507Y1400013D03*
G01X1277498Y1400013D03*
G54D43*
G01X1520003Y-1333729D03*
G01X1979997Y-1333729D03*
G54D44*
G01X1582512Y-1178738D03*
G01X1917513Y-1178738D03*
G54D43*
G01X770003Y-1333729D03*
G01X1229997Y-1333729D03*
G54D44*
G01X832512Y-1178738D03*
G01X1167513Y-1178738D03*
G54D43*
G01X2270003Y-1333729D03*
G01X2729997Y-1333729D03*
G54D44*
G01X2332512Y-1178738D03*
G01X2667513Y-1178738D03*
G54D45*
G01X605549Y320002D03*
G01X605549Y239992D03*
G54D46*
G01X605549Y174993D03*
G01X605549Y125006D03*
G01X605549Y74994D03*
G01X605549Y25006D03*
G01X605549Y-25006D03*
G01X605549Y-74993D03*
G01X605549Y-125006D03*
G01X605549Y-174993D03*
G54D45*
G01X605549Y-239992D03*
G01X605549Y-320002D03*
G54D47*
G01X549034Y-431990D03*
G54D48*
G01X131051Y-431990D03*
G01X131051Y431991D03*
G54D47*
G01X549034Y431991D03*
G54D49*
G01X275000Y1350000D03*
G01X275033Y-1350012D03*
G01X3224957Y-1350012D03*
G04 Pad End*

M02*

