G04 Layer: InnerLayer2*
G04 EasyEDA Pro v3.2.186, 2026-08-27 16:02:27*
G04 Gerber Generator version 0.3*
G04 Scale: 100 percent, Rotated: No, Reflected: No*
G04 Dimensions in millimeters*
G04 Leading zeros omitted, absolute positions, 4 integers and 5 decimals*
G04 Generated by one-click*
G04 Object Configs: Pad,Via,Track,Text,Image,Dimension,BoardOutline,BoardCutout,CopperFilled,SolidRegion,FPCStiffener,Line,PlaneZone,ComponentProperty,ComponentSilkscreen,TearDrop*
G04 Layer Configs: 1,15,16,2,3,4,5,6,7,8,9,10,11,13,14,56*
G04 Copper Areas: 0*
%FSLAX45Y45*%
%MOMM*%
%ADD10C,1.524*%
%ADD11R,1.524X1.524*%
%ADD12O,2.1X0.9*%
%ADD13O,1.8X0.9*%
%ADD14C,1.8*%
%ADD15C,0.61*%
%ADD16C,0.508*%
%ADD17C,0.6169*%
%ADD18C,0.6096*%
G75*


G04 PlaneZone Start*
G36*
G01X86051Y-361337D02*
G03X25654Y-395328I0J-70654D01*
G01X25654Y395328D01*
G03X86051Y361337I60397J36662D01*
G01X176051Y361337D01*
G03X176051Y502644I0J70654D01*
G01X86051Y502644D01*
G03X25654Y468653I0J-70654D01*
G01X25654Y1053466D01*
G02X166939Y1391216I474346J0D01*
G03X344908Y1257866I108060J-41216D01*
G03X264402Y1465167I-69908J92134D01*
G02X500000Y1527812I235598J-411701D01*
G01X2373343Y1527812D01*
G03X2361265Y1494444I44056J-34818D01*
G03X2371605Y1460497I56136J-1450D01*
G03X2370210Y1397564I45795J-32497D01*
G03X2428117Y1372878I47190J30436D01*
G03X2516008Y1317003I55219J-10205D01*
G03X2545777Y1305705I33992J44697D01*
G03X2596352Y1259820I55243J10075D01*
G03X2607342Y1233297I55648J7520D01*
G03X2607517Y1173399I47588J-29811D01*
G03X2661638Y1147735I47413J30088D01*
G03X2726123Y1082020I55195J-10334D01*
G03X2741382Y1031766I55124J-10706D01*
G03X2791513Y1016107I39865J39548D01*
G03X2857064Y949549I54983J-11407D01*
G03X2874822Y896405I55036J-11149D01*
G03X2852169Y885860I11778J-54905D01*
G03X2762313Y851318I-34550J-44267D01*
G03X2714767Y808997I6987J-55718D01*
G03X2737290Y749462I54533J-13397D01*
G03X2806214Y675629I52410J-20162D01*
G03X2821710Y775438I-16514J53671D01*
G03X2824605Y785875I-52409J20162D01*
G03X2852050Y797233I-6987J55718D01*
G03X2938945Y821172I34550J44267D01*
G03X2998184Y885847I3755J56028D01*
G03X3034307Y933134I-19784J52553D01*
G01X3116541Y850899D01*
G03X3078267Y824688I9759J-55300D01*
G03X3017067Y799188I-13167J-54588D01*
G03X2948547Y754053I-13167J-54588D01*
G03X2903975Y714016I9453J-55353D01*
G03X2856486Y624871I-2075J-56116D01*
G03X2955925Y642584I45414J33028D01*
G03X3013353Y689247I2075J56116D01*
G03X3051933Y715512I-9453J55353D01*
G03X3072749Y714469I13167J54589D01*
G03X3097771Y683002I53551J16900D01*
G03X3137416Y676326I28529J48367D01*
G03X3200917Y610398I55184J-10393D01*
G03X3216897Y562786I55606J-7825D01*
G03X3264574Y546999I39626J39788D01*
G03X3322829Y482537I55526J-8374D01*
G03X3348231Y428543I55747J-6746D01*
G03X3407898Y427901I30346J47249D01*
G03X3441506Y418181I31630J46399D01*
G03X3474346Y430243I-1978J56119D01*
G01X3474346Y-1046534D01*
G02X3336392Y-1380965I-474346J0D01*
G03X3156086Y-1257101I-111435J30953D01*
G03X3222172Y-1465632I68872J-92911D01*
G02X3000000Y-1520880I-222172J419099D01*
G01X2838581Y-1520880D01*
G01X2838581Y-1467534D01*
G03X2812927Y-1441880I-25654J0D01*
G01X687303Y-1441880D01*
G03X661649Y-1467534I0J-25654D01*
G01X661649Y-1520880D01*
G01X500000Y-1520880D01*
G02X277827Y-1465632I0J474346D01*
G03X343907Y-1257102I-2794J115620D01*
G03X163595Y-1380952I-68873J-92910D01*
G02X25654Y-1046534I336405J334419D01*
G01X25654Y-468653D01*
G03X86051Y-502644I60397J36662D01*
G01X176051Y-502644D01*
G03X176051Y-361337I0J70654D01*
G01X86051Y-361337D01*
G37*
%LPC*%
G36*
G01X81746Y999600D02*
G03X285454Y999600I101854J0D01*
G03X81746Y999600I-101854J0D01*
G37*
G36*
G01X259800Y693746D02*
G03X285454Y719400I0J25654D01*
G01X285454Y871800D01*
G03X259800Y897454I-25654J0D01*
G01X107400Y897454D01*
G03X81746Y871800I0J-25654D01*
G01X81746Y719400D01*
G03X107400Y693746I25654J0D01*
G01X259800Y693746D01*
G37*
G36*
G01X173346Y-943500D02*
G03X285654Y-943500I56154J0D01*
G03X173346Y-943500I-56154J0D01*
G37*
G36*
G01X183546Y30600D02*
G03X295854Y30600I56154J0D01*
G03X183546Y30600I-56154J0D01*
G37*
G36*
G01X320832Y-459256D02*
G03X429072Y-469361I55430J8985D01*
G03X489034Y-502644I59962J37370D01*
G01X609034Y-502644D01*
G03X609034Y-361337I0J70654D01*
G01X489034Y-361337D01*
G03X420337Y-415476I0J-70654D01*
G03X320832Y-459256I-44075J-34795D01*
G37*
G36*
G01X321552Y449558D02*
G03X422019Y409606I55848J-5858D01*
G03X489034Y361337I67014J22384D01*
G01X609034Y361337D01*
G03X609034Y502644I0J70654D01*
G01X489034Y502644D01*
G03X428123Y467793I0J-70654D01*
G03X321552Y449558I-50723J-24093D01*
G37*
G36*
G01X410386Y165793D02*
G03X522694Y165793I56154J0D01*
G03X410386Y165793I-56154J0D01*
G37*
G36*
G01X510086Y-344591D02*
G03X515927Y-235523I-17034J55603D01*
G03X451359Y-152888I-48120J28943D01*
G03X444155Y-257510I16448J-53691D01*
G03X510086Y-344591I48897J-31478D01*
G37*
G36*
G01X434899Y289014D02*
G03X551205Y289014I58153J0D01*
G03X434899Y289014I-58153J0D01*
G37*
G36*
G01X510000Y-127554D02*
G03X512347Y-25500I0J51054D01*
G03X510000Y76554I-2347J51000D01*
G03X507653Y-25500I0J-51054D01*
G03X510000Y-127554I2347J-51000D01*
G37*
G36*
G01X474246Y-1193400D02*
G03X586554Y-1193400I56154J0D01*
G03X474246Y-1193400I-56154J0D01*
G37*
G36*
G01X515046Y1285200D02*
G03X627354Y1285200I56154J0D01*
G03X515046Y1285200I-56154J0D01*
G37*
G36*
G01X555846Y-846600D02*
G03X668154Y-846600I56154J0D01*
G03X555846Y-846600I-56154J0D01*
G37*
G36*
G01X560946Y1030200D02*
G03X673254Y1030200I56154J0D01*
G03X560946Y1030200I-56154J0D01*
G37*
G36*
G01X649564Y229795D02*
G03X761872Y229795I56154J0D01*
G03X649564Y229795I-56154J0D01*
G37*
G36*
G01X650814Y-237768D02*
G03X763122Y-237768I56154J0D01*
G03X650814Y-237768I-56154J0D01*
G37*
G36*
G01X698646Y1443300D02*
G03X810954Y1443300I56154J0D01*
G03X698646Y1443300I-56154J0D01*
G37*
G36*
G01X713849Y-1333729D02*
G03X826157Y-1333729I56154J0D01*
G03X713849Y-1333729I-56154J0D01*
G37*
G36*
G01X805746Y-520200D02*
G03X918054Y-520200I56154J0D01*
G03X805746Y-520200I-56154J0D01*
G37*
G36*
G01X822285Y2019D02*
G03X934593Y2019I56154J0D01*
G03X822285Y2019I-56154J0D01*
G37*
G36*
G01X854356Y-1333729D02*
G03X975667Y-1333729I60655J0D01*
G03X854356Y-1333729I-60655J0D01*
G37*
G36*
G01X876071Y567425D02*
G03X988379Y567425I56154J0D01*
G03X876071Y567425I-56154J0D01*
G37*
G36*
G01X887858Y112200D02*
G03X1000166Y112200I56154J0D01*
G03X887858Y112200I-56154J0D01*
G37*
G36*
G01X956684Y15664D02*
G03X1068992Y15664I56154J0D01*
G03X956684Y15664I-56154J0D01*
G37*
G36*
G01X981441Y486583D02*
G03X1093749Y486583I56154J0D01*
G03X981441Y486583I-56154J0D01*
G37*
G36*
G01X1024359Y-1333729D02*
G03X1145669Y-1333729I60655J0D01*
G03X1024359Y-1333729I-60655J0D01*
G37*
G36*
G01X1110769Y245325D02*
G03X1142961Y194014I56152J-525D01*
G03X1130270Y104243I26469J-49525D01*
G03X1219660Y119385I39160J40246D01*
G03X1269805Y88335I50230J25104D01*
G03X1320044Y119234I85J56154D01*
G03X1409742Y104619I50154J25255D01*
G03X1395865Y194434I-39544J39870D01*
G03X1427180Y245769I-24830J50366D01*
G03X1394113Y295993I-56146J-969D01*
G03X1410345Y386062I-23914J50807D01*
G03X1319936Y371841I-40147J-39262D01*
G03X1218993Y370097I-50047J-25468D01*
G03X1128462Y386774I-51093J-23297D01*
G03X1143915Y296026I39438J-39974D01*
G03X1110769Y245325I23005J-51225D01*
G37*
G36*
G01X1234200Y908046D02*
G03X1275451Y1002300I0J56154D01*
G03X1234200Y1096554I-41251J38100D01*
G03X1192949Y1002300I0J-56154D01*
G03X1234200Y908046I41251J-38100D01*
G37*
G36*
G01X1305546Y-91800D02*
G03X1417854Y-91800I56154J0D01*
G03X1305546Y-91800I-56154J0D01*
G37*
G36*
G01X1352998Y884718D02*
G03X1465306Y884718I56154J0D01*
G03X1352998Y884718I-56154J0D01*
G37*
G36*
G01X1463849Y-1333729D02*
G03X1576157Y-1333729I56154J0D01*
G03X1463849Y-1333729I-56154J0D01*
G37*
G36*
G01X1489146Y1361700D02*
G03X1601454Y1361700I56154J0D01*
G03X1489146Y1361700I-56154J0D01*
G37*
G36*
G01X1494246Y1147500D02*
G03X1606554Y1147500I56154J0D01*
G03X1494246Y1147500I-56154J0D01*
G37*
G36*
G01X1529946Y555900D02*
G03X1642254Y555900I56154J0D01*
G03X1529946Y555900I-56154J0D01*
G37*
G36*
G01X1576742Y-550093D02*
G03X1689050Y-550093I56154J0D01*
G03X1576742Y-550093I-56154J0D01*
G37*
G36*
G01X1586046Y-703800D02*
G03X1698354Y-703800I56154J0D01*
G03X1586046Y-703800I-56154J0D01*
G37*
G36*
G01X1586046Y-897600D02*
G03X1698354Y-897600I56154J0D01*
G03X1586046Y-897600I-56154J0D01*
G37*
G36*
G01X1604356Y-1333729D02*
G03X1725667Y-1333729I60655J0D01*
G03X1604356Y-1333729I-60655J0D01*
G37*
G36*
G01X1718646Y-127500D02*
G03X1830954Y-127500I56154J0D01*
G03X1718646Y-127500I-56154J0D01*
G37*
G36*
G01X1723746Y413100D02*
G03X1836054Y413100I56154J0D01*
G03X1723746Y413100I-56154J0D01*
G37*
G36*
G01X1726307Y1293680D02*
G03X1838616Y1293680I56154J0D01*
G03X1726307Y1293680I-56154J0D01*
G37*
G36*
G01X1728846Y198900D02*
G03X1841154Y198900I56154J0D01*
G03X1728846Y198900I-56154J0D01*
G37*
G36*
G01X1774359Y-1333729D02*
G03X1895669Y-1333729I60655J0D01*
G03X1774359Y-1333729I-60655J0D01*
G37*
G36*
G01X1861385Y1293680D02*
G03X1973693Y1293680I56154J0D01*
G03X1861385Y1293680I-56154J0D01*
G37*
G36*
G01X1871646Y-963900D02*
G03X1983954Y-963900I56154J0D01*
G03X1871646Y-963900I-56154J0D01*
G37*
G36*
G01X1922646Y902700D02*
G03X2034954Y902700I56154J0D01*
G03X1922646Y902700I-56154J0D01*
G37*
G36*
G01X2055300Y58353D02*
G03X2095067Y154154I0J56154D01*
G03X2055300Y249954I-39768J39646D01*
G03X2015532Y154154I0J-56154D01*
G03X2055300Y58353I39768J-39646D01*
G37*
G36*
G01X2056296Y-678300D02*
G03X2168604Y-678300I56154J0D01*
G03X2056296Y-678300I-56154J0D01*
G37*
G36*
G01X2061234Y-1338219D02*
G03X2173542Y-1338219I56154J0D01*
G03X2061234Y-1338219I-56154J0D01*
G37*
G36*
G01X2187846Y-678300D02*
G03X2300154Y-678300I56154J0D01*
G03X2187846Y-678300I-56154J0D01*
G37*
G36*
G01X2213849Y-1333729D02*
G03X2326157Y-1333729I56154J0D01*
G03X2213849Y-1333729I-56154J0D01*
G37*
G36*
G01X2726777Y571504D02*
G03X2632472Y612620I-56154J-88D01*
G03X2555253Y611507I-38022J-41323D01*
G03X2482174Y612303I-37004J-42238D01*
G03X2398321Y607993I-40012J-39399D01*
G03X2315250Y609941I-42421J-36793D01*
G03X2218446Y571200I-40650J-38741D01*
G03X2315250Y532459I56154J0D01*
G03X2399741Y536110I40650J38741D01*
G03X2478237Y529871I42421J36793D01*
G03X2557446Y529059I40012J39399D01*
G03X2632602Y530093I37004J42238D01*
G03X2726777Y571504I38022J41323D01*
G37*
G36*
G01X2223221Y54396D02*
G03X2317787Y13436I56154J0D01*
G03X2397805Y16683I38413J40960D01*
G03X2493942Y57272I39995J39417D01*
G03X2396195Y93813I-56142J-1172D01*
G03X2317787Y95357I-39995J-39417D01*
G03X2223221Y54396I-38413J-40960D01*
G37*
G36*
G01X2238445Y-525300D02*
G03X2350753Y-525300I56154J0D01*
G03X2238445Y-525300I-56154J0D01*
G37*
G36*
G01X2238445Y-388175D02*
G03X2350753Y-388175I56154J0D01*
G03X2238445Y-388175I-56154J0D01*
G37*
G36*
G01X2322504Y316192D02*
G03X2353048Y266175I56134J-56D01*
G03X2338904Y176485I25540J-49988D01*
G03X2428587Y190672I39683J39703D01*
G03X2528587Y190672I50000J25515D01*
G03X2618280Y176495I50000J25515D01*
G03X2604102Y266187I-39693J39693D01*
G03X2634721Y316173I-25515J50000D01*
G03X2604127Y366175I-56134J14D01*
G03X2618280Y455855I-25540J49987D01*
G03X2528600Y441702I-39693J-39693D01*
G03X2428607Y441665I-49987J-25540D01*
G03X2338880Y455865I-50019J-25478D01*
G03X2353147Y366149I39708J-39678D01*
G03X2322504Y316192I25491J-50012D01*
G37*
G36*
G01X2330646Y-676200D02*
G03X2442954Y-676200I56154J0D01*
G03X2330646Y-676200I-56154J0D01*
G37*
G36*
G01X2335746Y1111800D02*
G03X2448054Y1111800I56154J0D01*
G03X2335746Y1111800I-56154J0D01*
G37*
G36*
G01X2354356Y-1333729D02*
G03X2475667Y-1333729I60655J0D01*
G03X2354356Y-1333729I-60655J0D01*
G37*
G36*
G01X2371446Y-525300D02*
G03X2483754Y-525300I56154J0D01*
G03X2371446Y-525300I-56154J0D01*
G37*
G36*
G01X2371843Y-388175D02*
G03X2484151Y-388175I56154J0D01*
G03X2371843Y-388175I-56154J0D01*
G37*
G36*
G01X2468346Y744600D02*
G03X2580654Y744600I56154J0D01*
G03X2468346Y744600I-56154J0D01*
G37*
G36*
G01X2524359Y-1333729D02*
G03X2645669Y-1333729I60655J0D01*
G03X2524359Y-1333729I-60655J0D01*
G37*
G36*
G01X2685270Y245239D02*
G03X2686752Y171845I43230J-35839D01*
G03X2686822Y94493I40747J-38639D01*
G03X2729480Y867I41817J-37478D01*
G03X2769315Y95728I-841J56148D01*
G03X2769247Y170760I-41817J37478D01*
G03X2767542Y249760I-40747J38639D01*
G03X2767198Y321851I-43230J35840D01*
G03X2769082Y399788I-39467J39945D01*
G03X2729062Y494751I-40582J38812D01*
G03X2687149Y400609I-562J-56151D01*
G03X2684846Y325545I40582J-38812D01*
G03X2685270Y245239I39467J-39945D01*
G37*
G36*
G01X2738646Y-178500D02*
G03X2850954Y-178500I56154J0D01*
G03X2738646Y-178500I-56154J0D01*
G37*
G36*
G01X2775601Y-750211D02*
G03X2887909Y-750211I56154J0D01*
G03X2775601Y-750211I-56154J0D01*
G37*
G36*
G01X2825588Y-1338219D02*
G03X2937896Y-1338219I56154J0D01*
G03X2825588Y-1338219I-56154J0D01*
G37*
G36*
G01X3095646Y-1111800D02*
G03X3207954Y-1111800I56154J0D01*
G03X3095646Y-1111800I-56154J0D01*
G37*
G36*
G01X3202746Y-469200D02*
G03X3315054Y-469200I56154J0D01*
G03X3202746Y-469200I-56154J0D01*
G37*
G36*
G01X3258900Y-311154D02*
G03X3265157Y-199195I0J56154D01*
G03X3258900Y-87237I-6257J55804D01*
G03X3252643Y-199195I0J-56154D01*
G03X3258900Y-311154I6257J-55804D01*
G37*
G36*
G01X3202746Y-678300D02*
G03X3315054Y-678300I56154J0D01*
G03X3202746Y-678300I-56154J0D01*
G37*
G36*
G01X3258900Y-969054D02*
G03X3261364Y-856800I0J56154D01*
G03X3258900Y-744546I-2464J56100D01*
G03X3256436Y-856800I0J-56154D01*
G03X3258900Y-969054I2464J-56100D01*
G37*
%LPD*%
G36*
G01X1218796Y323076D02*
G03X1245931Y295587I51093J23297D01*
G03X1218405Y267219I23959J-50786D01*
G03X1190905Y295574I-51485J-22419D01*
G03X1218796Y323076I-23005J51226D01*
G37*
G36*
G01X1320152Y321332D02*
G03X1347120Y295607I50047J25468D01*
G03X1320462Y269207I23914J-50807D01*
G03X1293849Y295587I-50573J-24407D01*
G03X1320152Y321332I-23958J50786D01*
G37*
G36*
G01X1218405Y222382D02*
G03X1244637Y194645I51485J22419D01*
G03X1219660Y169594I25253J-50155D01*
G03X1193389Y195275I-50230J-25104D01*
G03X1218405Y222382I-26469J49525D01*
G37*
G36*
G01X1345368Y194855D02*
G03X1320044Y169745I24830J-50366D01*
G03X1295143Y194645I-50154J-25255D01*
G03X1320462Y220393I-25253J50155D01*
G03X1345368Y194855I50573J24407D01*
G37*
G36*
G01X2428594Y390684D02*
G03X2453060Y366181I50019J25478D01*
G03X2428600Y341727I25528J-49994D01*
G03X2404079Y366175I-49962J-25591D01*
G03X2428594Y390684I-25491J50013D01*
G37*
G36*
G01X2553072Y266187D02*
G03X2528587Y241703I25515J-50000D01*
G03X2504103Y266187I-50000J-25515D01*
G03X2528587Y290672I-25515J50000D01*
G03X2553072Y266187I50000J25515D01*
G37*
G36*
G01X2528600Y390622D02*
G03X2553047Y366175I49987J25540D01*
G03X2528587Y341703I25540J-49987D01*
G03X2504140Y366168I-50000J-25516D01*
G03X2528600Y390622I-25528J49994D01*
G37*
G36*
G01X2428587Y241703D02*
G03X2404178Y266149I-50000J-25515D01*
G03X2428626Y290597I-25540J49987D01*
G03X2453072Y266187I49962J25591D01*
G03X2428587Y241703I25515J-50000D01*
G37*
G36*
G01X2549588Y1417853D02*
G03X2538326Y1416627I411J-56152D01*
G03X2539489Y1427951I-54990J11372D01*
G01X2549588Y1417853D01*
G37*
G36*
G01X2483287Y1484154D02*
G03X2472682Y1483134I48J-56154D01*
G03X2473547Y1493894I-55281J9861D01*
G01X2483287Y1484154D01*
G37*
G36*
G01X2973134Y994307D02*
G03X2967107Y993407I5266J-55907D01*
G03X2968007Y999434I-55007J11294D01*
G01X2973134Y994307D01*
G37*
G36*
G01X2906834Y1060607D02*
G03X2901465Y1059838I5266J-55905D01*
G03X2902309Y1065132I-54969J11475D01*
G01X2906834Y1060607D01*
G37*
G36*
G01X2840314Y1127127D02*
G03X2836341Y1126543I6181J-55812D01*
G03X2836971Y1130469I-55092J10855D01*
G01X2840314Y1127127D01*
G37*
G36*
G01X2774316Y1193125D02*
G01X2771957Y1192781D01*
G01X2772355Y1195085D01*
G01X2774316Y1193125D01*
G37*
G36*
G01X3182841Y784600D02*
G01X3181307Y784307D01*
G01X3181600Y785841D01*
G01X3182841Y784600D01*
G37*
G36*
G01X2707645Y1259796D02*
G01X2708432Y1259009D01*
G01X2707510Y1258862D01*
G01X2707645Y1259796D01*
G37*
G04 PlaneZone End*

G04 Pad Start*
G54D10*
G01X183600Y999600D03*
G54D11*
G01X183600Y795600D03*
G54D12*
G01X549034Y-431990D03*
G54D13*
G01X131051Y-431990D03*
G01X131051Y431991D03*
G54D12*
G01X549034Y431991D03*
G54D14*
G01X275000Y1350000D03*
G01X275033Y-1350012D03*
G01X3224957Y-1350012D03*
G04 Pad End*

G04 Via Start*
G54D15*
G01X2978400Y938400D03*
G01X2912100Y938400D03*
G01X2912100Y1004700D03*
G01X2846496Y1004700D03*
G01X2846496Y1071314D03*
G01X2781247Y1071314D03*
G01X2781247Y1137401D03*
G01X2716833Y1137401D03*
G01X2716833Y1203487D03*
G01X2654930Y1203487D03*
G01X2652000Y1267340D03*
G01X2601020Y1315780D03*
G01X2417400Y1492994D03*
G01X2417400Y1428000D03*
G01X2483335Y1428000D03*
G01X2483335Y1362673D03*
G01X2550000Y1361700D03*
G01X2942700Y877200D03*
G01X2886600Y841500D03*
G01X2817619Y841592D03*
G01X2769300Y795600D03*
G01X2789700Y729300D03*
G01X3126300Y795600D03*
G01X3065100Y770100D03*
G01X3003900Y744600D03*
G01X2958000Y698700D03*
G01X2901900Y657900D03*
G01X3126300Y731369D03*
G01X3192600Y729300D03*
G01X3192600Y665933D03*
G01X3256523Y665933D03*
G01X3256523Y602573D03*
G01X3320100Y601800D03*
G01X3320100Y538625D03*
G01X3383676Y538625D03*
G01X3378576Y475792D03*
G01X3439528Y474300D03*
G01X2294599Y-388175D03*
G01X2427997Y-388175D03*
G01X2427600Y-525300D03*
G01X2294599Y-525300D03*
G01X1167900Y346800D03*
G01X1370198Y346800D03*
G01X1370198Y144489D03*
G01X1169430Y144489D03*
G01X1269890Y346373D03*
G01X1269890Y244800D03*
G01X1269890Y144489D03*
G01X1166920Y244800D03*
G01X1371035Y244800D03*
G01X1917539Y1293680D03*
G01X1782462Y1293680D03*
G01X2442162Y572904D03*
G01X2518250Y569270D03*
G01X1917539Y1378720D03*
G01X932225Y567425D03*
G01X1037595Y486583D03*
G01X2670623Y571416D03*
G01X2594450Y571296D03*
G01X2391900Y1111800D03*
G01X1520003Y-1333729D03*
G01X770003Y-1333729D03*
G01X2274600Y571200D03*
G01X377400Y443700D03*
G01X466540Y165793D03*
G01X467807Y-206580D03*
G01X376262Y-450271D03*
G01X2279375Y54396D03*
G01X2386800Y-676200D03*
G01X2356200Y54396D03*
G01X2112450Y-678300D03*
G01X2270003Y-1333729D03*
G01X2437800Y56100D03*
G01X2244000Y-678300D03*
G01X2922300Y525300D03*
G01X3060000Y-841500D03*
G54D16*
G01X510000Y25500D03*
G01X510000Y-76500D03*
G54D15*
G01X705718Y229795D03*
G01X706968Y-237768D03*
G01X878439Y2019D03*
G01X2055300Y193800D03*
G01X2055300Y114508D03*
G01X1642200Y-703800D03*
G01X1642200Y-897600D03*
G01X1234200Y1040400D03*
G01X1234200Y964200D03*
G01X944012Y112200D03*
G01X1012838Y15664D03*
G01X3258900Y-143391D03*
G01X3258900Y-255000D03*
G01X3258900Y-469200D03*
G01X3258900Y-678300D03*
G01X3258900Y-800700D03*
G01X3258900Y-912900D03*
G01X2724313Y285600D03*
G01X2728500Y209400D03*
G01X2727498Y133206D03*
G01X2728639Y57014D03*
G01X2727731Y361796D03*
G01X2728500Y438600D03*
G01X2111400Y1213800D03*
G01X2346000Y1029192D03*
G01X2126700Y714000D03*
G01X2218500Y377400D03*
G01X1586100Y555900D03*
G01X2355900Y571200D03*
G01X2881742Y-1338219D03*
G01X530400Y-1193400D03*
G01X2117388Y-1338219D03*
G01X754800Y1443300D03*
G01X1545300Y1361700D03*
G01X1550400Y1147500D03*
G01X1978800Y902700D03*
G01X1774800Y-127500D03*
G01X1785000Y198900D03*
G01X2524500Y744600D03*
G01X2794800Y-178500D03*
G01X2831755Y-750211D03*
G01X1927800Y-963900D03*
G01X612000Y-846600D03*
G01X229500Y-943500D03*
G01X1779900Y300900D03*
G01X1779900Y413100D03*
G01X1361700Y-91800D03*
G01X1774800Y-382500D03*
G01X1632896Y-550093D03*
G01X3253800Y-561000D03*
G01X617100Y1030200D03*
G01X571200Y1285200D03*
G01X239700Y30600D03*
G01X861900Y-520200D03*
G01X3151800Y-1111800D03*
G01X2960974Y-642600D03*
G01X2958000Y-311100D03*
G01X2988600Y479400D03*
G01X2172600Y759900D03*
G01X1409152Y884718D03*
G54D18*
G01X2478587Y216188D03*
G01X2578587Y216188D03*
G01X2478613Y416162D03*
G01X2578587Y416162D03*
G01X2378588Y216188D03*
G01X2378588Y416187D03*
G01X2478587Y316187D03*
G01X2378638Y316137D03*
G01X2578587Y316187D03*
G04 Via End*

M02*

