G04 Layer: TopLayer*
G04 EasyEDA Pro v3.2.186, 2026-08-27 16:02:27*
G04 Gerber Generator version 0.3*
G04 Scale: 100 percent, Rotated: No, Reflected: No*
G04 Dimensions in millimeters*
G04 Leading zeros omitted, absolute positions, 4 integers and 5 decimals*
G04 Generated by one-click*
G04 Object Configs: Pad,Via,Track,Text,Image,Dimension,BoardOutline,BoardCutout,CopperFilled,SolidRegion,FPCStiffener,Line,PlaneZone,ComponentProperty,ComponentSilkscreen,TearDrop*
G04 Layer Configs: 1,15,16,2,3,4,5,6,7,8,9,10,11,13,14,56*
G04 Copper Areas: 140*
%FSLAX45Y45*%
%MOMM*%
%AMRect*21,1,$1,$2,0,0,$3*%
%AMRoundRect*1,1,$1,$2,$3*1,1,$1,$4,$5*1,1,$1,0-$2,0-$3*1,1,$1,0-$4,0-$5*20,1,$1,$2,$3,$4,$5,0*20,1,$1,$4,$5,0-$2,0-$3,0*20,1,$1,0-$2,0-$3,0-$4,0-$5,0*20,1,$1,0-$4,0-$5,$2,$3,0*4,1,4,$2,$3,$4,$5,0-$2,0-$3,0-$4,0-$5,$2,$3,0*%
%ADD10C,0.127*%
%ADD11C,0.254*%
%ADD12C,1.524*%
%ADD13R,1.524X1.524*%
%ADD14R,0.5X0.54*%
%ADD15R,0.54X0.5*%
%ADD16Rect,0.5X0.54X45.0*%
%ADD17R,0.9X0.8*%
%ADD18Rect,0.36843X0.324X135.0*%
%ADD19R,1.0713X0.532*%
%ADD20R,1.07201X0.532*%
%ADD21R,0.8X0.3*%
%ADD22R,0.8X0.4*%
%ADD23R,0.54X0.54*%
%ADD24R,1.1X1.8*%
%ADD25Rect,0.36843X0.324X45.0*%
%ADD26R,2.59999X0.45001*%
%ADD27R,0.55001X1.5*%
%ADD28R,1.05001X0.65001*%
%ADD29R,0.65001X1.0*%
%ADD30R,0.54X0.56566*%
%ADD31R,0.56566X0.54*%
%ADD32R,0.86401X0.80648*%
%ADD33R,0.2X0.665*%
%ADD34R,0.665X0.2*%
%ADD35R,3.99999X3.99999*%
%ADD36O,0.581X1.27551*%
%ADD37R,4.29999X3.39999*%
%ADD38RoundRect,0.4003X-0.26492X-0.6895X-0.6895X-0.26492*%
%ADD39O,0.2X0.8*%
%ADD40O,0.8X0.2*%
%ADD41R,3.39999X3.39999*%
%ADD42O,1.692X0.36401*%
%ADD43RoundRect,0.36X-0.52X0.42X0.52X0.42*%
%ADD44R,1.05001X1.7*%
%ADD45R,0.9X1.2*%
%ADD46R,1.2X1.3*%
%ADD47R,1.15001X0.6*%
%ADD48R,1.15001X0.3*%
%ADD49O,2.1X0.9*%
%ADD50O,1.8X0.9*%
%ADD51C,1.8*%
%ADD52C,0.61*%
%ADD53C,0.508*%
%ADD54C,0.6096*%
%ADD55C,0.15748*%
%ADD56C,0.381*%
%ADD57C,0.762*%
%ADD58C,0.2032*%
G75*

G54D10*

G04 Copper Start*
G01X86051Y-354987D02*
G03X32004Y-377141I0J-77004D01*
G01X32004Y377141D01*
G03X86051Y354987I54047J54850D01*
G01X176051Y354987D01*
G03X176051Y508994I0J77004D01*
G01X86051Y508994D01*
G03X32004Y486840I0J-77004D01*
G01X32004Y1053466D01*
G02X154508Y1369149I467996J0D01*
G03X348746Y1252808I120492J-19149D01*
G03X289001Y1471198I-73746J97193D01*
G02X500000Y1521462I210999J-417732D01*
G01X2436998Y1521462D01*
G01X3024281Y934180D01*
G03X3016402Y928409I14751J-28402D01*
G01X2993491Y905498D01*
G03X2984119Y883215I22630J-22630D01*
G01X2982551Y881646D01*
G03X2961438Y872309I1517J-31968D01*
G01X2935386Y846257D01*
G03X2929930Y838970I22630J-22630D01*
G03X2922643Y833514I15343J-28086D01*
G01X2896591Y807462D01*
G03X2888925Y795146I22630J-22630D01*
G01X2867862Y816209D01*
G03X2822602Y816209I-22630J-22630D01*
G01X2799691Y793298D01*
G03X2799691Y748038I22630J-22630D01*
G01X2823345Y724384D01*
G02X2778204Y702380I-84737J116527D01*
G03X2748607Y722208I-29597J-12176D01*
G01X2734904Y722208D01*
G01X2734904Y855588D01*
G03X2718091Y896179I-57404J0D01*
G01X2716104Y898166D01*
G01X2716104Y900988D01*
G03X2711209Y918000I-32004J0D01*
G03X2716104Y935012I-27108J17012D01*
G01X2716104Y985011D01*
G03X2684100Y1017015I-32004J0D01*
G01X2630100Y1017015D01*
G03X2607404Y1007576I0J-32004D01*
G01X2607404Y1022196D01*
G01X2632311Y1022196D01*
G03X2664315Y1054200I0J32004D01*
G01X2664315Y1108200D01*
G03X2632311Y1140204I-32004J0D01*
G01X2629432Y1140204D01*
G03X2633716Y1156200I-27720J15996D01*
G01X2633716Y1210200D01*
G03X2601712Y1242204I-32004J0D01*
G01X2583531Y1242204D01*
G03X2587816Y1258200I-27720J15996D01*
G01X2587816Y1312200D01*
G03X2555812Y1344204I-32004J0D01*
G01X2505812Y1344204D01*
G03X2488800Y1339309I0J-32004D01*
G03X2471788Y1344204I-17012J-27108D01*
G01X2468966Y1344204D01*
G01X2396791Y1416379D01*
G03X2374089Y1430334I-40591J-40591D01*
G03X2374404Y1434812I-31689J4478D01*
G01X2374404Y1484812D01*
G03X2342400Y1516816I-32004J0D01*
G01X2288400Y1516816D01*
G03X2261850Y1502682I0J-32004D01*
G03X2235300Y1516816I-26550J-17871D01*
G01X2181300Y1516816D01*
G03X2149296Y1484812I0J-32004D01*
G01X2149296Y1434812D01*
G03X2154191Y1417800I32004J0D01*
G03X2149296Y1400788I27108J-17012D01*
G01X2149296Y1383327D01*
G03X2148414Y1373307I56523J-10021D01*
G01X2148414Y1271204D01*
G01X2136129Y1271204D01*
G03X2082148Y1269037I-24729J-57404D01*
G01X2082148Y1411149D01*
G03X2050144Y1443153I-32004J0D01*
G01X2011953Y1443153D01*
G01X2011953Y1481256D01*
G03X1979949Y1513260I-32004J0D01*
G01X1719950Y1513260D01*
G03X1687946Y1481256I0J-32004D01*
G01X1687946Y1443153D01*
G01X1649856Y1443153D01*
G03X1617852Y1411149I0J-32004D01*
G01X1617852Y1261149D01*
G03X1649856Y1229145I32004J0D01*
G01X1687946Y1229145D01*
G01X1687946Y1191144D01*
G03X1719950Y1159140I32004J0D01*
G01X1979949Y1159140D01*
G03X2011953Y1191144I0J32004D01*
G01X2011953Y1229145D01*
G01X2050144Y1229145D01*
G01X2050811Y1229152D01*
G03X2070843Y1166241I60589J-15352D01*
G03X2136129Y1156396I40557J47559D01*
G01X2155356Y1156396D01*
G03X2150084Y1138800I26733J-17596D01*
G01X2150084Y1084800D01*
G03X2150425Y1080142I32004J0D01*
G03X2138812Y1081942I-11613J-36554D01*
G01X1473554Y1081942D01*
G03X1469259Y1141099I-42550J26645D01*
G03X1431004Y1223815I-38255J32512D01*
G01X1298205Y1223815D01*
G03X1265810Y1211965I0J-50204D01*
G01X1199111Y1211965D01*
G03X1171990Y1200731I0J-38354D01*
G01X1084680Y1113421D01*
G03X1073446Y1086300I27120J-27120D01*
G01X1073446Y802816D01*
G01X1038900Y802816D01*
G03X1014893Y791975I0J-32004D01*
G03X993848Y799868I-21045J-24112D01*
G01X939848Y799868D01*
G03X915848Y789036I0J-32004D01*
G03X891848Y799868I-24000J-21172D01*
G01X837848Y799868D01*
G03X822752Y796084I0J-32004D01*
G01X822752Y867512D01*
G03X790748Y899516I-32004J0D01*
G01X704348Y899516D01*
G03X672344Y867512I0J-32004D01*
G01X672344Y786865D01*
G03X704348Y754861I32004J0D01*
G01X790748Y754861D01*
G03X805844Y758644I0J32004D01*
G01X805844Y745060D01*
G03X790748Y748843I-15095J-28220D01*
G01X704348Y748843D01*
G03X672344Y716839I0J-32004D01*
G01X672344Y667338D01*
G01X514268Y825414D01*
G03X484453Y837764I-29814J-29814D01*
G01X291804Y837764D01*
G01X291804Y871800D01*
G03X259800Y903804I-32004J0D01*
G01X233911Y903804D01*
G03X183600Y1107804I-50311J95796D01*
G03X133289Y903804I0J-108204D01*
G01X107400Y903804D01*
G03X75396Y871800I0J-32004D01*
G01X75396Y719400D01*
G03X107400Y687396I32004J0D01*
G01X259800Y687396D01*
G03X291804Y719400I0J32004D01*
G01X291804Y753436D01*
G01X466988Y753436D01*
G01X758966Y461458D01*
G03X732285Y429900I5323J-31558D01*
G01X732285Y375900D01*
G03X741511Y353418I32004J0D01*
G03X731234Y329920I21727J-23498D01*
G01X731234Y286853D01*
G03X705154Y292296I-25516J-57059D01*
G03X695053Y297267I-24632J-37305D01*
G01X695053Y350002D01*
G03X667359Y381714I-32004J0D01*
G03X609034Y508994I-58326J50276D01*
G01X489034Y508994D01*
G03X428540Y479636I0J-77004D01*
G03X415754Y493053I-51140J-35937D01*
G01X415754Y494419D01*
G03X435068Y523800I-12690J29381D01*
G01X435068Y577800D01*
G03X403064Y609804I-32004J0D01*
G01X346499Y609804D01*
G03X331500Y606072I0J-32004D01*
G03X316501Y609804I-14999J-28272D01*
G01X259935Y609804D01*
G03X227931Y577800I0J-32004D01*
G01X227931Y523800D01*
G03X259935Y491796I32004J0D01*
G01X316501Y491796D01*
G03X331500Y495528I0J32004D01*
G03X338679Y492766I14999J28272D01*
G03X329945Y403021I38721J-49066D01*
G03X419970Y397934I47455J40679D01*
G03X489034Y354987I69063J34057D01*
G01X516435Y354987D01*
G03X516044Y350002I31613J-4985D01*
G01X516044Y349280D01*
G03X432437Y311069I-22992J-60266D01*
G03X471939Y228064I60615J-22055D01*
G03X404479Y173220I-5398J-62271D01*
G03X457093Y104007I62061J-7427D01*
G01X429425Y76340D01*
G03X417076Y46525I29814J-29814D01*
G01X417076Y4474D01*
G03X429425Y-25340I42164J0D01*
G01X457460Y-53375D01*
G03X516044Y-133585I52540J-23125D01*
G01X516044Y-135046D01*
G01X500986Y-135046D01*
G03X475686Y-144574I0J-38354D01*
G03X408790Y-185994I-7879J-62005D01*
G03X435412Y-260034I59017J-20586D01*
G03X445196Y-332238I57640J-28954D01*
G03X516044Y-349255I47856J43249D01*
G01X516044Y-350002D01*
G03X516435Y-354987I32004J0D01*
G01X489034Y-354987D01*
G03X417555Y-403349I0J-77004D01*
G03X330431Y-407770I-41293J-46922D01*
G03X332583Y-494980I45831J-42500D01*
G01X331500Y-495528D01*
G03X316501Y-491796I-14999J-28272D01*
G01X259935Y-491796D01*
G03X227931Y-523800I0J-32004D01*
G01X227931Y-577800D01*
G03X259935Y-609804I32004J0D01*
G01X316501Y-609804D01*
G03X331500Y-606072I0J32004D01*
G03X346499Y-609804I14999J28272D01*
G01X403064Y-609804D01*
G03X435068Y-577800I0J32004D01*
G01X435068Y-523800D01*
G03X418891Y-495983I-32004J0D01*
G03X430263Y-481746I-42628J45712D01*
G03X489034Y-508994I58771J49755D01*
G01X609034Y-508994D01*
G03X667359Y-381714I0J77004D01*
G03X695053Y-350002I-4310J31712D01*
G01X695053Y-299126D01*
G03X749050Y-283984I11915J61358D01*
G03X769171Y-231638I-42082J46216D01*
G01X983076Y-445544D01*
G01X983076Y-780440D01*
G03X995426Y-810254I42164J0D01*
G01X1110682Y-925510D01*
G03X1140496Y-937860I29814J29814D01*
G01X1211125Y-937860D01*
G03X1239090Y-954300I27965J15564D01*
G01X1346291Y-954300D01*
G03X1378295Y-922296I0J32004D01*
G01X1378295Y-869096D01*
G03X1370530Y-848198I-32004J0D01*
G03X1378295Y-827300I-24239J20898D01*
G01X1378295Y-808034D01*
G01X1411914Y-774415D01*
G03X1424264Y-744600I-29814J29815D01*
G01X1424264Y-673200D01*
G03X1417354Y-650071I-42164J0D01*
G03X1439820Y-639120I-4654J38071D01*
G01X1476752Y-602189D01*
G03X1487985Y-575069I-27120J27120D01*
G01X1487985Y-570998D01*
G01X1528602Y-570998D01*
G03X1560606Y-538994I0J32004D01*
G01X1560606Y-438994D01*
G03X1528602Y-406990I-32004J0D01*
G01X1513851Y-406990D01*
G01X1602990Y-317851D01*
G01X1602990Y-340006D01*
G03X1604590Y-349999I32004J0D01*
G03X1602990Y-359993I30404J-9994D01*
G01X1602990Y-389993D01*
G03X1604594Y-399999I32004J0D01*
G03X1602990Y-410006I30399J-10006D01*
G01X1602990Y-440005D01*
G03X1634994Y-472009I32004J0D01*
G01X1714994Y-472009D01*
G03X1746998Y-440005I0J32004D01*
G01X1746998Y-438480D01*
G03X1819254Y-426439I27802J55980D01*
G03X1830453Y-354047I-44454J43939D01*
G03X1832520Y-352126I-25053J29041D01*
G01X2000820Y-183826D01*
G03X2012054Y-156706I-27120J27120D01*
G01X2012054Y69379D01*
G03X2072593Y54443I43246J45128D01*
G01X2072593Y46193D01*
G03X2104597Y14189I32004J0D01*
G01X2171096Y14189D01*
G03X2177197Y14776I0J32004D01*
G03X2176614Y8696I31421J-6080D01*
G01X2176614Y-57804D01*
G03X2176885Y-61959I32004J0D01*
G03X2114846Y-123005I-985J-61046D01*
G01X2114846Y-164544D01*
G01X2033280Y-246110D01*
G03X2022046Y-273231I27120J-27120D01*
G01X2022046Y-795600D01*
G03X2033280Y-822720I38354J0D01*
G01X2107069Y-896510D01*
G03X2134190Y-907744I27120J27120D01*
G01X2195984Y-907744D01*
G01X2195984Y-939900D01*
G03X2227988Y-971904I32004J0D01*
G01X2277988Y-971904D01*
G03X2295000Y-967008I0J32004D01*
G03X2312012Y-971904I17012J27108D01*
G01X2362012Y-971904D01*
G03X2372005Y-970304I0J32004D01*
G01X2406695Y-970304D01*
G03X2416688Y-971904I9993J30404D01*
G01X2466688Y-971904D01*
G03X2483700Y-967008I0J32004D01*
G03X2500712Y-971904I17012J27108D01*
G01X2550711Y-971904D01*
G03X2582715Y-939900I0J32004D01*
G01X2582715Y-885900D01*
G03X2561742Y-855857I-32004J0D01*
G03X2617954Y-794995I-4842J60862D01*
G01X2617954Y-725544D01*
G03X2495846Y-725544I-61054J0D01*
G01X2495846Y-794995D01*
G03X2540828Y-853896I61054J0D01*
G01X2500712Y-853896D01*
G03X2483700Y-858791I0J-32004D01*
G03X2466688Y-853896I-17012J-27108D01*
G01X2445972Y-853896D01*
G03X2490954Y-794995I-16072J58901D01*
G01X2490954Y-725544D01*
G03X2448689Y-667453I-61054J0D01*
G03X2447429Y-661004I-61889J-8747D01*
G01X2581400Y-661004D01*
G03X2613404Y-629000I0J32004D01*
G01X2613404Y-289000D01*
G03X2581400Y-256996I-32004J0D01*
G01X2151401Y-256996D01*
G03X2119397Y-289000I0J-32004D01*
G01X2119397Y-616183D01*
G03X2098754Y-617315I-6946J-62117D01*
G01X2098754Y-289117D01*
G01X2143603Y-244268D01*
G03X2236954Y-192456I32297J51812D01*
G01X2236954Y-150917D01*
G01X2239400Y-148471D01*
G01X2241846Y-150917D01*
G01X2241846Y-192456D01*
G03X2363954Y-192456I61054J0D01*
G01X2363954Y-146025D01*
G01X2368846Y-150917D01*
G01X2368846Y-192456D01*
G03X2490954Y-192456I61054J0D01*
G01X2490954Y-146025D01*
G01X2495846Y-150917D01*
G01X2495846Y-192456D01*
G03X2617954Y-192456I61054J0D01*
G01X2617954Y-123005D01*
G03X2608138Y-89804I-61054J0D01*
G01X2608618Y-89808D01*
G01X2628618Y-89808D01*
G03X2638607Y-88208I0J32004D01*
G03X2648597Y-89808I9990J30405D01*
G01X2668597Y-89808D01*
G03X2678600Y-88204I0J32004D01*
G03X2688602Y-89808I10003J30401D01*
G01X2708602Y-89808D01*
G03X2718605Y-88204I0J32004D01*
G03X2728607Y-89808I10003J30401D01*
G01X2748607Y-89808D01*
G03X2780611Y-57804I0J32004D01*
G01X2780611Y8696D01*
G03X2780029Y14771I-32004J0D01*
G03X2786104Y14189I6075J31422D01*
G01X2852604Y14189D01*
G03X2884608Y46193I0J32004D01*
G01X2884608Y66193D01*
G03X2883004Y76195I-32004J0D01*
G03X2884608Y86198I-30401J10003D01*
G01X2884608Y100463D01*
G01X2890336Y94735D01*
G01X2890336Y-32305D01*
G03X2873496Y-60489I15164J-28184D01*
G01X2873496Y-110488D01*
G03X2878392Y-127500I32004J0D01*
G03X2873496Y-144512I27108J-17012D01*
G01X2873496Y-194512D01*
G03X2905500Y-226516I32004J0D01*
G01X2959500Y-226516D01*
G03X2991504Y-194512I0J32004D01*
G01X2991504Y-144512D01*
G01X2991463Y-142893D01*
G01X3005214Y-142893D01*
G01X3005214Y-158625D01*
G03X3002332Y-171900I29121J-13275D01*
G01X3002332Y-225900D01*
G03X3005214Y-239175I32004J0D01*
G01X3005214Y-253696D01*
G01X2982729Y-253696D01*
G03X2901144Y-285135I-24729J-57404D01*
G03X2930812Y-367381I56856J-25964D01*
G03X2920184Y-391200I21376J-23819D01*
G01X2920184Y-445200D01*
G03X2952188Y-477204I32004J0D01*
G01X3002188Y-477204D01*
G03X3005214Y-477061I0J32004D01*
G01X3005214Y-490125D01*
G03X3002332Y-503400I29121J-13275D01*
G01X3002332Y-557400D01*
G03X3005214Y-570675I32004J0D01*
G01X3005214Y-585196D01*
G01X2985703Y-585196D01*
G03X2898469Y-642600I-24729J-57404D01*
G03X2985703Y-700004I62504J0D01*
G01X3005214Y-700004D01*
G01X3005214Y-709425D01*
G03X3002332Y-722700I29121J-13275D01*
G01X3002332Y-776700D01*
G03X3005214Y-789975I32004J0D01*
G01X3005214Y-811412D01*
G03X3053154Y-903628I54786J-30088D01*
G03X3120022Y-824063I6846J62128D01*
G01X3120022Y-808692D01*
G01X3120899Y-808704D01*
G01X3139053Y-808704D01*
G01X3207576Y-877227D01*
G03X3269565Y-974487I51324J-35673D01*
G03X3295240Y-862046I-10665J61587D01*
G03X3291466Y-854050I-36340J-12264D01*
G03X3321306Y-804209I-32566J53350D01*
G03X3297241Y-751337I-62405J3509D01*
G03X3291280Y-731763I-38341J-981D01*
G03X3295053Y-627312I-32380J53463D01*
G03X3286967Y-613978I-36153J-12806D01*
G03X3315852Y-568500I-33167J52979D01*
G03X3298634Y-517449I-62052J7500D01*
G03X3297241Y-419837I-39734J48249D01*
G03X3286020Y-393698I-38341J-981D01*
G01X3209469Y-317146D01*
G01X3209469Y-293253D01*
G03X3307117Y-294773I49431J38253D01*
G03X3287054Y-199196I-48217J39773D01*
G03X3318686Y-125159I-28154J55804D01*
G03X3251122Y-81373I-59786J-18232D01*
G01X3229329Y-59580D01*
G03X3207525Y-48716I-27120J-27120D01*
G03X3177465Y-27696I-30060J-10984D01*
G01X3120899Y-27696D01*
G03X3105900Y-31428I0J-32004D01*
G03X3090901Y-27696I-14999J-28272D01*
G01X3034336Y-27696D01*
G03X3029363Y-28085I0J-32004D01*
G01X2974664Y-28085D01*
G01X2974664Y112200D01*
G03X2962315Y142014I-42164J0D01*
G01X2943082Y161247D01*
G03X2946300Y161085I3217J31842D01*
G01X2976063Y161085D01*
G01X3016289Y120859D01*
G01X3016289Y71899D01*
G03X3066293Y21895I50004J0D01*
G01X3170293Y21895D01*
G03X3220297Y71899I0J50004D01*
G01X3220297Y155899D01*
G03X3195813Y198900I-50004J0D01*
G03X3220297Y241901I-25520J43001D01*
G01X3220297Y324851D01*
G01X3236304Y308844D01*
G01X3236304Y241901D01*
G03X3260787Y198900I50004J0D01*
G03X3236304Y155899I25520J-43001D01*
G01X3236304Y71899D01*
G03X3286308Y21895I50004J0D01*
G01X3390307Y21895D01*
G03X3440311Y71899I0J50004D01*
G01X3440311Y155899D01*
G03X3415828Y198900I-50004J0D01*
G03X3440311Y241901I-25520J43001D01*
G01X3440311Y325901D01*
G03X3390307Y375905I-50004J0D01*
G01X3340948Y375905D01*
G03X3342616Y386100I-30337J10195D01*
G01X3342616Y440100D01*
G03X3310612Y472104I-32004J0D01*
G01X3260612Y472104D01*
G03X3243600Y467209I0J-32004D01*
G03X3226588Y472104I-17012J-27108D01*
G01X3176589Y472104D01*
G03X3145201Y446354I0J-32004D01*
G01X3072435Y446354D01*
G01X3086940Y460859D01*
G03X3095138Y466793I-14432J28565D01*
G01X3130493Y502149D01*
G03X3139060Y517640I-22630J22630D01*
G03X3154551Y526207I-7139J31198D01*
G01X3189907Y561562D01*
G03X3189907Y606823I-22630J22630D01*
G01X3151723Y645007D01*
G03X3129213Y654380I-22630J-22630D01*
G03X3119851Y676128I-31992J-883D01*
G01X3081667Y714312D01*
G03X3036407Y714312I-22630J-22630D01*
G01X3001051Y678956D01*
G03X2992484Y663465I22630J-22630D01*
G03X2976993Y654898I7139J-31198D01*
G01X2941638Y619543D01*
G01X2940645Y618504D01*
G01X2786103Y618504D01*
G03X2780087Y617933I0J-32004D01*
G03X2780499Y621031I-31479J5770D01*
G03X2887546Y673820I-41892J219881D01*
G03X2909798Y683191I-378J32002D01*
G01X2932709Y706102D01*
G03X2942060Y729918I-22630J22630D01*
G03X2964762Y739291I72J32004D01*
G01X2990814Y765343D01*
G03X2996270Y772630I-22630J22630D01*
G03X3003557Y778086I-15343J28086D01*
G01X3029609Y804138D01*
G03X3037275Y816454I-22630J22630D01*
G01X3058338Y795391D01*
G03X3103598Y795391I22630J22630D01*
G01X3126509Y818302D01*
G03X3132280Y826181I-22630J22630D01*
G01X3467996Y490464D01*
G01X3467996Y-1046534D01*
G02X3346450Y-1361164I-467996J0D01*
G03X3152304Y-1251999I-121493J11152D01*
G03X3200302Y-1469499I72653J-98013D01*
G02X3000000Y-1514530I-200302J422965D01*
G01X2844931Y-1514530D01*
G01X2844931Y-1467534D01*
G03X2812927Y-1435530I-32004J0D01*
G01X687303Y-1435530D01*
G03X655299Y-1467534I0J-32004D01*
G01X655299Y-1514530D01*
G01X500000Y-1514530D01*
G02X299695Y-1469497I0J467996D01*
G03X347688Y-1252001I-24662J119485D01*
G03X153539Y-1361153I-72655J-98011D01*
G02X32004Y-1046534I346461J314619D01*
G01X32004Y-486840D01*
G03X86051Y-508994I54047J54850D01*
G01X176051Y-508994D01*
G03X176051Y-354987I0J77004D01*
G01X86051Y-354987D01*
G01X725003Y-1241725D02*
G03X692999Y-1273729I0J-32004D01*
G01X692999Y-1278796D01*
G01X648205Y-1278796D01*
G03X638212Y-1277196I-9993J-30404D01*
G01X588212Y-1277196D01*
G03X571200Y-1282092I0J-32004D01*
G03X554188Y-1277196I-17012J-27108D01*
G01X504188Y-1277196D01*
G03X472184Y-1309200I0J-32004D01*
G01X472184Y-1363200D01*
G03X504188Y-1395204I32004J0D01*
G01X554188Y-1395204D01*
G03X571200Y-1390309I0J32004D01*
G03X588212Y-1395204I17012J27108D01*
G01X638212Y-1395204D01*
G03X648205Y-1393604I0J32004D01*
G01X692999Y-1393604D01*
G01X692999Y-1393858D01*
G03X725003Y-1425733I31939J65D01*
G01X815003Y-1425733D01*
G03X847007Y-1393729I0J32004D01*
G01X847007Y-1275742D01*
G01X881438Y-1275742D01*
G03X932505Y-1398410I33574J-57987D01*
G03X914781Y-1266724I-17493J64681D01*
G03X924516Y-1243738I-22269J22986D01*
G01X924516Y-1113738D01*
G03X892512Y-1081734I-32004J0D01*
G01X772513Y-1081734D01*
G03X740509Y-1113738I0J-32004D01*
G01X740509Y-1241725D01*
G01X725003Y-1241725D01*
G01X931359Y1223815D02*
G01X868996Y1223815D01*
G03X830741Y1141099I0J-50204D01*
G03X830730Y1076087I38255J-32512D01*
G03X830730Y1011089I38266J-32499D01*
G03X868996Y928385I38266J-32499D01*
G01X1001795Y928385D01*
G03X1040061Y1011089I0J50204D01*
G03X1040061Y1076087I-38266J32499D01*
G03X1049092Y1091752I-38266J32499D01*
G01X1240350Y1283009D01*
G01X1329998Y1283009D01*
G03X1362002Y1315013I0J32004D01*
G01X1362002Y1319634D01*
G01X1382115Y1319634D01*
G03X1411200Y1300984I29085J13354D01*
G01X1465200Y1300984D01*
G03X1497204Y1332988I0J32004D01*
G01X1497204Y1382988D01*
G03X1492309Y1400000I-32004J0D01*
G03X1497204Y1417012I-27108J17012D01*
G01X1497204Y1467012D01*
G03X1465200Y1499016I-32004J0D01*
G01X1411200Y1499016D01*
G03X1379196Y1467012I0J-32004D01*
G01X1379196Y1417012D01*
G03X1384092Y1400000I32004J0D01*
G03X1382115Y1396342I27108J-17012D01*
G01X1362002Y1396342D01*
G01X1362002Y1485013D01*
G03X1329998Y1517017I-32004J0D01*
G01X1224997Y1517017D01*
G03X1192993Y1485013I0J-32004D01*
G01X1192993Y1344134D01*
G01X1046094Y1197234D01*
G03X1030691Y1214665I-44299J-23624D01*
G01X1049628Y1233602D01*
G03X1060861Y1260722I-27120J27120D01*
G01X1060861Y1283009D01*
G01X1075008Y1283009D01*
G03X1107012Y1315013I0J32004D01*
G01X1107012Y1485013D01*
G03X1075008Y1517017I-32004J0D01*
G01X970007Y1517017D01*
G03X938003Y1485013I0J-32004D01*
G01X938003Y1396342D01*
G01X917985Y1396342D01*
G03X916008Y1400000I-29085J-13354D01*
G03X920904Y1417012I-27108J17012D01*
G01X920904Y1467012D01*
G03X888900Y1499016I-32004J0D01*
G01X834900Y1499016D01*
G03X802896Y1467012I0J-32004D01*
G01X802896Y1417012D01*
G03X807791Y1400000I32004J0D01*
G03X802896Y1382988I27108J-17012D01*
G01X802896Y1332988D01*
G03X834900Y1300984I32004J0D01*
G01X888900Y1300984D01*
G03X917985Y1319634I0J32004D01*
G01X938003Y1319634D01*
G01X938003Y1315013D01*
G03X970007Y1283009I32004J0D01*
G01X984153Y1283009D01*
G01X984153Y1276609D01*
G01X931359Y1223815D01*
G01X1067520Y-1398410D02*
G03X1118588Y-1275742I17493J64681D01*
G01X1152993Y-1275742D01*
G01X1152993Y-1393729D01*
G03X1184997Y-1425733I32004J0D01*
G01X1274997Y-1425733D01*
G03X1307001Y-1393729I0J32004D01*
G01X1307001Y-1273729D01*
G03X1274997Y-1241725I-32004J0D01*
G01X1259517Y-1241725D01*
G01X1259517Y-1113738D01*
G03X1227513Y-1081734I-32004J0D01*
G01X1107513Y-1081734D01*
G03X1075509Y-1113738I0J-32004D01*
G01X1075509Y-1243738D01*
G03X1085244Y-1266724I32004J0D01*
G03X1067520Y-1398410I-231J-67005D01*
G01X1704692Y-898807D02*
G03X1601753Y-849947I-62492J1207D01*
G01X1600349Y-848198D01*
G03X1608114Y-827300I-24239J20898D01*
G01X1608114Y-774100D01*
G03X1600349Y-753202I-32004J0D01*
G01X1601753Y-751453D01*
G03X1704692Y-702593I40447J47653D01*
G03X1599943Y-657744I-62492J-1207D01*
G03X1576110Y-647100I-23833J-21360D01*
G01X1468909Y-647100D01*
G03X1436905Y-679104I0J-32004D01*
G01X1436905Y-732304D01*
G03X1444670Y-753202I32004J0D01*
G03X1436905Y-774100I24239J-20898D01*
G01X1436905Y-827300D01*
G03X1444670Y-848198I32004J0D01*
G03X1436905Y-869096I24239J-20898D01*
G01X1436905Y-922296D01*
G03X1468909Y-954300I32004J0D01*
G01X1576110Y-954300D01*
G03X1599943Y-943656I0J32004D01*
G03X1704692Y-898807I42257J46056D01*
G01X1475003Y-1241725D02*
G03X1442999Y-1273729I0J-32004D01*
G01X1442999Y-1393729D01*
G03X1475003Y-1425733I32004J0D01*
G01X1565003Y-1425733D01*
G03X1597007Y-1393729I0J32004D01*
G01X1597007Y-1275742D01*
G01X1631438Y-1275742D01*
G03X1682505Y-1398410I33574J-57987D01*
G03X1664781Y-1266724I-17493J64681D01*
G03X1674516Y-1243738I-22269J22986D01*
G01X1674516Y-1113738D01*
G03X1642512Y-1081734I-32004J0D01*
G01X1522513Y-1081734D01*
G03X1490509Y-1113738I0J-32004D01*
G01X1490509Y-1241725D01*
G01X1475003Y-1241725D01*
G01X1817520Y-1398410D02*
G03X1868588Y-1275742I17493J64681D01*
G01X1902993Y-1275742D01*
G01X1902993Y-1393729D01*
G03X1934997Y-1425733I32004J0D01*
G01X2024997Y-1425733D01*
G03X2057001Y-1393729I0J32004D01*
G01X2057001Y-1273729D01*
G03X2024997Y-1241725I-32004J0D01*
G01X2009517Y-1241725D01*
G01X2009517Y-1113738D01*
G03X1977513Y-1081734I-32004J0D01*
G01X1857513Y-1081734D01*
G03X1825509Y-1113738I0J-32004D01*
G01X1825509Y-1243738D01*
G03X1835244Y-1266724I32004J0D01*
G03X1817520Y-1398410I-231J-67005D01*
G01X1965006Y-577009D02*
G03X1997010Y-545005I0J32004D01*
G01X1997010Y-505005D01*
G03X1965006Y-473001I-32004J0D01*
G01X1885006Y-473001D01*
G03X1853002Y-505005I0J-32004D01*
G01X1853002Y-545005D01*
G03X1885006Y-577009I32004J0D01*
G01X1965006Y-577009D01*
G01X2225003Y-1241725D02*
G03X2192999Y-1273729I0J-32004D01*
G01X2192999Y-1393729D01*
G03X2225003Y-1425733I32004J0D01*
G01X2315003Y-1425733D01*
G03X2347007Y-1393729I0J32004D01*
G01X2347007Y-1275742D01*
G01X2381438Y-1275742D01*
G03X2432505Y-1398410I33574J-57987D01*
G03X2414781Y-1266724I-17493J64681D01*
G03X2424516Y-1243738I-22269J22986D01*
G01X2424516Y-1113738D01*
G03X2392512Y-1081734I-32004J0D01*
G01X2272513Y-1081734D01*
G03X2240509Y-1113738I0J-32004D01*
G01X2240509Y-1241725D01*
G01X2225003Y-1241725D01*
G01X2759517Y-1113738D02*
G03X2727513Y-1081734I-32004J0D01*
G01X2607513Y-1081734D01*
G03X2575509Y-1113738I0J-32004D01*
G01X2575509Y-1243738D01*
G03X2585245Y-1266724I32004J0D01*
G03X2567520Y-1398410I-231J-67005D01*
G03X2618588Y-1275742I17493J64681D01*
G01X2652993Y-1275742D01*
G01X2652993Y-1393729D01*
G03X2684997Y-1425733I32004J0D01*
G01X2774997Y-1425733D01*
G03X2807001Y-1393729I0J32004D01*
G01X2807001Y-1273729D01*
G03X2774997Y-1241725I-32004J0D01*
G01X2759517Y-1241725D01*
G01X2759517Y-1113738D01*
G01X148200Y1362104D02*
G01X154373Y1368277D01*
G01X78175Y1256157D02*
G01X154291Y1332273D01*
G01X292727Y1470709D02*
G01X297309Y1475292D01*
G01X54378Y1196440D02*
G01X161982Y1304044D01*
G01X320956Y1463018D02*
G01X357026Y1499088D01*
G01X41597Y1147738D02*
G01X174577Y1280717D01*
G01X344283Y1450423D02*
G01X405728Y1511869D01*
G01X34859Y1105078D02*
G01X191154Y1261373D01*
G01X363627Y1433846D02*
G01X448388Y1518608D01*
G01X32185Y1066484D02*
G01X211516Y1245814D01*
G01X379186Y1413484D02*
G01X486983Y1521281D01*
G01X32004Y1030382D02*
G01X236015Y1234393D01*
G01X390608Y1388985D02*
G01X523085Y1521462D01*
G01X32004Y994461D02*
G01X88198Y1050655D01*
G01X132545Y1095002D02*
G01X265881Y1228338D01*
G01X396663Y1359119D02*
G01X559006Y1521462D01*
G01X32004Y958539D02*
G01X75422Y1001957D01*
G01X181243Y1107778D02*
G01X305277Y1231813D01*
G01X393187Y1319723D02*
G01X594927Y1521462D01*
G01X32004Y922618D02*
G01X79493Y970107D01*
G01X213093Y1103707D02*
G01X630848Y1521462D01*
G01X32004Y886697D02*
G01X90228Y944921D01*
G01X238279Y1092972D02*
G01X666769Y1521462D01*
G01X32004Y850776D02*
G01X105715Y924487D01*
G01X258713Y1077485D02*
G01X702690Y1521462D01*
G01X32004Y814855D02*
G01X75396Y858247D01*
G01X120952Y903804D02*
G01X125479Y908331D01*
G01X274869Y1057721D02*
G01X738611Y1521462D01*
G01X32004Y778934D02*
G01X75396Y822326D01*
G01X286409Y1033340D02*
G01X774532Y1521462D01*
G01X32004Y743013D02*
G01X75396Y786405D01*
G01X291758Y1002767D02*
G01X810453Y1521462D01*
G01X32004Y707092D02*
G01X75396Y750484D01*
G01X283889Y958978D02*
G01X806313Y1481402D01*
G01X820510Y1495598D02*
G01X846374Y1521462D01*
G01X32004Y671171D02*
G01X75716Y714884D01*
G01X264316Y903484D02*
G01X802896Y1442063D01*
G01X859848Y1499016D02*
G01X882295Y1521462D01*
G01X32004Y635250D02*
G01X89574Y692820D01*
G01X286380Y889626D02*
G01X804321Y1407567D01*
G01X895153Y1498399D02*
G01X918216Y1521462D01*
G01X32004Y599329D02*
G01X120071Y687396D01*
G01X291804Y859129D02*
G01X802896Y1370221D01*
G01X916271Y1483597D02*
G01X954137Y1521462D01*
G01X32004Y563408D02*
G01X155992Y687396D01*
G01X306360Y837764D02*
G01X802896Y1334300D01*
G01X920904Y1452308D02*
G01X938003Y1469407D01*
G01X985612Y1517017D02*
G01X990058Y1521462D01*
G01X32004Y527487D02*
G01X191913Y687396D01*
G01X342281Y837764D02*
G01X813610Y1309093D01*
G01X920898Y1416381D02*
G01X938003Y1433486D01*
G01X1021533Y1517017D02*
G01X1025979Y1521462D01*
G01X32004Y491566D02*
G01X227834Y687396D01*
G01X291804Y751366D02*
G01X293874Y753436D01*
G01X378202Y837764D02*
G01X841422Y1300984D01*
G01X936780Y1396342D02*
G01X938003Y1397565D01*
G01X1057454Y1517017D02*
G01X1061900Y1521462D01*
G01X85350Y508991D02*
G01X264036Y687677D01*
G01X291522Y715164D02*
G01X329795Y753436D01*
G01X414123Y837764D02*
G01X877343Y1300984D01*
G01X1089768Y1513409D02*
G01X1097821Y1521462D01*
G01X121274Y508994D02*
G01X365716Y753436D01*
G01X450044Y837764D02*
G01X931914Y1319634D01*
G01X1105847Y1493567D02*
G01X1133742Y1521462D01*
G01X157195Y508994D02*
G01X227994Y579793D01*
G01X257943Y609742D02*
G01X401637Y753436D01*
G01X485939Y837738D02*
G01X818877Y1170677D01*
G01X872016Y1223815D02*
G01X944236Y1296035D01*
G01X1107012Y1458811D02*
G01X1169663Y1521462D01*
G01X32004Y347882D02*
G01X48748Y364626D01*
G01X191542Y507420D02*
G01X227931Y543810D01*
G01X293926Y609804D02*
G01X437558Y753436D01*
G01X511808Y827686D02*
G01X828314Y1144192D01*
G01X907937Y1223815D02*
G01X967250Y1283128D01*
G01X1107012Y1422890D02*
G01X1205584Y1521462D01*
G01X32004Y311961D02*
G01X75725Y355682D01*
G01X217152Y497109D02*
G01X230738Y510695D01*
G01X327790Y607747D02*
G01X470234Y750191D01*
G01X529862Y809820D02*
G01X819609Y1099566D01*
G01X1107012Y1386969D02*
G01X1192993Y1472950D01*
G01X1237059Y1517017D02*
G01X1241505Y1521462D01*
G01X32004Y276040D02*
G01X110951Y354987D01*
G01X236127Y480163D02*
G01X249507Y493543D01*
G01X365768Y609804D02*
G01X488194Y732230D01*
G01X547823Y791859D02*
G01X826883Y1070919D01*
G01X1107012Y1351048D02*
G01X1192993Y1437029D01*
G01X1272980Y1517017D02*
G01X1277426Y1521462D01*
G01X32004Y240119D02*
G01X146872Y354987D01*
G01X248882Y456997D02*
G01X283681Y491796D01*
G01X401689Y609804D02*
G01X506155Y714270D01*
G01X565783Y773899D02*
G01X679228Y887343D01*
G01X684517Y892632D02*
G01X820941Y1029056D01*
G01X1060861Y1268976D02*
G01X1074894Y1283009D01*
G01X1107012Y1315127D02*
G01X1192993Y1401108D01*
G01X1308902Y1517017D02*
G01X1313347Y1521462D01*
G01X32004Y204198D02*
G01X183118Y355311D01*
G01X252730Y424924D02*
G01X319769Y491963D01*
G01X426930Y599124D02*
G01X524115Y696309D01*
G01X583744Y755938D02*
G01X672344Y844538D01*
G01X727322Y899516D02*
G01X820947Y993141D01*
G01X1037105Y1209299D02*
G01X1192993Y1365187D01*
G01X1342345Y1514539D02*
G01X1349268Y1521462D01*
G01X32004Y168277D02*
G01X315408Y451681D01*
G01X435068Y571341D02*
G01X542076Y678349D01*
G01X601705Y737977D02*
G01X672344Y808617D01*
G01X763243Y899516D02*
G01X822758Y959031D01*
G01X1359968Y1496241D02*
G01X1385189Y1521462D01*
G01X32004Y132356D02*
G01X319588Y419940D01*
G01X435068Y535420D02*
G01X560036Y660388D01*
G01X619665Y720017D02*
G01X674631Y774983D01*
G01X798268Y898620D02*
G01X838419Y938771D01*
G01X1362002Y1462354D02*
G01X1384909Y1485261D01*
G01X1392951Y1493303D02*
G01X1421110Y1521462D01*
G01X32004Y96435D02*
G01X334147Y398578D01*
G01X422522Y486953D02*
G01X577997Y642428D01*
G01X637626Y702056D02*
G01X692646Y757077D01*
G01X818689Y883120D02*
G01X864185Y928616D01*
G01X1362002Y1426433D02*
G01X1379196Y1443627D01*
G01X1434585Y1499016D02*
G01X1457031Y1521462D01*
G01X32004Y60514D02*
G01X356341Y384850D01*
G01X479946Y508456D02*
G01X595957Y624467D01*
G01X655586Y684096D02*
G01X672344Y700853D01*
G01X720333Y748843D02*
G01X726351Y754861D01*
G01X822752Y851262D02*
G01X899875Y928385D01*
G01X1043309Y1071819D02*
G01X1082295Y1110804D01*
G01X1174605Y1203115D02*
G01X1254499Y1283009D01*
G01X1367833Y1396342D02*
G01X1380272Y1408782D01*
G01X1470125Y1498634D02*
G01X1492952Y1521462D01*
G01X32004Y24593D02*
G01X389862Y382451D01*
G01X516406Y508994D02*
G01X613918Y606507D01*
G01X756254Y748843D02*
G01X762272Y754861D01*
G01X822752Y815341D02*
G01X935796Y928385D01*
G01X1051989Y1044578D02*
G01X1073446Y1066035D01*
G01X1219376Y1211965D02*
G01X1290420Y1283009D01*
G01X1491967Y1484556D02*
G01X1528873Y1521462D01*
G01X32004Y-11328D02*
G01X428162Y384829D01*
G01X552327Y508994D02*
G01X631878Y588546D01*
G01X792145Y748813D02*
G01X799378Y756046D01*
G01X843200Y799868D02*
G01X971717Y928385D01*
G01X1045902Y1002570D02*
G01X1073446Y1030114D01*
G01X1255297Y1211965D02*
G01X1326341Y1283009D01*
G01X1362002Y1318670D02*
G01X1362967Y1319634D01*
G01X1497204Y1453872D02*
G01X1564794Y1521462D01*
G01X32004Y-47249D02*
G01X446833Y367580D01*
G01X588248Y508994D02*
G01X649839Y570586D01*
G01X879121Y799868D02*
G01X1008026Y928773D01*
G01X1051611Y972358D02*
G01X1073446Y994193D01*
G01X1303068Y1223815D02*
G01X1389097Y1309843D01*
G01X1497204Y1417951D02*
G01X1600715Y1521462D01*
G01X32004Y-83170D02*
G01X438318Y323144D01*
G01X458922Y343748D02*
G01X472056Y356882D01*
G01X622908Y507734D02*
G01X667799Y552625D01*
G01X909640Y794466D02*
G01X1073446Y958272D01*
G01X1338989Y1223815D02*
G01X1416159Y1300984D01*
G01X1497204Y1382030D02*
G01X1636637Y1521462D01*
G01X32004Y-119091D02*
G01X429438Y278342D01*
G01X503724Y352628D02*
G01X506082Y354987D01*
G01X648941Y497846D02*
G01X685760Y534665D01*
G01X950963Y799868D02*
G01X1073446Y922351D01*
G01X1374910Y1223815D02*
G01X1452080Y1300984D01*
G01X1497204Y1346109D02*
G01X1672558Y1521462D01*
G01X32004Y-155012D02*
G01X439732Y252715D01*
G01X668241Y481225D02*
G01X703720Y516704D01*
G01X986884Y799868D02*
G01X1073446Y886430D01*
G01X1410831Y1223815D02*
G01X1708479Y1521462D01*
G01X32004Y-190933D02*
G01X406664Y183727D01*
G01X448607Y225670D02*
G01X457881Y234943D01*
G01X681359Y458422D02*
G01X721681Y498744D01*
G01X1017897Y794960D02*
G01X1073446Y850509D01*
G01X1444815Y1221878D02*
G01X1617852Y1394914D01*
G01X1666090Y1443153D02*
G01X1687946Y1465008D01*
G01X1736197Y1513260D02*
G01X1744400Y1521462D01*
G01X32004Y-226854D02*
G01X406677Y147818D01*
G01X685877Y427018D02*
G01X739641Y480783D01*
G01X1061674Y802816D02*
G01X1073446Y814588D01*
G01X1467229Y1208370D02*
G01X1617852Y1358993D01*
G01X1772118Y1513260D02*
G01X1780321Y1521462D01*
G01X32004Y-262775D02*
G01X419460Y124681D01*
G01X674620Y379841D02*
G01X733534Y438754D01*
G01X755434Y460655D02*
G01X757602Y462823D01*
G01X1479877Y1185097D02*
G01X1617852Y1323072D01*
G01X1808039Y1513260D02*
G01X1816242Y1521462D01*
G01X32004Y-298696D02*
G01X439935Y109235D01*
G01X692714Y362013D02*
G01X732285Y401584D01*
G01X1470403Y1139703D02*
G01X1617852Y1287151D01*
G01X1843960Y1513260D02*
G01X1852163Y1521462D01*
G01X32004Y-334617D02*
G01X417279Y50657D01*
G01X695053Y328432D02*
G01X733564Y366942D01*
G01X1480886Y1114265D02*
G01X1619060Y1252439D01*
G01X1879881Y1513260D02*
G01X1888084Y1521462D01*
G01X32004Y-370538D02*
G01X417076Y14533D01*
G01X698474Y295932D02*
G01X731234Y328692D01*
G01X1484484Y1081942D02*
G01X1635227Y1232684D01*
G01X1915802Y1513260D02*
G01X1924005Y1521462D01*
G01X83432Y-355031D02*
G01X422410Y-16053D01*
G01X727020Y288557D02*
G01X731234Y292771D01*
G01X1520405Y1081942D02*
G01X1667609Y1229145D01*
G01X1951723Y1513260D02*
G01X1959926Y1521462D01*
G01X119398Y-354987D02*
G01X439235Y-35150D01*
G01X1556326Y1081942D02*
G01X1687946Y1213561D01*
G01X1986884Y1512499D02*
G01X1995847Y1521462D01*
G01X155319Y-354987D02*
G01X457195Y-53110D01*
G01X1592247Y1081942D02*
G01X1690046Y1179741D01*
G01X2007628Y1497322D02*
G01X2031768Y1521462D01*
G01X32004Y-514223D02*
G01X47549Y-498678D01*
G01X189971Y-356255D02*
G01X454620Y-91607D01*
G01X1628168Y1081942D02*
G01X1707774Y1161547D01*
G01X2011953Y1465727D02*
G01X2067689Y1521462D01*
G01X32004Y-550144D02*
G01X74088Y-508059D01*
G01X215992Y-366155D02*
G01X467291Y-114856D01*
G01X1664089Y1081942D02*
G01X1741288Y1159140D01*
G01X2025301Y1443153D02*
G01X2103610Y1521462D01*
G01X32004Y-586065D02*
G01X109074Y-508994D01*
G01X235283Y-382785D02*
G01X405582Y-212486D01*
G01X473713Y-144355D02*
G01X488388Y-129680D01*
G01X1700011Y1081942D02*
G01X1777209Y1159140D01*
G01X2059747Y1441679D02*
G01X2139531Y1521462D01*
G01X32004Y-621986D02*
G01X144995Y-508994D01*
G01X248391Y-405598D02*
G01X414604Y-239386D01*
G01X1735932Y1081942D02*
G01X1813130Y1159140D01*
G01X2078994Y1425004D02*
G01X2152266Y1498276D01*
G01X2167835Y1513845D02*
G01X2175452Y1521462D01*
G01X32004Y-657907D02*
G01X181081Y-508830D01*
G01X252891Y-437020D02*
G01X432059Y-257852D01*
G01X1771853Y1081942D02*
G01X1849051Y1159140D01*
G01X2082148Y1392238D02*
G01X2149296Y1459385D01*
G01X2206726Y1516816D02*
G01X2211373Y1521462D01*
G01X32004Y-693828D02*
G01X429024Y-296807D01*
G01X1807774Y1081942D02*
G01X1884972Y1159140D01*
G01X2082148Y1356317D02*
G01X2150836Y1425004D01*
G01X2241949Y1516117D02*
G01X2247294Y1521462D01*
G01X32004Y-729749D02*
G01X227931Y-533821D01*
G01X269957Y-491796D02*
G01X313801Y-447952D01*
G01X373943Y-387810D02*
G01X438440Y-323313D01*
G01X1843695Y1081942D02*
G01X1920893Y1159140D01*
G01X2082148Y1320396D02*
G01X2149296Y1387543D01*
G01X2276118Y1514365D02*
G01X2283215Y1521462D01*
G01X32004Y-765670D02*
G01X227931Y-569742D01*
G01X305878Y-491796D02*
G01X320057Y-477616D01*
G01X403608Y-394066D02*
G01X455933Y-341741D01*
G01X1879616Y1081942D02*
G01X1956814Y1159140D01*
G01X2011953Y1214279D02*
G01X2026819Y1229145D01*
G01X2082148Y1284475D02*
G01X2148414Y1350741D01*
G01X2314489Y1516816D02*
G01X2319136Y1521462D01*
G01X32004Y-801591D02*
G01X235330Y-598265D01*
G01X477782Y-355813D02*
G01X481201Y-352394D01*
G01X1915537Y1081942D02*
G01X1999090Y1165495D01*
G01X2005598Y1172004D02*
G01X2048914Y1215320D01*
G01X2109880Y1276286D02*
G01X2148414Y1314820D01*
G01X2349592Y1515997D02*
G01X2355057Y1521462D01*
G01X32004Y-837512D02*
G01X259712Y-609803D01*
G01X514529Y-354987D02*
G01X516215Y-353301D01*
G01X1951458Y1081942D02*
G01X2055451Y1185935D01*
G01X2140720Y1271204D02*
G01X2148414Y1278899D01*
G01X2370194Y1500678D02*
G01X2390978Y1521462D01*
G01X32004Y-873433D02*
G01X295633Y-609804D01*
G01X1987379Y1081942D02*
G01X2071295Y1165859D01*
G01X2374404Y1468967D02*
G01X2426899Y1521462D01*
G01X32004Y-909354D02*
G01X334067Y-607291D01*
G01X431750Y-509608D02*
G01X445708Y-495650D01*
G01X2023300Y1081942D02*
G01X2094877Y1153519D01*
G01X2374353Y1432995D02*
G01X2449909Y1508551D01*
G01X32004Y-945275D02*
G01X367475Y-609804D01*
G01X435068Y-542210D02*
G01X470539Y-506740D01*
G01X2059221Y1081942D02*
G01X2132103Y1154824D01*
G01X2395194Y1417915D02*
G01X2467870Y1490591D01*
G01X32004Y-981196D02*
G01X403397Y-609802D01*
G01X435067Y-578133D02*
G01X504205Y-508994D01*
G01X695053Y-318147D02*
G01X713243Y-299956D01*
G01X769156Y-244043D02*
G01X775366Y-237834D01*
G01X2095142Y1081942D02*
G01X2150084Y1136885D01*
G01X2413185Y1399985D02*
G01X2485830Y1472630D01*
G01X32004Y-1017117D02*
G01X540126Y-508994D01*
G01X667381Y-381740D02*
G01X667414Y-381707D01*
G01X694754Y-354367D02*
G01X793327Y-255794D01*
G01X2131063Y1081942D02*
G01X2150084Y1100963D01*
G01X2431145Y1382025D02*
G01X2503791Y1454670D01*
G01X32049Y-1052993D02*
G01X576047Y-508994D01*
G01X680846Y-404196D02*
G01X811287Y-273755D01*
G01X2449106Y1364064D02*
G01X2521751Y1436709D01*
G01X33773Y-1087190D02*
G01X612027Y-508936D01*
G01X685979Y-434984D02*
G01X829248Y-291715D01*
G01X2467066Y1346104D02*
G01X2539712Y1418749D01*
G01X37680Y-1119203D02*
G01X847208Y-309676D01*
G01X2500673Y1343789D02*
G01X2557672Y1400788D01*
G01X43441Y-1149364D02*
G01X865169Y-327636D01*
G01X2537009Y1344204D02*
G01X2575633Y1382828D01*
G01X50821Y-1177905D02*
G01X883129Y-345597D01*
G01X2569740Y1341014D02*
G01X2593593Y1364867D01*
G01X59649Y-1204998D02*
G01X901090Y-363557D01*
G01X2586367Y1321720D02*
G01X2611554Y1346907D01*
G01X69795Y-1230773D02*
G01X919050Y-381518D01*
G01X2587816Y1287247D02*
G01X2629514Y1328946D01*
G01X81162Y-1255327D02*
G01X937011Y-399478D01*
G01X2586837Y1250348D02*
G01X2647475Y1310986D01*
G01X93673Y-1278737D02*
G01X954971Y-417439D01*
G01X2612677Y1240267D02*
G01X2665435Y1293025D01*
G01X107271Y-1301060D02*
G01X972932Y-435399D01*
G01X2631131Y1222800D02*
G01X2683396Y1275065D01*
G01X121912Y-1322340D02*
G01X983076Y-461176D01*
G01X2633716Y1189463D02*
G01X2701356Y1257104D01*
G01X137564Y-1342609D02*
G01X155742Y-1324432D01*
G01X249453Y-1230720D02*
G01X983076Y-497097D01*
G01X2633595Y1153422D02*
G01X2719317Y1239144D01*
G01X287452Y-1228642D02*
G01X983076Y-533018D01*
G01X2650575Y1134481D02*
G01X2737277Y1221183D01*
G01X316679Y-1235336D02*
G01X983076Y-568939D01*
G01X2664081Y1112066D02*
G01X2755238Y1203223D01*
G01X340730Y-1247207D02*
G01X983076Y-604860D01*
G01X2607404Y1019468D02*
G01X2610132Y1022196D01*
G01X2664315Y1076379D02*
G01X2773198Y1185262D01*
G01X360707Y-1263150D02*
G01X983076Y-640781D01*
G01X2640873Y1017015D02*
G01X2791159Y1167302D01*
G01X376904Y-1282875D02*
G01X983076Y-676702D01*
G01X2676794Y1017015D02*
G01X2809119Y1149341D01*
G01X389065Y-1306634D02*
G01X983076Y-712623D01*
G01X2704972Y1009273D02*
G01X2827080Y1131381D01*
G01X396166Y-1335455D02*
G01X983076Y-748544D01*
G01X2716104Y984484D02*
G01X2845040Y1113420D01*
G01X394925Y-1372616D02*
G01X983252Y-784289D01*
G01X2716104Y948563D02*
G01X2863001Y1095460D01*
G01X323494Y-1479969D02*
G01X472184Y-1331278D01*
G01X526267Y-1277196D02*
G01X994337Y-809125D01*
G01X2714489Y911027D02*
G01X2880961Y1077499D01*
G01X349659Y-1489724D02*
G01X472408Y-1366975D01*
G01X561371Y-1278012D02*
G01X1012277Y-827106D01*
G01X2725875Y886492D02*
G01X2898922Y1059539D01*
G01X377179Y-1498125D02*
G01X485865Y-1389440D01*
G01X598109Y-1277196D02*
G01X740509Y-1134796D01*
G01X793570Y-1081734D02*
G01X1030238Y-845067D01*
G01X2734773Y859468D02*
G01X2916882Y1041578D01*
G01X406194Y-1505032D02*
G01X516021Y-1395204D01*
G01X634030Y-1277196D02*
G01X740509Y-1170717D01*
G01X829491Y-1081734D02*
G01X1048198Y-863027D01*
G01X2734904Y823679D02*
G01X2934843Y1023618D01*
G01X436891Y-1510255D02*
G01X551942Y-1395204D01*
G01X668350Y-1278796D02*
G01X740509Y-1206638D01*
G01X865412Y-1081734D02*
G01X1066159Y-880988D01*
G01X1538566Y-408580D02*
G01X1603230Y-343917D01*
G01X2012054Y64907D02*
G01X2014394Y67248D01*
G01X2734904Y787758D02*
G01X2952804Y1005657D01*
G01X469531Y-1513537D02*
G01X587865Y-1395202D01*
G01X900357Y-1082711D02*
G01X1084119Y-898948D01*
G01X1557605Y-425462D02*
G01X1602990Y-380078D01*
G01X2012054Y28986D02*
G01X2037623Y54555D01*
G01X2734904Y751837D02*
G01X2970764Y987697D01*
G01X504459Y-1514530D02*
G01X623784Y-1395204D01*
G01X920597Y-1098392D02*
G01X1102080Y-916909D01*
G01X1560606Y-458382D02*
G01X1602990Y-415999D01*
G01X2012054Y-6935D02*
G01X2072593Y53604D01*
G01X2741196Y722208D02*
G01X2790325Y771336D01*
G01X2844564Y825576D02*
G01X2988725Y969736D01*
G01X540380Y-1514530D02*
G01X661306Y-1393604D01*
G01X924516Y-1130393D02*
G01X1121547Y-933362D01*
G01X1560606Y-494303D02*
G01X1604670Y-450239D01*
G01X2012054Y-42856D02*
G01X2080287Y25377D01*
G01X2769423Y714513D02*
G01X2801319Y746410D01*
G01X2869490Y814581D02*
G01X3006685Y951776D01*
G01X576301Y-1514530D02*
G01X693227Y-1397603D01*
G01X924516Y-1166314D02*
G01X1152971Y-937860D01*
G01X1423809Y-667022D02*
G01X1519833Y-570998D01*
G01X1560606Y-530224D02*
G01X1621709Y-469122D01*
G01X2012054Y-78777D02*
G01X2105020Y14189D01*
G01X2802706Y711875D02*
G01X2819280Y728449D01*
G01X2887451Y796620D02*
G01X2891295Y800465D01*
G01X2929640Y838810D02*
G01X2930090Y839260D01*
G01X2968435Y877605D02*
G01X2987023Y896193D01*
G01X612222Y-1514530D02*
G01X655299Y-1471452D01*
G01X691222Y-1435530D02*
G01X706722Y-1420029D01*
G01X847007Y-1279745D02*
G01X851009Y-1275742D01*
G01X924516Y-1202235D02*
G01X1188892Y-937860D01*
G01X1424264Y-702487D02*
G01X1436905Y-689846D01*
G01X1479652Y-647100D02*
G01X1654742Y-472009D01*
G01X2012054Y-114698D02*
G01X2140941Y14189D01*
G01X648143Y-1514530D02*
G01X655299Y-1507373D01*
G01X727143Y-1435530D02*
G01X736940Y-1425733D01*
G01X847007Y-1315666D02*
G01X852155Y-1310517D01*
G01X924516Y-1238156D02*
G01X1217112Y-945560D01*
G01X1424264Y-738409D02*
G01X1436905Y-725767D01*
G01X1515573Y-647100D02*
G01X1690663Y-472009D01*
G01X2012054Y-150619D02*
G01X2177139Y14466D01*
G01X2780721Y618048D02*
G01X2784504Y621832D01*
G01X763064Y-1435530D02*
G01X772861Y-1425733D01*
G01X847007Y-1351587D02*
G01X849737Y-1348857D01*
G01X930140Y-1268454D02*
G01X1075509Y-1123084D01*
G01X1116859Y-1081734D02*
G01X1244294Y-954300D01*
G01X1378295Y-820299D02*
G01X1442349Y-756245D01*
G01X1551494Y-647100D02*
G01X1730707Y-467886D01*
G01X1742875Y-455719D02*
G01X1756369Y-442225D01*
G01X1834525Y-364069D02*
G01X2176614Y-21979D01*
G01X2817098Y618504D02*
G01X2839900Y641306D01*
G01X798985Y-1435530D02*
G01X808782Y-1425733D01*
G01X847007Y-1387508D02*
G01X861056Y-1373459D01*
G01X954741Y-1279773D02*
G01X1075509Y-1159006D01*
G01X1152780Y-1081734D02*
G01X1280215Y-954300D01*
G01X1376365Y-858150D02*
G01X1436905Y-797609D01*
G01X1585885Y-648629D02*
G01X1791893Y-442621D01*
G01X1834921Y-399593D02*
G01X2114943Y-119572D01*
G01X2172467Y-62048D02*
G01X2176615Y-57900D01*
G01X2853019Y618504D02*
G01X3044122Y809607D01*
G01X834906Y-1435530D02*
G01X879738Y-1390698D01*
G01X971980Y-1298455D02*
G01X1075509Y-1194927D01*
G01X1188701Y-1081734D02*
G01X1316136Y-954300D01*
G01X1378295Y-892141D02*
G01X1437420Y-833016D01*
G01X1627350Y-643086D02*
G01X2114846Y-155590D01*
G01X2888940Y618504D02*
G01X3062394Y791959D01*
G01X870827Y-1435530D02*
G01X906204Y-1400153D01*
G01X981435Y-1324921D02*
G01X1075509Y-1230848D01*
G01X1224622Y-1081734D02*
G01X1352706Y-953650D01*
G01X1377645Y-928712D02*
G01X1436905Y-869452D01*
G01X1661881Y-644475D02*
G01X2022046Y-284311D01*
G01X2924861Y618504D02*
G01X3096269Y789912D01*
G01X3131988Y825631D02*
G01X3132409Y826052D01*
G01X906748Y-1435530D02*
G01X954194Y-1388084D01*
G01X969367Y-1372911D02*
G01X1018797Y-1323481D01*
G01X1074765Y-1267512D02*
G01X1080845Y-1261432D01*
G01X1250651Y-1091627D02*
G01X1436905Y-905373D01*
G01X1684497Y-657781D02*
G01X2022046Y-320232D01*
G01X3065337Y723059D02*
G01X3150369Y808091D01*
G01X942669Y-1435530D02*
G01X1021918Y-1356281D01*
G01X1259517Y-1118682D02*
G01X1440730Y-937469D01*
G01X1607889Y-770310D02*
G01X1617139Y-761060D01*
G01X1699460Y-678739D02*
G01X1853002Y-525197D01*
G01X1905197Y-473001D02*
G01X2022046Y-356153D01*
G01X3087089Y708890D02*
G01X3168330Y790131D01*
G01X978590Y-1435530D02*
G01X1035379Y-1378741D01*
G01X1130026Y-1284094D02*
G01X1138378Y-1275742D01*
G01X1259517Y-1154603D02*
G01X1460851Y-953269D01*
G01X1608114Y-806006D02*
G01X1648094Y-766025D01*
G01X1704425Y-709694D02*
G01X1855871Y-558249D01*
G01X1941118Y-473001D02*
G01X2022046Y-392074D01*
G01X2098754Y-315366D02*
G01X2119397Y-294723D01*
G01X2157123Y-256996D02*
G01X2162173Y-251947D01*
G01X2236954Y-177166D02*
G01X2241846Y-172274D01*
G01X3105049Y690929D02*
G01X3186290Y772170D01*
G01X1014511Y-1435530D02*
G01X1055942Y-1394099D01*
G01X1145384Y-1304657D02*
G01X1152993Y-1297048D01*
G01X1259517Y-1190524D02*
G01X1495741Y-954300D01*
G01X1601028Y-849013D02*
G01X1874727Y-575314D01*
G01X1975329Y-474712D02*
G01X2022046Y-427995D01*
G01X2098754Y-351287D02*
G01X2119397Y-330644D01*
G01X2193044Y-256996D02*
G01X2202753Y-247288D01*
G01X2230732Y-219309D02*
G01X2243494Y-206547D01*
G01X3122788Y672747D02*
G01X3204251Y754210D01*
G01X1050432Y-1435530D02*
G01X1085228Y-1400734D01*
G01X1152019Y-1333943D02*
G01X1152993Y-1332969D01*
G01X1259517Y-1226445D02*
G01X1531662Y-954300D01*
G01X1650334Y-835627D02*
G01X1908953Y-577009D01*
G01X1994160Y-491802D02*
G01X2022046Y-463916D01*
G01X2098754Y-387208D02*
G01X2119397Y-366565D01*
G01X2228965Y-256996D02*
G01X2255287Y-230674D01*
G01X3138826Y652864D02*
G01X3222211Y736249D01*
G01X1086353Y-1435530D02*
G01X1152993Y-1368890D01*
G01X1279796Y-1242087D02*
G01X1567583Y-954300D01*
G01X1676521Y-845362D02*
G01X1944874Y-577009D01*
G01X1997010Y-524873D02*
G01X2022046Y-499837D01*
G01X2098754Y-423129D02*
G01X2119397Y-402486D01*
G01X2264886Y-256996D02*
G01X2275080Y-246803D01*
G01X2363954Y-157929D02*
G01X2368846Y-153037D01*
G01X3159306Y637423D02*
G01X3240172Y718289D01*
G01X1122274Y-1435530D02*
G01X1154469Y-1403335D01*
G01X1301706Y-1256098D02*
G01X1607931Y-949873D01*
G01X1694473Y-863331D02*
G01X2022046Y-535758D01*
G01X2098754Y-459050D02*
G01X2119397Y-438407D01*
G01X2300807Y-256996D02*
G01X2304310Y-253494D01*
G01X2363938Y-193866D02*
G01X2368846Y-188958D01*
G01X3177267Y619463D02*
G01X3258132Y700328D01*
G01X1158195Y-1435530D02*
G01X1171145Y-1422580D01*
G01X1307001Y-1286724D02*
G01X1493503Y-1100222D01*
G01X1508996Y-1084729D02*
G01X1634142Y-959582D01*
G01X1704182Y-889542D02*
G01X2022046Y-571679D01*
G01X2098754Y-494971D02*
G01X2119397Y-474328D01*
G01X2336728Y-256996D02*
G01X2374855Y-218870D01*
G01X3194593Y600868D02*
G01X3276093Y682368D01*
G01X1194116Y-1435530D02*
G01X1203913Y-1425733D01*
G01X1307001Y-1322645D02*
G01X1490509Y-1139137D01*
G01X1547911Y-1081734D02*
G01X2022046Y-607600D01*
G01X2098754Y-530892D02*
G01X2119397Y-510249D01*
G01X2372649Y-256996D02*
G01X2390527Y-239119D01*
G01X3076000Y446354D02*
G01X3294053Y664407D01*
G01X1230037Y-1435530D02*
G01X1239834Y-1425733D01*
G01X1307001Y-1358566D02*
G01X1490509Y-1175058D01*
G01X1583833Y-1081734D02*
G01X2022046Y-643521D01*
G01X2098754Y-566813D02*
G01X2119397Y-546170D01*
G01X2408571Y-256996D02*
G01X2414129Y-251438D01*
G01X2490954Y-174613D02*
G01X2495846Y-169721D01*
G01X3111921Y446354D02*
G01X3312014Y646447D01*
G01X1265958Y-1435530D02*
G01X1275764Y-1425724D01*
G01X1306992Y-1394496D02*
G01X1490509Y-1210979D01*
G01X1619754Y-1081734D02*
G01X2022046Y-679442D01*
G01X2098754Y-602734D02*
G01X2119397Y-582091D01*
G01X2444492Y-256996D02*
G01X2452193Y-249295D01*
G01X2486739Y-214749D02*
G01X2497036Y-204452D01*
G01X2609493Y-91995D02*
G01X2611680Y-89808D01*
G01X3173437Y471949D02*
G01X3329974Y628486D01*
G01X1301879Y-1435530D02*
G01X1442999Y-1294410D01*
G01X1653668Y-1083741D02*
G01X2022046Y-715363D01*
G01X2480413Y-256996D02*
G01X2508170Y-229239D01*
G01X2617856Y-119553D02*
G01X2647616Y-89793D01*
G01X3209513Y472104D02*
G01X3347935Y610526D01*
G01X1337801Y-1435530D02*
G01X1442999Y-1330331D01*
G01X1672009Y-1101321D02*
G01X2022046Y-751284D01*
G01X2516334Y-256996D02*
G01X2527413Y-245917D01*
G01X2617954Y-155376D02*
G01X2683874Y-89456D01*
G01X2780611Y7281D02*
G01X2787519Y14189D01*
G01X3241662Y468332D02*
G01X3365895Y592565D01*
G01X1373722Y-1435530D02*
G01X1442999Y-1366252D01*
G01X1674516Y-1134735D02*
G01X2022046Y-787205D01*
G01X2552255Y-256996D02*
G01X2555752Y-253499D01*
G01X2617954Y-191297D02*
G01X2720490Y-88761D01*
G01X2780611Y-28640D02*
G01X2823440Y14189D01*
G01X2883561Y74310D02*
G01X2890336Y81085D01*
G01X2956790Y147539D02*
G01X2970336Y161085D01*
G01X3281355Y472104D02*
G01X3383856Y574605D01*
G01X1409643Y-1435530D02*
G01X1443901Y-1401271D01*
G01X1674516Y-1170656D02*
G01X2028412Y-816760D01*
G01X2587574Y-257598D02*
G01X2756304Y-88868D01*
G01X2779672Y-65500D02*
G01X2860300Y15128D01*
G01X2883668Y38496D02*
G01X2890336Y45164D01*
G01X2972033Y126861D02*
G01X2991160Y145988D01*
G01X3316693Y471521D02*
G01X3401816Y556644D01*
G01X1445564Y-1435530D02*
G01X1459414Y-1421679D01*
G01X1597007Y-1284086D02*
G01X1605351Y-1275742D01*
G01X1674516Y-1206577D02*
G01X2045826Y-835267D01*
G01X2608736Y-272357D02*
G01X2890336Y9243D01*
G01X2974664Y93571D02*
G01X3009120Y128027D01*
G01X3337906Y456812D02*
G01X3419777Y538684D01*
G01X1481485Y-1435530D02*
G01X1491281Y-1425733D01*
G01X1597007Y-1320007D02*
G01X1600168Y-1316846D01*
G01X1674516Y-1242498D02*
G01X2063787Y-853227D01*
G01X2613404Y-303610D02*
G01X2890336Y-26678D01*
G01X2974664Y57650D02*
G01X3016289Y99275D01*
G01X3220297Y303282D02*
G01X3231081Y314067D01*
G01X3342616Y425601D02*
G01X3437737Y520723D01*
G01X1517406Y-1435530D02*
G01X1527202Y-1425733D01*
G01X1597007Y-1355928D02*
G01X1600632Y-1352303D01*
G01X1683585Y-1269350D02*
G01X1825509Y-1127426D01*
G01X1871201Y-1081734D02*
G01X2081747Y-871188D01*
G01X2613404Y-339531D02*
G01X2873496Y-79439D01*
G01X2974664Y21729D02*
G01X3016919Y63984D01*
G01X3220297Y267361D02*
G01X3236304Y283369D01*
G01X3342616Y389680D02*
G01X3455698Y502763D01*
G01X1553327Y-1435530D02*
G01X1563123Y-1425733D01*
G01X1597007Y-1391849D02*
G01X1612948Y-1375908D01*
G01X1707191Y-1281665D02*
G01X1825509Y-1163347D01*
G01X1907122Y-1081734D02*
G01X2099708Y-889148D01*
G01X2613404Y-375452D02*
G01X2873821Y-115036D01*
G01X2974664Y-14192D02*
G01X3028274Y39418D01*
G01X3218861Y230005D02*
G01X3236304Y247447D01*
G01X3364761Y375905D02*
G01X3467996Y479140D01*
G01X1589248Y-1435530D02*
G01X1632474Y-1392304D01*
G01X1723586Y-1301191D02*
G01X1825509Y-1199268D01*
G01X1943043Y-1081734D02*
G01X2119825Y-904952D01*
G01X2613404Y-411373D02*
G01X2873496Y-151281D01*
G01X2996693Y-28085D02*
G01X3049556Y24779D01*
G01X3210459Y185682D02*
G01X3242524Y217747D01*
G01X3399777Y375000D02*
G01X3467996Y443219D01*
G01X1625169Y-1435530D02*
G01X1660141Y-1400557D01*
G01X1731840Y-1328859D02*
G01X1825509Y-1235189D01*
G01X1978932Y-1081766D02*
G01X2152955Y-907744D01*
G01X2613404Y-447295D02*
G01X2873496Y-187202D01*
G01X3032973Y-27725D02*
G01X3082593Y21895D01*
G01X3220169Y159471D02*
G01X3245510Y184812D01*
G01X3257394Y196696D02*
G01X3260047Y199348D01*
G01X3423763Y363065D02*
G01X3467996Y407298D01*
G01X1661090Y-1435530D02*
G01X1768221Y-1328398D01*
G01X1829683Y-1266936D02*
G01X1832686Y-1263934D01*
G01X2002667Y-1093952D02*
G01X2188876Y-907744D01*
G01X2613404Y-483216D02*
G01X2881237Y-215382D01*
G01X3068923Y-27696D02*
G01X3118514Y21895D01*
G01X3220297Y123677D02*
G01X3236304Y139684D01*
G01X3437891Y341271D02*
G01X3467996Y371377D01*
G01X1697011Y-1435530D02*
G01X1773127Y-1359413D01*
G01X2009517Y-1123023D02*
G01X2195984Y-936556D01*
G01X2460073Y-672467D02*
G01X2471537Y-661004D01*
G01X2613404Y-519137D02*
G01X2906025Y-226516D01*
G01X3102621Y-29919D02*
G01X3154435Y21895D01*
G01X3220297Y87756D02*
G01X3236304Y103763D01*
G01X3440311Y307771D02*
G01X3467996Y335456D01*
G01X1732932Y-1435530D02*
G01X1787493Y-1380968D01*
G01X1882253Y-1286209D02*
G01X1892719Y-1275742D01*
G01X2009517Y-1158944D02*
G01X2205646Y-962815D01*
G01X2479087Y-689374D02*
G01X2507458Y-661004D01*
G01X2613404Y-555058D02*
G01X2941946Y-226516D01*
G01X2991504Y-176957D02*
G01X3002982Y-165479D01*
G01X3140765Y-27696D02*
G01X3200549Y32087D01*
G01X3210104Y41643D02*
G01X3236456Y67995D01*
G01X3440311Y271850D02*
G01X3467996Y299535D01*
G01X1768853Y-1435530D02*
G01X1808932Y-1395450D01*
G01X1896735Y-1307648D02*
G01X1902993Y-1301389D01*
G01X2009517Y-1194865D02*
G01X2232478Y-971904D01*
G01X2489937Y-714445D02*
G01X2499420Y-704963D01*
G01X2536319Y-668063D02*
G01X2543379Y-661004D01*
G01X2613404Y-590979D02*
G01X2895537Y-308846D01*
G01X2955746Y-248637D02*
G01X3002332Y-202051D01*
G01X3176686Y-27696D02*
G01X3246294Y41911D01*
G01X3439903Y235520D02*
G01X3467996Y263614D01*
G01X1804774Y-1435530D02*
G01X1839736Y-1400568D01*
G01X1901852Y-1338451D02*
G01X1902993Y-1337310D01*
G01X2009517Y-1230786D02*
G01X2268399Y-971904D01*
G01X2490954Y-749349D02*
G01X2495846Y-744457D01*
G01X2573510Y-666793D02*
G01X2579300Y-661004D01*
G01X2613404Y-626900D02*
G01X2901816Y-338488D01*
G01X2986607Y-253696D02*
G01X3004052Y-236252D01*
G01X3201610Y-38694D02*
G01X3266353Y26049D01*
G01X3428490Y188187D02*
G01X3467996Y227693D01*
G01X1840695Y-1435530D02*
G01X1902993Y-1373231D01*
G01X2033381Y-1242843D02*
G01X2305080Y-971144D01*
G01X2490954Y-785270D02*
G01X2495846Y-780378D01*
G01X2596850Y-679375D02*
G01X2917509Y-358715D01*
G01X3222235Y-53989D02*
G01X3298119Y21895D01*
G01X3439729Y163505D02*
G01X3467996Y191772D01*
G01X1876616Y-1435530D02*
G01X1905650Y-1406496D01*
G01X2053319Y-1258826D02*
G01X2340241Y-971904D01*
G01X2458250Y-853896D02*
G01X2498701Y-813445D01*
G01X2612288Y-699858D02*
G01X2920184Y-391961D01*
G01X3240948Y-71198D02*
G01X3334040Y21895D01*
G01X3440311Y128166D02*
G01X3467996Y155851D01*
G01X1912537Y-1435530D02*
G01X1924207Y-1423859D01*
G01X2057001Y-1291065D02*
G01X2241271Y-1106796D01*
G01X2265570Y-1082497D02*
G01X2377763Y-970304D01*
G01X2493301Y-854765D02*
G01X2511857Y-836210D01*
G01X2617954Y-730112D02*
G01X2920184Y-427882D01*
G01X3266692Y-81375D02*
G01X3369961Y21895D01*
G01X3440311Y92245D02*
G01X3467996Y119930D01*
G01X1948458Y-1435530D02*
G01X1958254Y-1425733D01*
G01X2057001Y-1326986D02*
G01X2240509Y-1143479D01*
G01X2302253Y-1081734D02*
G01X2412375Y-971612D01*
G01X2530092Y-853896D02*
G01X2532867Y-851120D01*
G01X2617954Y-766033D02*
G01X2923872Y-460115D01*
G01X3292987Y-91000D02*
G01X3409866Y25879D01*
G01X3436327Y52340D02*
G01X3467996Y84009D01*
G01X1984379Y-1435530D02*
G01X1994175Y-1425733D01*
G01X2057001Y-1362908D02*
G01X2240509Y-1179400D01*
G01X2338174Y-1081734D02*
G01X2448004Y-971904D01*
G01X2563393Y-856515D02*
G01X2564311Y-855598D01*
G01X2617503Y-802406D02*
G01X2943818Y-476090D01*
G01X3311019Y-108889D02*
G01X3467996Y48088D01*
G01X2020300Y-1435530D02*
G01X2030589Y-1425241D01*
G01X2056509Y-1399321D02*
G01X2196343Y-1259486D01*
G01X2210760Y-1245069D02*
G01X2240509Y-1215321D01*
G01X2374095Y-1081734D02*
G01X2487008Y-968822D01*
G01X2580809Y-875020D02*
G01X2978625Y-477204D01*
G01X3320837Y-134992D02*
G01X3467996Y12167D01*
G01X2056221Y-1435530D02*
G01X2192999Y-1298751D01*
G01X2406700Y-1085051D02*
G01X2519846Y-971904D01*
G01X2582715Y-909035D02*
G01X3005214Y-486536D01*
G01X3290612Y-201138D02*
G01X3467996Y-23754D01*
G01X2092142Y-1435530D02*
G01X2192999Y-1334672D01*
G01X2423158Y-1104514D02*
G01X2556250Y-971421D01*
G01X2582232Y-945439D02*
G01X2900371Y-627301D01*
G01X2945674Y-581997D02*
G01X3002332Y-525340D01*
G01X3209997Y-317675D02*
G01X3222128Y-305543D01*
G01X3309443Y-218228D02*
G01X3467996Y-59675D01*
G01X2128063Y-1435530D02*
G01X2192999Y-1370593D01*
G01X2424516Y-1139076D02*
G01X2901565Y-662027D01*
G01X2980401Y-583192D02*
G01X3002541Y-561052D01*
G01X3227958Y-335635D02*
G01X3247194Y-316398D01*
G01X3320298Y-243294D02*
G01X3467996Y-95596D01*
G01X2163984Y-1435530D02*
G01X2194905Y-1404608D01*
G01X2424516Y-1174997D02*
G01X2914793Y-684720D01*
G01X3245918Y-353596D02*
G01X3290709Y-308805D01*
G01X3312705Y-286809D02*
G01X3467996Y-131517D01*
G01X2199905Y-1435530D02*
G01X2212321Y-1423113D01*
G01X2347007Y-1288428D02*
G01X2359692Y-1275742D01*
G01X2424516Y-1210918D02*
G01X2935678Y-699757D01*
G01X3263879Y-371556D02*
G01X3467996Y-167439D01*
G01X2235826Y-1435530D02*
G01X2245623Y-1425733D01*
G01X2347007Y-1324349D02*
G01X2348974Y-1322381D01*
G01X2424349Y-1247007D02*
G01X2966496Y-704860D01*
G01X3281839Y-389517D02*
G01X3467996Y-203360D01*
G01X2271747Y-1435530D02*
G01X2281544Y-1425733D01*
G01X2347007Y-1360270D02*
G01X2351676Y-1355600D01*
G01X2436883Y-1270394D02*
G01X2575509Y-1131767D01*
G01X2625542Y-1081734D02*
G01X3005214Y-702062D01*
G01X3296038Y-411238D02*
G01X3467996Y-239281D01*
G01X2307668Y-1435530D02*
G01X2317568Y-1425630D01*
G01X2346904Y-1396294D02*
G01X2364941Y-1378256D01*
G01X2459539Y-1283659D02*
G01X2575509Y-1167688D01*
G01X2661463Y-1081734D02*
G01X3002332Y-740866D01*
G01X3309996Y-433201D02*
G01X3467996Y-275202D01*
G01X2343589Y-1435530D02*
G01X2385321Y-1393797D01*
G01X2475080Y-1304039D02*
G01X2575509Y-1203610D01*
G01X2697384Y-1081734D02*
G01X3002332Y-776787D01*
G01X3320502Y-458617D02*
G01X3467996Y-311123D01*
G01X2379510Y-1435530D02*
G01X2414309Y-1400731D01*
G01X2482013Y-1333027D02*
G01X2575509Y-1239531D01*
G01X2732856Y-1082184D02*
G01X3005214Y-809825D01*
G01X3310354Y-504686D02*
G01X3467996Y-347044D01*
G01X2415431Y-1435530D02*
G01X2518013Y-1332948D01*
G01X2584232Y-1266728D02*
G01X2584738Y-1266223D01*
G01X2754471Y-1096490D02*
G01X2998470Y-852491D01*
G01X3312210Y-538751D02*
G01X3467996Y-382965D01*
G01X2451352Y-1435530D02*
G01X2524462Y-1362420D01*
G01X2759517Y-1127365D02*
G01X3009102Y-877779D01*
G01X3315423Y-571459D02*
G01X3467996Y-418886D01*
G01X2487273Y-1435530D02*
G01X2539707Y-1383095D01*
G01X2634380Y-1288423D02*
G01X2647061Y-1275742D01*
G01X2759517Y-1163286D02*
G01X3027757Y-895046D01*
G01X3295308Y-627494D02*
G01X3467996Y-454807D01*
G01X2523194Y-1435530D02*
G01X2562048Y-1396676D01*
G01X2647960Y-1310763D02*
G01X2652993Y-1305731D01*
G01X2759517Y-1199207D02*
G01X3054926Y-903798D01*
G01X3122298Y-836426D02*
G01X3144536Y-814187D01*
G01X3312529Y-646195D02*
G01X3467996Y-490728D01*
G01X2559115Y-1435530D02*
G01X2594600Y-1400045D01*
G01X2651330Y-1343315D02*
G01X2652993Y-1341652D01*
G01X2759517Y-1235128D02*
G01X3162497Y-832148D01*
G01X3321214Y-673431D02*
G01X3467996Y-526649D01*
G01X2595036Y-1435530D02*
G01X2652993Y-1377573D01*
G01X2786646Y-1243920D02*
G01X3180457Y-850108D01*
G01X3293910Y-736656D02*
G01X3467996Y-562570D01*
G01X2630957Y-1435530D02*
G01X2657090Y-1409396D01*
G01X2804692Y-1261794D02*
G01X3198418Y-868069D01*
G01X3306406Y-760081D02*
G01X3467996Y-598491D01*
G01X2666878Y-1435530D02*
G01X2677553Y-1424855D01*
G01X2807001Y-1295407D02*
G01X3196826Y-905582D01*
G01X3318972Y-783435D02*
G01X3467996Y-634412D01*
G01X2702799Y-1435530D02*
G01X2712596Y-1425733D01*
G01X2807001Y-1331328D02*
G01X3201259Y-937070D01*
G01X3318360Y-819969D02*
G01X3467996Y-670333D01*
G01X2738720Y-1435530D02*
G01X2748517Y-1425733D01*
G01X2807001Y-1367249D02*
G01X3215945Y-958305D01*
G01X3304305Y-869945D02*
G01X3467996Y-706254D01*
G01X2774641Y-1435530D02*
G01X2786625Y-1423546D01*
G01X2804814Y-1405357D02*
G01X3238270Y-971901D01*
G01X3317901Y-892270D02*
G01X3467996Y-742175D01*
G01X2810563Y-1435530D02*
G01X3272097Y-973995D01*
G01X3319995Y-926097D02*
G01X3467996Y-778096D01*
G01X2836320Y-1445693D02*
G01X3467996Y-814017D01*
G01X2844931Y-1473003D02*
G01X3467996Y-849938D01*
G01X2844931Y-1508924D02*
G01X3467996Y-885859D01*
G01X2875247Y-1514530D02*
G01X3467996Y-921780D01*
G01X2911168Y-1514530D02*
G01X3107055Y-1318642D01*
G01X3193587Y-1232110D02*
G01X3467996Y-957701D01*
G01X2947089Y-1514530D02*
G01X3103241Y-1358378D01*
G01X3233323Y-1228295D02*
G01X3467996Y-993622D01*
G01X2983010Y-1514530D02*
G01X3109147Y-1388392D01*
G01X3263337Y-1234202D02*
G01X3467996Y-1029543D01*
G01X3019330Y-1514130D02*
G01X3120467Y-1412994D01*
G01X3287939Y-1245522D02*
G01X3467597Y-1065863D01*
G01X3058526Y-1510856D02*
G01X3135939Y-1433443D01*
G01X3308388Y-1260994D02*
G01X3464322Y-1105059D01*
G01X3102030Y-1503272D02*
G01X3155198Y-1450105D01*
G01X3325050Y-1280252D02*
G01X3456739Y-1148564D01*
G01X3152100Y-1489124D02*
G01X3178428Y-1462795D01*
G01X3337740Y-1303483D02*
G01X3442590Y-1198633D01*
G01X3345561Y-1331583D02*
G01X3415768Y-1261377D01*
G01X112121Y-1308393D02*
G01X153032Y-1349303D01*
G01X69329Y-1229679D02*
G01X157378Y-1317729D01*
G01X307316Y-1467667D02*
G01X316854Y-1477205D01*
G01X49747Y-1174177D02*
G01X167657Y-1292087D01*
G01X332958Y-1457388D02*
G01X372356Y-1496786D01*
G01X39076Y-1127585D02*
G01X182264Y-1270773D01*
G01X354272Y-1442781D02*
G01X418949Y-1507458D01*
G01X33695Y-1086283D02*
G01X200689Y-1253276D01*
G01X371769Y-1424357D02*
G01X460251Y-1512839D01*
G01X32009Y-1048676D02*
G01X222996Y-1239663D01*
G01X385383Y-1402050D02*
G01X497858Y-1514525D01*
G01X32004Y-1012750D02*
G01X249883Y-1230629D01*
G01X394417Y-1375162D02*
G01X533784Y-1514530D01*
G01X32004Y-976829D02*
G01X283476Y-1228301D01*
G01X396745Y-1341569D02*
G01X569705Y-1514530D01*
G01X32004Y-940908D02*
G01X334678Y-1243581D01*
G01X381464Y-1290368D02*
G01X605626Y-1514530D01*
G01X32004Y-904987D02*
G01X472184Y-1345167D01*
G01X522222Y-1395204D02*
G01X641547Y-1514530D01*
G01X32004Y-869066D02*
G01X472184Y-1309246D01*
G01X557924Y-1394985D02*
G01X655299Y-1492361D01*
G01X32004Y-833144D02*
G01X483577Y-1284717D01*
G01X594064Y-1395204D02*
G01X656778Y-1457918D01*
G01X32004Y-797223D02*
G01X511976Y-1277196D01*
G01X629985Y-1395204D02*
G01X673459Y-1438679D01*
G01X32004Y-761302D02*
G01X547897Y-1277196D01*
G01X664306Y-1393604D02*
G01X706231Y-1435530D01*
G01X32004Y-725381D02*
G01X584086Y-1277463D01*
G01X732356Y-1425733D02*
G01X742152Y-1435530D01*
G01X32004Y-689460D02*
G01X619739Y-1277196D01*
G01X768277Y-1425733D02*
G01X778073Y-1435530D01*
G01X32004Y-653539D02*
G01X657261Y-1278796D01*
G01X804198Y-1425733D02*
G01X813994Y-1435530D01*
G01X32004Y-617618D02*
G01X692999Y-1278613D01*
G01X833925Y-1419540D02*
G01X849915Y-1435530D01*
G01X32004Y-581697D02*
G01X701894Y-1251588D01*
G01X846880Y-1396574D02*
G01X885836Y-1435530D01*
G01X32004Y-545776D02*
G01X727953Y-1241725D01*
G01X847007Y-1360779D02*
G01X921757Y-1435530D01*
G01X32004Y-509855D02*
G01X740509Y-1218360D01*
G01X847007Y-1324858D02*
G01X848422Y-1326274D01*
G01X922467Y-1400318D02*
G01X957678Y-1435530D01*
G01X63770Y-505700D02*
G01X740509Y-1182439D01*
G01X847007Y-1288937D02*
G01X857469Y-1299399D01*
G01X949342Y-1391272D02*
G01X993599Y-1435530D01*
G01X102985Y-508994D02*
G01X740509Y-1146518D01*
G01X869733Y-1275742D02*
G01X874414Y-1280423D01*
G01X968318Y-1374327D02*
G01X1029520Y-1435530D01*
G01X138906Y-508994D02*
G01X740650Y-1110738D01*
G01X979991Y-1350080D02*
G01X1065441Y-1435530D01*
G01X32004Y-366171D02*
G01X37806Y-371974D01*
G01X174827Y-508994D02*
G01X227931Y-562099D01*
G01X275637Y-609804D02*
G01X753689Y-1087856D01*
G01X922003Y-1256170D02*
G01X935894Y-1270061D01*
G01X978680Y-1312847D02*
G01X1021810Y-1355977D01*
G01X1062766Y-1396933D02*
G01X1101362Y-1435530D01*
G01X32004Y-330250D02*
G01X60947Y-359194D01*
G01X205071Y-503317D02*
G01X227931Y-526178D01*
G01X311558Y-609804D02*
G01X783488Y-1081734D01*
G01X924516Y-1222762D02*
G01X1019856Y-1318102D01*
G01X1100640Y-1398887D02*
G01X1137283Y-1435530D01*
G01X32004Y-294329D02*
G01X92661Y-354987D01*
G01X227215Y-489540D02*
G01X238088Y-500413D01*
G01X347479Y-609804D02*
G01X819409Y-1081734D01*
G01X924516Y-1186841D02*
G01X1031320Y-1293645D01*
G01X1125098Y-1387423D02*
G01X1173204Y-1435530D01*
G01X32004Y-258408D02*
G01X128582Y-354987D01*
G01X243228Y-469632D02*
G01X265392Y-491796D01*
G01X383400Y-609804D02*
G01X855330Y-1081734D01*
G01X924516Y-1150920D02*
G01X1050122Y-1276526D01*
G01X1142217Y-1368621D02*
G01X1152993Y-1379397D01*
G01X1199329Y-1425733D02*
G01X1209125Y-1435530D01*
G01X32004Y-222487D02*
G01X164504Y-354987D01*
G01X252296Y-442779D02*
G01X301313Y-491796D01*
G01X416407Y-606890D02*
G01X891251Y-1081734D01*
G01X924516Y-1114999D02*
G01X1076752Y-1267235D01*
G01X1151508Y-1341991D02*
G01X1152993Y-1343476D01*
G01X1235250Y-1425733D02*
G01X1245046Y-1435530D01*
G01X32004Y-186566D02*
G01X206854Y-361416D01*
G01X246626Y-401188D02*
G01X317787Y-472349D01*
G01X433409Y-587971D02*
G01X1075509Y-1230071D01*
G01X1121180Y-1275742D02*
G01X1126739Y-1281301D01*
G01X1137442Y-1292004D02*
G01X1152993Y-1307555D01*
G01X1271171Y-1425733D02*
G01X1280967Y-1435530D01*
G01X32004Y-150645D02*
G01X315797Y-434438D01*
G01X435068Y-553709D02*
G01X1075509Y-1194150D01*
G01X1297673Y-1416314D02*
G01X1316888Y-1435530D01*
G01X32004Y-114724D02*
G01X327925Y-410645D01*
G01X434354Y-517074D02*
G01X1075509Y-1158229D01*
G01X1307001Y-1389721D02*
G01X1352810Y-1435530D01*
G01X32004Y-78803D02*
G01X347816Y-394615D01*
G01X453514Y-500313D02*
G01X1075509Y-1122308D01*
G01X1307001Y-1353800D02*
G01X1388731Y-1435530D01*
G01X32004Y-42882D02*
G01X376892Y-387770D01*
G01X498116Y-508994D02*
G01X1082676Y-1093554D01*
G01X1307001Y-1317879D02*
G01X1424652Y-1435530D01*
G01X32004Y-6961D02*
G01X420988Y-395945D01*
G01X534037Y-508994D02*
G01X1106786Y-1081743D01*
G01X1259517Y-1234474D02*
G01X1266768Y-1241725D01*
G01X1307001Y-1281958D02*
G01X1460573Y-1435530D01*
G01X32004Y28960D02*
G01X436580Y-375615D01*
G01X569959Y-508994D02*
G01X1142699Y-1081734D01*
G01X1259517Y-1198553D02*
G01X1442999Y-1382035D01*
G01X1486697Y-1425733D02*
G01X1496494Y-1435530D01*
G01X32004Y64881D02*
G01X458280Y-361395D01*
G01X605880Y-508994D02*
G01X1178620Y-1081734D01*
G01X1259517Y-1162632D02*
G01X1442999Y-1346114D01*
G01X1522618Y-1425733D02*
G01X1532415Y-1435530D01*
G01X32004Y100802D02*
G01X428947Y-296140D01*
G01X485900Y-353094D02*
G01X487803Y-354996D01*
G01X636670Y-503864D02*
G01X1214541Y-1081734D01*
G01X1259517Y-1126711D02*
G01X1442999Y-1310193D01*
G01X1558539Y-1425733D02*
G01X1568336Y-1435530D01*
G01X32004Y136723D02*
G01X433334Y-264607D01*
G01X659167Y-490439D02*
G01X1442999Y-1274272D01*
G01X1586324Y-1417597D02*
G01X1604257Y-1435530D01*
G01X32004Y172644D02*
G01X405560Y-200912D01*
G01X675508Y-470859D02*
G01X983076Y-778428D01*
G01X1142508Y-937860D02*
G01X1454123Y-1249475D01*
G01X1597007Y-1392359D02*
G01X1640178Y-1435530D01*
G01X32004Y208565D02*
G01X414505Y-173935D01*
G01X685022Y-444453D02*
G01X983076Y-742507D01*
G01X1178429Y-937860D02*
G01X1482294Y-1241725D01*
G01X1597007Y-1356438D02*
G01X1605957Y-1365388D01*
G01X1633353Y-1392783D02*
G01X1676099Y-1435530D01*
G01X32004Y244486D02*
G01X431905Y-155415D01*
G01X680946Y-404456D02*
G01X983076Y-706586D01*
G01X1229235Y-952745D02*
G01X1490509Y-1214018D01*
G01X1597007Y-1320517D02*
G01X1598959Y-1322469D01*
G01X1676272Y-1399781D02*
G01X1712020Y-1435530D01*
G01X32004Y280407D02*
G01X457365Y-144954D01*
G01X685359Y-372948D02*
G01X983076Y-670665D01*
G01X1266711Y-954300D02*
G01X1490509Y-1178097D01*
G01X1597007Y-1284596D02*
G01X1609145Y-1296734D01*
G01X1702007Y-1389596D02*
G01X1747941Y-1435530D01*
G01X32004Y316328D02*
G01X486301Y-137969D01*
G01X695053Y-346721D02*
G01X983076Y-634744D01*
G01X1302632Y-954300D02*
G01X1490509Y-1142176D01*
G01X1624074Y-1275742D02*
G01X1626930Y-1278598D01*
G01X1720143Y-1371811D02*
G01X1783862Y-1435530D01*
G01X32004Y352249D02*
G01X453107Y-68854D01*
G01X695053Y-310800D02*
G01X983076Y-598823D01*
G01X1338553Y-954300D02*
G01X1491231Y-1106978D01*
G01X1730783Y-1346530D02*
G01X1819783Y-1435530D01*
G01X60998Y359176D02*
G01X417099Y3075D01*
G01X719232Y-299057D02*
G01X983076Y-562902D01*
G01X1366930Y-946756D02*
G01X1506312Y-1086138D01*
G01X1673153Y-1252979D02*
G01X1693044Y-1272869D01*
G01X1725871Y-1305697D02*
G01X1769961Y-1349787D01*
G01X1818956Y-1398782D02*
G01X1855704Y-1435530D01*
G01X101109Y354987D02*
G01X417076Y39019D01*
G01X744124Y-288029D02*
G01X983076Y-526981D01*
G01X1378295Y-922199D02*
G01X1537830Y-1081734D01*
G01X1674516Y-1218421D02*
G01X1770774Y-1314679D01*
G01X1854064Y-1397969D02*
G01X1891625Y-1435530D01*
G01X137030Y354987D02*
G01X423354Y68662D01*
G01X761076Y-269059D02*
G01X983076Y-491060D01*
G01X1378295Y-886278D02*
G01X1573751Y-1081734D01*
G01X1674516Y-1182500D02*
G01X1783227Y-1291211D01*
G01X1877532Y-1385516D02*
G01X1927546Y-1435530D01*
G01X32004Y495933D02*
G01X36774Y491163D01*
G01X172951Y354987D02*
G01X440511Y87426D01*
G01X769365Y-241428D02*
G01X983076Y-455139D01*
G01X1372948Y-845010D02*
G01X1436905Y-908968D01*
G01X1482238Y-954300D02*
G01X1609672Y-1081734D01*
G01X1674516Y-1146579D02*
G01X1802873Y-1274936D01*
G01X1893807Y-1365870D02*
G01X1902993Y-1375056D01*
G01X1953670Y-1425733D02*
G01X1963467Y-1435530D01*
G01X32004Y531854D02*
G01X59563Y504295D01*
G01X203727Y360132D02*
G01X404353Y159505D01*
G01X1378295Y-814436D02*
G01X1436905Y-873047D01*
G01X1518159Y-954300D02*
G01X1645758Y-1081899D01*
G01X1674351Y-1110493D02*
G01X1830720Y-1266862D01*
G01X1901881Y-1338023D02*
G01X1902993Y-1339135D01*
G01X1989591Y-1425733D02*
G01X1999388Y-1435530D01*
G01X32004Y567775D02*
G01X90785Y508994D01*
G01X226213Y373566D02*
G01X409173Y190607D01*
G01X1393054Y-793275D02*
G01X1439352Y-839572D01*
G01X1554080Y-954300D02*
G01X1825509Y-1225730D01*
G01X1875522Y-1275742D02*
G01X1902993Y-1303214D01*
G01X2025508Y-1425729D02*
G01X2035309Y-1435530D01*
G01X32004Y603696D02*
G01X126706Y508994D01*
G01X242545Y393155D02*
G01X424059Y211642D01*
G01X1411015Y-775314D02*
G01X1436905Y-801205D01*
G01X1587792Y-952092D02*
G01X1825509Y-1189809D01*
G01X2049735Y-1414034D02*
G01X2071230Y-1435530D01*
G01X32004Y639618D02*
G01X162627Y508994D01*
G01X252047Y419574D02*
G01X446593Y225029D01*
G01X1423611Y-751990D02*
G01X1437881Y-766259D01*
G01X1630649Y-959027D02*
G01X1825509Y-1153888D01*
G01X2057001Y-1385379D02*
G01X2107151Y-1435530D01*
G01X32004Y675539D02*
G01X203673Y503870D01*
G01X247931Y459612D02*
G01X429486Y278056D01*
G01X1424264Y-716722D02*
G01X1436905Y-729363D01*
G01X1663797Y-956254D02*
G01X1825509Y-1117967D01*
G01X2057001Y-1349458D02*
G01X2143072Y-1435530D01*
G01X32004Y711460D02*
G01X229471Y513992D01*
G01X250128Y493336D02*
G01X317451Y426013D01*
G01X359713Y383751D02*
G01X432425Y311038D01*
G01X1424264Y-680801D02*
G01X1436905Y-693442D01*
G01X1685825Y-942362D02*
G01X1834728Y-1091264D01*
G01X2057001Y-1313537D02*
G01X2178993Y-1435530D01*
G01X32004Y747381D02*
G01X227931Y551453D01*
G01X287589Y491796D02*
G01X317577Y461808D01*
G01X395508Y383876D02*
G01X446120Y333264D01*
G01X1426981Y-647596D02*
G01X1441677Y-662292D01*
G01X1608083Y-828699D02*
G01X1618961Y-839577D01*
G01X1700223Y-920839D02*
G01X1861119Y-1081734D01*
G01X2009517Y-1230132D02*
G01X2021110Y-1241725D01*
G01X2057001Y-1277616D02*
G01X2214914Y-1435530D01*
G01X32004Y783302D02*
G01X75396Y739910D01*
G01X127910Y687396D02*
G01X229065Y586241D01*
G01X322870Y492436D02*
G01X330401Y484905D01*
G01X418605Y396701D02*
G01X423110Y392196D01*
G01X449239Y366066D02*
G01X467197Y348109D01*
G01X1447123Y-631818D02*
G01X1462963Y-647657D01*
G01X1608114Y-792808D02*
G01X1651028Y-835722D01*
G01X1704077Y-888772D02*
G01X1897040Y-1081734D01*
G01X2009517Y-1194211D02*
G01X2192999Y-1377694D01*
G01X2241039Y-1425733D02*
G01X2250835Y-1435530D01*
G01X32004Y819223D02*
G01X75396Y775831D01*
G01X163831Y687396D02*
G01X245079Y606147D01*
G01X496240Y354987D02*
G01X497891Y353335D01*
G01X1465084Y-613857D02*
G01X1498326Y-647100D01*
G01X1605933Y-754707D02*
G01X1932961Y-1081734D01*
G01X2009517Y-1158290D02*
G01X2192999Y-1341773D01*
G01X2276960Y-1425733D02*
G01X2286756Y-1435530D01*
G01X32004Y855144D02*
G01X75396Y811752D01*
G01X199752Y687396D02*
G01X277343Y609804D01*
G01X1482304Y-595156D02*
G01X1534247Y-647100D01*
G01X1652583Y-765436D02*
G01X1968882Y-1081734D01*
G01X2009517Y-1122369D02*
G01X2192999Y-1305852D01*
G01X2312881Y-1425733D02*
G01X2322677Y-1435530D01*
G01X32004Y891065D02*
G01X75396Y847673D01*
G01X235673Y687396D02*
G01X313264Y609804D01*
G01X423717Y499351D02*
G01X435616Y487453D01*
G01X1494067Y-570998D02*
G01X1570168Y-647100D01*
G01X1678061Y-754993D02*
G01X2193202Y-1270133D01*
G01X2338513Y-1415444D02*
G01X2358598Y-1435530D01*
G01X32004Y926986D02*
G01X77046Y881944D01*
G01X269944Y689046D02*
G01X349185Y609804D01*
G01X435068Y523921D02*
G01X456983Y502007D01*
G01X1529959Y-570969D02*
G01X1609513Y-650524D01*
G01X1695476Y-736486D02*
G01X2206562Y-1247572D01*
G01X2347007Y-1388017D02*
G01X2394519Y-1435530D01*
G01X32004Y962907D02*
G01X94032Y900878D01*
G01X288879Y706032D02*
G01X385107Y609804D01*
G01X435068Y559842D02*
G01X485977Y508934D01*
G01X695053Y299858D02*
G01X699396Y295515D01*
G01X1553728Y-558817D02*
G01X1636470Y-641559D01*
G01X1704441Y-709530D02*
G01X2236636Y-1241725D01*
G01X2347007Y-1352096D02*
G01X2352337Y-1357426D01*
G01X2391315Y-1396404D02*
G01X2430440Y-1435530D01*
G01X32004Y998828D02*
G01X100343Y930489D01*
G01X114489Y916343D02*
G01X127028Y903804D01*
G01X291804Y739028D02*
G01X521837Y508994D01*
G01X695053Y335779D02*
G01X731234Y299598D01*
G01X1560606Y-529775D02*
G01X2240509Y-1209677D01*
G01X2347007Y-1316175D02*
G01X2349680Y-1318848D01*
G01X2429893Y-1399061D02*
G01X2466361Y-1435530D01*
G01X32004Y1034749D02*
G01X75737Y991016D01*
G01X313317Y753436D02*
G01X557758Y508994D01*
G01X674806Y391946D02*
G01X731656Y335097D01*
G01X1560606Y-493854D02*
G01X2240509Y-1173756D01*
G01X2347007Y-1280254D02*
G01X2360927Y-1294174D01*
G01X2454566Y-1387814D02*
G01X2502282Y-1435530D01*
G01X32309Y1070365D02*
G01X78276Y1024398D01*
G01X349238Y753436D02*
G01X593679Y508994D01*
G01X684743Y417931D02*
G01X732871Y369803D01*
G01X1560606Y-457933D02*
G01X2240509Y-1137835D01*
G01X2378416Y-1275742D02*
G01X2379550Y-1276877D01*
G01X2471864Y-1369190D02*
G01X2538203Y-1435530D01*
G01X34726Y1103869D02*
G01X88108Y1050486D01*
G01X234487Y904108D02*
G01X234791Y903804D01*
G01X291804Y846791D02*
G01X300831Y837764D01*
G01X385159Y753436D02*
G01X633637Y504958D01*
G01X682001Y456593D02*
G01X732285Y406310D01*
G01X1529718Y-391123D02*
G01X2242166Y-1103572D01*
G01X2481399Y-1342805D02*
G01X2574124Y-1435530D01*
G01X39215Y1135301D02*
G01X102870Y1071646D01*
G01X255646Y918869D02*
G01X274069Y900447D01*
G01X288447Y886069D02*
G01X336752Y837764D01*
G01X421080Y753436D02*
G01X734071Y440444D01*
G01X1547678Y-373162D02*
G01X1602990Y-428474D01*
G01X1646525Y-472009D02*
G01X2259166Y-1084650D01*
G01X2423997Y-1249481D02*
G01X2453159Y-1278643D01*
G01X2470098Y-1295582D02*
G01X2518854Y-1344338D01*
G01X2574405Y-1399889D02*
G01X2610045Y-1435530D01*
G01X45479Y1164958D02*
G01X121928Y1088508D01*
G01X272509Y937928D02*
G01X372673Y837764D01*
G01X457001Y753436D02*
G01X751291Y459146D01*
G01X1565639Y-355202D02*
G01X1603102Y-392665D01*
G01X1682446Y-472009D02*
G01X2292171Y-1081734D01*
G01X2424516Y-1214079D02*
G01X2521838Y-1311401D01*
G01X2607342Y-1396905D02*
G01X2645966Y-1435530D01*
G01X53306Y1193052D02*
G01X145488Y1100870D01*
G01X284870Y961488D02*
G01X408594Y837764D01*
G01X1583599Y-337241D02*
G01X1603150Y-356792D01*
G01X1718206Y-471848D02*
G01X2022046Y-775688D01*
G01X2154102Y-907744D02*
G01X2198361Y-952003D01*
G01X2215885Y-969527D02*
G01X2328092Y-1081734D01*
G01X2424516Y-1178158D02*
G01X2535235Y-1288877D01*
G01X2629866Y-1383508D02*
G01X2659732Y-1413374D01*
G01X2665352Y-1418994D02*
G01X2681887Y-1435530D01*
G01X62538Y1219741D02*
G01X174831Y1107448D01*
G01X291448Y990831D02*
G01X444515Y837764D01*
G01X1601560Y-319281D02*
G01X1602990Y-320711D01*
G01X1740974Y-458695D02*
G01X2022046Y-739767D01*
G01X2190023Y-907744D02*
G01X2195984Y-913705D01*
G01X2254183Y-971904D02*
G01X2364013Y-1081734D01*
G01X2424516Y-1142237D02*
G01X2555737Y-1273458D01*
G01X2645285Y-1363006D02*
G01X2652993Y-1370714D01*
G01X2708012Y-1425733D02*
G01X2717808Y-1435530D01*
G01X73057Y1245143D02*
G01X215075Y1103125D01*
G01X287125Y1031075D02*
G01X480436Y837764D01*
G01X1761847Y-443647D02*
G01X1853002Y-534802D01*
G01X1895209Y-577009D02*
G01X2022046Y-703846D01*
G01X2288373Y-970173D02*
G01X2401111Y-1082911D01*
G01X2423340Y-1105140D02*
G01X2584924Y-1266724D01*
G01X2652019Y-1333819D02*
G01X2652993Y-1334793D01*
G01X2743933Y-1425733D02*
G01X2753729Y-1435530D01*
G01X84772Y1269349D02*
G01X672344Y681777D01*
G01X1795572Y-441451D02*
G01X1853500Y-499380D01*
G01X1931130Y-577009D02*
G01X2022046Y-667925D01*
G01X2326025Y-971904D02*
G01X2575509Y-1221388D01*
G01X2629863Y-1275742D02*
G01X2652993Y-1298872D01*
G01X2779531Y-1425410D02*
G01X2789650Y-1435530D01*
G01X2844931Y-1490810D02*
G01X2868651Y-1514530D01*
G01X97612Y1292430D02*
G01X672355Y717687D01*
G01X1817854Y-427812D02*
G01X1867960Y-477918D01*
G01X1966990Y-576948D02*
G01X2022046Y-632004D01*
G01X2361946Y-971904D02*
G01X2575509Y-1185467D01*
G01X2801585Y-1411543D02*
G01X2831542Y-1441500D01*
G01X2838961Y-1448919D02*
G01X2904572Y-1514530D01*
G01X111524Y1314439D02*
G01X684232Y741731D01*
G01X1832498Y-406535D02*
G01X1898964Y-473001D01*
G01X1990420Y-564457D02*
G01X2022046Y-596083D01*
G01X2396267Y-970304D02*
G01X2575509Y-1149546D01*
G01X2807001Y-1381038D02*
G01X2940493Y-1514530D01*
G01X126469Y1335415D02*
G01X165322Y1296563D01*
G01X221562Y1240322D02*
G01X672344Y789540D01*
G01X707023Y754861D02*
G01X713041Y748843D01*
G01X1836848Y-374964D02*
G01X1934885Y-473001D01*
G01X1997010Y-535126D02*
G01X2022046Y-560162D01*
G01X2433788Y-971904D02*
G01X2575509Y-1113625D01*
G01X2807001Y-1345117D02*
G01X2976414Y-1514530D01*
G01X142419Y1355386D02*
G01X153112Y1344693D01*
G01X269693Y1228112D02*
G01X672344Y825461D01*
G01X742945Y754861D02*
G01X748962Y748843D01*
G01X1841226Y-343421D02*
G01X1971465Y-473660D01*
G01X1996351Y-498546D02*
G01X2022046Y-524241D01*
G01X2098754Y-600949D02*
G01X2113612Y-615807D01*
G01X2469578Y-971773D02*
G01X2586988Y-1089183D01*
G01X2807001Y-1309196D02*
G01X3012176Y-1514371D01*
G01X302573Y1231153D02*
G01X672344Y861383D01*
G01X778866Y754861D02*
G01X784883Y748843D01*
G01X1859186Y-325460D02*
G01X2022046Y-488320D01*
G01X2098754Y-565028D02*
G01X2119397Y-585670D01*
G01X2505630Y-971904D02*
G01X2615461Y-1081734D01*
G01X2759517Y-1225791D02*
G01X2775455Y-1241728D01*
G01X2806998Y-1273272D02*
G01X3045990Y-1512264D01*
G01X329033Y1240614D02*
G01X680638Y889009D01*
G01X1877147Y-307500D02*
G01X2022046Y-452399D01*
G01X2098754Y-529107D02*
G01X2119397Y-549749D01*
G01X2541551Y-971904D02*
G01X2651382Y-1081734D01*
G01X2759517Y-1189870D02*
G01X3077684Y-1508037D01*
G01X351005Y1254563D02*
G01X706052Y899516D01*
G01X1895107Y-289539D02*
G01X2022046Y-416478D01*
G01X2098754Y-493186D02*
G01X2119397Y-513828D01*
G01X2455835Y-850267D02*
G01X2459464Y-853896D01*
G01X2570568Y-965000D02*
G01X2687303Y-1081734D01*
G01X2759517Y-1153949D02*
G01X3107568Y-1502000D01*
G01X369119Y1272370D02*
G01X741973Y899516D01*
G01X822752Y818737D02*
G01X841622Y799868D01*
G01X1913068Y-271579D02*
G01X2022046Y-380557D01*
G01X2098754Y-457265D02*
G01X2119397Y-477907D01*
G01X2476238Y-834749D02*
G01X2495769Y-854280D01*
G01X2582689Y-941200D02*
G01X2723224Y-1081734D01*
G01X2759517Y-1118028D02*
G01X3135864Y-1494374D01*
G01X383398Y1294012D02*
G01X777894Y899516D01*
G01X822752Y854658D02*
G01X877543Y799868D01*
G01X1931028Y-253618D02*
G01X2022046Y-344636D01*
G01X2098754Y-421344D02*
G01X2119397Y-441986D01*
G01X2488731Y-811321D02*
G01X2505767Y-828357D01*
G01X2523538Y-846128D02*
G01X2531306Y-853896D01*
G01X2582715Y-905305D02*
G01X3162735Y-1485325D01*
G01X393273Y1320059D02*
G01X920203Y793129D01*
G01X1948989Y-235658D02*
G01X2022046Y-308715D01*
G01X2098754Y-385423D02*
G01X2119397Y-406065D01*
G01X2490954Y-777623D02*
G01X2495846Y-782515D01*
G01X2568306Y-854974D02*
G01X3113939Y-1400608D01*
G01X3174361Y-1461030D02*
G01X3188305Y-1474974D01*
G01X396983Y1352270D02*
G01X949385Y799868D01*
G01X1966949Y-217697D02*
G01X2022048Y-272796D01*
G01X2098754Y-349502D02*
G01X2119397Y-370144D01*
G01X2490954Y-741702D02*
G01X2495846Y-746594D01*
G01X2593279Y-844027D02*
G01X3103011Y-1353759D01*
G01X305873Y1479301D02*
G01X323015Y1462159D01*
G01X387158Y1398015D02*
G01X820866Y964307D01*
G01X854714Y930459D02*
G01X985306Y799868D01*
G01X1984910Y-199737D02*
G01X2032300Y-247127D01*
G01X2098754Y-313581D02*
G01X2119397Y-334223D01*
G01X2447816Y-662643D02*
G01X2455112Y-669938D01*
G01X2485506Y-700332D02*
G01X2497332Y-712158D01*
G01X2610109Y-824936D02*
G01X3106398Y-1321225D01*
G01X331153Y1489942D02*
G01X822814Y998280D01*
G01X892709Y928385D02*
G01X1022688Y798406D01*
G01X2002793Y-181698D02*
G01X2050242Y-229148D01*
G01X2104483Y-283389D02*
G01X2119397Y-298302D01*
G01X2482098Y-661004D02*
G01X2508903Y-687809D01*
G01X2617926Y-796832D02*
G01X3116072Y-1294977D01*
G01X357709Y1499306D02*
G01X819115Y1037901D01*
G01X928630Y928385D02*
G01X1054200Y802816D01*
G01X2012054Y-155039D02*
G01X2068203Y-211187D01*
G01X2122443Y-265428D02*
G01X2126239Y-269223D01*
G01X2518019Y-661004D02*
G01X2528508Y-671493D01*
G01X2617954Y-760939D02*
G01X3130190Y-1273174D01*
G01X385657Y1507279D02*
G01X825059Y1067878D01*
G01X964551Y928385D02*
G01X1073446Y819490D01*
G01X2012054Y-119118D02*
G01X2086163Y-193227D01*
G01X2140404Y-247468D02*
G01X2149965Y-257029D01*
G01X2553940Y-661004D02*
G01X2557429Y-664492D01*
G01X2617952Y-725015D02*
G01X3148153Y-1255217D01*
G01X415151Y1513706D02*
G01X818813Y1110045D01*
G01X1000472Y928385D02*
G01X1073446Y855411D01*
G01X2012054Y-83197D02*
G01X2104124Y-175266D01*
G01X2182056Y-253199D02*
G01X2185854Y-256996D01*
G01X2588956Y-660099D02*
G01X3169963Y-1241106D01*
G01X446396Y1518382D02*
G01X827676Y1137102D01*
G01X1028624Y936155D02*
G01X1073446Y891332D01*
G01X2012054Y-47275D02*
G01X2114846Y-150068D01*
G01X2208718Y-243940D02*
G01X2221775Y-256996D01*
G01X2609356Y-644578D02*
G01X3196219Y-1231441D01*
G01X479679Y1521021D02*
G01X819386Y1181313D01*
G01X1045968Y954731D02*
G01X1073446Y927254D01*
G01X2012054Y-11354D02*
G01X2115412Y-114713D01*
G01X2226829Y-226129D02*
G01X2257696Y-256996D01*
G01X2613404Y-612704D02*
G01X3228767Y-1228068D01*
G01X3346902Y-1346202D02*
G01X3353696Y-1352997D01*
G01X515158Y1521462D02*
G01X830629Y1205991D01*
G01X1051583Y985037D02*
G01X1073446Y963175D01*
G01X2012054Y24567D02*
G01X2125365Y-88745D01*
G01X2236501Y-199881D02*
G01X2243598Y-206978D01*
G01X2288379Y-251758D02*
G01X2293617Y-256996D01*
G01X2613404Y-576783D02*
G01X3275666Y-1239046D01*
G01X3335924Y-1299303D02*
G01X3369878Y-1333258D01*
G01X551079Y1521462D02*
G01X851773Y1220768D01*
G01X1048174Y1024367D02*
G01X1073446Y999096D01*
G01X2012054Y60488D02*
G01X2143684Y-71143D01*
G01X2236954Y-164413D02*
G01X2241846Y-169305D01*
G01X2322739Y-250197D02*
G01X2329538Y-256996D01*
G01X2613404Y-540862D02*
G01X3385061Y-1312519D01*
G01X587000Y1521462D02*
G01X884648Y1223815D01*
G01X1049628Y1058834D02*
G01X1073446Y1035017D01*
G01X2056448Y52014D02*
G01X2075418Y33044D01*
G01X2091448Y17015D02*
G01X2170641Y-62178D01*
G01X2345070Y-236607D02*
G01X2365459Y-256996D01*
G01X2613404Y-504941D02*
G01X3399219Y-1290756D01*
G01X622921Y1521462D02*
G01X802896Y1341488D01*
G01X843399Y1300984D02*
G01X920569Y1223815D01*
G01X1050862Y1093521D02*
G01X1073446Y1070938D01*
G01X2130195Y14189D02*
G01X2176614Y-32231D01*
G01X2359567Y-215183D02*
G01X2401380Y-256996D01*
G01X2613404Y-469020D02*
G01X2998857Y-854474D01*
G01X3047026Y-902643D02*
G01X3412315Y-1267931D01*
G01X658842Y1521462D02*
G01X802896Y1377409D01*
G01X879320Y1300984D02*
G01X943924Y1236380D01*
G01X1068823Y1111482D02*
G01X1077283Y1103022D01*
G01X2166116Y14189D02*
G01X2176614Y3690D01*
G01X2363954Y-183650D02*
G01X2368846Y-188542D01*
G01X2433697Y-253392D02*
G01X2437301Y-256996D01*
G01X2613404Y-433099D02*
G01X3001044Y-820740D01*
G01X3080760Y-900456D02*
G01X3424299Y-1243994D01*
G01X694763Y1521462D02*
G01X803137Y1413088D01*
G01X908521Y1307705D02*
G01X961885Y1254341D01*
G01X1086783Y1129442D02*
G01X1093742Y1122483D01*
G01X2363954Y-147729D02*
G01X2368846Y-152621D01*
G01X2461139Y-244913D02*
G01X2473222Y-256996D01*
G01X2613404Y-397178D02*
G01X3004496Y-788271D01*
G01X3103045Y-886820D02*
G01X3435106Y-1218880D01*
G01X730684Y1521462D02*
G01X802896Y1449251D01*
G01X932512Y1319634D02*
G01X938015Y1314132D01*
G01X969126Y1283021D02*
G01X979845Y1272301D01*
G01X1034086Y1218061D02*
G01X1050503Y1201644D01*
G01X1104744Y1147403D02*
G01X1111703Y1140444D01*
G01X2479793Y-227646D02*
G01X2509143Y-256996D01*
G01X2613404Y-361257D02*
G01X2898588Y-646441D01*
G01X2957132Y-704986D02*
G01X3002332Y-750185D01*
G01X3117693Y-865547D02*
G01X3444650Y-1192503D01*
G01X766605Y1521462D02*
G01X806432Y1481635D01*
G01X1051939Y1236129D02*
G01X1068463Y1219604D01*
G01X1122704Y1165363D02*
G01X1129663Y1158404D01*
G01X2490185Y-202117D02*
G01X2498576Y-210508D01*
G01X2538848Y-250781D02*
G01X2545064Y-256996D01*
G01X2613404Y-325336D02*
G01X2904302Y-616235D01*
G01X2988072Y-700004D02*
G01X3003231Y-715164D01*
G01X3122050Y-833983D02*
G01X3196552Y-908484D01*
G01X3263315Y-975248D02*
G01X3452819Y-1164751D01*
G01X802526Y1521462D02*
G01X826183Y1497806D01*
G01X918686Y1405303D02*
G01X927646Y1396342D01*
G01X1060861Y1263127D02*
G01X1086424Y1237565D01*
G01X1140665Y1183324D02*
G01X1147624Y1176365D01*
G01X2490954Y-166965D02*
G01X2495846Y-171858D01*
G01X2574812Y-250824D02*
G01X2580985Y-256996D01*
G01X2613404Y-289415D02*
G01X2919673Y-595685D01*
G01X3132693Y-808704D02*
G01X3205089Y-881101D01*
G01X3290699Y-966710D02*
G01X3459466Y-1135478D01*
G01X838447Y1521462D02*
G01X860894Y1499016D01*
G01X920904Y1439005D02*
G01X938003Y1421907D01*
G01X1076848Y1283062D02*
G01X1104384Y1255525D01*
G01X1158625Y1201284D02*
G01X1165584Y1194325D01*
G01X2597745Y-237836D02*
G01X2942728Y-582818D01*
G01X3309501Y-949592D02*
G01X3464394Y-1104485D01*
G01X874368Y1521462D02*
G01X898194Y1497636D01*
G01X919525Y1476306D02*
G01X938003Y1457828D01*
G01X1100356Y1295475D02*
G01X1122345Y1273486D01*
G01X1176586Y1219245D02*
G01X1186130Y1209701D01*
G01X2612812Y-216981D02*
G01X2978407Y-582576D01*
G01X3320320Y-924489D02*
G01X3467330Y-1071499D01*
G01X910289Y1521462D02*
G01X938962Y1492790D01*
G01X1107012Y1324740D02*
G01X1140305Y1291446D01*
G01X1194546Y1237205D02*
G01X1219787Y1211965D01*
G01X2617954Y-186202D02*
G01X3005214Y-573463D01*
G01X3312502Y-880750D02*
G01X3467996Y-1036244D01*
G01X946210Y1521462D02*
G01X954606Y1513067D01*
G01X1107012Y1360661D02*
G01X1158266Y1309407D01*
G01X1212507Y1255166D02*
G01X1255708Y1211965D01*
G01X2617954Y-150281D02*
G01X2921319Y-453646D01*
G01X2943742Y-476070D02*
G01X3002332Y-534659D01*
G01X3307579Y-839906D02*
G01X3467996Y-1000323D01*
G01X982131Y1521462D02*
G01X986577Y1517017D01*
G01X1107012Y1396582D02*
G01X1176227Y1327367D01*
G01X1230467Y1273127D02*
G01X1282349Y1221245D01*
G01X2617231Y-113637D02*
G01X2920184Y-416591D01*
G01X2980798Y-477204D02*
G01X3002630Y-499037D01*
G01X3319521Y-815927D02*
G01X3467996Y-964402D01*
G01X1018053Y1521462D02*
G01X1022498Y1517017D01*
G01X1107012Y1432503D02*
G01X1192993Y1346521D01*
G01X1256506Y1283009D02*
G01X1315700Y1223815D01*
G01X2629315Y-89800D02*
G01X2921531Y-382016D01*
G01X3316888Y-777373D02*
G01X3467996Y-928481D01*
G01X1053974Y1521462D02*
G01X1058419Y1517017D01*
G01X1107012Y1468424D02*
G01X1192993Y1382443D01*
G01X1292427Y1283009D02*
G01X1351621Y1223815D01*
G01X1479570Y1095866D02*
G01X1493494Y1081942D01*
G01X2665243Y-89808D02*
G01X2896256Y-320821D01*
G01X3300439Y-725004D02*
G01X3467996Y-892560D01*
G01X1089895Y1521462D02*
G01X1192993Y1418364D01*
G01X1328348Y1283009D02*
G01X1387542Y1223815D01*
G01X1469715Y1141642D02*
G01X1529415Y1081942D01*
G01X2701164Y-89808D02*
G01X2899762Y-288405D01*
G01X3315714Y-704357D02*
G01X3467996Y-856639D01*
G01X1125816Y1521462D02*
G01X1192993Y1454285D01*
G01X1353734Y1293544D02*
G01X1423463Y1223815D01*
G01X1480712Y1166566D02*
G01X1565336Y1081942D01*
G01X2737085Y-89808D02*
G01X2913992Y-266714D01*
G01X3321254Y-673977D02*
G01X3467996Y-820718D01*
G01X1161737Y1521462D02*
G01X1193359Y1489839D01*
G01X1363564Y1319634D02*
G01X1601257Y1081942D01*
G01X2767113Y-83914D02*
G01X2873496Y-190297D01*
G01X2909715Y-226516D02*
G01X2935851Y-252652D01*
G01X3292935Y-609736D02*
G01X3467996Y-784797D01*
G01X1197658Y1521462D02*
G01X1207385Y1511735D01*
G01X1418135Y1300984D02*
G01X1637178Y1081942D01*
G01X2780420Y-61300D02*
G01X2873496Y-154376D01*
G01X2945636Y-226516D02*
G01X2968626Y-249506D01*
G01X3309152Y-590032D02*
G01X3467996Y-748876D01*
G01X1233579Y1521462D02*
G01X1238024Y1517017D01*
G01X1454056Y1300984D02*
G01X1673099Y1081942D01*
G01X2780611Y-25570D02*
G01X2874898Y-119857D01*
G01X2976603Y-221562D02*
G01X3005214Y-250174D01*
G01X3316303Y-561263D02*
G01X3467996Y-712955D01*
G01X1269500Y1521462D02*
G01X1273945Y1517017D01*
G01X1362002Y1428960D02*
G01X1379720Y1411242D01*
G01X1483927Y1307035D02*
G01X1709020Y1081942D01*
G01X2780566Y10396D02*
G01X2873496Y-82534D01*
G01X2991020Y-200058D02*
G01X3002332Y-211370D01*
G01X3303724Y-512762D02*
G01X3467996Y-677034D01*
G01X1305421Y1521462D02*
G01X1309866Y1517017D01*
G01X1362002Y1464881D02*
G01X1379196Y1447687D01*
G01X1497048Y1329835D02*
G01X1744941Y1081942D01*
G01X2812694Y14189D02*
G01X2875700Y-48817D01*
G01X2991504Y-164621D02*
G01X3002332Y-175449D01*
G01X3317588Y-490705D02*
G01X3467996Y-641113D01*
G01X1341342Y1521462D02*
G01X1382218Y1480586D01*
G01X1497204Y1365600D02*
G01X1780862Y1081942D01*
G01X2848615Y14189D02*
G01X2890336Y-27532D01*
G01X3320298Y-457494D02*
G01X3467996Y-605192D01*
G01X1377263Y1521462D02*
G01X1401284Y1497441D01*
G01X1494527Y1404198D02*
G01X1617852Y1280873D01*
G01X1669580Y1229145D02*
G01X1687946Y1210779D01*
G01X1739585Y1159140D02*
G01X1816783Y1081942D01*
G01X2875198Y23527D02*
G01X2890336Y8389D01*
G01X3209469Y-310744D02*
G01X3467996Y-569271D01*
G01X1413184Y1521462D02*
G01X1435631Y1499016D01*
G01X1497204Y1437442D02*
G01X1617852Y1316794D01*
G01X1775506Y1159140D02*
G01X1852704Y1081942D01*
G01X2884608Y50038D02*
G01X2890336Y44310D01*
G01X3251738Y-317092D02*
G01X3467996Y-533350D01*
G01X1449105Y1521462D02*
G01X1472363Y1498204D01*
G01X1496392Y1474175D02*
G01X1617852Y1352715D01*
G01X1811427Y1159140D02*
G01X1888625Y1081942D01*
G01X2884607Y85960D02*
G01X2890336Y80231D01*
G01X2974664Y-4097D02*
G01X2998652Y-28085D01*
G01X3283168Y-312601D02*
G01X3467996Y-497429D01*
G01X1485026Y1521462D02*
G01X1617852Y1388636D01*
G01X1847348Y1159140D02*
G01X1924546Y1081942D01*
G01X2974664Y31824D02*
G01X3034184Y-27696D01*
G01X3304372Y-297884D02*
G01X3467996Y-461508D01*
G01X1520947Y1521462D02*
G01X1619926Y1422483D01*
G01X1883269Y1159140D02*
G01X1960467Y1081942D01*
G01X2974664Y67745D02*
G01X3070105Y-27696D01*
G01X3317937Y-275528D02*
G01X3467996Y-425587D01*
G01X1556868Y1521462D02*
G01X1637612Y1440718D01*
G01X1919190Y1159140D02*
G01X1996388Y1081942D01*
G01X2974664Y103666D02*
G01X3017538Y60792D01*
G01X3055186Y23144D02*
G01X3108518Y-30188D01*
G01X3319957Y-241626D02*
G01X3467996Y-389666D01*
G01X1592789Y1521462D02*
G01X1671098Y1443153D01*
G01X1955111Y1159140D02*
G01X2032309Y1081942D01*
G01X2953167Y161085D02*
G01X3016289Y97962D01*
G01X3092356Y21895D02*
G01X3141947Y-27696D01*
G01X3302464Y-188213D02*
G01X3467996Y-353745D01*
G01X1628710Y1521462D02*
G01X1687946Y1462227D01*
G01X1989556Y1160616D02*
G01X2068230Y1081942D01*
G01X3128277Y21895D02*
G01X3177871Y-27698D01*
G01X3316889Y-166716D02*
G01X3467996Y-317824D01*
G01X1664631Y1521462D02*
G01X1691062Y1495031D01*
G01X2008800Y1177293D02*
G01X2104151Y1081942D01*
G01X3164198Y21895D02*
G01X3267587Y-81494D01*
G01X3320797Y-134704D02*
G01X3467996Y-281903D01*
G01X1700552Y1521462D02*
G01X1710258Y1511757D01*
G01X2011953Y1210061D02*
G01X2140094Y1081921D01*
G01X3194092Y27922D02*
G01X3467996Y-245982D01*
G01X1736473Y1521462D02*
G01X1744676Y1513260D01*
G01X2028790Y1229145D02*
G01X2049093Y1208843D01*
G01X2106442Y1151493D02*
G01X2150084Y1107851D01*
G01X3212635Y45300D02*
G01X3467996Y-210061D01*
G01X1772394Y1521462D02*
G01X1780597Y1513260D01*
G01X2137460Y1156396D02*
G01X2150422Y1143435D01*
G01X3220297Y73560D02*
G01X3239471Y54385D01*
G01X3268794Y25062D02*
G01X3467996Y-174140D01*
G01X1808315Y1521462D02*
G01X1816518Y1513260D01*
G01X3220297Y109481D02*
G01X3236304Y93474D01*
G01X3307882Y21895D02*
G01X3467996Y-138219D01*
G01X1844236Y1521462D02*
G01X1852439Y1513260D01*
G01X2082148Y1283550D02*
G01X2092364Y1273335D01*
G01X3220297Y145402D02*
G01X3236304Y129395D01*
G01X3343803Y21895D02*
G01X3467996Y-102298D01*
G01X1880157Y1521462D02*
G01X1888360Y1513260D01*
G01X2082148Y1319471D02*
G01X2127397Y1274222D01*
G01X2780574Y621045D02*
G01X2783243Y618376D01*
G01X3199966Y201653D02*
G01X3237059Y164560D01*
G01X3379724Y21895D02*
G01X3467996Y-66377D01*
G01X1916078Y1521462D02*
G01X1924281Y1513260D01*
G01X2082148Y1355392D02*
G01X2148414Y1289126D01*
G01X2809081Y628459D02*
G01X2819036Y618504D01*
G01X3215975Y221566D02*
G01X3248694Y188847D01*
G01X3411112Y26428D02*
G01X3467996Y-30456D01*
G01X1951999Y1521462D02*
G01X1960202Y1513260D01*
G01X2011953Y1461508D02*
G01X2030308Y1443153D01*
G01X2082148Y1391313D02*
G01X2148414Y1325047D01*
G01X2734904Y738557D02*
G01X2751374Y722088D01*
G01X2834707Y638755D02*
G01X2854957Y618504D01*
G01X3220297Y253165D02*
G01X3236554Y236908D01*
G01X3430842Y42619D02*
G01X3467996Y5465D01*
G01X1987920Y1521462D02*
G01X2148414Y1360968D01*
G01X2734904Y774478D02*
G01X2799193Y710189D01*
G01X2857881Y651501D02*
G01X2890878Y618504D01*
G01X3220297Y289086D02*
G01X3236304Y273079D01*
G01X3440236Y69147D02*
G01X3467996Y41386D01*
G01X2023841Y1521462D02*
G01X2149296Y1396008D01*
G01X2734904Y810399D02*
G01X2821933Y723371D01*
G01X2878848Y666455D02*
G01X2926800Y618504D01*
G01X3085692Y459611D02*
G01X3098950Y446354D01*
G01X3440311Y104992D02*
G01X3467996Y77307D01*
G01X2059762Y1521462D02*
G01X2149439Y1431785D01*
G01X2734904Y846320D02*
G01X2794587Y786638D01*
G01X2903138Y678087D02*
G01X2951660Y629565D01*
G01X3104784Y476440D02*
G01X3134871Y446354D01*
G01X3440311Y140913D02*
G01X3467996Y113228D01*
G01X2095683Y1521462D02*
G01X2149296Y1467850D01*
G01X2607404Y1009742D02*
G01X2608510Y1008636D01*
G01X2716104Y901041D02*
G01X2811769Y805376D01*
G01X2921876Y695269D02*
G01X2969620Y647525D01*
G01X3122745Y494401D02*
G01X3154188Y462958D01*
G01X3417323Y199823D02*
G01X3467996Y149149D01*
G01X2131604Y1521462D02*
G01X2153107Y1499959D01*
G01X2630871Y1022196D02*
G01X2636051Y1017015D01*
G01X2716104Y936962D02*
G01X2830882Y822185D01*
G01X2938685Y714382D02*
G01X2990210Y662856D01*
G01X3138270Y514796D02*
G01X3180962Y472104D01*
G01X3434522Y218545D02*
G01X3467996Y185070D01*
G01X2167525Y1521462D02*
G01X2173211Y1515777D01*
G01X2656146Y1032842D02*
G01X2671972Y1017015D01*
G01X2716104Y972883D02*
G01X2890349Y798639D01*
G01X2955939Y733049D02*
G01X3005541Y683446D01*
G01X3158666Y530322D02*
G01X3216883Y472104D01*
G01X3440311Y248676D02*
G01X3467996Y220991D01*
G01X2203446Y1521462D02*
G01X2208093Y1516816D01*
G01X2664315Y1060593D02*
G01X2907019Y817890D01*
G01X2975190Y749719D02*
G01X3023502Y701407D01*
G01X3176627Y548282D02*
G01X3253585Y471323D01*
G01X3342412Y382496D02*
G01X3349004Y375905D01*
G01X3440311Y284597D02*
G01X3467996Y256912D01*
G01X2239367Y1521462D02*
G01X2245778Y1515052D01*
G01X2664315Y1096514D02*
G01X2925100Y835729D01*
G01X2993029Y767800D02*
G01X3042034Y718795D01*
G01X3194098Y566732D02*
G01X3288725Y472104D01*
G01X3342616Y418214D02*
G01X3384925Y375905D01*
G01X3440311Y320518D02*
G01X3467996Y292834D01*
G01X2275288Y1521462D02*
G01X2280841Y1515910D01*
G01X2633716Y1163035D02*
G01X2942940Y853811D01*
G01X3011111Y785640D02*
G01X3467996Y328755D01*
G01X2311209Y1521462D02*
G01X2315856Y1516816D01*
G01X2374404Y1458267D02*
G01X2491731Y1340940D01*
G01X2585759Y1246913D02*
G01X2590467Y1242204D01*
G01X2633716Y1198956D02*
G01X2960900Y871771D01*
G01X3029071Y803600D02*
G01X3467996Y364676D01*
G01X2347130Y1521462D02*
G01X2353924Y1514669D01*
G01X2372258Y1496335D02*
G01X2524388Y1344204D01*
G01X2587816Y1280777D02*
G01X2984156Y884437D01*
G01X3082537Y786056D02*
G01X3467996Y400597D01*
G01X2383051Y1521462D02*
G01X2560682Y1343832D01*
G01X2587443Y1317071D02*
G01X2996253Y908260D01*
G01X3106360Y798153D02*
G01X3467996Y436518D01*
G01X2418972Y1521462D02*
G01X3014214Y926221D01*
G01X3124321Y816114D02*
G01X3467996Y472439D01*
G01X695053Y110006D02*
G01X695053Y140006D01*
G03X693453Y150000I-32004J0D01*
G03X695053Y159993I-30404J9994D01*
G01X695053Y168207D01*
G03X732497Y173318I10665J61588D01*
G03X743116Y153000I31791J3682D01*
G03X732285Y129000I21172J-24000D01*
G01X732285Y75000D01*
G03X764289Y42996I32004J0D01*
G01X814288Y42996D01*
G03X831300Y47892I0J32004D01*
G03X833735Y46508I17012J27108D01*
G01X833735Y45703D01*
G03X836275Y-44122I44704J-43684D01*
G01X836275Y-52446D01*
G01X830713Y-46884D01*
G03X800899Y-34535I-29814J-29814D01*
G01X780579Y-34535D01*
G03X752407Y-45327I0J-42164D01*
G01X702259Y4821D01*
G03X695053Y10596I-29814J-29814D01*
G01X695053Y40006D01*
G03X693453Y50000I-32004J0D01*
G03X695053Y59994I-30404J9994D01*
G01X695053Y89993D01*
G03X693449Y100000I-32004J0D01*
G03X695053Y110006I-30399J10006D01*
G01X694077Y147850D02*
G01X714079Y167852D01*
G01X695053Y112906D02*
G01X739234Y157087D01*
G01X695053Y76985D02*
G01X732285Y114216D01*
G01X695036Y41047D02*
G01X732285Y78295D01*
G01X698257Y8346D02*
G01X741971Y52061D01*
G01X716456Y-9376D02*
G01X768827Y42996D01*
G01X734416Y-27336D02*
G01X804749Y42996D01*
G01X752377Y-45297D02*
G01X818987Y21314D01*
G01X799060Y-34535D02*
G01X818362Y-15232D01*
G01X826397Y-43119D02*
G01X830924Y-38591D01*
G01X695053Y12489D02*
G01X752652Y-45109D01*
G01X693456Y50008D02*
G01X778073Y-34609D01*
G01X695053Y84331D02*
G01X817197Y-37812D01*
G01X695053Y120252D02*
G01X732285Y83021D01*
G01X772310Y42996D02*
G01X815993Y-688D01*
G01X694848Y156378D02*
G01X732285Y118942D01*
G01X808231Y42996D02*
G01X822113Y29114D01*
G01X718530Y168618D02*
G01X738797Y148351D01*
G01X2188761Y842498D02*
G03X2215882Y831264I27120J27120D01*
G01X2288622Y831264D01*
G03X2319000Y809331I30378J10071D01*
G01X2340259Y809331D01*
G01X2340259Y722208D01*
G01X2328608Y722208D01*
G03X2318605Y720604I0J-32004D01*
G03X2308603Y722208I-10003J-30401D01*
G01X2288603Y722208D01*
G03X2278600Y720604I0J-32004D01*
G03X2275967Y721348I-10003J-30401D01*
G01X2266020Y731294D01*
G03X2238900Y742528I-27120J-27120D01*
G01X2232641Y742528D01*
G03X2192862Y819029I-60041J17372D01*
G03X2114523Y783004I-20262J-59129D01*
G01X2114304Y782786D01*
G01X2114304Y821812D01*
G03X2082300Y853816I-32004J0D01*
G01X2028300Y853816D01*
G03X2006850Y845564I0J-32004D01*
G03X1985400Y853816I-21450J-23752D01*
G01X1931400Y853816D01*
G03X1913004Y848000I0J-32004D01*
G01X1913004Y864802D01*
G03X1881000Y896806I-32004J0D01*
G01X1791000Y896806D01*
G03X1764600Y882894I0J-32004D01*
G03X1738200Y896806I-26400J-18091D01*
G01X1648200Y896806D01*
G03X1621800Y882894I0J-32004D01*
G03X1595400Y896806I-26400J-18091D01*
G01X1505400Y896806D01*
G03X1473396Y864802I0J-32004D01*
G01X1473396Y784803D01*
G03X1493990Y754902I32004J0D01*
G01X1467200Y754902D01*
G01X1467200Y809100D01*
G03X1435196Y841104I-32004J0D01*
G01X1325196Y841104D01*
G03X1293192Y809100I0J-32004D01*
G01X1293192Y638864D01*
G01X1277208Y638864D01*
G01X1277208Y809100D01*
G03X1245204Y841104I-32004J0D01*
G01X1150154Y841104D01*
G01X1150154Y1070413D01*
G01X1214997Y1135257D01*
G01X1255671Y1135257D01*
G03X1248542Y1101236I42535J-26670D01*
G03X1181693Y1074308I-14342J-60836D01*
G03X1184651Y1002300I52507J-33908D01*
G03X1197924Y913299I49549J-38100D01*
G03X1286384Y929797I36276J50900D01*
G03X1298205Y928385I11821J48793D01*
G01X1431004Y928385D01*
G03X1463399Y940235I0J50204D01*
G01X2091024Y940235D01*
G01X2188761Y842498D01*
G01X1150154Y1034980D02*
G01X1174691Y1059517D01*
G01X1215083Y1099909D02*
G01X1250431Y1135257D01*
G01X1150154Y999059D02*
G01X1174151Y1023055D01*
G01X1150154Y963138D02*
G01X1177483Y990467D01*
G01X1150154Y927217D02*
G01X1173257Y950319D01*
G01X1150154Y891296D02*
G01X1184784Y925926D01*
G01X1150154Y855375D02*
G01X1204165Y909385D01*
G01X1171804Y841104D02*
G01X1232421Y901721D01*
G01X1207725Y841104D02*
G01X1295102Y928481D01*
G01X1243646Y841104D02*
G01X1330927Y928385D01*
G01X1268983Y830520D02*
G01X1366848Y928385D01*
G01X1277208Y802824D02*
G01X1295556Y821172D01*
G01X1313124Y838740D02*
G01X1402769Y928385D01*
G01X1277208Y766903D02*
G01X1293192Y782887D01*
G01X1351409Y841104D02*
G01X1439397Y929092D01*
G01X1277208Y730981D02*
G01X1293192Y746966D01*
G01X1387330Y841104D02*
G01X1486462Y940235D01*
G01X1277208Y695060D02*
G01X1293192Y711045D01*
G01X1423251Y841104D02*
G01X1522383Y940235D01*
G01X1277208Y659139D02*
G01X1293192Y675124D01*
G01X1453454Y835385D02*
G01X1473396Y855328D01*
G01X1514875Y896806D02*
G01X1558304Y940235D01*
G01X1292854Y638864D02*
G01X1293192Y639203D01*
G01X1466965Y812975D02*
G01X1473396Y819407D01*
G01X1550796Y896806D02*
G01X1594225Y940235D01*
G01X1467200Y777289D02*
G01X1473422Y783512D01*
G01X1586717Y896806D02*
G01X1630146Y940235D01*
G01X1480733Y754902D02*
G01X1485539Y759707D01*
G01X1615521Y889690D02*
G01X1666067Y940235D01*
G01X1658559Y896806D02*
G01X1701988Y940235D01*
G01X1694480Y896806D02*
G01X1737909Y940235D01*
G01X1730401Y896806D02*
G01X1773830Y940235D01*
G01X1758806Y889290D02*
G01X1809751Y940235D01*
G01X1802243Y896806D02*
G01X1845672Y940235D01*
G01X1838164Y896806D02*
G01X1881593Y940235D01*
G01X1874085Y896806D02*
G01X1917514Y940235D01*
G01X1902082Y888882D02*
G01X1953435Y940235D01*
G01X1913004Y863883D02*
G01X1989356Y940235D01*
G01X1938858Y853816D02*
G01X2025277Y940235D01*
G01X1974779Y853816D02*
G01X2061198Y940235D01*
G01X2004428Y847545D02*
G01X2094072Y937188D01*
G01X2046621Y853816D02*
G01X2112032Y919227D01*
G01X2082541Y853815D02*
G01X2129993Y901267D01*
G01X2106914Y842267D02*
G01X2147953Y883306D01*
G01X2114304Y813736D02*
G01X2165914Y865346D01*
G01X2156885Y820396D02*
G01X2183874Y847385D01*
G01X2191794Y819384D02*
G01X2205194Y832784D01*
G01X2214559Y806227D02*
G01X2239595Y831264D01*
G01X2229662Y785409D02*
G01X2275516Y831264D01*
G01X2234889Y754715D02*
G01X2297659Y817486D01*
G01X2255054Y738960D02*
G01X2325426Y809331D01*
G01X2274665Y722650D02*
G01X2340259Y788244D01*
G01X2310108Y722172D02*
G01X2340259Y752323D01*
G01X1277208Y651649D02*
G01X1289993Y638864D01*
G01X1277208Y687570D02*
G01X1293192Y671586D01*
G01X1150154Y850546D02*
G01X1159596Y841104D01*
G01X1277208Y723491D02*
G01X1293192Y707507D01*
G01X1150154Y886467D02*
G01X1195517Y841104D01*
G01X1277208Y759412D02*
G01X1293192Y743428D01*
G01X1150154Y922388D02*
G01X1231438Y841104D01*
G01X1277208Y795333D02*
G01X1293192Y779349D01*
G01X1150154Y958309D02*
G01X1293698Y814765D01*
G01X1150154Y994230D02*
G01X1172207Y972177D01*
G01X1242177Y902207D02*
G01X1308179Y836205D01*
G01X1150154Y1030151D02*
G01X1181891Y998413D01*
G01X1268413Y911891D02*
G01X1339201Y841104D01*
G01X1150154Y1066072D02*
G01X1171824Y1044401D01*
G01X1286443Y929782D02*
G01X1375122Y841104D01*
G01X1165944Y1086203D02*
G01X1180226Y1071921D01*
G01X1323762Y928385D02*
G01X1411043Y841104D01*
G01X1467200Y784947D02*
G01X1474122Y778025D01*
G01X1183904Y1104163D02*
G01X1197253Y1090815D01*
G01X1359683Y928385D02*
G01X1451326Y836742D01*
G01X1462838Y825229D02*
G01X1473396Y814672D01*
G01X1201865Y1122124D02*
G01X1222240Y1101749D01*
G01X1395604Y928385D02*
G01X1473396Y850593D01*
G01X1224653Y1135257D02*
G01X1248104Y1111806D01*
G01X1431522Y928388D02*
G01X1478216Y881693D01*
G01X1458949Y936882D02*
G01X1499561Y896269D01*
G01X1491516Y940235D02*
G01X1534945Y896806D01*
G01X1527437Y940235D02*
G01X1570866Y896806D01*
G01X1563358Y940235D02*
G01X1610659Y892934D01*
G01X1599279Y940235D02*
G01X1643115Y896400D01*
G01X1635200Y940235D02*
G01X1678629Y896806D01*
G01X1671121Y940235D02*
G01X1714550Y896806D01*
G01X1707043Y940235D02*
G01X1755642Y891636D01*
G01X1742964Y940235D02*
G01X1786685Y896514D01*
G01X1778885Y940235D02*
G01X1822313Y896806D01*
G01X1814806Y940235D02*
G01X1858235Y896806D01*
G01X1850727Y940235D02*
G01X1902070Y888891D01*
G01X1905089Y885873D02*
G01X1937146Y853816D01*
G01X1886648Y940235D02*
G01X1973067Y853816D01*
G01X1922569Y940235D02*
G01X2012924Y849880D01*
G01X1958490Y940235D02*
G01X2044909Y853816D01*
G01X2114304Y784421D02*
G01X2114869Y783856D01*
G01X1994411Y940235D02*
G01X2080830Y853816D01*
G01X2114304Y820342D02*
G01X2129489Y805157D01*
G01X2030332Y940235D02*
G01X2151745Y818822D01*
G01X2066253Y940235D02*
G01X2185411Y821077D01*
G01X2233777Y772711D02*
G01X2284540Y721949D01*
G01X2210808Y831601D02*
G01X2321096Y721313D01*
G01X2247066Y831264D02*
G01X2340259Y738071D01*
G01X2282987Y831264D02*
G01X2340259Y773992D01*
G01X1172049Y-77148D02*
G03X1189892Y-72135I-2159J41948D01*
G03X1229897Y-72135I20003J36936D01*
G03X1269890Y-72142I20003J36936D01*
G03X1309882Y-72135I19990J36942D01*
G03X1349887Y-72135I20003J36936D01*
G03X1389892Y-72135I20003J36936D01*
G03X1402932Y-76622I20003J36936D01*
G01X1359875Y-119680D01*
G01X1359875Y-118079D01*
G03X1327871Y-86075I-32004J0D01*
G01X1273870Y-86075D01*
G03X1248131Y-99059I0J-32004D01*
G03X1225500Y-89684I-22631J-22629D01*
G01X1172049Y-89684D01*
G01X1172049Y-77148D01*
G01X1174963Y-89684D02*
G01X1191625Y-73022D01*
G01X1210884Y-89684D02*
G01X1227010Y-73558D01*
G01X1242139Y-94350D02*
G01X1260697Y-75792D01*
G01X1286335Y-86075D02*
G01X1295598Y-76812D01*
G01X1322256Y-86075D02*
G01X1331147Y-77184D01*
G01X1349636Y-94616D02*
G01X1367139Y-77113D01*
G01X1178899Y-76226D02*
G01X1192358Y-89684D01*
G01X1215432Y-76837D02*
G01X1228412Y-89817D01*
G01X1251681Y-77166D02*
G01X1262630Y-88114D01*
G01X1287577Y-77140D02*
G01X1296512Y-86075D01*
G01X1322992Y-76634D02*
G01X1332818Y-86460D01*
G01X1359490Y-113132D02*
G01X1362956Y-116598D01*
G01X1357664Y-75385D02*
G01X1380917Y-98638D01*
G01X1390825Y-72625D02*
G01X1398877Y-80677D01*
G01X1746998Y389993D02*
G03X1745393Y399999I-32004J0D01*
G03X1746998Y410006I-30399J10006D01*
G01X1746998Y440005D01*
G03X1714994Y472009I-32004J0D01*
G01X1701482Y472009D01*
G01X1814170Y584698D01*
G01X1850701Y584698D01*
G01X1819280Y553277D01*
G03X1808046Y526156I27120J-27120D01*
G01X1808046Y356708D01*
G03X1773846Y363110I-28147J-55808D01*
G03X1755794Y367170I-18051J-38105D01*
G01X1746998Y367170D01*
G01X1746998Y389993D01*
G01X1731855Y467208D02*
G01X1849345Y584698D01*
G01X1746453Y445885D02*
G01X1808046Y507478D01*
G01X1746998Y410509D02*
G01X1808046Y471557D01*
G01X1746998Y374588D02*
G01X1808046Y435636D01*
G01X1772185Y363854D02*
G01X1808046Y399715D01*
G01X1803165Y358913D02*
G01X1808046Y363794D01*
G01X1745832Y398551D02*
G01X1780989Y363395D01*
G01X1704889Y475416D02*
G01X1708295Y472009D01*
G01X1746998Y433307D02*
G01X1808046Y372258D01*
G01X1722849Y493376D02*
G01X1808046Y408179D01*
G01X1740810Y511337D02*
G01X1808046Y444100D01*
G01X1758770Y529298D02*
G01X1808046Y480021D01*
G01X1776731Y547258D02*
G01X1808046Y515942D01*
G01X1794691Y565219D02*
G01X1813704Y546206D01*
G01X1812652Y583179D02*
G01X1830917Y564914D01*
G01X1847054Y584698D02*
G01X1848878Y582874D01*
G01X1808046Y189487D02*
G01X1781919Y163360D01*
G01X1746998Y163360D01*
G01X1746998Y189993D01*
G03X1745393Y200000I-32004J0D01*
G03X1746998Y210006I-30399J10006D01*
G01X1746998Y232829D01*
G01X1753993Y232829D01*
G03X1775234Y238570I0J42164D01*
G03X1808046Y245092I4666J62330D01*
G01X1808046Y189487D01*
G01X1746998Y230904D02*
G01X1748923Y232829D01*
G01X1746658Y194643D02*
G01X1791496Y239481D01*
G01X1751296Y163360D02*
G01X1808046Y220110D01*
G01X1746998Y181860D02*
G01X1765497Y163360D01*
G01X1746998Y217781D02*
G01X1791669Y173110D01*
G01X1766096Y234603D02*
G01X1808046Y192653D01*
G01X1796091Y240529D02*
G01X1808046Y228574D01*
G01X1864068Y-113347D02*
G03X1891189Y-102114I0J38354D01*
G01X1899646Y-93657D01*
G01X1899646Y-126913D01*
G01X1789920Y-236639D01*
G01X1746998Y-236639D01*
G01X1746998Y-210006D01*
G03X1745393Y-200000I-32004J0D01*
G03X1746998Y-189993I-30399J10006D01*
G01X1746998Y-159993D01*
G03X1745397Y-150000I-32004J0D01*
G03X1746998Y-140006I-30404J9994D01*
G01X1746998Y-113347D01*
G01X1864068Y-113347D01*
G01X1746998Y-128307D02*
G01X1761957Y-113347D01*
G01X1746998Y-164228D02*
G01X1797878Y-113347D01*
G01X1745803Y-201343D02*
G01X1833799Y-113347D01*
G01X1746998Y-236070D02*
G01X1870216Y-112852D01*
G01X1782349Y-236639D02*
G01X1899646Y-119343D01*
G01X1746998Y-213272D02*
G01X1770365Y-236639D01*
G01X1746998Y-177351D02*
G01X1798103Y-228456D01*
G01X1746967Y-141399D02*
G01X1816064Y-210496D01*
G01X1754837Y-113347D02*
G01X1834024Y-192535D01*
G01X1790758Y-113347D02*
G01X1851985Y-174575D01*
G01X1826679Y-113347D02*
G01X1869945Y-156614D01*
G01X1862600Y-113347D02*
G01X1887906Y-138654D01*
G01X1889168Y-103994D02*
G01X1899646Y-114473D01*
G01X2232088Y1052796D02*
G03X2249100Y1057691I0J32004D01*
G03X2266112Y1052796I17012J27108D01*
G01X2288124Y1052796D01*
G03X2288596Y1004463I57876J-23604D01*
G01X2288596Y994458D01*
G03X2286996Y984464I30404J-9993D01*
G01X2286996Y951254D01*
G01X2285387Y951254D01*
G01X2183845Y1052796D01*
G01X2232088Y1052796D01*
G01X2196762Y1039878D02*
G01X2209680Y1052796D01*
G01X2214723Y1021918D02*
G01X2249970Y1057165D01*
G01X2232683Y1003957D02*
G01X2281522Y1052796D01*
G01X2250644Y985997D02*
G01X2284238Y1019591D01*
G01X2268604Y968036D02*
G01X2287060Y986492D01*
G01X2205140Y1052796D02*
G01X2286996Y970940D01*
G01X2240054Y1053803D02*
G01X2288026Y1005831D01*
G01X2276982Y1052796D02*
G01X2285375Y1044403D01*
G01X2246609Y321573D02*
G01X2246609Y116188D01*
G03X2247614Y108230I32004J0D01*
G03X2218390Y40700I31760J-53833D01*
G01X2208618Y40700D01*
G03X2202517Y40113I0J-32004D01*
G03X2203100Y46193I-31421J6080D01*
G01X2203100Y66193D01*
G03X2201497Y76195I-32004J0D01*
G03X2203100Y86198I-30401J10003D01*
G01X2203100Y106198D01*
G03X2201497Y116200I-32004J0D01*
G03X2203100Y126203I-30401J10003D01*
G01X2203100Y146203D01*
G03X2201501Y156193I-32004J0D01*
G03X2203100Y166183I-30405J9990D01*
G01X2203100Y186183D01*
G03X2201497Y196185I-32004J0D01*
G03X2203100Y206188I-30401J10003D01*
G01X2203100Y226188D01*
G03X2201497Y236190I-32004J0D01*
G03X2203100Y246193I-30401J10003D01*
G01X2203100Y266193D01*
G03X2201497Y276195I-32004J0D01*
G03X2203100Y286198I-30401J10003D01*
G01X2203100Y306198D01*
G03X2201497Y316200I-32004J0D01*
G01X2201799Y317169D01*
G03X2246609Y321573I16701J60231D01*
G01X2203100Y291875D02*
G01X2226656Y315430D01*
G01X2203100Y255954D02*
G01X2246609Y299463D01*
G01X2203100Y220033D02*
G01X2246609Y263542D01*
G01X2203100Y184112D02*
G01X2246609Y227621D01*
G01X2203042Y148132D02*
G01X2246609Y191700D01*
G01X2202610Y111779D02*
G01X2246609Y155779D01*
G01X2201839Y75088D02*
G01X2246609Y119858D01*
G01X2202848Y40176D02*
G01X2216871Y54198D01*
G01X2203100Y49046D02*
G01X2211446Y40700D01*
G01X2203077Y84990D02*
G01X2218692Y69376D01*
G01X2202718Y121271D02*
G01X2230558Y93431D01*
G01X2202010Y157900D02*
G01X2246753Y113157D01*
G01X2202228Y193602D02*
G01X2246609Y149222D01*
G01X2202997Y228755D02*
G01X2246609Y185143D01*
G01X2203100Y264573D02*
G01X2246609Y221064D01*
G01X2203100Y300494D02*
G01X2246609Y256985D01*
G01X2224345Y315170D02*
G01X2246609Y292906D01*
G01X2475000Y809331D02*
G03X2502284Y824606I0J32004D01*
G03X2523000Y816997I20716J24395D01*
G01X2577000Y816997D01*
G03X2586993Y818597I0J32004D01*
G01X2620096Y818597D01*
G01X2620096Y722208D01*
G01X2608618Y722208D01*
G03X2598615Y720604I0J-32004D01*
G03X2588613Y722208I-10003J-30401D01*
G01X2568613Y722208D01*
G03X2558610Y720604I0J-32004D01*
G03X2548608Y722208I-10003J-30401D01*
G01X2528608Y722208D01*
G03X2518605Y720604I0J-32004D01*
G03X2508603Y722208I-10003J-30401D01*
G01X2488603Y722208D01*
G03X2478600Y720604I0J-32004D01*
G03X2468598Y722208I-10003J-30401D01*
G01X2456972Y722208D01*
G01X2456972Y809331D01*
G01X2475000Y809331D01*
G01X2456972Y797194D02*
G01X2469110Y809331D01*
G01X2456972Y761273D02*
G01X2513990Y818291D01*
G01X2456972Y725352D02*
G01X2548617Y816997D01*
G01X2489749Y722208D02*
G01X2585760Y818219D01*
G01X2525521Y722058D02*
G01X2620096Y816634D01*
G01X2560562Y721178D02*
G01X2620096Y780713D01*
G01X2596520Y721215D02*
G01X2620096Y744792D01*
G01X2456972Y729121D02*
G01X2463886Y722208D01*
G01X2456972Y765042D02*
G01X2499807Y722208D01*
G01X2456972Y800963D02*
G01X2535728Y722208D01*
G01X2483402Y810454D02*
G01X2571649Y722208D01*
G01X2510038Y819739D02*
G01X2607586Y722191D01*
G01X2548702Y816997D02*
G01X2620096Y745602D01*
G01X2583875Y817744D02*
G01X2620096Y781523D01*
G01X2618943Y818597D02*
G01X2620096Y817444D01*
G01X3042069Y369646D02*
G03X3022546Y350120I24224J-43745D01*
G03X3000300Y359116I-22245J-23009D01*
G01X2963104Y359116D01*
G01X2963104Y369646D01*
G01X3042069Y369646D01*
G01X2963104Y369379D02*
G01X2963371Y369646D01*
G01X2988762Y359116D02*
G01X2999292Y369646D01*
G01X3018796Y353229D02*
G01X3035213Y369646D01*
G01X2963104Y366674D02*
G01X2970662Y359116D01*
G01X2996052Y369646D02*
G01X3007374Y358324D01*
G01X3031973Y369646D02*
G01X3035963Y365656D01*
G54D11*
G01X131051Y431991D02*
G01X131051Y502644D01*
G01X131051Y431991D02*
G01X131051Y361337D01*
G01X131051Y431991D02*
G01X246705Y431991D01*
G01X131051Y-431990D02*
G01X131051Y-361337D01*
G01X131051Y-431990D02*
G01X131051Y-502644D01*
G01X131051Y-431990D02*
G01X246705Y-431990D01*
G01X183600Y999600D02*
G01X81746Y999600D01*
G01X183600Y999600D02*
G01X285454Y999600D01*
G01X183600Y999600D02*
G01X183600Y1101454D01*
G01X275000Y1350000D02*
G01X275000Y1234346D01*
G01X275000Y1350000D02*
G01X159346Y1350000D01*
G01X275000Y1350000D02*
G01X390654Y1350000D01*
G01X275033Y-1350012D02*
G01X275033Y-1234358D01*
G01X275033Y-1350012D02*
G01X159380Y-1350012D01*
G01X275033Y-1350012D02*
G01X390687Y-1350012D01*
G01X549034Y431991D02*
G01X549034Y502644D01*
G01X549034Y431991D02*
G01X679687Y431991D01*
G01X549034Y-431990D02*
G01X549034Y-502644D01*
G01X549034Y-431990D02*
G01X679687Y-431990D01*
G01X3224957Y-1350012D02*
G01X3224957Y-1234358D01*
G01X3224957Y-1350012D02*
G01X3109303Y-1350012D01*
G01X3224957Y-1350012D02*
G01X3340611Y-1350012D01*
G01X288218Y550800D02*
G01X234281Y550800D01*
G01X288218Y550800D02*
G01X288218Y498146D01*
G01X288218Y550800D02*
G01X288218Y603454D01*
G01X288218Y-550800D02*
G01X234281Y-550800D01*
G01X288218Y-550800D02*
G01X288218Y-603454D01*
G01X288218Y-550800D02*
G01X288218Y-498146D01*
G01X529188Y-1336200D02*
G01X478534Y-1336200D01*
G01X529188Y-1336200D02*
G01X529188Y-1283546D01*
G01X529188Y-1336200D02*
G01X529188Y-1388854D01*
G01X605549Y-320002D02*
G01X688703Y-320002D01*
G01X605549Y320002D02*
G01X688703Y320002D01*
G01X747548Y827188D02*
G01X747548Y893166D01*
G01X747548Y827188D02*
G01X747548Y761211D01*
G01X747548Y827188D02*
G01X816402Y827188D01*
G01X747548Y827188D02*
G01X678694Y827188D01*
G01X788238Y302919D02*
G01X737584Y302919D01*
G01X789288Y102000D02*
G01X738635Y102000D01*
G01X789288Y102000D02*
G01X789288Y49346D01*
G01X789288Y402900D02*
G01X738635Y402900D01*
G01X861900Y1442012D02*
G01X861900Y1492666D01*
G01X861900Y1442012D02*
G01X914554Y1442012D01*
G01X861900Y1442012D02*
G01X809246Y1442012D01*
G01X864848Y742864D02*
G01X864848Y793518D01*
G01X935395Y978589D02*
G01X935395Y934735D01*
G01X935395Y978589D02*
G01X1045649Y978589D01*
G01X935395Y978589D02*
G01X825142Y978589D01*
G01X966848Y742864D02*
G01X966848Y793518D01*
G01X1065900Y745812D02*
G01X1065900Y796466D01*
G01X1198500Y-146688D02*
G01X1198500Y-96034D01*
G01X1229997Y-1333729D02*
G01X1159343Y-1333729D01*
G01X1229997Y-1333729D02*
G01X1300651Y-1333729D01*
G01X1229997Y-1333729D02*
G01X1229997Y-1419383D01*
G01X1300870Y-146362D02*
G01X1300870Y-92425D01*
G01X1438200Y1442012D02*
G01X1438200Y1492666D01*
G01X1438200Y1442012D02*
G01X1490854Y1442012D01*
G01X1438200Y1442012D02*
G01X1385546Y1442012D01*
G01X1496102Y-488994D02*
G01X1496102Y-564648D01*
G01X1496102Y-488994D02*
G01X1554256Y-488994D01*
G01X1522510Y-800700D02*
G01X1443255Y-800700D01*
G01X1522510Y-800700D02*
G01X1601764Y-800700D01*
G01X1550400Y824803D02*
G01X1550400Y890456D01*
G01X1550400Y824803D02*
G01X1479746Y824803D01*
G01X1674994Y-440005D02*
G01X1674994Y-465659D01*
G01X1677356Y1336149D02*
G01X1677356Y1235495D01*
G01X1677356Y1336149D02*
G01X1677356Y1436803D01*
G01X1677356Y1336149D02*
G01X1624202Y1336149D01*
G01X1693200Y824803D02*
G01X1693200Y890456D01*
G01X1836000Y824803D02*
G01X1836000Y890456D01*
G01X1849949Y1213645D02*
G01X1849949Y1165490D01*
G01X1849949Y1213645D02*
G01X1694296Y1213645D01*
G01X1849949Y1213645D02*
G01X2005603Y1213645D01*
G01X1849949Y1458755D02*
G01X1849949Y1506910D01*
G01X1849949Y1458755D02*
G01X1694296Y1458755D01*
G01X1849949Y1458755D02*
G01X2005603Y1458755D01*
G01X1958400Y796812D02*
G01X1958400Y847466D01*
G01X1979997Y-1333729D02*
G01X1909343Y-1333729D01*
G01X1979997Y-1333729D02*
G01X2050651Y-1333729D01*
G01X1979997Y-1333729D02*
G01X1979997Y-1419383D01*
G01X2022644Y1336149D02*
G01X2022644Y1235495D01*
G01X2022644Y1336149D02*
G01X2022644Y1436803D01*
G01X2022644Y1336149D02*
G01X2075798Y1336149D01*
G01X2055300Y796812D02*
G01X2055300Y847466D01*
G01X2055300Y796812D02*
G01X2107954Y796812D01*
G01X2207088Y1111800D02*
G01X2156434Y1111800D01*
G01X2207088Y1111800D02*
G01X2207088Y1059146D01*
G01X2208300Y1459812D02*
G01X2208300Y1510466D01*
G01X2208300Y1459812D02*
G01X2155646Y1459812D01*
G01X2252988Y-939900D02*
G01X2252988Y-965554D01*
G01X2315400Y1459812D02*
G01X2315400Y1510466D01*
G01X2315400Y1459812D02*
G01X2368054Y1459812D01*
G01X2366400Y-459000D02*
G01X2125747Y-459000D01*
G01X2366400Y-459000D02*
G01X2607054Y-459000D01*
G01X2366400Y-459000D02*
G01X2366400Y-263346D01*
G01X2478613Y316187D02*
G01X2252959Y316187D01*
G01X2525711Y-912900D02*
G01X2576365Y-912900D01*
G01X2525711Y-912900D02*
G01X2525711Y-965554D01*
G01X2525711Y-912900D02*
G01X2525711Y-860246D01*
G01X2530812Y1285200D02*
G01X2581466Y1285200D01*
G01X2530812Y1285200D02*
G01X2530812Y1337854D01*
G01X2556900Y-760269D02*
G01X2502196Y-760269D01*
G01X2556900Y-760269D02*
G01X2611604Y-760269D01*
G01X2556900Y-760269D02*
G01X2556900Y-670840D01*
G01X2576712Y1183200D02*
G01X2627366Y1183200D01*
G01X2607312Y1081200D02*
G01X2657965Y1081200D01*
G01X2657100Y960012D02*
G01X2657100Y1010665D01*
G01X2657100Y960012D02*
G01X2709754Y960012D01*
G01X2729997Y-1333729D02*
G01X2659343Y-1333729D01*
G01X2729997Y-1333729D02*
G01X2800651Y-1333729D01*
G01X2729997Y-1333729D02*
G01X2729997Y-1419383D01*
G01X2833777Y782123D02*
G01X2815637Y800263D01*
G01X2932500Y-169512D02*
G01X2932500Y-220166D01*
G01X2932500Y-169512D02*
G01X2879846Y-169512D01*
G01X2932500Y-169512D02*
G01X2985154Y-169512D01*
G01X2973300Y302112D02*
G01X2973300Y352766D01*
G01X2977188Y-418200D02*
G01X2926534Y-418200D01*
G01X2977188Y-418200D02*
G01X2977188Y-470854D01*
G01X3060451Y654912D02*
G01X3096269Y690729D01*
G01X3060451Y654912D02*
G01X3023219Y692144D01*
G01X3092423Y829477D02*
G01X3110563Y811337D01*
G01X3118293Y283901D02*
G01X3213947Y283901D01*
G01X3130507Y585607D02*
G01X3166324Y621425D01*
G01X3130507Y585607D02*
G01X3167739Y548375D01*
G01X3285612Y413100D02*
G01X3336266Y413100D01*
G01X3285612Y413100D02*
G01X3285612Y465754D01*
G01X3338308Y113899D02*
G01X3433961Y113899D01*
G01X3338308Y113899D02*
G01X3242654Y113899D01*
G01X3338308Y113899D02*
G01X3338308Y28245D01*
G04 Copper End*

G04 PolygonModel Start*
G36*
G01X2786103Y526202D02*
G01X2786103Y586500D01*
G01X2971403Y586500D01*
G01X2981721Y576182D01*
G01X2930839Y525300D01*
G01X2922300Y525300D01*
G01X2921398Y526202D01*
G01X2786103Y526202D01*
G37*
G36*
G01X3001038Y595498D02*
G01X3001789Y595498D01*
G01X3071093Y526194D01*
G01X3024300Y479400D01*
G01X2988600Y479400D01*
G01X2942700Y525300D01*
G01X2930839Y525300D01*
G01X3001038Y595498D01*
G37*
G36*
G01X1449900Y464136D02*
G01X1449900Y673662D01*
G01X1474313Y649248D01*
G01X1520575Y649248D01*
G01X1520575Y534811D01*
G01X1449900Y464136D01*
G37*

G04 Rect Start*
G36*
G01X1635689Y274993D02*
G01X1635689Y325006D01*
G01X1769293Y325006D01*
G01X1769293Y274993D01*
G01X1635689Y274993D01*
G37*
G04 Rect End*

G04 Pad Start*
G54D12*
G01X183600Y999600D03*
G54D13*
G01X183600Y795600D03*
G54D14*
G01X2446788Y1285200D03*
G01X2530812Y1285200D03*
G01X2492688Y1183200D03*
G01X2576712Y1183200D03*
G01X2523288Y1081200D03*
G01X2607312Y1081200D03*
G54D15*
G01X2657100Y875988D03*
G01X2657100Y960012D03*
G01X2055300Y712789D03*
G01X2055300Y796812D03*
G01X2932500Y-85489D03*
G01X2932500Y-169512D03*
G54D16*
G01X3071093Y526193D03*
G01X3130507Y585607D03*
G01X3001038Y595498D03*
G01X3060451Y654912D03*
G54D15*
G01X2973300Y302112D03*
G01X2973300Y218088D03*
G54D14*
G01X3201588Y413100D03*
G01X3285612Y413100D03*
G01X613212Y-1336200D03*
G01X529188Y-1336200D03*
G01X3061212Y-418200D03*
G01X2977188Y-418200D03*
G01X2291111Y1111800D03*
G01X2207088Y1111800D03*
G54D15*
G01X2315400Y1375788D03*
G01X2315400Y1459812D03*
G01X2208300Y1375788D03*
G01X2208300Y1459812D03*
G01X864848Y658840D03*
G01X864848Y742864D03*
G54D14*
G01X873312Y102000D03*
G01X789288Y102000D03*
G54D15*
G01X1198500Y-230712D03*
G01X1198500Y-146688D03*
G54D14*
G01X873312Y204000D03*
G01X789288Y204000D03*
G01X872261Y302919D03*
G01X788238Y302919D03*
G54D15*
G01X1065900Y661788D03*
G01X1065900Y745812D03*
G54D14*
G01X873312Y402900D03*
G01X789288Y402900D03*
G54D15*
G01X966848Y658840D03*
G01X966848Y742864D03*
G54D17*
G01X1550400Y684798D03*
G01X1550400Y824803D03*
G01X1693200Y684798D03*
G01X1693200Y824803D03*
G01X1836000Y684798D03*
G01X1836000Y824803D03*
G54D15*
G01X1958400Y712789D03*
G01X1958400Y796812D03*
G54D14*
G01X2337012Y-912900D03*
G01X2252988Y-912900D03*
G01X2441688Y-912900D03*
G01X2525711Y-912900D03*
G54D15*
G01X861900Y1357988D03*
G01X861900Y1442012D03*
G01X1438200Y1357988D03*
G01X1438200Y1442012D03*
G54D18*
G01X2885597Y730303D03*
G01X2846803Y769097D03*
G01X3040603Y881297D03*
G01X3079397Y842503D03*
G54D20*
G01X1522510Y-895696D03*
G01X1522510Y-800700D03*
G01X1522510Y-705704D03*
G01X1292690Y-705704D03*
G01X1292690Y-895696D03*
G01X1292690Y-800700D03*
G54D21*
G01X1674994Y-425005D03*
G01X1674994Y-374993D03*
G01X1674994Y-325006D03*
G01X1674994Y-274993D03*
G01X1674994Y-225006D03*
G01X1674994Y-174993D03*
G01X1674994Y-125006D03*
G01X1674994Y-74993D03*
G01X1674994Y-25006D03*
G01X1674994Y25006D03*
G01X1674994Y74994D03*
G01X1674994Y125006D03*
G01X1674994Y174993D03*
G01X1674994Y225006D03*
G01X1674994Y274993D03*
G01X1674994Y325006D03*
G01X1674994Y374993D03*
G01X1674994Y425006D03*
G54D22*
G01X1925006Y-525005D03*
G01X1925006Y525005D03*
G54D23*
G01X2550000Y876001D03*
G01X2550000Y959999D03*
G54D24*
G01X1380196Y719100D03*
G01X1190204Y719100D03*
G54D25*
G01X2943703Y786403D03*
G01X2982497Y825197D03*
G54D26*
G01X1849949Y1213645D03*
G54D27*
G01X1677356Y1336149D03*
G01X2022644Y1336149D03*
G54D26*
G01X1849949Y1458755D03*
G54D28*
G01X1782462Y1293680D03*
G01X1782462Y1378720D03*
G01X1917539Y1293680D03*
G01X1917539Y1378720D03*
G54D29*
G01X1306110Y-488994D03*
G01X1496102Y-488994D03*
G01X1401106Y-288994D03*
G54D30*
G01X2346000Y869618D03*
G01X2346000Y956181D03*
G01X2448000Y869618D03*
G01X2448000Y956181D03*
G54D31*
G01X2205818Y1213800D03*
G01X2292381Y1213800D03*
G01X374782Y550800D03*
G01X288218Y550800D03*
G01X374782Y-550800D03*
G01X288218Y-550800D03*
G01X3062618Y-530400D03*
G01X3149182Y-530400D03*
G01X3062618Y-642600D03*
G01X3149182Y-642600D03*
G01X3062618Y-749700D03*
G01X3149182Y-749700D03*
G01X3062618Y-86700D03*
G01X3149182Y-86700D03*
G01X3062618Y-198900D03*
G01X3149182Y-198900D03*
G01X3062618Y-311100D03*
G01X3149182Y-311100D03*
G54D30*
G01X1300870Y-232925D03*
G01X1300870Y-146362D03*
G01X1498006Y-233376D03*
G01X1498006Y-146813D03*
G54D32*
G01X747548Y676516D03*
G01X747548Y827188D03*
G54D33*
G01X2738607Y656954D03*
G01X2698602Y656954D03*
G01X2658597Y656954D03*
G01X2618618Y656954D03*
G01X2578613Y656954D03*
G01X2538608Y656954D03*
G01X2498603Y656954D03*
G01X2458598Y656954D03*
G01X2418618Y656954D03*
G01X2378613Y656954D03*
G01X2338608Y656954D03*
G01X2298603Y656954D03*
G01X2258598Y656954D03*
G01X2218618Y656954D03*
G54D34*
G01X2137846Y576182D03*
G01X2137846Y536202D03*
G01X2137846Y496197D03*
G01X2137846Y456192D03*
G01X2137846Y416187D03*
G01X2137846Y376182D03*
G01X2137846Y336203D03*
G01X2137846Y296198D03*
G01X2137846Y256193D03*
G01X2137846Y216188D03*
G01X2137846Y176183D03*
G01X2137846Y136203D03*
G01X2137846Y96198D03*
G01X2137846Y56193D03*
G54D33*
G01X2218618Y-24554D03*
G01X2258598Y-24554D03*
G01X2298603Y-24554D03*
G01X2338608Y-24554D03*
G01X2378613Y-24554D03*
G01X2418618Y-24554D03*
G01X2458598Y-24554D03*
G01X2498603Y-24554D03*
G01X2538608Y-24554D03*
G01X2578613Y-24554D03*
G01X2618618Y-24554D03*
G01X2658597Y-24554D03*
G01X2698602Y-24554D03*
G01X2738607Y-24554D03*
G54D34*
G01X2819354Y56193D03*
G01X2819354Y96198D03*
G01X2819354Y136203D03*
G01X2819354Y176183D03*
G01X2819354Y216188D03*
G01X2819354Y256193D03*
G01X2819354Y296198D03*
G01X2819354Y336203D03*
G01X2819354Y376182D03*
G01X2819354Y416187D03*
G01X2819354Y456192D03*
G01X2819354Y496197D03*
G01X2819354Y536202D03*
G01X2819354Y576182D03*
G54D35*
G01X2478613Y316187D03*
G54D36*
G01X2175900Y-760269D03*
G01X2302900Y-760269D03*
G01X2429900Y-760269D03*
G01X2556900Y-760269D03*
G01X2175900Y-157731D03*
G01X2302900Y-157731D03*
G01X2429900Y-157731D03*
G01X2556900Y-157731D03*
G54D37*
G01X2366400Y-459000D03*
G54D38*
G01X3263335Y1102265D03*
G01X3040265Y1325335D03*
G54D39*
G01X1409895Y-5199D03*
G01X1449900Y-5199D03*
G01X1449900Y494800D03*
G01X1409895Y494800D03*
G01X1369890Y494800D03*
G01X1329885Y494800D03*
G01X1289880Y494800D03*
G01X1249900Y494800D03*
G01X1209895Y494800D03*
G01X1169890Y494800D03*
G01X1129885Y494800D03*
G01X1089880Y494800D03*
G54D40*
G01X1019900Y64790D03*
G01X1019900Y104795D03*
G01X1019900Y144800D03*
G01X1019900Y184805D03*
G01X1019900Y224810D03*
G01X1019900Y264790D03*
G01X1019900Y304795D03*
G01X1019900Y344800D03*
G01X1019900Y384805D03*
G01X1019900Y424810D03*
G01X1519899Y424810D03*
G01X1519899Y384805D03*
G01X1519899Y344800D03*
G01X1519899Y304795D03*
G01X1519899Y264790D03*
G01X1519899Y224810D03*
G01X1519899Y184805D03*
G01X1519899Y144800D03*
G01X1519899Y104795D03*
G01X1519899Y64790D03*
G54D41*
G01X1269890Y244800D03*
G54D39*
G01X1089880Y-5199D03*
G01X1129885Y-5199D03*
G01X1169890Y-5199D03*
G01X1209895Y-5199D03*
G01X1249900Y-5199D03*
G01X1289880Y-5199D03*
G01X1329885Y-5199D03*
G01X1369890Y-5199D03*
G54D42*
G01X935395Y1173611D03*
G01X935395Y1108587D03*
G01X935395Y1043588D03*
G01X1364605Y1173611D03*
G01X1364605Y1108587D03*
G01X1364605Y1043588D03*
G01X1364605Y978589D03*
G01X935395Y978589D03*
G54D43*
G01X3118293Y113899D03*
G01X3338308Y283901D03*
G01X3338308Y113899D03*
G01X3118293Y283901D03*
G54D44*
G01X1022507Y1400013D03*
G01X1277498Y1400013D03*
G54D45*
G01X1520003Y-1333729D03*
G01X1979997Y-1333729D03*
G54D46*
G01X1582512Y-1178738D03*
G01X1917513Y-1178738D03*
G54D45*
G01X770003Y-1333729D03*
G01X1229997Y-1333729D03*
G54D46*
G01X832512Y-1178738D03*
G01X1167513Y-1178738D03*
G54D45*
G01X2270003Y-1333729D03*
G01X2729997Y-1333729D03*
G54D46*
G01X2332512Y-1178738D03*
G01X2667513Y-1178738D03*
G54D47*
G01X605549Y320002D03*
G01X605549Y239992D03*
G54D48*
G01X605549Y174993D03*
G01X605549Y125006D03*
G01X605549Y74994D03*
G01X605549Y25006D03*
G01X605549Y-25006D03*
G01X605549Y-74993D03*
G01X605549Y-125006D03*
G01X605549Y-174993D03*
G54D47*
G01X605549Y-239992D03*
G01X605549Y-320002D03*
G54D49*
G01X549034Y-431990D03*
G54D50*
G01X131051Y-431990D03*
G01X131051Y431991D03*
G54D49*
G01X549034Y431991D03*
G54D51*
G01X275000Y1350000D03*
G01X275033Y-1350012D03*
G01X3224957Y-1350012D03*
G04 Pad End*

G04 Via Start*
G54D52*
G01X2978400Y938400D03*
G01X2912100Y938400D03*
G01X2912100Y1004700D03*
G01X2846496Y1004700D03*
G01X2846496Y1071314D03*
G01X2781247Y1071314D03*
G01X2781247Y1137401D03*
G01X2716833Y1137401D03*
G01X2716833Y1203487D03*
G01X2654930Y1203487D03*
G01X2652000Y1267340D03*
G01X2601020Y1315780D03*
G01X2417400Y1492994D03*
G01X2417400Y1428000D03*
G01X2483335Y1428000D03*
G01X2483335Y1362673D03*
G01X2550000Y1361700D03*
G01X2942700Y877200D03*
G01X2886600Y841500D03*
G01X2817619Y841592D03*
G01X2769300Y795600D03*
G01X2789700Y729300D03*
G01X3126300Y795600D03*
G01X3065100Y770100D03*
G01X3003900Y744600D03*
G01X2958000Y698700D03*
G01X2901900Y657900D03*
G01X3126300Y731369D03*
G01X3192600Y729300D03*
G01X3192600Y665933D03*
G01X3256523Y665933D03*
G01X3256523Y602573D03*
G01X3320100Y601800D03*
G01X3320100Y538625D03*
G01X3383676Y538625D03*
G01X3378576Y475792D03*
G01X3439528Y474300D03*
G01X2294599Y-388175D03*
G01X2427997Y-388175D03*
G01X2427600Y-525300D03*
G01X2294599Y-525300D03*
G01X1167900Y346800D03*
G01X1370198Y346800D03*
G01X1370198Y144489D03*
G01X1169430Y144489D03*
G01X1269890Y346373D03*
G01X1269890Y244800D03*
G01X1269890Y144489D03*
G01X1166920Y244800D03*
G01X1371035Y244800D03*
G01X1917539Y1293680D03*
G01X1782462Y1293680D03*
G01X2442162Y572904D03*
G01X2518250Y569270D03*
G01X1917539Y1378720D03*
G01X932225Y567425D03*
G01X1037595Y486583D03*
G01X2670623Y571416D03*
G01X2594450Y571296D03*
G01X2391900Y1111800D03*
G01X1520003Y-1333729D03*
G01X770003Y-1333729D03*
G01X2274600Y571200D03*
G01X377400Y443700D03*
G01X466540Y165793D03*
G01X467807Y-206580D03*
G01X376262Y-450271D03*
G01X2279375Y54396D03*
G01X2386800Y-676200D03*
G01X2356200Y54396D03*
G01X2112450Y-678300D03*
G01X2270003Y-1333729D03*
G01X2437800Y56100D03*
G01X2244000Y-678300D03*
G01X2922300Y525300D03*
G01X3060000Y-841500D03*
G54D53*
G01X510000Y25500D03*
G01X510000Y-76500D03*
G54D52*
G01X705718Y229795D03*
G01X706968Y-237768D03*
G01X878439Y2019D03*
G01X2055300Y193800D03*
G01X2055300Y114508D03*
G01X1642200Y-703800D03*
G01X1642200Y-897600D03*
G01X1234200Y1040400D03*
G01X1234200Y964200D03*
G01X944012Y112200D03*
G01X1012838Y15664D03*
G01X3258900Y-143391D03*
G01X3258900Y-255000D03*
G01X3258900Y-469200D03*
G01X3258900Y-678300D03*
G01X3258900Y-800700D03*
G01X3258900Y-912900D03*
G01X2724313Y285600D03*
G01X2728500Y209400D03*
G01X2727498Y133206D03*
G01X2728639Y57014D03*
G01X2727731Y361796D03*
G01X2728500Y438600D03*
G01X2111400Y1213800D03*
G01X2346000Y1029192D03*
G01X2126700Y714000D03*
G01X2218500Y377400D03*
G01X1586100Y555900D03*
G01X2355900Y571200D03*
G01X2881742Y-1338219D03*
G01X530400Y-1193400D03*
G01X2117388Y-1338219D03*
G01X754800Y1443300D03*
G01X1545300Y1361700D03*
G01X1550400Y1147500D03*
G01X1978800Y902700D03*
G01X1774800Y-127500D03*
G01X1785000Y198900D03*
G01X2524500Y744600D03*
G01X2794800Y-178500D03*
G01X2831755Y-750211D03*
G01X1927800Y-963900D03*
G01X612000Y-846600D03*
G01X229500Y-943500D03*
G01X1779900Y300900D03*
G01X1779900Y413100D03*
G01X1361700Y-91800D03*
G01X1774800Y-382500D03*
G01X1632896Y-550093D03*
G01X3253800Y-561000D03*
G01X617100Y1030200D03*
G01X571200Y1285200D03*
G01X239700Y30600D03*
G01X861900Y-520200D03*
G01X3151800Y-1111800D03*
G01X2960974Y-642600D03*
G01X2958000Y-311100D03*
G01X2988600Y479400D03*
G01X2172600Y759900D03*
G01X1409152Y884718D03*
G54D54*
G01X2478587Y216188D03*
G01X2578587Y216188D03*
G01X2478613Y416162D03*
G01X2578587Y416162D03*
G01X2378588Y216188D03*
G01X2378588Y416187D03*
G01X2478587Y316187D03*
G01X2378638Y316137D03*
G01X2578587Y316187D03*
G04 Via End*

G04 Track Start*
G54D55*
G01X2738607Y656954D02*
G03X2885597Y730303I0J183958D01*
G01X2941697Y786403D01*
G01X2943703Y786403D01*
G01X2982497Y825197D02*
G01X3038597Y881297D01*
G01X3040603Y881297D01*
G01X3263335Y1102265D02*
G01X3042367Y881297D01*
G01X3040603Y881297D01*
G54D56*
G01X3118293Y283901D02*
G01X3168305Y283901D01*
G01X3338308Y113899D01*
G54D10*
G01X2924750Y268185D02*
G01X2973300Y219635D01*
G01X2973300Y218088D01*
G01X2819354Y496197D02*
G01X2853075Y496197D01*
G01X3118293Y113899D02*
G01X3077489Y113899D01*
G01X2973300Y218088D01*
G54D56*
G01X2973300Y302112D02*
G01X3100082Y302112D01*
G01X3118293Y283901D01*
G54D10*
G01X2853075Y496197D02*
G01X2941272Y408000D01*
G01X3191388Y408000D01*
G01X3315487Y283901D01*
G01X3338308Y283901D01*
G01X2819354Y456192D02*
G01X2853075Y456192D01*
G01X2924750Y384517D01*
G01X2924750Y268185D01*
G54D53*
G01X3062618Y-86700D02*
G01X3062618Y-198900D01*
G01X3062618Y-311100D01*
G01X3062618Y-530400D02*
G01X3062618Y-642600D01*
G01X2932500Y-85489D02*
G01X3061407Y-85489D01*
G01X3062618Y-86700D01*
G54D10*
G01X935395Y1173611D02*
G01X1022507Y1260722D01*
G01X1022507Y1400013D01*
G01X861900Y1357988D02*
G01X980483Y1357988D01*
G01X1022507Y1400013D01*
G01X935395Y1108587D02*
G01X1011687Y1108587D01*
G01X1277498Y1374398D02*
G01X1277498Y1400013D01*
G01X1011687Y1108587D02*
G01X1277498Y1374398D01*
G01X1438200Y1357988D02*
G01X1319522Y1357988D01*
G01X1277498Y1400013D01*
G54D53*
G01X789288Y102000D02*
G01X789288Y204000D01*
G01X789288Y402900D01*
G01X1550400Y824803D02*
G01X1693200Y824803D01*
G01X1836000Y824803D01*
G01X1930409Y824803D01*
G01X1958400Y796812D01*
G01X2055300Y796812D01*
G01X2523288Y1081200D02*
G01X2523288Y1055806D01*
G01X2550000Y1029094D01*
G01X2550000Y959999D01*
G01X2492688Y1183200D02*
G01X2492688Y1157806D01*
G01X2523288Y1127206D01*
G01X2523288Y1081200D01*
G01X2446788Y1285200D02*
G01X2446788Y1250711D01*
G01X2492688Y1204812D01*
G01X2492688Y1183200D01*
G01X2208300Y1375788D02*
G01X2315400Y1375788D01*
G01X2356200Y1375788D01*
G01X2446788Y1285200D01*
G01X2292381Y1213800D02*
G01X2292381Y1113070D01*
G01X2291111Y1111800D01*
G01X2205818Y1373307D02*
G01X2208300Y1375788D01*
G01X2208300Y1459812D02*
G01X2315400Y1459812D01*
G54D57*
G01X1550400Y684798D02*
G01X1693200Y684798D01*
G01X1836000Y684798D01*
G54D53*
G01X1836000Y684798D02*
G01X1930409Y684798D01*
G01X1958400Y712789D01*
G01X2055300Y712789D01*
G54D57*
G01X1414498Y684798D02*
G01X1380196Y719100D01*
G54D53*
G01X2550000Y876001D02*
G01X2657087Y876001D01*
G01X2657100Y875988D02*
G01X2677500Y855588D01*
G01X2677500Y647700D01*
G54D10*
G01X1132200Y527098D02*
G01X1132200Y497115D01*
G01X1129885Y494800D01*
G01X2442162Y572904D02*
G01X2448274Y572904D01*
G01X2498603Y623232D01*
G01X2498603Y656954D01*
G01X2538608Y656954D02*
G01X2539800Y655761D01*
G01X2539800Y590820D01*
G01X2518250Y569270D01*
G01X2618618Y656954D02*
G01X2618618Y623207D01*
G01X2670408Y571416D01*
G54D53*
G01X2291111Y1111800D02*
G01X2391900Y1111800D01*
G54D10*
G01X2578613Y656954D02*
G01X2578613Y587134D01*
G01X2594450Y571296D01*
G54D53*
G01X2448000Y956181D02*
G01X2546183Y956181D01*
G01X2550000Y959999D01*
G01X613212Y-1336200D02*
G01X767532Y-1336200D01*
G01X770003Y-1333729D01*
G54D10*
G01X377400Y443700D02*
G01X377400Y548182D01*
G01X374782Y550800D01*
G01X374782Y-550800D02*
G01X376262Y-549319D01*
G01X376262Y-450271D01*
G01X1072040Y661788D02*
G01X1065900Y661788D01*
G01X1369890Y494800D02*
G01X1369890Y529413D01*
G01X1342953Y556350D01*
G01X1177478Y556350D01*
G01X1072040Y661788D01*
G54D58*
G01X872261Y302919D02*
G01X1018025Y302919D01*
G01X1019900Y304795D01*
G01X1019900Y224810D02*
G01X894122Y224810D01*
G01X873312Y204000D01*
G54D53*
G01X873312Y204000D02*
G01X873312Y301869D01*
G01X872261Y302919D01*
G01X1062952Y742864D02*
G01X1065900Y745812D01*
G01X864848Y742864D02*
G01X966848Y742864D01*
G01X1062952Y742864D01*
G01X747548Y827188D02*
G01X780523Y827188D01*
G01X864848Y742864D01*
G54D58*
G01X873312Y402900D02*
G01X931412Y344800D01*
G01X1019900Y344800D01*
G01X183600Y795600D02*
G01X484453Y795600D01*
G01X873312Y406742D01*
G01X873312Y402900D01*
G54D53*
G01X864848Y658840D02*
G01X966848Y658840D01*
G54D10*
G01X1169890Y494800D02*
G01X1161435Y503255D01*
G01X986371Y658840D02*
G01X966848Y658840D01*
G01X1161435Y503255D02*
G01X1161435Y537868D01*
G01X1084065Y615238D01*
G01X1029974Y615238D01*
G01X986371Y658840D01*
G01X1037595Y486583D02*
G01X1081663Y486583D01*
G01X1089880Y494800D01*
G01X1099890Y431310D02*
G03X1083380Y414800I0J-16510D01*
G01X1333886Y431310D02*
G01X1099890Y431310D01*
G01X1083380Y414800D02*
G01X1083380Y336535D01*
G01X1051640Y304795D01*
G01X1019900Y304795D01*
G01X1369890Y494800D02*
G01X1369890Y467314D01*
G01X1333886Y431310D01*
G54D58*
G01X1019900Y184805D02*
G01X934854Y184805D01*
G01X873312Y123263D01*
G01X873312Y102000D01*
G54D53*
G01X2337012Y-912900D02*
G01X2441688Y-912900D01*
G54D10*
G01X2218618Y-24554D02*
G01X2218618Y-115012D01*
G01X2175900Y-157731D01*
G01X2258598Y-24554D02*
G01X2258598Y-113429D01*
G01X2302900Y-157731D01*
G01X2378613Y-24554D02*
G01X2378613Y-106444D01*
G01X2429900Y-157731D01*
G01X2458598Y-24554D02*
G01X2458598Y-59428D01*
G01X2556900Y-157731D01*
G01X2284827Y-869390D02*
G01X2328337Y-912900D01*
G01X2134190Y-869390D02*
G01X2284827Y-869390D01*
G01X2298603Y32097D02*
G01X2298603Y-24554D01*
G01X2279375Y54396D02*
G01X2279375Y51325D01*
G01X2298603Y32097D01*
G01X2338608Y-24554D02*
G01X2338608Y36804D01*
G01X2356200Y54396D01*
G01X2429900Y-760269D02*
G01X2429900Y-719300D01*
G01X2386800Y-676200D01*
G01X2175900Y-157731D02*
G01X2060400Y-273231D01*
G01X2060400Y-795600D01*
G01X2134190Y-869390D01*
G01X2175900Y-760269D02*
G01X2175900Y-741750D01*
G01X2112450Y-678300D01*
G01X2418618Y-24554D02*
G01X2418618Y36918D01*
G01X2437800Y56100D01*
G01X2244000Y-678300D02*
G01X2302900Y-737200D01*
G01X2302900Y-760269D01*
G54D53*
G01X2346000Y956181D02*
G01X2442900Y956181D01*
G54D58*
G01X2819354Y576182D02*
G01X2981721Y576182D01*
G01X2819354Y536202D02*
G01X2911398Y536202D01*
G01X2922300Y525300D01*
G54D53*
G01X3062618Y-749700D02*
G01X3062618Y-838881D01*
G01X3060000Y-841500D01*
G01X3062618Y-642600D02*
G01X3062618Y-749700D01*
G54D58*
G01X609801Y24994D02*
G01X510506Y24994D01*
G01X510000Y25500D01*
G54D10*
G01X607207Y122400D02*
G01X609801Y124993D01*
G01X608195Y-173400D02*
G01X609801Y-175006D01*
G01X467807Y-206580D02*
G01X500986Y-173400D01*
G01X608195Y-173400D01*
G01X466540Y165793D02*
G01X509934Y122400D01*
G01X607207Y122400D01*
G54D58*
G01X510000Y-76500D02*
G01X608307Y-76500D01*
G01X609801Y-75006D01*
G01X609534Y-25260D02*
G01X609801Y-24994D01*
G01X488974Y-25260D02*
G01X609534Y-25260D01*
G01X609801Y75006D02*
G01X608307Y76500D01*
G01X489214Y76500D01*
G01X459240Y46525D01*
G01X459240Y4474D01*
G01X488974Y-25260D01*
G01X1129885Y-5199D02*
G01X1129885Y-162096D01*
G01X1198500Y-230712D01*
G54D11*
G01X609801Y224993D02*
G01X614602Y229795D01*
G01X705718Y229795D01*
G01X609801Y254991D02*
G01X680522Y254991D01*
G01X705718Y229795D01*
G01X609803Y-224991D02*
G01X704446Y-224991D01*
G01X609803Y-254988D02*
G01X674448Y-254988D01*
G01X704446Y-224991D01*
G01X873312Y102000D02*
G01X878439Y96873D01*
G01X878439Y2019D01*
G54D58*
G01X609801Y-75006D02*
G01X672168Y-75006D01*
G01X1025240Y-428079D01*
G01X609801Y-24994D02*
G01X672444Y-24994D01*
G01X742204Y-94753D01*
G01X762524Y-94753D01*
G01X780579Y-76699D01*
G01X800899Y-76699D01*
G01X816500Y-92300D01*
G01X816500Y-112620D01*
G01X798445Y-130674D01*
G01X798445Y-150994D01*
G01X814046Y-166595D01*
G01X834366Y-166595D01*
G01X852421Y-148541D01*
G01X872741Y-148541D01*
G01X888342Y-164142D01*
G01X888342Y-184462D01*
G01X870287Y-202516D01*
G01X870287Y-222836D01*
G01X1060800Y-413349D02*
G01X1060800Y-612000D01*
G01X1157700Y-708900D01*
G01X1289495Y-708900D01*
G01X1292690Y-705704D01*
G01X870287Y-222836D02*
G01X1060800Y-413349D01*
G01X1025240Y-428079D02*
G01X1025240Y-780440D01*
G01X1140496Y-895696D01*
G01X1292690Y-895696D01*
G01X1326000Y-800700D02*
G01X1292690Y-800700D01*
G01X1351500Y-642600D02*
G01X1382100Y-673200D01*
G01X1382100Y-744600D01*
G01X1326000Y-800700D01*
G01X1173000Y-642600D02*
G01X1351500Y-642600D01*
G01X1096500Y-566100D02*
G01X1173000Y-642600D01*
G54D53*
G01X1198500Y-146688D02*
G01X1300544Y-146688D01*
G01X1300870Y-146362D01*
G54D58*
G01X1169890Y-5199D02*
G01X1169890Y-118078D01*
G01X1198500Y-146688D01*
G01X1498006Y-233376D02*
G01X1456725Y-233376D01*
G01X1401106Y-288994D01*
G01X1300870Y-232925D02*
G01X1300870Y-483754D01*
G01X1306110Y-488994D01*
G54D10*
G01X2137846Y136203D02*
G01X2076995Y136203D01*
G01X2055300Y114508D01*
G01X2137846Y176183D02*
G01X2072917Y176183D01*
G01X2055300Y193800D01*
G01X1522510Y-705704D02*
G01X1640296Y-705704D01*
G01X1642200Y-703800D01*
G01X1522510Y-895696D02*
G01X1640296Y-895696D01*
G01X1642200Y-897600D01*
G01X1674994Y-325006D02*
G01X1805400Y-325006D01*
G01X1973700Y-156706D01*
G01X1973700Y362100D01*
G01X2027787Y416187D01*
G01X2137846Y416187D01*
G01X1674994Y-274993D02*
G01X1805807Y-274993D01*
G01X1938000Y-142800D01*
G01X932225Y567425D02*
G01X1091873Y567425D01*
G01X1132200Y527098D01*
G01X1234200Y964200D02*
G01X1248590Y978589D01*
G01X1364605Y978589D01*
G01X1234200Y1040400D02*
G01X1361417Y1040400D01*
G01X1364605Y1043588D01*
G01X1364605Y978589D02*
G01X2106911Y978589D01*
G01X2215882Y869618D01*
G01X2346000Y869618D01*
G01X1364605Y1043588D02*
G01X2138812Y1043588D01*
G01X2269500Y912900D01*
G01X2448000Y869618D02*
G01X2404718Y912900D01*
G01X2269500Y912900D01*
G01X2346000Y869618D02*
G01X2378613Y837005D01*
G01X2378613Y656954D01*
G01X2448000Y869618D02*
G01X2418618Y840236D01*
G01X2418618Y656954D01*
G01X966848Y658840D02*
G01X1008921Y700914D01*
G01X1092759Y700914D01*
G01X1111800Y719955D01*
G01X1364605Y1173611D02*
G01X1199111Y1173611D01*
G01X1111800Y1086300D01*
G01X1111800Y719955D01*
G54D58*
G01X1449900Y494800D02*
G01X1449900Y673662D01*
G01X1438764Y684798D01*
G54D57*
G01X1550400Y684798D02*
G01X1438764Y684798D01*
G01X1414498Y684798D01*
G54D58*
G01X1409895Y494800D02*
G01X1409895Y558706D01*
G01X1371900Y596700D02*
G01X1239300Y596700D01*
G01X1190204Y645796D01*
G01X1190204Y719100D01*
G01X1409895Y558706D02*
G01X1371900Y596700D01*
G54D10*
G01X1019900Y104795D02*
G01X951416Y104795D01*
G01X944012Y112200D01*
G01X1674994Y-25006D02*
G01X1795694Y-25006D01*
G01X1938000Y358785D02*
G01X2035407Y456192D01*
G01X2137846Y456192D01*
G01X2043026Y496197D02*
G01X2137846Y496197D01*
G01X2050646Y536202D02*
G01X2137846Y536202D01*
G01X1795694Y-25006D02*
G01X1915100Y94400D01*
G01X1915100Y368271D01*
G01X2043026Y496197D01*
G01X1892200Y377756D02*
G01X2050646Y536202D01*
G01X1674994Y25006D02*
G01X1813321Y25006D01*
G01X1892200Y103885D01*
G01X1892200Y377756D01*
G01X1869300Y387242D02*
G01X2058240Y576182D01*
G01X2137846Y576182D01*
G01X1674994Y74994D02*
G01X1830923Y74994D01*
G01X1869300Y113371D01*
G01X1869300Y387242D01*
G01X1846400Y526156D02*
G01X1920396Y600152D01*
G01X2191352Y600152D01*
G01X2218618Y627418D01*
G01X2218618Y656954D01*
G01X1674994Y125006D02*
G01X1797806Y125006D01*
G01X1846400Y173600D01*
G01X1846400Y526156D01*
G01X2259300Y657656D02*
G01X2258598Y656954D01*
G01X2238900Y704174D02*
G01X2259300Y683774D01*
G01X2259300Y657656D01*
G01X2202832Y704174D02*
G01X2238900Y704174D01*
G01X2182800Y649005D02*
G01X2182800Y684142D01*
G01X2202832Y704174D01*
G01X1650225Y374993D02*
G01X1674994Y374993D01*
G01X1498006Y-146813D02*
G01X1606500Y-38318D01*
G01X1606500Y331268D01*
G01X1650225Y374993D01*
G01X1300870Y-232925D02*
G01X1581000Y47204D01*
G01X3149182Y-198900D02*
G01X3202800Y-198900D01*
G01X3258900Y-255000D01*
G01X3149182Y-311100D02*
G01X3258900Y-420818D01*
G01X3258900Y-469200D01*
G01X3258900Y-752318D02*
G01X3258900Y-800700D01*
G01X3149182Y-642600D02*
G01X3258900Y-752318D01*
G01X3149182Y-530400D02*
G01X3258900Y-640118D01*
G01X3258900Y-678300D01*
G01X3258900Y-874310D02*
G01X3258900Y-912900D01*
G01X3149182Y-749700D02*
G01X3149182Y-764592D01*
G01X3258900Y-874310D01*
G54D58*
G01X2819354Y176182D02*
G01X2868518Y176182D01*
G01X2932500Y112200D01*
G01X2932500Y-85489D01*
G54D10*
G01X3258900Y-143391D02*
G01X3202209Y-86700D01*
G01X3149182Y-86700D01*
G54D58*
G01X878439Y2019D02*
G01X878439Y-111077D01*
G01X1096500Y-329138D01*
G01X1096500Y-566100D01*
G54D10*
G01X1019900Y22726D02*
G01X1012838Y15664D01*
G01X1019900Y22726D02*
G01X1019900Y64790D01*
G01X943500Y96879D02*
G01X951416Y104795D01*
G01X1449631Y-575069D02*
G01X1412700Y-612000D01*
G01X1198500Y-612000D01*
G01X1403215Y-589100D02*
G01X1207985Y-589100D01*
G01X1426731Y-565583D02*
G01X1403215Y-589100D01*
G01X1674994Y-225006D02*
G01X1641594Y-225006D01*
G01X1449631Y-416969D01*
G01X1449631Y-575069D01*
G01X1674994Y-174993D02*
G01X1650250Y-174993D01*
G01X1426731Y-398512D01*
G01X1426731Y-565583D01*
G01X1198500Y-612000D02*
G01X1132200Y-545700D01*
G01X1207985Y-589100D02*
G01X1155100Y-536215D01*
G01X1132200Y-545700D02*
G01X1132200Y-300900D01*
G01X943500Y-112200D01*
G01X943500Y96879D01*
G01X1155100Y-536215D02*
G01X1155100Y-262600D01*
G01X1012838Y-120338D01*
G01X1012838Y15664D01*
G01X1581000Y47204D02*
G01X1581000Y405768D01*
G01X1798283Y623052D01*
G01X2156847Y623052D01*
G01X2182800Y649005D01*
G54D53*
G01X2111400Y1213800D02*
G01X2205818Y1213800D01*
G01X2205818Y1373307D01*
G01X2346000Y1029192D02*
G01X2346000Y956181D01*
G01X2055300Y712789D02*
G01X2125489Y712789D01*
G01X2126700Y714000D01*
G54D58*
G01X2137846Y376182D02*
G01X2217282Y376182D01*
G01X2218500Y377400D01*
G54D10*
G01X2298603Y656954D02*
G01X2298603Y595203D01*
G01X2274600Y571200D01*
G01X2338608Y656954D02*
G01X2338608Y588492D01*
G01X2355900Y571200D01*
G01X1019900Y144800D02*
G01X1048600Y144800D01*
G01X1081200Y112200D01*
G01X1081200Y71400D01*
G01X1096500Y56100D01*
G01X1443300Y56100D01*
G01X1464179Y76979D01*
G01X1464179Y433979D01*
G01X1586100Y555900D01*
G54D58*
G01X1674994Y-125006D02*
G01X1772306Y-125006D01*
G54D10*
G01X1772306Y-125006D02*
G01X1774800Y-127500D01*
G01X1864068Y-74993D02*
G01X1938000Y-1062D01*
G01X1938000Y-142800D02*
G01X1938000Y-1062D01*
G01X1938000Y358785D01*
G01X1674994Y-74993D02*
G01X1864068Y-74993D01*
G54D58*
G01X1674994Y225006D02*
G01X1758894Y225006D01*
G01X1785000Y198900D01*
G01X1674994Y174993D02*
G01X1761093Y174993D01*
G01X1785000Y198900D01*
G01X1674994Y325006D02*
G01X1755794Y325006D01*
G01X1779900Y300900D01*
G01X1674994Y274993D02*
G01X1753993Y274993D01*
G01X1779900Y300900D01*
G01X1674994Y425006D02*
G01X1767994Y425006D01*
G01X1779900Y413100D01*
G54D11*
G01X1779900Y1381281D02*
G01X1782462Y1378720D01*
G01X1849949Y1458755D02*
G01X1805555Y1458755D01*
G01X1779900Y1433100D01*
G01X1779900Y1381281D01*
G01X1361700Y-91800D02*
G01X1307138Y-146362D01*
G01X1674994Y-374993D02*
G01X1767293Y-374993D01*
G01X1774800Y-382500D01*
G54D10*
G01X1019900Y424810D02*
G01X936890Y424810D01*
G01X747548Y614152D01*
G01X747548Y676516D01*
G54D53*
G01X2960974Y-642600D02*
G01X3062618Y-642600D01*
G01X2958000Y-311100D02*
G01X3062618Y-311100D01*
G01X3062618Y-530400D01*
G01X2988600Y479400D02*
G01X3024300Y479400D01*
G01X3071093Y526194D01*
G01X2922300Y525300D02*
G01X2930839Y525300D01*
G01X2981721Y576182D01*
G01X2942700Y525300D02*
G01X2988600Y479400D01*
G01X2930839Y525300D02*
G01X2942700Y525300D01*
G01X3071093Y526194D02*
G01X3001789Y595498D01*
G01X3001038Y595498D01*
G01X3060451Y654912D02*
G01X3129756Y585607D01*
G01X3130507Y585607D01*
G01X2172600Y759900D02*
G01X2126700Y714000D01*
G54D10*
G01X2728639Y57014D02*
G01X2818532Y57014D01*
G01X2819354Y56193D01*
G01X2819354Y96198D02*
G01X2763498Y96198D01*
G01X2741601Y119103D02*
G01X2727498Y133206D01*
G01X2763498Y96198D02*
G01X2741601Y118095D01*
G01X2741601Y119103D01*
G01X2728500Y198686D02*
G01X2728500Y209400D01*
G01X2819354Y136203D02*
G01X2790983Y136203D01*
G01X2728500Y198686D01*
G01X2819354Y216188D02*
G01X2796352Y216188D01*
G01X2726940Y285600D01*
G01X2724313Y285600D01*
G01X2771323Y281222D02*
G01X2771323Y305072D01*
G01X2819354Y256193D02*
G01X2796352Y256193D01*
G01X2771323Y281222D01*
G01X2771323Y305072D02*
G01X2727731Y348664D01*
G01X2727731Y361796D01*
G01X2733934Y438600D02*
G01X2728500Y438600D01*
G01X2819354Y376182D02*
G01X2796352Y376182D01*
G01X2733934Y438600D01*
G04 Track End*

M02*

