G04 Layer: BottomSilkscreenLayer*
G04 EasyEDA Pro v3.2.186, 2026-08-27 16:02:27*
G04 Gerber Generator version 0.3*
G04 Scale: 100 percent, Rotated: No, Reflected: No*
G04 Dimensions in millimeters*
G04 Leading zeros omitted, absolute positions, 4 integers and 5 decimals*
G04 Generated by one-click*
G04 Object Configs: Pad,Via,Track,Text,Image,Dimension,BoardOutline,BoardCutout,CopperFilled,SolidRegion,FPCStiffener,Line,PlaneZone,ComponentProperty,ComponentSilkscreen,TearDrop*
G04 Layer Configs: 1,15,16,2,3,4,5,6,7,8,9,10,11,13,14,56*
G04 Copper Areas: 0*
%FSLAX45Y45*%
%MOMM*%
%ADD10C,0.254*%
%ADD11C,0.6130*%
G75*


G04 Image Start*
G36*
G01X1871776Y-1225109D02*
G01X1860100Y-1225854D01*
G01X1848423Y-1226600D01*
G01X1811059Y-1226577D01*
G01X1788874Y-1225136D01*
G01X1784860Y-1224536D01*
G01X1780846Y-1223936D01*
G01X1775904Y-1221887D01*
G01X1770962Y-1219839D01*
G01X1764173Y-1218677D01*
G01X1757383Y-1217514D01*
G01X1755030Y-1216898D01*
G01X1752677Y-1216282D01*
G01X1748590Y-1214289D01*
G01X1744504Y-1212296D01*
G01X1739541Y-1211093D01*
G01X1734579Y-1209889D01*
G01X1730492Y-1208306D01*
G01X1727385Y-1206210D01*
G01X1724278Y-1204114D01*
G01X1721839Y-1203486D01*
G01X1719399Y-1202858D01*
G01X1716573Y-1201948D01*
G01X1713747Y-1201039D01*
G01X1711890Y-1199406D01*
G01X1710034Y-1197774D01*
G01X1705071Y-1195478D01*
G01X1700109Y-1193182D01*
G01X1698078Y-1191399D01*
G01X1696047Y-1189616D01*
G01X1692252Y-1187883D01*
G01X1688457Y-1186151D01*
G01X1685903Y-1183998D01*
G01X1683349Y-1181845D01*
G01X1676197Y-1177681D01*
G01X1673362Y-1174117D01*
G01X1670805Y-1172493D01*
G01X1668249Y-1170870D01*
G01X1665321Y-1168334D01*
G01X1662393Y-1165797D01*
G01X1659486Y-1162874D01*
G01X1656580Y-1159951D01*
G01X1656074Y-1159463D01*
G01X1655569Y-1158976D01*
G01X1641557Y-1144945D01*
G01X1641071Y-1144439D01*
G01X1640584Y-1143932D01*
G01X1637665Y-1141021D01*
G01X1634746Y-1138110D01*
G01X1631389Y-1134584D01*
G01X1628032Y-1131058D01*
G01X1628032Y-1129226D01*
G01X1625339Y-1126529D01*
G01X1622645Y-1123832D01*
G01X1620683Y-1120479D01*
G01X1618720Y-1117126D01*
G01X1616573Y-1114568D01*
G01X1614425Y-1112010D01*
G01X1611724Y-1106143D01*
G01X1606515Y-1100777D01*
G01X1603984Y-1092432D01*
G01X1602589Y-1090528D01*
G01X1601195Y-1088625D01*
G01X1600008Y-1086871D01*
G01X1598821Y-1085117D01*
G01X1597688Y-1081482D01*
G01X1596555Y-1077847D01*
G01X1594581Y-1074009D01*
G01X1591982Y-1070501D01*
G01X1590140Y-1064654D01*
G01X1588263Y-1057202D01*
G01X1585670Y-1052280D01*
G01X1583078Y-1047357D01*
G01X1583078Y-1045195D01*
G01X1581894Y-1039282D01*
G01X1580710Y-1033368D01*
G01X1576794Y-1020806D01*
G01X1575884Y-1014960D01*
G01X1574975Y-1009113D01*
G01X1574029Y-996836D01*
G01X1574029Y-971240D01*
G01X1592255Y-971240D01*
G01X1593213Y-975486D01*
G01X1594170Y-979732D01*
G01X1594170Y-994329D01*
G01X1595022Y-997629D01*
G01X1595874Y-1000928D01*
G01X1597089Y-1011160D01*
G01X1598304Y-1021391D01*
G01X1599997Y-1028724D01*
G01X1601228Y-1031139D01*
G01X1602458Y-1033555D01*
G01X1603306Y-1035950D01*
G01X1604153Y-1038345D01*
G01X1605265Y-1044071D01*
G01X1606376Y-1049796D01*
G01X1611163Y-1058481D01*
G01X1612836Y-1063822D01*
G01X1614508Y-1069163D01*
G01X1616213Y-1071293D01*
G01X1617917Y-1073424D01*
G01X1618656Y-1074812D01*
G01X1619394Y-1076201D01*
G01X1620779Y-1080279D01*
G01X1622164Y-1084358D01*
G01X1624287Y-1086710D01*
G01X1626409Y-1089063D01*
G01X1627850Y-1092326D01*
G01X1629291Y-1095589D01*
G01X1631334Y-1097519D01*
G01X1633378Y-1099448D01*
G01X1635716Y-1104268D01*
G01X1638053Y-1109087D01*
G01X1639790Y-1110471D01*
G01X1641527Y-1111856D01*
G01X1643313Y-1115025D01*
G01X1645099Y-1118194D01*
G01X1647010Y-1119654D01*
G01X1648921Y-1121113D01*
G01X1650450Y-1123426D01*
G01X1651978Y-1125739D01*
G01X1654200Y-1127212D01*
G01X1656423Y-1128685D01*
G01X1658253Y-1131285D01*
G01X1660083Y-1133885D01*
G01X1663015Y-1135373D01*
G01X1665947Y-1136861D01*
G01X1667146Y-1138484D01*
G01X1668344Y-1140107D01*
G01X1672963Y-1142966D01*
G01X1674087Y-1146195D01*
G01X1683786Y-1155915D01*
G01X1685969Y-1157246D01*
G01X1688152Y-1158576D01*
G01X1689764Y-1160528D01*
G01X1691376Y-1162479D01*
G01X1701558Y-1167410D01*
G01X1702421Y-1168730D01*
G01X1703285Y-1170050D01*
G01X1705212Y-1171223D01*
G01X1707139Y-1172397D01*
G01X1712139Y-1173214D01*
G01X1713726Y-1175248D01*
G01X1715313Y-1177282D01*
G01X1717475Y-1178407D01*
G01X1719637Y-1179533D01*
G01X1722884Y-1180749D01*
G01X1726131Y-1181966D01*
G01X1729324Y-1184634D01*
G01X1733073Y-1186558D01*
G01X1740996Y-1188398D01*
G01X1746255Y-1191030D01*
G01X1748907Y-1192573D01*
G01X1751560Y-1194117D01*
G01X1757957Y-1195343D01*
G01X1764353Y-1196569D01*
G01X1769075Y-1198588D01*
G01X1773797Y-1200607D01*
G01X1777832Y-1201429D01*
G01X1781868Y-1202251D01*
G01X1806388Y-1204707D01*
G01X1810011Y-1205568D01*
G01X1813634Y-1206430D01*
G01X1813634Y-1206430D01*
G01X1845096Y-1206430D01*
G01X1851722Y-1205301D01*
G01X1858348Y-1204173D01*
G01X1866814Y-1203518D01*
G01X1875279Y-1202862D01*
G01X1880241Y-1201979D01*
G01X1885204Y-1201096D01*
G01X1891626Y-1198131D01*
G01X1893961Y-1197281D01*
G01X1896296Y-1196431D01*
G01X1902359Y-1195255D01*
G01X1908422Y-1194080D01*
G01X1910710Y-1193163D01*
G01X1912997Y-1192247D01*
G01X1913988Y-1190143D01*
G01X1914979Y-1188040D01*
G01X1917606Y-1187636D01*
G01X1920233Y-1187232D01*
G01X1924079Y-1186856D01*
G01X1927925Y-1186479D01*
G01X1929625Y-1185337D01*
G01X1931326Y-1184195D01*
G01X1933335Y-1182725D01*
G01X1935344Y-1181256D01*
G01X1939348Y-1180038D01*
G01X1943353Y-1178820D01*
G01X1949321Y-1173718D01*
G01X1953511Y-1172379D01*
G01X1957597Y-1169970D01*
G01X1959766Y-1168050D01*
G01X1961934Y-1166131D01*
G01X1964728Y-1164701D01*
G01X1967522Y-1163271D01*
G01X1969566Y-1161121D01*
G01X1971609Y-1158971D01*
G01X1973735Y-1157874D01*
G01X1975861Y-1156776D01*
G01X1978114Y-1154579D01*
G01X1980366Y-1152382D01*
G01X1983016Y-1150320D01*
G01X1985665Y-1148258D01*
G01X1990270Y-1144458D01*
G01X1994875Y-1140658D01*
G01X2006238Y-1129422D01*
G01X2008828Y-1124340D01*
G01X2014898Y-1117857D01*
G01X2016309Y-1115816D01*
G01X2017719Y-1113775D01*
G01X2021403Y-1110535D01*
G01X2024002Y-1105000D01*
G01X2025956Y-1103154D01*
G01X2027910Y-1101308D01*
G01X2030227Y-1096559D01*
G01X2032545Y-1091811D01*
G01X2034811Y-1089233D01*
G01X2037076Y-1086655D01*
G01X2037883Y-1084209D01*
G01X2038689Y-1081763D01*
G01X2040902Y-1078599D01*
G01X2043115Y-1075436D01*
G01X2043928Y-1073845D01*
G01X2044741Y-1072255D01*
G01X2046008Y-1067605D01*
G01X2047275Y-1062956D01*
G01X2051902Y-1056017D01*
G01X2052185Y-1054782D01*
G01X2052469Y-1053546D01*
G01X2053384Y-1049454D01*
G01X2054299Y-1045361D01*
G01X2058199Y-1038345D01*
G01X2059088Y-1034838D01*
G01X2059978Y-1031330D01*
G01X2060934Y-1023766D01*
G01X2061891Y-1016202D01*
G01X2066405Y-1002682D01*
G01X2067166Y-992451D01*
G01X2067927Y-982220D01*
G01X2067920Y-955326D01*
G01X2067233Y-946557D01*
G01X2066545Y-937787D01*
G01X2061385Y-917325D01*
G01X2060393Y-910601D01*
G01X2059402Y-903878D01*
G01X2054260Y-892770D01*
G01X2053052Y-887508D01*
G01X2051844Y-882246D01*
G01X2050426Y-879908D01*
G01X2049008Y-877569D01*
G01X2046107Y-871723D01*
G01X2043678Y-863249D01*
G01X2041939Y-861266D01*
G01X2040200Y-859282D01*
G01X2036042Y-850145D01*
G01X2033988Y-847869D01*
G01X2031934Y-845592D01*
G01X2030316Y-841981D01*
G01X2028699Y-838371D01*
G01X2026265Y-835554D01*
G01X2023830Y-832738D01*
G01X2021486Y-828135D01*
G01X2015866Y-821921D01*
G01X2014578Y-819626D01*
G01X2013290Y-817331D01*
G01X2011272Y-815946D01*
G01X2009253Y-814561D01*
G01X2005231Y-807930D01*
G01X2002133Y-806270D01*
G01X2000404Y-803753D01*
G01X1998674Y-801236D01*
G01X1996380Y-799715D01*
G01X1994085Y-798194D01*
G01X1992857Y-796205D01*
G01X1991630Y-794216D01*
G01X1988562Y-792251D01*
G01X1985494Y-790285D01*
G01X1984243Y-788527D01*
G01X1982993Y-786768D01*
G01X1980409Y-785252D01*
G01X1977825Y-783735D01*
G01X1976177Y-781748D01*
G01X1974528Y-779760D01*
G01X1970952Y-777669D01*
G01X1967376Y-775579D01*
G01X1962268Y-771280D01*
G01X1956176Y-768565D01*
G01X1953968Y-766583D01*
G01X1951759Y-764600D01*
G01X1949909Y-763653D01*
G01X1948059Y-762706D01*
G01X1944753Y-761467D01*
G01X1941447Y-760229D01*
G01X1939597Y-758620D01*
G01X1937748Y-757012D01*
G01X1936580Y-756402D01*
G01X1935412Y-755793D01*
G01X1930773Y-754236D01*
G01X1926134Y-752679D01*
G01X1923387Y-750660D01*
G01X1920640Y-748641D01*
G01X1913981Y-746945D01*
G01X1907321Y-745249D01*
G01X1899416Y-740898D01*
G01X1882285Y-738117D01*
G01X1874987Y-735815D01*
G01X1867689Y-733512D01*
G01X1859808Y-732666D01*
G01X1851926Y-731821D01*
G01X1804053Y-732159D01*
G01X1797482Y-733071D01*
G01X1790911Y-733983D01*
G01X1784516Y-736053D01*
G01X1778120Y-738124D01*
G01X1772112Y-739017D01*
G01X1766105Y-739911D01*
G01X1763186Y-740864D01*
G01X1760267Y-741818D01*
G01X1757056Y-743488D01*
G01X1753845Y-745159D01*
G01X1748030Y-746595D01*
G01X1742215Y-748031D01*
G01X1738715Y-749483D01*
G01X1735998Y-751313D01*
G01X1733282Y-753144D01*
G01X1723486Y-756217D01*
G01X1720690Y-758542D01*
G01X1717893Y-760867D01*
G01X1711226Y-763342D01*
G01X1707769Y-766015D01*
G01X1704312Y-768688D01*
G01X1701762Y-769817D01*
G01X1699213Y-770947D01*
G01X1696296Y-773541D01*
G01X1693379Y-776135D01*
G01X1691456Y-776940D01*
G01X1689533Y-777744D01*
G01X1683537Y-783077D01*
G01X1680016Y-785472D01*
G01X1676494Y-787866D01*
G01X1675246Y-789557D01*
G01X1673997Y-791249D01*
G01X1671305Y-793185D01*
G01X1668613Y-795121D01*
G01X1666266Y-797466D01*
G01X1663919Y-799812D01*
G01X1661814Y-801384D01*
G01X1659709Y-802956D01*
G01X1658612Y-805014D01*
G01X1657515Y-807072D01*
G01X1651513Y-813497D01*
G01X1645511Y-819921D01*
G01X1643116Y-823898D01*
G01X1640722Y-827875D01*
G01X1638882Y-829420D01*
G01X1637043Y-830966D01*
G01X1635400Y-834217D01*
G01X1633757Y-837468D01*
G01X1631813Y-838953D01*
G01X1629869Y-840438D01*
G01X1628649Y-843704D01*
G01X1627429Y-846971D01*
G01X1626483Y-848823D01*
G01X1625537Y-850676D01*
G01X1621760Y-854897D01*
G01X1620219Y-859530D01*
G01X1618678Y-864163D01*
G01X1617018Y-866189D01*
G01X1615358Y-868215D01*
G01X1614486Y-869969D01*
G01X1613615Y-871723D01*
G01X1612076Y-876747D01*
G01X1610536Y-881772D01*
G01X1609290Y-883358D01*
G01X1608044Y-884945D01*
G01X1605973Y-890431D01*
G01X1604976Y-895401D01*
G01X1603979Y-900370D01*
G01X1602032Y-905108D01*
G01X1600084Y-909847D01*
G01X1599206Y-913293D01*
G01X1598328Y-916740D01*
G01X1597435Y-924925D01*
G01X1596542Y-933110D01*
G01X1595365Y-938664D01*
G01X1594189Y-944218D01*
G01X1594179Y-953267D01*
G01X1594170Y-962315D01*
G01X1593213Y-966778D01*
G01X1592255Y-971240D01*
G01X1574029Y-971240D01*
G01X1574029Y-940710D01*
G01X1575053Y-929247D01*
G01X1576078Y-917783D01*
G01X1576865Y-915215D01*
G01X1577652Y-912648D01*
G01X1579192Y-909023D01*
G01X1580733Y-905398D01*
G01X1582244Y-897622D01*
G01X1583755Y-889847D01*
G01X1588859Y-878738D01*
G01X1591390Y-869384D01*
G01X1592483Y-867226D01*
G01X1593575Y-865067D01*
G01X1595000Y-862965D01*
G01X1596425Y-860862D01*
G01X1597671Y-857113D01*
G01X1598917Y-853364D01*
G01X1601490Y-849441D01*
G01X1604062Y-845519D01*
G01X1606439Y-838366D01*
G01X1608833Y-835465D01*
G01X1611227Y-832564D01*
G01X1613159Y-828757D01*
G01X1615091Y-824951D01*
G01X1617172Y-823014D01*
G01X1619253Y-821077D01*
G01X1621445Y-816115D01*
G01X1624008Y-813164D01*
G01X1626572Y-810214D01*
G01X1629331Y-806475D01*
G01X1632089Y-802735D01*
G01X1637379Y-796971D01*
G01X1642669Y-791206D01*
G01X1643792Y-789001D01*
G01X1644916Y-786796D01*
G01X1647505Y-785277D01*
G01X1650094Y-783757D01*
G01X1651674Y-781876D01*
G01X1653254Y-779996D01*
G01X1655746Y-778211D01*
G01X1658238Y-776426D01*
G01X1661466Y-772563D01*
G01X1664962Y-770186D01*
G01X1668458Y-767808D01*
G01X1674706Y-762142D01*
G01X1677007Y-760966D01*
G01X1679309Y-759790D01*
G01X1680541Y-758059D01*
G01X1681772Y-756327D01*
G01X1685407Y-754607D01*
G01X1689041Y-752886D01*
G01X1691960Y-750462D01*
G01X1694879Y-748038D01*
G01X1698202Y-746819D01*
G01X1701525Y-745601D01*
G01X1704522Y-743039D01*
G01X1707518Y-740478D01*
G01X1711558Y-739249D01*
G01X1715597Y-738020D01*
G01X1717498Y-736624D01*
G01X1719399Y-735228D01*
G01X1721084Y-734095D01*
G01X1722769Y-732962D01*
G01X1728005Y-731666D01*
G01X1733241Y-730371D01*
G01X1736245Y-728340D01*
G01X1739249Y-726309D01*
G01X1742168Y-725170D01*
G01X1748631Y-723820D01*
G01X1755094Y-722470D01*
G01X1762111Y-718922D01*
G01X1765568Y-718046D01*
G01X1769024Y-717170D01*
G01X1777197Y-716395D01*
G01X1794528Y-712993D01*
G01X1798507Y-712993D01*
G01X1798507Y-708900D01*
G01X1867397Y-708900D01*
G01X1867397Y-712866D01*
G01X1869857Y-713851D01*
G01X1872317Y-714837D01*
G01X1881613Y-715976D01*
G01X1890909Y-717116D01*
G01X1893501Y-717697D01*
G01X1896093Y-718279D01*
G01X1901430Y-720367D01*
G01X1906767Y-722456D01*
G01X1914395Y-724210D01*
G01X1918190Y-725299D01*
G01X1921984Y-726387D01*
G01X1926071Y-729414D01*
G01X1931034Y-730939D01*
G01X1935996Y-732465D01*
G01X1937748Y-733342D01*
G01X1939499Y-734220D01*
G01X1941552Y-735872D01*
G01X1943606Y-737525D01*
G01X1947756Y-738938D01*
G01X1951905Y-740351D01*
G01X1953292Y-741082D01*
G01X1954678Y-741814D01*
G01X1958181Y-744751D01*
G01X1962533Y-746743D01*
G01X1966884Y-748735D01*
G01X1969147Y-750782D01*
G01X1971411Y-752830D01*
G01X1976406Y-754974D01*
G01X1982339Y-760251D01*
G01X1986023Y-762405D01*
G01X1989707Y-764559D01*
G01X1991356Y-766547D01*
G01X1993004Y-768535D01*
G01X1995588Y-770051D01*
G01X1998172Y-771567D01*
G01X1999389Y-773280D01*
G01X2000607Y-774992D01*
G01X2003626Y-776926D01*
G01X2006644Y-778860D01*
G01X2008022Y-780858D01*
G01X2009400Y-782857D01*
G01X2011671Y-784462D01*
G01X2013942Y-786066D01*
G01X2015545Y-788341D01*
G01X2017147Y-790615D01*
G01X2019050Y-791931D01*
G01X2020953Y-793247D01*
G01X2022948Y-796529D01*
G01X2024942Y-799812D01*
G01X2026681Y-800835D01*
G01X2028421Y-801859D01*
G01X2029935Y-804446D01*
G01X2031449Y-807034D01*
G01X2033434Y-808685D01*
G01X2035419Y-810335D01*
G01X2037507Y-813916D01*
G01X2039594Y-817497D01*
G01X2041742Y-820055D01*
G01X2043889Y-822613D01*
G01X2045295Y-825667D01*
G01X2046701Y-828721D01*
G01X2049005Y-830907D01*
G01X2051310Y-833094D01*
G01X2053655Y-839370D01*
G01X2054600Y-841223D01*
G01X2055546Y-843075D01*
G01X2057427Y-845177D01*
G01X2059307Y-847279D01*
G01X2062359Y-856367D01*
G01X2065139Y-860030D01*
G01X2066125Y-861947D01*
G01X2067111Y-863865D01*
G01X2068572Y-868963D01*
G01X2070033Y-874061D01*
G01X2074090Y-880703D01*
G01X2075504Y-887029D01*
G01X2076917Y-893354D01*
G01X2079251Y-899785D01*
G01X2082313Y-908391D01*
G01X2084054Y-922002D01*
G01X2085598Y-935449D01*
G01X2086348Y-937933D01*
G01X2087098Y-940418D01*
G01X2091000Y-940418D01*
G01X2091000Y-994205D01*
G01X2086913Y-994205D01*
G01X2086913Y-998365D01*
G01X2084610Y-1009698D01*
G01X2083722Y-1018360D01*
G01X2082834Y-1027021D01*
G01X2081996Y-1030637D01*
G01X2081158Y-1034253D01*
G01X2079301Y-1038345D01*
G01X2077444Y-1042438D01*
G01X2076090Y-1049020D01*
G01X2074735Y-1055602D01*
G01X2073269Y-1058082D01*
G01X2071802Y-1060562D01*
G01X2070648Y-1062638D01*
G01X2069493Y-1064714D01*
G01X2066501Y-1076857D01*
G01X2064661Y-1079149D01*
G01X2062822Y-1081440D01*
G01X2060880Y-1086121D01*
G01X2058939Y-1090802D01*
G01X2058019Y-1092052D01*
G01X2057100Y-1093302D01*
G01X2055659Y-1095289D01*
G01X2054219Y-1097276D01*
G01X2053000Y-1100624D01*
G01X2051781Y-1103972D01*
G01X2049436Y-1106813D01*
G01X2047092Y-1109654D01*
G01X2043724Y-1116336D01*
G01X2039112Y-1120609D01*
G01X2037951Y-1123081D01*
G01X2036791Y-1125552D01*
G01X2034807Y-1127297D01*
G01X2032822Y-1129042D01*
G01X2029232Y-1134227D01*
G01X2027361Y-1135981D01*
G01X2025490Y-1137735D01*
G01X2023104Y-1141229D01*
G01X2020718Y-1144724D01*
G01X2016387Y-1149414D01*
G01X2012056Y-1154104D01*
G01X2008611Y-1157028D01*
G01X2005166Y-1159951D01*
G01X1996713Y-1166924D01*
G01X1994023Y-1169376D01*
G01X1991333Y-1171828D01*
G01X1989060Y-1172989D01*
G01X1986788Y-1174151D01*
G01X1983082Y-1178773D01*
G01X1979973Y-1180248D01*
G01X1976863Y-1181722D01*
G01X1971673Y-1186066D01*
G01X1964603Y-1189637D01*
G01X1962077Y-1191862D01*
G01X1959550Y-1194087D01*
G01X1951989Y-1196607D01*
G01X1949438Y-1198557D01*
G01X1946887Y-1200507D01*
G01X1945236Y-1201343D01*
G01X1943586Y-1202179D01*
G01X1937164Y-1204216D01*
G01X1933369Y-1206469D01*
G01X1929574Y-1208722D01*
G01X1923736Y-1210249D01*
G01X1917898Y-1211776D01*
G01X1911415Y-1215713D01*
G01X1907650Y-1216608D01*
G01X1903886Y-1217503D01*
G01X1897528Y-1218718D01*
G01X1891170Y-1219934D01*
G01X1885692Y-1221691D01*
G01X1880214Y-1223448D01*
G01X1875995Y-1224278D01*
G01X1871776Y-1225109D01*
G37*
G36*
G01X1850175Y-1192927D02*
G01X1847316Y-1193561D01*
G01X1844458Y-1194196D01*
G01X1843108Y-1192926D01*
G01X1841759Y-1191657D01*
G01X1842602Y-1189637D01*
G01X1843445Y-1187617D01*
G01X1846454Y-1184036D01*
G01X1846060Y-1180351D01*
G01X1845666Y-1176666D01*
G01X1843432Y-1174315D01*
G01X1841198Y-1171963D01*
G01X1839921Y-1168456D01*
G01X1838644Y-1164950D01*
G01X1837298Y-1163123D01*
G01X1835953Y-1161296D01*
G01X1836256Y-1160504D01*
G01X1836559Y-1159712D01*
G01X1839002Y-1158528D01*
G01X1841445Y-1157344D01*
G01X1843183Y-1157006D01*
G01X1844920Y-1156668D01*
G01X1848419Y-1158790D01*
G01X1851917Y-1160913D01*
G01X1855077Y-1159043D01*
G01X1857412Y-1158218D01*
G01X1859747Y-1157393D01*
G01X1862842Y-1158965D01*
G01X1865938Y-1160536D01*
G01X1866401Y-1164336D01*
G01X1866864Y-1168136D01*
G01X1868263Y-1170262D01*
G01X1869662Y-1172388D01*
G01X1871484Y-1176756D01*
G01X1871484Y-1183947D01*
G01X1869690Y-1186127D01*
G01X1867896Y-1188306D01*
G01X1866285Y-1188306D01*
G01X1864714Y-1187589D01*
G01X1863144Y-1186873D01*
G01X1859717Y-1179244D01*
G01X1858632Y-1180578D01*
G01X1857548Y-1181912D01*
G01X1856860Y-1185255D01*
G01X1856172Y-1188598D01*
G01X1854631Y-1191606D01*
G01X1852403Y-1192266D01*
G01X1850175Y-1192927D01*
G37*
G36*
G01X1804344Y-1184117D02*
G01X1801634Y-1185154D01*
G01X1798923Y-1186190D01*
G01X1794128Y-1184352D01*
G01X1788290Y-1181884D01*
G01X1781832Y-1180113D01*
G01X1779639Y-1178303D01*
G01X1777446Y-1176493D01*
G01X1778198Y-1175579D01*
G01X1778949Y-1174666D01*
G01X1785026Y-1170765D01*
G01X1786074Y-1169256D01*
G01X1787122Y-1167747D01*
G01X1790454Y-1163751D01*
G01X1791793Y-1163752D01*
G01X1795296Y-1165413D01*
G01X1798799Y-1167074D01*
G01X1799596Y-1168038D01*
G01X1800392Y-1169002D01*
G01X1799687Y-1172745D01*
G01X1798982Y-1176487D01*
G01X1800413Y-1179244D01*
G01X1802378Y-1181681D01*
G01X1804344Y-1184117D01*
G37*
G36*
G01X1924025Y-1177626D02*
G01X1922487Y-1179166D01*
G01X1920949Y-1180706D01*
G01X1917151Y-1180706D01*
G01X1915828Y-1179633D01*
G01X1914505Y-1178560D01*
G01X1913953Y-1169017D01*
G01X1912087Y-1167036D01*
G01X1910222Y-1165055D01*
G01X1908968Y-1161626D01*
G01X1907715Y-1158197D01*
G01X1904633Y-1154400D01*
G01X1901551Y-1150604D01*
G01X1899046Y-1148216D01*
G01X1896541Y-1145828D01*
G01X1897081Y-1144412D01*
G01X1897622Y-1142996D01*
G01X1898711Y-1142048D01*
G01X1899799Y-1141100D01*
G01X1900967Y-1140521D01*
G01X1902135Y-1139943D01*
G01X1903594Y-1139664D01*
G01X1905054Y-1139385D01*
G01X1913097Y-1141500D01*
G01X1915430Y-1143581D01*
G01X1917133Y-1147359D01*
G01X1918835Y-1151136D01*
G01X1919391Y-1151807D01*
G01X1919947Y-1152478D01*
G01X1924018Y-1151277D01*
G01X1928089Y-1150077D01*
G01X1929588Y-1151487D01*
G01X1931087Y-1152897D01*
G01X1930914Y-1155547D01*
G01X1930742Y-1158197D01*
G01X1924039Y-1158547D01*
G01X1920062Y-1157448D01*
G01X1919725Y-1159131D01*
G01X1919389Y-1160815D01*
G01X1919702Y-1161633D01*
G01X1920016Y-1162451D01*
G01X1923648Y-1163178D01*
G01X1927058Y-1164423D01*
G01X1930469Y-1165669D01*
G01X1931199Y-1168582D01*
G01X1930205Y-1169138D01*
G01X1929212Y-1169695D01*
G01X1927212Y-1171454D01*
G01X1925212Y-1173212D01*
G01X1924618Y-1175419D01*
G01X1924025Y-1177626D01*
G37*
G36*
G01X1738725Y-1175390D02*
G01X1737942Y-1176797D01*
G01X1736773Y-1173636D01*
G01X1735603Y-1170474D01*
G01X1735169Y-1169013D01*
G01X1734735Y-1167551D01*
G01X1731952Y-1163830D01*
G01X1730835Y-1163475D01*
G01X1729717Y-1163120D01*
G01X1726238Y-1164294D01*
G01X1722758Y-1165468D01*
G01X1718778Y-1165632D01*
G01X1714797Y-1165797D01*
G01X1713451Y-1163459D01*
G01X1712105Y-1161120D01*
G01X1713640Y-1159766D01*
G01X1715176Y-1158412D01*
G01X1723076Y-1158543D01*
G01X1730976Y-1158673D01*
G01X1734427Y-1154806D01*
G01X1734160Y-1150189D01*
G01X1733893Y-1145571D01*
G01X1735616Y-1144343D01*
G01X1737340Y-1143114D01*
G01X1739114Y-1142750D01*
G01X1740889Y-1142387D01*
G01X1741807Y-1140658D01*
G01X1742135Y-1139089D01*
G01X1742463Y-1137520D01*
G01X1744112Y-1136344D01*
G01X1745762Y-1135168D01*
G01X1747284Y-1136692D01*
G01X1748806Y-1138216D01*
G01X1745943Y-1143873D01*
G01X1744253Y-1143873D01*
G01X1743580Y-1145132D01*
G01X1742907Y-1146391D01*
G01X1743428Y-1155858D01*
G01X1744560Y-1158426D01*
G01X1745693Y-1160994D01*
G01X1744076Y-1162727D01*
G01X1742460Y-1164460D01*
G01X1740984Y-1169221D01*
G01X1739508Y-1173982D01*
G01X1738725Y-1175390D01*
G37*
G36*
G01X1935563Y-1164336D02*
G01X1933452Y-1164336D01*
G01X1932503Y-1163385D01*
G01X1931554Y-1162435D01*
G01X1931909Y-1159366D01*
G01X1933711Y-1159190D01*
G01X1935512Y-1159014D01*
G01X1936263Y-1159921D01*
G01X1937014Y-1160827D01*
G01X1935563Y-1164336D01*
G37*
G36*
G01X1975817Y-1146883D02*
G01X1974985Y-1147717D01*
G01X1974153Y-1148550D01*
G01X1973114Y-1148550D01*
G01X1971861Y-1147235D01*
G01X1970608Y-1145920D01*
G01X1970901Y-1138320D01*
G01X1971193Y-1130721D01*
G01X1970099Y-1128674D01*
G01X1969004Y-1126626D01*
G01X1967580Y-1124921D01*
G01X1966155Y-1123216D01*
G01X1962231Y-1124506D01*
G01X1958306Y-1125796D01*
G01X1956981Y-1124549D01*
G01X1955655Y-1123302D01*
G01X1954317Y-1115611D01*
G01X1954696Y-1113364D01*
G01X1955075Y-1111118D01*
G01X1956152Y-1110541D01*
G01X1957229Y-1109964D01*
G01X1957997Y-1110042D01*
G01X1958765Y-1110120D01*
G01X1961976Y-1111258D01*
G01X1965187Y-1112396D01*
G01X1973797Y-1111343D01*
G01X1975330Y-1113518D01*
G01X1976863Y-1115693D01*
G01X1977855Y-1117501D01*
G01X1978847Y-1119309D01*
G01X1980774Y-1120140D01*
G01X1982702Y-1120971D01*
G01X1989012Y-1123206D01*
G01X1980366Y-1125926D01*
G01X1978477Y-1127323D01*
G01X1976587Y-1128720D01*
G01X1975993Y-1129832D01*
G01X1975399Y-1130944D01*
G01X1975994Y-1135145D01*
G01X1976589Y-1139347D01*
G01X1976203Y-1143115D01*
G01X1975817Y-1146883D01*
G37*
G36*
G01X1848423Y-1141622D02*
G01X1832952Y-1141919D01*
G01X1817481Y-1142215D01*
G01X1798799Y-1140322D01*
G01X1792961Y-1139047D01*
G01X1789696Y-1137691D01*
G01X1786432Y-1136336D01*
G01X1777868Y-1134595D01*
G01X1769305Y-1132854D01*
G01X1765752Y-1130479D01*
G01X1762200Y-1128103D01*
G01X1759774Y-1127479D01*
G01X1757348Y-1126854D01*
G01X1751798Y-1125070D01*
G01X1749455Y-1123110D01*
G01X1747113Y-1121149D01*
G01X1743863Y-1119932D01*
G01X1740614Y-1118714D01*
G01X1738764Y-1117767D01*
G01X1736914Y-1116820D01*
G01X1732561Y-1112914D01*
G01X1728330Y-1111143D01*
G01X1723424Y-1106160D01*
G01X1719660Y-1103954D01*
G01X1715896Y-1101748D01*
G01X1698277Y-1084532D01*
G01X1694457Y-1078871D01*
G01X1691823Y-1075901D01*
G01X1689189Y-1072931D01*
G01X1688381Y-1070994D01*
G01X1687573Y-1069056D01*
G01X1681285Y-1062760D01*
G01X1680914Y-1061067D01*
G01X1680543Y-1059374D01*
G01X1674865Y-1051012D01*
G01X1673593Y-1047186D01*
G01X1672322Y-1043359D01*
G01X1670897Y-1041257D01*
G01X1669472Y-1039154D01*
G01X1668379Y-1036996D01*
G01X1667287Y-1034838D01*
G01X1664749Y-1025483D01*
G01X1660192Y-1015544D01*
G01X1659513Y-1012373D01*
G01X1658834Y-1009202D01*
G01X1659227Y-1005362D01*
G01X1659619Y-1001523D01*
G01X1660858Y-1000203D01*
G01X1662097Y-998882D01*
G01X1685643Y-998882D01*
G01X1689146Y-1000635D01*
G01X1692649Y-1002388D01*
G01X1694139Y-1005166D01*
G01X1695628Y-1007944D01*
G01X1697108Y-1016714D01*
G01X1697972Y-1018468D01*
G01X1698835Y-1020222D01*
G01X1702060Y-1024899D01*
G01X1705194Y-1034552D01*
G01X1707281Y-1037034D01*
G01X1709369Y-1039515D01*
G01X1711331Y-1043741D01*
G01X1713293Y-1047967D01*
G01X1717928Y-1052262D01*
G01X1719613Y-1055251D01*
G01X1721297Y-1058240D01*
G01X1724488Y-1059950D01*
G01X1726217Y-1062467D01*
G01X1727947Y-1064984D01*
G01X1730242Y-1066505D01*
G01X1732536Y-1068026D01*
G01X1733770Y-1070025D01*
G01X1735004Y-1072024D01*
G01X1741001Y-1076496D01*
G01X1742460Y-1078087D01*
G01X1743920Y-1079678D01*
G01X1746714Y-1081103D01*
G01X1749508Y-1082527D01*
G01X1751676Y-1084447D01*
G01X1753845Y-1086366D01*
G01X1757931Y-1088775D01*
G01X1762316Y-1090179D01*
G01X1768440Y-1094799D01*
G01X1772150Y-1095950D01*
G01X1775861Y-1097102D01*
G01X1777271Y-1097102D01*
G01X1781072Y-1099398D01*
G01X1784874Y-1101694D01*
G01X1791793Y-1103451D01*
G01X1798923Y-1104359D01*
G01X1806052Y-1105267D01*
G01X1806938Y-1104927D01*
G01X1807824Y-1104586D01*
G01X1809004Y-1102675D01*
G01X1810183Y-1100764D01*
G01X1810183Y-1092633D01*
G01X1809278Y-1089972D01*
G01X1808372Y-1087311D01*
G01X1807059Y-1086076D01*
G01X1805747Y-1084841D01*
G01X1798770Y-1083095D01*
G01X1791793Y-1081349D01*
G01X1788026Y-1080441D01*
G01X1784259Y-1079533D01*
G01X1778918Y-1076101D01*
G01X1774922Y-1074595D01*
G01X1770925Y-1073088D01*
G01X1769099Y-1072153D01*
G01X1767272Y-1071218D01*
G01X1765204Y-1069362D01*
G01X1763135Y-1067506D01*
G01X1760401Y-1066181D01*
G01X1757667Y-1064856D01*
G01X1756153Y-1063054D01*
G01X1754640Y-1061253D01*
G01X1752199Y-1059483D01*
G01X1749758Y-1057713D01*
G01X1742367Y-1050145D01*
G01X1734975Y-1042577D01*
G01X1733663Y-1040022D01*
G01X1732351Y-1037466D01*
G01X1730493Y-1036048D01*
G01X1728636Y-1034629D01*
G01X1726831Y-1030844D01*
G01X1725025Y-1027060D01*
G01X1720870Y-1021608D01*
G01X1718424Y-1013206D01*
G01X1716925Y-1009113D01*
G01X1716499Y-1006190D01*
G01X1716073Y-1003267D01*
G01X1715061Y-1001372D01*
G01X1722635Y-998882D01*
G01X1745743Y-998882D01*
G01X1748310Y-1001277D01*
G01X1750137Y-1004903D01*
G01X1751963Y-1008529D01*
G01X1755913Y-1013153D01*
G01X1756614Y-1015497D01*
G01X1757316Y-1017842D01*
G01X1759871Y-1020493D01*
G01X1762426Y-1023145D01*
G01X1765669Y-1027822D01*
G01X1770269Y-1032223D01*
G01X1774870Y-1036624D01*
G01X1776685Y-1037377D01*
G01X1778501Y-1038130D01*
G01X1779199Y-1039407D01*
G01X1779896Y-1040684D01*
G01X1782710Y-1042759D01*
G01X1788284Y-1043802D01*
G01X1789163Y-1045085D01*
G01X1790041Y-1046367D01*
G01X1791209Y-1047641D01*
G01X1792377Y-1048914D01*
G01X1799383Y-1050957D01*
G01X1809891Y-1054534D01*
G01X1813102Y-1055771D01*
G01X1816313Y-1057009D01*
G01X1846672Y-1057054D01*
G01X1851342Y-1054904D01*
G01X1856013Y-1052753D01*
G01X1861514Y-1051212D01*
G01X1867016Y-1049671D01*
G01X1868520Y-1048889D01*
G01X1870025Y-1048106D01*
G01X1871267Y-1046416D01*
G01X1872509Y-1044725D01*
G01X1880638Y-1041531D01*
G01X1883797Y-1038827D01*
G01X1886955Y-1036123D01*
G01X1890458Y-1034647D01*
G01X1891699Y-1033281D01*
G01X1892939Y-1031914D01*
G01X1893676Y-1030489D01*
G01X1894412Y-1029064D01*
G01X1896848Y-1026397D01*
G01X1899285Y-1023729D01*
G01X1902169Y-1019752D01*
G01X1905054Y-1015774D01*
G01X1906346Y-1013997D01*
G01X1907637Y-1012220D01*
G01X1908854Y-1008966D01*
G01X1910070Y-1005711D01*
G01X1911303Y-1003976D01*
G01X1912536Y-1002242D01*
G01X1916268Y-1000493D01*
G01X1919999Y-998745D01*
G01X1931313Y-998978D01*
G01X1942627Y-999211D01*
G01X1943904Y-1000362D01*
G01X1945180Y-1001513D01*
G01X1944460Y-1009330D01*
G01X1942742Y-1012145D01*
G01X1941024Y-1014960D01*
G01X1939464Y-1019856D01*
G01X1937905Y-1024752D01*
G01X1935824Y-1027059D01*
G01X1933743Y-1029365D01*
G01X1931950Y-1033082D01*
G01X1930158Y-1036799D01*
G01X1926363Y-1041357D01*
G01X1922568Y-1045915D01*
G01X1913519Y-1054851D01*
G01X1904470Y-1063788D01*
G01X1895713Y-1068372D01*
G01X1893714Y-1070446D01*
G01X1891716Y-1072519D01*
G01X1884036Y-1075011D01*
G01X1876447Y-1079513D01*
G01X1866814Y-1081901D01*
G01X1862011Y-1083094D01*
G01X1857209Y-1084287D01*
G01X1854344Y-1086129D01*
G01X1851478Y-1087970D01*
G01X1850401Y-1090344D01*
G01X1849325Y-1092717D01*
G01X1849312Y-1096708D01*
G01X1849299Y-1100700D01*
G01X1850908Y-1102312D01*
G01X1852518Y-1103923D01*
G01X1855828Y-1104313D01*
G01X1859138Y-1104702D01*
G01X1863706Y-1104081D01*
G01X1868273Y-1103459D01*
G01X1874942Y-1101759D01*
G01X1877738Y-1100032D01*
G01X1880533Y-1098306D01*
G01X1885853Y-1096891D01*
G01X1891173Y-1095476D01*
G01X1892567Y-1094740D01*
G01X1893961Y-1094005D01*
G01X1897464Y-1091062D01*
G01X1902216Y-1088855D01*
G01X1906968Y-1086648D01*
G01X1908187Y-1084934D01*
G01X1909406Y-1083220D01*
G01X1917041Y-1079418D01*
G01X1927836Y-1068663D01*
G01X1938632Y-1057909D01*
G01X1940286Y-1055622D01*
G01X1941941Y-1053334D01*
G01X1943719Y-1051836D01*
G01X1945497Y-1050338D01*
G01X1946735Y-1047700D01*
G01X1947973Y-1045062D01*
G01X1951892Y-1040684D01*
G01X1952838Y-1038832D01*
G01X1953783Y-1036979D01*
G01X1955020Y-1033668D01*
G01X1956257Y-1030357D01*
G01X1957864Y-1028505D01*
G01X1959469Y-1026653D01*
G01X1960121Y-1025410D01*
G01X1960772Y-1024167D01*
G01X1962240Y-1017946D01*
G01X1963708Y-1011725D01*
G01X1964595Y-1010006D01*
G01X1965483Y-1008287D01*
G01X1968151Y-1004464D01*
G01X1970819Y-1000642D01*
G01X1973328Y-998882D01*
G01X1996403Y-998882D01*
G01X1998180Y-1000490D01*
G01X1999958Y-1002098D01*
G01X2000309Y-1005958D01*
G01X2000661Y-1009819D01*
G01X1998696Y-1020806D01*
G01X1997450Y-1024752D01*
G01X1994134Y-1030161D01*
G01X1992674Y-1035259D01*
G01X1991215Y-1040357D01*
G01X1990375Y-1041982D01*
G01X1989535Y-1043607D01*
G01X1987534Y-1046584D01*
G01X1985532Y-1049560D01*
G01X1984773Y-1052278D01*
G01X1984013Y-1054996D01*
G01X1981193Y-1058223D01*
G01X1978373Y-1061450D01*
G01X1977193Y-1064120D01*
G01X1976013Y-1066791D01*
G01X1973106Y-1070275D01*
G01X1970199Y-1073759D01*
G01X1967174Y-1079270D01*
G01X1963247Y-1082194D01*
G01X1960516Y-1086689D01*
G01X1955516Y-1090168D01*
G01X1954029Y-1092419D01*
G01X1952542Y-1094670D01*
G01X1950257Y-1096184D01*
G01X1947972Y-1097698D01*
G01X1944989Y-1102429D01*
G01X1942473Y-1103509D01*
G01X1939957Y-1104590D01*
G01X1936929Y-1107283D01*
G01X1933901Y-1109976D01*
G01X1926071Y-1113950D01*
G01X1924073Y-1116035D01*
G01X1922075Y-1118120D01*
G01X1917651Y-1119602D01*
G01X1913227Y-1121084D01*
G01X1910691Y-1123103D01*
G01X1908154Y-1125122D01*
G01X1901551Y-1127526D01*
G01X1899093Y-1128431D01*
G01X1896635Y-1129336D01*
G01X1894630Y-1130699D01*
G01X1892624Y-1132062D01*
G01X1889428Y-1132992D01*
G01X1886231Y-1133923D01*
G01X1878883Y-1135387D01*
G01X1871535Y-1136851D01*
G01X1866693Y-1138670D01*
G01X1861851Y-1140488D01*
G01X1848423Y-1141622D01*
G37*
G36*
G01X1684598Y-1139762D02*
G01X1683657Y-1139781D01*
G01X1681507Y-1138319D01*
G01X1679356Y-1136858D01*
G01X1676983Y-1136858D01*
G01X1675302Y-1135175D01*
G01X1673622Y-1133492D01*
G01X1672917Y-1130686D01*
G01X1672211Y-1127880D01*
G01X1670193Y-1125643D01*
G01X1668176Y-1123407D01*
G01X1668839Y-1122607D01*
G01X1669502Y-1121807D01*
G01X1673141Y-1120487D01*
G01X1676781Y-1119168D01*
G01X1682382Y-1116348D01*
G01X1683052Y-1114598D01*
G01X1680999Y-1112325D01*
G01X1679015Y-1111953D01*
G01X1677031Y-1111580D01*
G01X1676122Y-1109819D01*
G01X1675213Y-1108059D01*
G01X1676395Y-1106875D01*
G01X1677578Y-1105690D01*
G01X1681266Y-1106605D01*
G01X1684954Y-1107520D01*
G01X1685422Y-1107075D01*
G01X1685890Y-1106630D01*
G01X1687289Y-1103183D01*
G01X1688688Y-1099735D01*
G01X1690203Y-1097834D01*
G01X1691718Y-1095933D01*
G01X1692632Y-1095933D01*
G01X1693836Y-1097248D01*
G01X1695039Y-1098564D01*
G01X1696278Y-1101036D01*
G01X1697518Y-1103509D01*
G01X1700717Y-1105176D01*
G01X1703262Y-1107918D01*
G01X1703789Y-1111874D01*
G01X1704315Y-1115830D01*
G01X1702391Y-1118081D01*
G01X1700468Y-1120331D01*
G01X1698210Y-1120693D01*
G01X1695952Y-1121055D01*
G01X1695052Y-1122086D01*
G01X1694153Y-1123118D01*
G01X1693429Y-1127061D01*
G01X1692705Y-1131003D01*
G01X1690468Y-1128155D01*
G01X1687753Y-1127747D01*
G01X1685039Y-1127339D01*
G01X1683975Y-1128655D01*
G01X1682911Y-1129971D01*
G01X1682911Y-1133529D01*
G01X1687788Y-1138039D01*
G01X1685538Y-1139744D01*
G01X1684598Y-1139762D01*
G37*
G36*
G01X2037919Y-1038930D02*
G01X2037186Y-1047115D01*
G01X2034288Y-1051598D01*
G01X2031556Y-1051280D01*
G01X2028823Y-1050962D01*
G01X2023108Y-1050590D01*
G01X2017393Y-1050218D01*
G01X2013767Y-1048374D01*
G01X2010141Y-1046530D01*
G01X2008463Y-1043208D01*
G01X2006961Y-1040234D01*
G01X2015687Y-1040234D01*
G01X2016897Y-1041774D01*
G01X2018107Y-1043315D01*
G01X2026676Y-1043315D01*
G01X2028182Y-1041522D01*
G01X2029689Y-1039729D01*
G01X2028823Y-1038054D01*
G01X2027958Y-1036378D01*
G01X2026347Y-1036134D01*
G01X2024736Y-1035890D01*
G01X2021645Y-1035802D01*
G01X2018553Y-1035715D01*
G01X2017120Y-1037150D01*
G01X2015687Y-1038585D01*
G01X2015687Y-1040234D01*
G01X2015687Y-1040234D01*
G01X2006961Y-1040234D01*
G01X2006785Y-1039885D01*
G01X2007769Y-1035900D01*
G01X2008752Y-1031914D01*
G01X2010236Y-1029914D01*
G01X2013428Y-1028699D01*
G01X2020250Y-1028701D01*
G01X2027072Y-1028703D01*
G01X2028901Y-1029820D01*
G01X2030730Y-1030937D01*
G01X2032326Y-1033104D01*
G01X2033959Y-1034149D01*
G01X2035593Y-1035194D01*
G01X2036756Y-1037062D01*
G01X2037919Y-1038930D01*
G37*
G36*
G01X1636360Y-1046713D02*
G01X1634758Y-1048869D01*
G01X1631883Y-1051447D01*
G01X1630091Y-1050038D01*
G01X1628071Y-1047700D01*
G01X1628004Y-1045946D01*
G01X1626668Y-1042693D01*
G01X1625332Y-1039441D01*
G01X1625827Y-1037955D01*
G01X1626321Y-1036468D01*
G01X1629254Y-1035130D01*
G01X1634627Y-1035243D01*
G01X1640000Y-1035355D01*
G01X1643589Y-1035561D01*
G01X1647177Y-1035767D01*
G01X1648092Y-1037641D01*
G01X1649006Y-1039515D01*
G01X1647830Y-1040417D01*
G01X1646654Y-1041319D01*
G01X1642308Y-1042937D01*
G01X1637961Y-1044556D01*
G01X1636360Y-1046713D01*
G37*
G36*
G01X1870493Y-1036007D02*
G01X1868877Y-1037927D01*
G01X1867260Y-1039847D01*
G01X1864466Y-1036055D01*
G01X1863892Y-1033985D01*
G01X1863317Y-1031914D01*
G01X1863311Y-1016225D01*
G01X1863945Y-1012577D01*
G01X1864579Y-1008930D01*
G01X1865889Y-1007698D01*
G01X1867199Y-1006465D01*
G01X1869196Y-1007916D01*
G01X1871192Y-1009366D01*
G01X1873941Y-1011323D01*
G01X1876691Y-1013280D01*
G01X1879154Y-1016416D01*
G01X1878805Y-1017516D01*
G01X1878457Y-1018616D01*
G01X1875640Y-1021215D01*
G01X1872823Y-1023813D01*
G01X1871971Y-1032478D01*
G01X1871232Y-1034242D01*
G01X1870493Y-1036007D01*
G37*
G36*
G01X1818521Y-1036003D02*
G01X1816897Y-1037035D01*
G01X1813957Y-1039766D01*
G01X1811291Y-1036425D01*
G01X1808624Y-1033084D01*
G01X1808263Y-1032452D01*
G01X1807901Y-1031820D01*
G01X1808743Y-1028652D01*
G01X1809585Y-1025483D01*
G01X1809592Y-1020926D01*
G01X1809599Y-1016369D01*
G01X1810534Y-1012641D01*
G01X1811470Y-1008913D01*
G01X1814267Y-1006281D01*
G01X1817042Y-1009219D01*
G01X1819816Y-1012157D01*
G01X1821589Y-1013363D01*
G01X1823361Y-1014569D01*
G01X1824000Y-1015934D01*
G01X1824639Y-1017298D01*
G01X1825665Y-1019766D01*
G01X1826692Y-1022233D01*
G01X1827779Y-1023218D01*
G01X1828865Y-1024203D01*
G01X1830023Y-1023154D01*
G01X1831180Y-1022105D01*
G01X1833583Y-1017202D01*
G01X1835986Y-1012300D01*
G01X1837663Y-1011431D01*
G01X1839339Y-1010563D01*
G01X1840576Y-1008249D01*
G01X1842281Y-1007366D01*
G01X1843987Y-1006483D01*
G01X1845110Y-1006483D01*
G01X1848810Y-1008383D01*
G01X1852510Y-1010283D01*
G01X1854064Y-1013352D01*
G01X1855617Y-1016421D01*
G01X1853733Y-1023729D01*
G01X1853883Y-1027936D01*
G01X1854033Y-1032142D01*
G01X1852263Y-1035570D01*
G01X1849793Y-1036559D01*
G01X1847323Y-1037549D01*
G01X1844273Y-1039724D01*
G01X1842890Y-1037505D01*
G01X1839576Y-1035789D01*
G01X1834367Y-1034327D01*
G01X1829157Y-1032865D01*
G01X1824651Y-1033918D01*
G01X1820145Y-1034971D01*
G01X1818521Y-1036003D01*
G37*
G36*
G01X1801509Y-1033978D02*
G01X1799230Y-1036042D01*
G01X1791452Y-1037905D01*
G01X1782763Y-1032110D01*
G01X1782217Y-1029966D01*
G01X1781672Y-1027822D01*
G01X1781306Y-1026015D01*
G01X1780940Y-1024208D01*
G01X1781567Y-1020280D01*
G01X1782193Y-1016352D01*
G01X1782905Y-1015211D01*
G01X1783616Y-1014070D01*
G01X1785780Y-1013382D01*
G01X1786916Y-1010811D01*
G01X1788052Y-1008239D01*
G01X1791443Y-1006483D01*
G01X1791910Y-1006532D01*
G01X1792377Y-1006582D01*
G01X1795422Y-1007321D01*
G01X1798467Y-1008060D01*
G01X1799287Y-1008741D01*
G01X1800106Y-1009423D01*
G01X1801687Y-1012951D01*
G01X1803269Y-1016479D01*
G01X1802752Y-1020486D01*
G01X1802236Y-1024494D01*
G01X1803787Y-1031914D01*
G01X1801509Y-1033978D01*
G37*
G36*
G01X1628106Y-1020610D02*
G01X1624385Y-1021114D01*
G01X1621100Y-1019594D01*
G01X1617815Y-1018075D01*
G01X1616063Y-1017176D01*
G01X1615892Y-1013023D01*
G01X1615743Y-1009388D01*
G01X1627974Y-1009388D01*
G01X1629856Y-1010534D01*
G01X1631737Y-1011680D01*
G01X1633474Y-1010441D01*
G01X1635211Y-1009202D01*
G01X1632056Y-1006485D01*
G01X1630373Y-1007357D01*
G01X1628690Y-1008228D01*
G01X1627974Y-1009388D01*
G01X1627974Y-1009388D01*
G01X1615743Y-1009388D01*
G01X1615721Y-1008870D01*
G01X1618042Y-1007685D01*
G01X1620363Y-1006499D01*
G01X1621308Y-1005021D01*
G01X1622484Y-1002103D01*
G01X1623659Y-999185D01*
G01X1627156Y-998436D01*
G01X1633578Y-998402D01*
G01X1636397Y-999178D01*
G01X1639217Y-999954D01*
G01X1640286Y-1000923D01*
G01X1641355Y-1001891D01*
G01X1642114Y-1005021D01*
G01X1643539Y-1007201D01*
G01X1644962Y-1009381D01*
G01X1644962Y-1016802D01*
G01X1643649Y-1017996D01*
G01X1642335Y-1019190D01*
G01X1639416Y-1020945D01*
G01X1631827Y-1020105D01*
G01X1628106Y-1020610D01*
G37*
G36*
G01X2033494Y-1019420D02*
G01X2030102Y-1019999D01*
G01X2026711Y-1020578D01*
G01X2022574Y-1020170D01*
G01X2018437Y-1019761D01*
G01X2014951Y-1016642D01*
G01X2018270Y-1013802D01*
G01X2021590Y-1010963D01*
G01X2022162Y-1009892D01*
G01X2022734Y-1008821D01*
G01X2022045Y-1007506D01*
G01X2021356Y-1006190D01*
G01X2019106Y-1004088D01*
G01X2016855Y-1001985D01*
G01X2016868Y-1001457D01*
G01X2016881Y-1000928D01*
G01X2018939Y-998251D01*
G01X2023049Y-997906D01*
G01X2027159Y-997560D01*
G01X2029699Y-1000794D01*
G01X2029699Y-1002310D01*
G01X2032910Y-1004503D01*
G01X2041290Y-1007722D01*
G01X2041934Y-1008499D01*
G01X2042578Y-1009276D01*
G01X2043211Y-1012875D01*
G01X2043845Y-1016474D01*
G01X2042861Y-1017561D01*
G01X2041878Y-1018650D01*
G01X2037686Y-1019035D01*
G01X2033494Y-1019420D01*
G37*
G36*
G01X1835089Y-998851D02*
G01X1831371Y-1000090D01*
G01X1829246Y-1001646D01*
G01X1827450Y-1000606D01*
G01X1825654Y-999567D01*
G01X1823152Y-998833D01*
G01X1820649Y-998100D01*
G01X1818577Y-995714D01*
G01X1816505Y-993328D01*
G01X1815397Y-992086D01*
G01X1814288Y-990844D01*
G01X1810510Y-989894D01*
G01X1806732Y-988943D01*
G01X1662141Y-988943D01*
G01X1659569Y-987628D01*
G01X1656998Y-986312D01*
G01X1655651Y-982252D01*
G01X1654304Y-978192D01*
G01X1654304Y-971632D01*
G01X1655651Y-967572D01*
G01X1656998Y-963511D01*
G01X1659569Y-962196D01*
G01X1662141Y-960880D01*
G01X1806717Y-960880D01*
G01X1810332Y-962100D01*
G01X1813948Y-963320D01*
G01X1818287Y-967245D01*
G01X1819995Y-968130D01*
G01X1821704Y-969015D01*
G01X1824049Y-966435D01*
G01X1824706Y-965158D01*
G01X1825362Y-963881D01*
G01X1825362Y-955294D01*
G01X1823440Y-952403D01*
G01X1822538Y-951672D01*
G01X1821636Y-950942D01*
G01X1798470Y-950942D01*
G01X1794938Y-949750D01*
G01X1791407Y-948559D01*
G01X1788620Y-945387D01*
G01X1784515Y-937655D01*
G01X1783591Y-936887D01*
G01X1782667Y-936118D01*
G01X1780986Y-932863D01*
G01X1782221Y-929092D01*
G01X1783457Y-925322D01*
G01X1791294Y-922799D01*
G01X1798841Y-922328D01*
G01X1806388Y-921858D01*
G01X1807848Y-922515D01*
G01X1809307Y-923172D01*
G01X1810296Y-925155D01*
G01X1811285Y-927138D01*
G01X1813678Y-929894D01*
G01X1814854Y-929894D01*
G01X1817189Y-927556D01*
G01X1817189Y-924061D01*
G01X1814941Y-918136D01*
G01X1815845Y-915976D01*
G01X1816749Y-913817D01*
G01X1817545Y-911142D01*
G01X1818341Y-908468D01*
G01X1820830Y-906109D01*
G01X1823319Y-903751D01*
G01X1825174Y-901081D01*
G01X1827029Y-898411D01*
G01X1828165Y-897802D01*
G01X1829301Y-897193D01*
G01X1833024Y-899417D01*
G01X1836747Y-901642D01*
G01X1839179Y-905391D01*
G01X1841611Y-909140D01*
G01X1846632Y-916740D01*
G01X1846593Y-919342D01*
G01X1846554Y-921944D01*
G01X1845851Y-922179D01*
G01X1845147Y-922413D01*
G01X1842877Y-924853D01*
G01X1842877Y-930988D01*
G01X1843460Y-932523D01*
G01X1844042Y-934057D01*
G01X1844569Y-933732D01*
G01X1845095Y-933406D01*
G01X1845804Y-930447D01*
G01X1846513Y-927488D01*
G01X1847958Y-925768D01*
G01X1849403Y-924048D01*
G01X1851161Y-924048D01*
G01X1855129Y-922841D01*
G01X1859097Y-921634D01*
G01X1867188Y-922866D01*
G01X1875279Y-924098D01*
G01X1876292Y-925104D01*
G01X1877306Y-926111D01*
G01X1877978Y-929462D01*
G01X1878650Y-932813D01*
G01X1876614Y-938154D01*
G01X1874553Y-940857D01*
G01X1872492Y-943560D01*
G01X1870763Y-946498D01*
G01X1869033Y-949436D01*
G01X1868069Y-950170D01*
G01X1867105Y-950904D01*
G01X1843656Y-950942D01*
G01X1840328Y-951611D01*
G01X1837001Y-952280D01*
G01X1834120Y-955708D01*
G01X1834120Y-963266D01*
G01X1835261Y-965507D01*
G01X1836403Y-967748D01*
G01X1840863Y-966684D01*
G01X1845323Y-965620D01*
G01X1847839Y-963765D01*
G01X1849839Y-962312D01*
G01X1851839Y-960859D01*
G01X1925736Y-961016D01*
G01X1999632Y-961173D01*
G01X2004299Y-962931D01*
G01X2005093Y-965267D01*
G01X2005887Y-967604D01*
G01X2006195Y-972995D01*
G01X2006504Y-978386D01*
G01X2005205Y-982430D01*
G01X2003906Y-986475D01*
G01X2000152Y-987709D01*
G01X1996397Y-988943D01*
G01X1851668Y-988943D01*
G01X1848384Y-990398D01*
G01X1845100Y-991852D01*
G01X1838806Y-997612D01*
G01X1835089Y-998851D01*
G37*
G36*
G01X2032775Y-986020D02*
G01X2041959Y-986020D01*
G01X2041959Y-994205D01*
G01X2033856Y-994205D01*
G01X2033675Y-992013D01*
G01X2033494Y-989820D01*
G01X2024153Y-989154D01*
G01X2021380Y-987815D01*
G01X2018606Y-986476D01*
G01X2018606Y-978420D01*
G01X2026653Y-978420D01*
G01X2027013Y-979735D01*
G01X2027373Y-981051D01*
G01X2028390Y-982225D01*
G01X2029407Y-983399D01*
G01X2031091Y-984710D01*
G01X2032775Y-986020D01*
G37*
G36*
G01X1635612Y-988986D02*
G01X1631522Y-990230D01*
G01X1627879Y-989621D01*
G01X1624237Y-989013D01*
G01X1620295Y-989447D01*
G01X1616353Y-989881D01*
G01X1614953Y-988389D01*
G01X1613554Y-986897D01*
G01X1613158Y-982800D01*
G01X1612762Y-978703D01*
G01X1613100Y-977782D01*
G01X1620442Y-977782D01*
G01X1620442Y-979062D01*
G01X1622074Y-982223D01*
G01X1623257Y-983295D01*
G01X1623257Y-983295D01*
G01X1624440Y-984367D01*
G01X1632886Y-981635D01*
G01X1634051Y-980061D01*
G01X1635216Y-978487D01*
G01X1634262Y-977029D01*
G01X1633309Y-975572D01*
G01X1631400Y-975336D01*
G01X1629491Y-975099D01*
G01X1626400Y-975005D01*
G01X1623308Y-974912D01*
G01X1621875Y-976347D01*
G01X1620442Y-977782D01*
G01X1613100Y-977782D01*
G01X1614155Y-974908D01*
G01X1615548Y-971112D01*
G01X1618417Y-969671D01*
G01X1621286Y-968231D01*
G01X1631827Y-967827D01*
G01X1633739Y-969031D01*
G01X1635651Y-970235D01*
G01X1636173Y-971611D01*
G01X1636695Y-972987D01*
G01X1640790Y-975406D01*
G01X1641786Y-976929D01*
G01X1642782Y-978451D01*
G01X1641457Y-985061D01*
G01X1639702Y-987742D01*
G01X1635612Y-988986D01*
G37*
G36*
G01X2029770Y-967978D02*
G01X2025951Y-968644D01*
G01X2024030Y-966419D01*
G01X2022109Y-964194D01*
G01X2022116Y-961757D01*
G01X2022732Y-959536D01*
G01X2023348Y-957315D01*
G01X2026131Y-956046D01*
G01X2024959Y-955095D01*
G01X2023786Y-954145D01*
G01X2022756Y-945923D01*
G01X2020520Y-940700D01*
G01X2021463Y-938148D01*
G01X2024153Y-936405D01*
G01X2025612Y-936121D01*
G01X2027072Y-935838D01*
G01X2029115Y-936356D01*
G01X2031158Y-936874D01*
G01X2036830Y-937271D01*
G01X2042502Y-937668D01*
G01X2044241Y-939189D01*
G01X2045981Y-940710D01*
G01X2044860Y-944249D01*
G01X2043739Y-947788D01*
G01X2042411Y-948999D01*
G01X2041083Y-950210D01*
G01X2033494Y-952557D01*
G01X2028721Y-953855D01*
G01X2026619Y-956181D01*
G01X2027429Y-957164D01*
G01X2028239Y-958147D01*
G01X2033022Y-960271D01*
G01X2041667Y-961020D01*
G01X2044294Y-962166D01*
G01X2046922Y-963311D01*
G01X2044635Y-965311D01*
G01X2042348Y-967312D01*
G01X2033589Y-967312D01*
G01X2029770Y-967978D01*
G37*
G36*
G01X1640961Y-960666D02*
G01X1640131Y-961356D01*
G01X1639302Y-962046D01*
G01X1638391Y-961025D01*
G01X1637480Y-960004D01*
G01X1634274Y-953189D01*
G01X1632945Y-952317D01*
G01X1631615Y-951445D01*
G01X1624005Y-951106D01*
G01X1616395Y-950767D01*
G01X1615225Y-949519D01*
G01X1614054Y-948272D01*
G01X1615217Y-946357D01*
G01X1616380Y-944443D01*
G01X1619141Y-944904D01*
G01X1621902Y-945366D01*
G01X1629491Y-945177D01*
G01X1639710Y-944423D01*
G01X1643211Y-947928D01*
G01X1643211Y-956250D01*
G01X1642086Y-958458D01*
G01X1640961Y-960666D01*
G37*
G36*
G01X1996637Y-952111D02*
G01X1973298Y-952111D01*
G01X1969712Y-948311D01*
G01X1969332Y-943951D01*
G01X1968951Y-939592D01*
G01X1967154Y-932648D01*
G01X1965199Y-927909D01*
G01X1963244Y-923171D01*
G01X1961341Y-915571D01*
G01X1959579Y-911007D01*
G01X1957586Y-908676D01*
G01X1955593Y-906344D01*
G01X1954619Y-903357D01*
G01X1953644Y-900370D01*
G01X1952775Y-898616D01*
G01X1951906Y-896862D01*
G01X1949909Y-894394D01*
G01X1947913Y-891926D01*
G01X1946751Y-889295D01*
G01X1945589Y-886663D01*
G01X1943257Y-884747D01*
G01X1940925Y-882831D01*
G01X1938925Y-879582D01*
G01X1936924Y-876333D01*
G01X1933827Y-874673D01*
G01X1932122Y-872191D01*
G01X1930417Y-869710D01*
G01X1927895Y-867972D01*
G01X1925373Y-866235D01*
G01X1923438Y-863278D01*
G01X1920376Y-861299D01*
G01X1917314Y-859321D01*
G01X1915401Y-857189D01*
G01X1913489Y-855058D01*
G01X1909679Y-853328D01*
G01X1905868Y-851598D01*
G01X1900555Y-846914D01*
G01X1893961Y-844479D01*
G01X1887539Y-840599D01*
G01X1886192Y-839899D01*
G01X1884845Y-839198D01*
G01X1878949Y-838054D01*
G01X1873053Y-836909D01*
G01X1869495Y-835394D01*
G01X1865938Y-833879D01*
G01X1862808Y-832748D01*
G01X1859678Y-831617D01*
G01X1855680Y-832011D01*
G01X1851683Y-832406D01*
G01X1850723Y-833468D01*
G01X1849762Y-834531D01*
G01X1853176Y-841035D01*
G01X1856590Y-847540D01*
G01X1858176Y-849467D01*
G01X1859762Y-851394D01*
G01X1864894Y-853573D01*
G01X1870025Y-855752D01*
G01X1874111Y-858374D01*
G01X1879366Y-860259D01*
G01X1886005Y-862087D01*
G01X1890266Y-864988D01*
G01X1894526Y-867890D01*
G01X1896217Y-868262D01*
G01X1897907Y-868633D01*
G01X1904122Y-874857D01*
G01X1906163Y-875827D01*
G01X1908205Y-876797D01*
G01X1915589Y-884175D01*
G01X1922973Y-891554D01*
G01X1924770Y-894169D01*
G01X1926567Y-896785D01*
G01X1928544Y-898523D01*
G01X1930522Y-900262D01*
G01X1932266Y-904114D01*
G01X1934010Y-907966D01*
G01X1935404Y-909430D01*
G01X1936798Y-910894D01*
G01X1938289Y-914109D01*
G01X1939779Y-917325D01*
G01X1939778Y-918202D01*
G01X1939777Y-919079D01*
G01X1942994Y-925510D01*
G01X1946212Y-931941D01*
G01X1948030Y-947094D01*
G01X1947706Y-948385D01*
G01X1947382Y-949676D01*
G01X1945415Y-950893D01*
G01X1943448Y-952111D01*
G01X1919829Y-952111D01*
G01X1916450Y-949701D01*
G01X1915512Y-946375D01*
G01X1914574Y-943049D01*
G01X1912326Y-939249D01*
G01X1910079Y-935449D01*
G01X1908647Y-930908D01*
G01X1907215Y-926366D01*
G01X1905194Y-924126D01*
G01X1903173Y-921886D01*
G01X1901257Y-918286D01*
G01X1899340Y-914686D01*
G01X1897459Y-913521D01*
G01X1895577Y-912356D01*
G01X1894058Y-910058D01*
G01X1892539Y-907760D01*
G01X1890026Y-906028D01*
G01X1887512Y-904297D01*
G01X1885833Y-901154D01*
G01X1881852Y-898826D01*
G01X1877871Y-896498D01*
G01X1876447Y-894134D01*
G01X1874308Y-893028D01*
G01X1872170Y-891921D01*
G01X1864186Y-888921D01*
G01X1860100Y-886231D01*
G01X1857181Y-885266D01*
G01X1854261Y-884300D01*
G01X1848131Y-883430D01*
G01X1842001Y-882560D01*
G01X1821383Y-882539D01*
G01X1814177Y-883447D01*
G01X1806972Y-884356D01*
G01X1804053Y-885278D01*
G01X1801134Y-886201D01*
G01X1797923Y-888156D01*
G01X1794712Y-890112D01*
G01X1788112Y-892375D01*
G01X1786741Y-893100D01*
G01X1785371Y-893824D01*
G01X1782160Y-896288D01*
G01X1778949Y-898751D01*
G01X1774258Y-901309D01*
G01X1772970Y-903178D01*
G01X1771682Y-905047D01*
G01X1766464Y-908555D01*
G01X1763828Y-913232D01*
G01X1761389Y-915863D01*
G01X1758951Y-918494D01*
G01X1757110Y-922165D01*
G01X1755270Y-925837D01*
G01X1753328Y-928012D01*
G01X1751386Y-930187D01*
G01X1750764Y-931378D01*
G01X1750142Y-932568D01*
G01X1748320Y-942189D01*
G01X1747364Y-944080D01*
G01X1746409Y-945972D01*
G01X1744940Y-947936D01*
G01X1743471Y-949900D01*
G01X1738665Y-952085D01*
G01X1726798Y-952098D01*
G01X1714931Y-952111D01*
G01X1713168Y-950346D01*
G01X1711406Y-948581D01*
G01X1711802Y-944938D01*
G01X1712199Y-941295D01*
G01X1713080Y-937787D01*
G01X1713960Y-934279D01*
G01X1715906Y-930771D01*
G01X1717852Y-927264D01*
G01X1719798Y-919663D01*
G01X1720619Y-917696D01*
G01X1721439Y-915730D01*
G01X1724826Y-911866D01*
G01X1726063Y-908555D01*
G01X1727300Y-905244D01*
G01X1728233Y-903392D01*
G01X1729167Y-901539D01*
G01X1730930Y-900120D01*
G01X1732693Y-898700D01*
G01X1734314Y-896140D01*
G01X1735935Y-893581D01*
G01X1738468Y-890665D01*
G01X1741001Y-887750D01*
G01X1746255Y-882483D01*
G01X1749589Y-879295D01*
G01X1752922Y-876107D01*
G01X1754751Y-876107D01*
G01X1757479Y-873376D01*
G01X1760206Y-870645D01*
G01X1764903Y-868346D01*
G01X1769600Y-866048D01*
G01X1771737Y-864115D01*
G01X1773873Y-862181D01*
G01X1779024Y-860608D01*
G01X1784174Y-859035D01*
G01X1787984Y-857135D01*
G01X1791793Y-855235D01*
G01X1796039Y-853630D01*
G01X1800284Y-852025D01*
G01X1801836Y-849889D01*
G01X1803388Y-847752D01*
G01X1808863Y-842491D01*
G01X1809281Y-838517D01*
G01X1809698Y-834544D01*
G01X1808766Y-833118D01*
G01X1807833Y-831693D01*
G01X1806508Y-831360D01*
G01X1805183Y-831027D01*
G01X1800730Y-831948D01*
G01X1796277Y-832870D01*
G01X1792400Y-834630D01*
G01X1788523Y-836390D01*
G01X1776207Y-839305D01*
G01X1774367Y-840253D01*
G01X1772527Y-841202D01*
G01X1769024Y-843796D01*
G01X1764421Y-845630D01*
G01X1759819Y-847465D01*
G01X1757542Y-849525D01*
G01X1755266Y-851584D01*
G01X1749174Y-854282D01*
G01X1745668Y-857205D01*
G01X1742161Y-860127D01*
G01X1739538Y-861766D01*
G01X1736914Y-863404D01*
G01X1735312Y-865315D01*
G01X1733710Y-867226D01*
G01X1728522Y-870513D01*
G01X1725935Y-875123D01*
G01X1723251Y-878150D01*
G01X1720567Y-881176D01*
G01X1716544Y-886096D01*
G01X1712520Y-891016D01*
G01X1711159Y-894066D01*
G01X1709798Y-897116D01*
G01X1707685Y-899458D01*
G01X1705573Y-901800D01*
G01X1702066Y-912057D01*
G01X1700047Y-914812D01*
G01X1698028Y-917567D01*
G01X1696836Y-922707D01*
G01X1695645Y-927848D01*
G01X1693377Y-935449D01*
G01X1691109Y-943049D01*
G01X1690757Y-944803D01*
G01X1690405Y-946557D01*
G01X1689800Y-948159D01*
G01X1689195Y-949762D01*
G01X1687298Y-950936D01*
G01X1685400Y-952111D01*
G01X1661569Y-952111D01*
G01X1658682Y-950186D01*
G01X1657952Y-949283D01*
G01X1657223Y-948380D01*
G01X1657223Y-943240D01*
G01X1658131Y-935836D01*
G01X1659040Y-928433D01*
G01X1659601Y-925913D01*
G01X1660162Y-923393D01*
G01X1664123Y-915518D01*
G01X1665904Y-908285D01*
G01X1667685Y-901053D01*
G01X1669785Y-897646D01*
G01X1671885Y-894239D01*
G01X1673302Y-890067D01*
G01X1674719Y-885895D01*
G01X1679826Y-880427D01*
G01X1680572Y-878121D01*
G01X1681317Y-875815D01*
G01X1682478Y-873477D01*
G01X1683639Y-871138D01*
G01X1687338Y-868038D01*
G01X1688760Y-865270D01*
G01X1690181Y-862503D01*
G01X1692311Y-860789D01*
G01X1694441Y-859075D01*
G01X1696231Y-856337D01*
G01X1698021Y-853599D01*
G01X1699714Y-852488D01*
G01X1701406Y-851376D01*
G01X1703054Y-848768D01*
G01X1704701Y-846161D01*
G01X1709102Y-842968D01*
G01X1710616Y-841166D01*
G01X1712131Y-839364D01*
G01X1714607Y-837795D01*
G01X1717084Y-836226D01*
G01X1720250Y-831815D01*
G01X1723033Y-830505D01*
G01X1725816Y-829195D01*
G01X1729624Y-825152D01*
G01X1734433Y-822799D01*
G01X1739241Y-820446D01*
G01X1741353Y-818535D01*
G01X1743465Y-816624D01*
G01X1748091Y-815081D01*
G01X1752718Y-813539D01*
G01X1754741Y-811876D01*
G01X1756764Y-810213D01*
G01X1758529Y-809304D01*
G01X1760295Y-808396D01*
G01X1770456Y-805979D01*
G01X1774561Y-803909D01*
G01X1778665Y-801839D01*
G01X1785955Y-800199D01*
G01X1792377Y-799529D01*
G01X1798799Y-798858D01*
G01X1804851Y-797171D01*
G01X1806599Y-795698D01*
G01X1808347Y-794225D01*
G01X1809587Y-790494D01*
G01X1810827Y-786763D01*
G01X1812229Y-785249D01*
G01X1813630Y-783734D01*
G01X1845089Y-783734D01*
G01X1846871Y-785401D01*
G01X1848653Y-787069D01*
G01X1850075Y-790289D01*
G01X1851498Y-793509D01*
G01X1855429Y-796458D01*
G01X1859008Y-798269D01*
G01X1866560Y-799234D01*
G01X1874111Y-800199D01*
G01X1878380Y-801007D01*
G01X1882649Y-801816D01*
G01X1887456Y-804156D01*
G01X1892262Y-806496D01*
G01X1896085Y-807384D01*
G01X1899908Y-808272D01*
G01X1902080Y-809181D01*
G01X1904253Y-810090D01*
G01X1908857Y-813430D01*
G01X1916629Y-816546D01*
G01X1920766Y-819407D01*
G01X1924903Y-822269D01*
G01X1928277Y-823073D01*
G01X1931749Y-826497D01*
G01X1935222Y-829921D01*
G01X1936754Y-829921D01*
G01X1940604Y-833415D01*
G01X1944455Y-836909D01*
G01X1946840Y-838128D01*
G01X1949224Y-839346D01*
G01X1960006Y-850091D01*
G01X1963971Y-855937D01*
G01X1968819Y-861199D01*
G01X1970402Y-863738D01*
G01X1971984Y-866278D01*
G01X1974022Y-868069D01*
G01X1976059Y-869861D01*
G01X1977764Y-873625D01*
G01X1979468Y-877389D01*
G01X1981085Y-879238D01*
G01X1982702Y-881088D01*
G01X1983813Y-883713D01*
G01X1984924Y-886339D01*
G01X1987660Y-892185D01*
G01X1989397Y-894524D01*
G01X1991134Y-896862D01*
G01X1992681Y-902416D01*
G01X1994228Y-907970D01*
G01X1996528Y-912199D01*
G01X1998827Y-916427D01*
G01X1999998Y-924106D01*
G01X2001169Y-931786D01*
G01X2003894Y-941295D01*
G01X2004587Y-944701D01*
G01X2005280Y-948107D01*
G01X2004325Y-949163D01*
G01X2003371Y-950219D01*
G01X2000004Y-951165D01*
G01X1996637Y-952111D01*
G37*
G36*
G01X1643213Y-934475D02*
G01X1641246Y-935693D01*
G01X1639278Y-936910D01*
G01X1634969Y-936907D01*
G01X1630659Y-936903D01*
G01X1623708Y-935764D01*
G01X1622694Y-934729D01*
G01X1621679Y-933695D01*
G01X1621114Y-929894D01*
G01X1620550Y-926094D01*
G01X1620374Y-925625D01*
G01X1625754Y-925625D01*
G01X1626622Y-926865D01*
G01X1627490Y-928106D01*
G01X1629785Y-928795D01*
G01X1629785Y-928795D01*
G01X1632080Y-929483D01*
G01X1634655Y-928499D01*
G01X1637230Y-927514D01*
G01X1639386Y-925128D01*
G01X1637942Y-923984D01*
G01X1636497Y-922841D01*
G01X1634454Y-921716D01*
G01X1632410Y-920592D01*
G01X1631178Y-920540D01*
G01X1629246Y-921968D01*
G01X1627314Y-923395D01*
G01X1625754Y-925625D01*
G01X1620374Y-925625D01*
G01X1618801Y-921417D01*
G01X1618399Y-917480D01*
G01X1622892Y-913817D01*
G01X1639863Y-913817D01*
G01X1643180Y-915827D01*
G01X1643784Y-918494D01*
G01X1643935Y-921706D01*
G01X1644087Y-924919D01*
G01X1645838Y-925264D01*
G01X1647590Y-925610D01*
G01X1644087Y-926094D01*
G01X1643782Y-931941D01*
G01X1643213Y-934475D01*
G37*
G36*
G01X2026488Y-928073D02*
G01X2019727Y-931171D01*
G01X2018901Y-930854D01*
G01X2018075Y-930536D01*
G01X2016819Y-928069D01*
G01X2015562Y-925603D01*
G01X2016886Y-921178D01*
G01X2018325Y-919465D01*
G01X2019764Y-917752D01*
G01X2016686Y-915373D01*
G01X2013607Y-912995D01*
G01X2012270Y-911569D01*
G01X2010933Y-910144D01*
G01X2017147Y-907110D01*
G01X2020224Y-906530D01*
G01X2023301Y-905950D01*
G01X2026499Y-905019D01*
G01X2029698Y-904088D01*
G01X2031183Y-902601D01*
G01X2032446Y-901924D01*
G01X2033709Y-901247D01*
G01X2034810Y-901247D01*
G01X2035506Y-902087D01*
G01X2036202Y-902927D01*
G01X2035206Y-906483D01*
G01X2034209Y-910040D01*
G01X2035148Y-911078D01*
G01X2036086Y-912116D01*
G01X2039495Y-914037D01*
G01X2042904Y-915957D01*
G01X2043572Y-917027D01*
G01X2044239Y-918097D01*
G01X2042849Y-919465D01*
G01X2041459Y-920833D01*
G01X2036601Y-922830D01*
G01X2031742Y-924828D01*
G01X2026488Y-928073D01*
G37*
G36*
G01X1649071Y-906386D02*
G01X1647308Y-908823D01*
G01X1645782Y-908241D01*
G01X1644256Y-907660D01*
G01X1638625Y-906771D01*
G01X1632994Y-905881D01*
G01X1630075Y-903760D01*
G01X1629718Y-898284D01*
G01X1630539Y-896636D01*
G01X1631360Y-894988D01*
G01X1629316Y-893710D01*
G01X1628830Y-887508D01*
G01X1631554Y-881954D01*
G01X1631924Y-881954D01*
G01X1632511Y-882542D01*
G01X1638883Y-883408D01*
G01X1645254Y-884274D01*
G01X1646714Y-884660D01*
G01X1648173Y-885046D01*
G01X1649511Y-886088D01*
G01X1649882Y-888070D01*
G01X1650253Y-890051D01*
G01X1651754Y-891411D01*
G01X1653254Y-892770D01*
G01X1654425Y-893855D01*
G01X1655595Y-894940D01*
G01X1653807Y-896576D01*
G01X1652019Y-898212D01*
G01X1651702Y-899730D01*
G01X1651384Y-901247D01*
G01X1651109Y-902598D01*
G01X1650834Y-903949D01*
G01X1649071Y-906386D01*
G37*
G36*
G01X1663079Y-879796D02*
G01X1661226Y-881846D01*
G01X1655399Y-884356D01*
G01X1652954Y-884178D01*
G01X1650509Y-884000D01*
G01X1650330Y-881852D01*
G01X1650152Y-879704D01*
G01X1649243Y-878929D01*
G01X1648335Y-878154D01*
G01X1643342Y-876107D01*
G01X1638349Y-874061D01*
G01X1637715Y-873032D01*
G01X1637081Y-872002D01*
G01X1638249Y-869816D01*
G01X1639416Y-867630D01*
G01X1647978Y-867046D01*
G01X1648783Y-865942D01*
G01X1649588Y-864838D01*
G01X1648426Y-862665D01*
G01X1646175Y-861514D01*
G01X1643924Y-860364D01*
G01X1643315Y-858615D01*
G01X1642706Y-856866D01*
G01X1644730Y-855086D01*
G01X1646755Y-853306D01*
G01X1647464Y-853319D01*
G01X1648173Y-853332D01*
G01X1650509Y-854416D01*
G01X1652844Y-855500D01*
G01X1653567Y-856723D01*
G01X1654291Y-857947D01*
G01X1656194Y-858956D01*
G01X1658098Y-859964D01*
G01X1661531Y-861168D01*
G01X1664964Y-862372D01*
G01X1665797Y-863628D01*
G01X1666630Y-864884D01*
G01X1664818Y-866950D01*
G01X1663006Y-869016D01*
G01X1660261Y-869952D01*
G01X1657515Y-870888D01*
G01X1656141Y-871650D01*
G01X1654768Y-872412D01*
G01X1657739Y-874596D01*
G01X1660710Y-876780D01*
G01X1663079Y-879796D01*
G37*
G36*
G01X2011601Y-872440D02*
G01X2008171Y-873981D01*
G01X2004741Y-875523D01*
G01X1996041Y-875523D01*
G01X1994626Y-874020D01*
G01X1993210Y-872517D01*
G01X1992601Y-868612D01*
G01X1991991Y-864707D01*
G01X1992731Y-862486D01*
G01X1993470Y-860265D01*
G01X1995384Y-857517D01*
G01X1997297Y-854768D01*
G01X1999048Y-853361D01*
G01X2001676Y-852992D01*
G01X2004303Y-852624D01*
G01X2006453Y-852025D01*
G01X2007277Y-850049D01*
G01X2008102Y-848073D01*
G01X2009716Y-847237D01*
G01X2011331Y-846401D01*
G01X2012925Y-847564D01*
G01X2014520Y-848727D01*
G01X2014520Y-851149D01*
G01X2009557Y-855858D01*
G01X2008972Y-857881D01*
G01X2008388Y-859904D01*
G01X2007513Y-860374D01*
G01X2006638Y-860844D01*
G01X2002194Y-861557D01*
G01X1999924Y-863830D01*
G01X1999924Y-865089D01*
G01X2001704Y-866871D01*
G01X2003483Y-868654D01*
G01X2005813Y-868341D01*
G01X2008143Y-868028D01*
G01X2009774Y-866672D01*
G01X2010534Y-863206D01*
G01X2011837Y-862351D01*
G01X2013141Y-861496D01*
G01X2016019Y-860926D01*
G01X2018898Y-860356D01*
G01X2020805Y-862494D01*
G01X2022712Y-864632D01*
G01X2018961Y-868507D01*
G01X2014196Y-868507D01*
G01X2011601Y-870327D01*
G01X2011601Y-872440D01*
G37*
G36*
G01X1675613Y-856230D02*
G01X1672575Y-857387D01*
G01X1669536Y-858543D01*
G01X1668824Y-857388D01*
G01X1669222Y-856078D01*
G01X1669621Y-854768D01*
G01X1671526Y-852595D01*
G01X1671394Y-847471D01*
G01X1671262Y-842347D01*
G01X1670720Y-840920D01*
G01X1670178Y-839493D01*
G01X1666766Y-839920D01*
G01X1663353Y-840346D01*
G01X1660853Y-840444D01*
G01X1658027Y-842783D01*
G01X1655201Y-845121D01*
G01X1654331Y-845121D01*
G01X1653372Y-843656D01*
G01X1652413Y-842191D01*
G01X1653109Y-840509D01*
G01X1653805Y-838827D01*
G01X1655222Y-837593D01*
G01X1656639Y-836360D01*
G01X1656639Y-834195D01*
G01X1658682Y-832400D01*
G01X1662185Y-830670D01*
G01X1665565Y-831456D01*
G01X1668945Y-832243D01*
G01X1670139Y-832883D01*
G01X1671333Y-833523D01*
G01X1672165Y-835516D01*
G01X1672996Y-837509D01*
G01X1675447Y-837901D01*
G01X1677897Y-838294D01*
G01X1680575Y-840976D01*
G01X1680575Y-850517D01*
G01X1679023Y-853374D01*
G01X1677471Y-856230D01*
G01X1676542Y-856230D01*
G01X1675613Y-856230D01*
G37*
G36*
G01X1992043Y-853146D02*
G01X1988417Y-853828D01*
G01X1987141Y-852932D01*
G01X1985864Y-852037D01*
G01X1982964Y-847437D01*
G01X1973230Y-842933D01*
G01X1972839Y-842300D01*
G01X1972448Y-841666D01*
G01X1975121Y-838031D01*
G01X1977794Y-834395D01*
G01X1977447Y-831967D01*
G01X1973369Y-831516D01*
G01X1969290Y-831065D01*
G01X1968625Y-830347D01*
G01X1967959Y-829628D01*
G01X1967569Y-827963D01*
G01X1967179Y-826297D01*
G01X1970176Y-823484D01*
G01X1973173Y-820671D01*
G01X1975404Y-818813D01*
G01X1975404Y-816093D01*
G01X1978031Y-813700D01*
G01X1981423Y-813094D01*
G01X1982753Y-814426D01*
G01X1984084Y-815759D01*
G01X1984892Y-820071D01*
G01X1984241Y-821502D01*
G01X1983590Y-822932D01*
G01X1980156Y-823620D01*
G01X1978908Y-824950D01*
G01X1977661Y-826280D01*
G01X1977846Y-828500D01*
G01X1978031Y-830720D01*
G01X1979765Y-831181D01*
G01X1981499Y-831642D01*
G01X1984727Y-828298D01*
G01X1987956Y-824953D01*
G01X1992484Y-824744D01*
G01X1997013Y-824535D01*
G01X1998785Y-829044D01*
G01X1999740Y-830798D01*
G01X2001438Y-831559D01*
G01X2003135Y-832320D01*
G01X2003972Y-832767D01*
G01X2004809Y-833215D01*
G01X2005364Y-834096D01*
G01X2005919Y-834978D01*
G01X2004263Y-838734D01*
G01X2002607Y-842491D01*
G01X2001703Y-843814D01*
G01X2000800Y-845138D01*
G01X1997443Y-847218D01*
G01X1994086Y-849299D01*
G01X1994086Y-851371D01*
G01X1993064Y-852259D01*
G01X1992043Y-853146D01*
G37*
G36*
G01X1695062Y-835811D02*
G01X1693672Y-836723D01*
G01X1692282Y-837636D01*
G01X1690192Y-836342D01*
G01X1688102Y-835048D01*
G01X1687246Y-832906D01*
G01X1686390Y-830765D01*
G01X1683051Y-828765D01*
G01X1679712Y-826765D01*
G01X1672475Y-820023D01*
G01X1670893Y-819625D01*
G01X1669312Y-819227D01*
G01X1670805Y-818444D01*
G01X1672299Y-817660D01*
G01X1673267Y-814875D01*
G01X1674235Y-812089D01*
G01X1674945Y-810628D01*
G01X1675654Y-809166D01*
G01X1679726Y-807822D01*
G01X1683010Y-807411D01*
G01X1686294Y-807000D01*
G01X1688630Y-809339D01*
G01X1689029Y-811158D01*
G01X1689428Y-812977D01*
G01X1692276Y-815382D01*
G01X1695125Y-817788D01*
G01X1696074Y-820650D01*
G01X1697024Y-823512D01*
G01X1698870Y-824459D01*
G01X1700717Y-825407D01*
G01X1701526Y-826666D01*
G01X1700872Y-827455D01*
G01X1700218Y-828244D01*
G01X1697024Y-829898D01*
G01X1695062Y-835811D01*
G37*
G36*
G01X1959195Y-821662D02*
G01X1958091Y-822253D01*
G01X1955071Y-820852D01*
G01X1952051Y-819451D01*
G01X1952052Y-818986D01*
G01X1952053Y-818520D01*
G01X1952911Y-813843D01*
G01X1953769Y-809166D01*
G01X1954908Y-804878D01*
G01X1956047Y-800589D01*
G01X1957059Y-799470D01*
G01X1958070Y-798350D01*
G01X1960152Y-798350D01*
G01X1962018Y-796644D01*
G01X1963883Y-794938D01*
G01X1964981Y-794651D01*
G01X1966078Y-794363D01*
G01X1967350Y-796744D01*
G01X1966719Y-798132D01*
G01X1966088Y-799519D01*
G01X1964352Y-799519D01*
G01X1963748Y-800650D01*
G01X1963144Y-801781D01*
G01X1963144Y-803829D01*
G01X1965640Y-806490D01*
G01X1967681Y-805396D01*
G01X1968851Y-803411D01*
G01X1970021Y-801425D01*
G01X1973648Y-800892D01*
G01X1975426Y-802398D01*
G01X1977204Y-803904D01*
G01X1976821Y-805772D01*
G01X1976438Y-807640D01*
G01X1975483Y-808522D01*
G01X1974528Y-809404D01*
G01X1973445Y-810539D01*
G01X1972361Y-811673D01*
G01X1970716Y-813489D01*
G01X1969072Y-815305D01*
G01X1965848Y-815305D01*
G01X1963073Y-818188D01*
G01X1960299Y-821070D01*
G01X1959195Y-821662D01*
G37*
G36*
G01X1708715Y-815889D02*
G01X1707316Y-815889D01*
G01X1705689Y-814145D01*
G01X1704062Y-812401D01*
G01X1703688Y-810404D01*
G01X1703313Y-808407D01*
G01X1702599Y-807820D01*
G01X1701885Y-807234D01*
G01X1699268Y-806533D01*
G01X1696651Y-805832D01*
G01X1694490Y-804966D01*
G01X1692329Y-804101D01*
G01X1690500Y-798727D01*
G01X1690500Y-795527D01*
G01X1693273Y-793813D01*
G01X1696047Y-792099D01*
G01X1698156Y-789916D01*
G01X1700266Y-787732D01*
G01X1702698Y-790828D01*
G01X1703682Y-795320D01*
G01X1704666Y-799812D01*
G01X1705447Y-801273D01*
G01X1706227Y-802735D01*
G01X1709592Y-805970D01*
G01X1711183Y-808898D01*
G01X1712774Y-811825D01*
G01X1708715Y-815889D01*
G37*
G36*
G01X1942418Y-807584D02*
G01X1934828Y-808372D01*
G01X1931034Y-806430D01*
G01X1927239Y-804489D01*
G01X1927069Y-803566D01*
G01X1926900Y-802643D01*
G01X1928057Y-799596D01*
G01X1932148Y-799192D01*
G01X1936239Y-798789D01*
G01X1937232Y-797690D01*
G01X1938225Y-796592D01*
G01X1937574Y-795160D01*
G01X1936922Y-793729D01*
G01X1935228Y-792852D01*
G01X1933533Y-791974D01*
G01X1932798Y-790196D01*
G01X1932062Y-788418D01*
G01X1933042Y-786922D01*
G01X1934021Y-785425D01*
G01X1935008Y-785077D01*
G01X1935996Y-784729D01*
G01X1938623Y-782361D01*
G01X1938623Y-780932D01*
G01X1942751Y-777303D01*
G01X1943691Y-777303D01*
G01X1947141Y-779046D01*
G01X1950592Y-780788D01*
G01X1951874Y-782790D01*
G01X1953157Y-784792D01*
G01X1954813Y-788762D01*
G01X1954162Y-790759D01*
G01X1953511Y-792756D01*
G01X1951514Y-794100D01*
G01X1949517Y-795444D01*
G01X1948574Y-797043D01*
G01X1947631Y-798642D01*
G01X1944314Y-806573D01*
G01X1943366Y-807079D01*
G01X1942418Y-807584D01*
G37*
G36*
G01X1921297Y-796062D02*
G01X1920027Y-796527D01*
G01X1917133Y-792728D01*
G01X1915837Y-789966D01*
G01X1914541Y-787205D01*
G01X1913424Y-786606D01*
G01X1912307Y-786008D01*
G01X1911146Y-786377D01*
G01X1909985Y-786746D01*
G01X1909038Y-788193D01*
G01X1908091Y-789640D01*
G01X1904924Y-791280D01*
G01X1903675Y-790115D01*
G01X1902426Y-788950D01*
G01X1902426Y-787062D01*
G01X1904716Y-784945D01*
G01X1907006Y-782828D01*
G01X1908500Y-775595D01*
G01X1909994Y-768362D01*
G01X1910911Y-766960D01*
G01X1911829Y-765558D01*
G01X1913150Y-765055D01*
G01X1914471Y-764552D01*
G01X1917644Y-764178D01*
G01X1920817Y-763804D01*
G01X1924903Y-766132D01*
G01X1926743Y-767024D01*
G01X1928583Y-767916D01*
G01X1929900Y-770051D01*
G01X1931217Y-772185D01*
G01X1931144Y-774147D01*
G01X1931070Y-776109D01*
G01X1929927Y-778353D01*
G01X1928784Y-780597D01*
G01X1927772Y-781435D01*
G01X1926761Y-782273D01*
G01X1924039Y-788119D01*
G01X1924011Y-792796D01*
G01X1923289Y-794197D01*
G01X1922568Y-795597D01*
G01X1921297Y-796062D01*
G37*
G36*
G01X1757793Y-781770D02*
G01X1756431Y-784319D01*
G01X1753592Y-786182D01*
G01X1748969Y-784640D01*
G01X1744346Y-783098D01*
G01X1743408Y-782060D01*
G01X1742470Y-781022D01*
G01X1741881Y-777913D01*
G01X1741293Y-774805D01*
G01X1741293Y-774421D01*
G01X1739625Y-772500D01*
G01X1737957Y-770580D01*
G01X1736507Y-766122D01*
G01X1737468Y-765058D01*
G01X1738429Y-763995D01*
G01X1741797Y-763049D01*
G01X1745164Y-762102D01*
G01X1746255Y-762108D01*
G01X1748386Y-763421D01*
G01X1750517Y-764733D01*
G01X1755709Y-770580D01*
G01X1756387Y-771866D01*
G01X1757066Y-773152D01*
G01X1757429Y-777461D01*
G01X1757793Y-781770D01*
G37*
G36*
G01X1782160Y-779785D02*
G01X1782160Y-781379D01*
G01X1777503Y-784465D01*
G01X1774588Y-784465D01*
G01X1771382Y-782894D01*
G01X1768176Y-781323D01*
G01X1767061Y-779752D01*
G01X1765945Y-778180D01*
G01X1765225Y-775770D01*
G01X1764505Y-773361D01*
G01X1765240Y-771093D01*
G01X1765975Y-768826D01*
G01X1767003Y-767356D01*
G01X1768032Y-765886D01*
G01X1767790Y-765587D01*
G01X1768636Y-765587D01*
G01X1769786Y-767206D01*
G01X1770935Y-768826D01*
G01X1771667Y-771457D01*
G01X1771667Y-771457D01*
G01X1772399Y-774088D01*
G01X1775219Y-776718D01*
G01X1777542Y-776718D01*
G01X1780397Y-773860D01*
G01X1780073Y-770173D01*
G01X1779750Y-766487D01*
G01X1779478Y-765146D01*
G01X1779206Y-763806D01*
G01X1777910Y-763298D01*
G01X1776614Y-762790D01*
G01X1773694Y-763413D01*
G01X1771165Y-764500D01*
G01X1768636Y-765587D01*
G01X1767790Y-765587D01*
G01X1765828Y-763161D01*
G01X1765215Y-760880D01*
G01X1764602Y-758599D01*
G01X1765854Y-756256D01*
G01X1768440Y-754633D01*
G01X1776588Y-754031D01*
G01X1781600Y-759472D01*
G01X1783047Y-761011D01*
G01X1784494Y-762551D01*
G01X1785367Y-764227D01*
G01X1786239Y-765903D01*
G01X1786221Y-773503D01*
G01X1785159Y-775841D01*
G01X1784096Y-778180D01*
G01X1783128Y-778982D01*
G01X1782160Y-779785D01*
G37*
G36*
G01X1894395Y-781797D02*
G01X1892256Y-783121D01*
G01X1890116Y-784445D01*
G01X1887426Y-783767D01*
G01X1884736Y-783088D01*
G01X1883066Y-782224D01*
G01X1881397Y-781359D01*
G01X1879222Y-778079D01*
G01X1877047Y-774799D01*
G01X1876447Y-768826D01*
G01X1875194Y-768647D01*
G01X1873941Y-768468D01*
G01X1873011Y-767439D01*
G01X1872081Y-766409D01*
G01X1871527Y-758587D01*
G01X1870973Y-750765D01*
G01X1871266Y-750291D01*
G01X1871558Y-749817D01*
G01X1873195Y-748969D01*
G01X1874831Y-748122D01*
G01X1876046Y-749417D01*
G01X1877261Y-750712D01*
G01X1877437Y-755676D01*
G01X1877614Y-760641D01*
G01X1876602Y-768533D01*
G01X1882512Y-768533D01*
G01X1884020Y-767218D01*
G01X1885528Y-765903D01*
G01X1886260Y-757890D01*
G01X1889279Y-755087D01*
G01X1892204Y-755079D01*
G01X1895129Y-755071D01*
G01X1897464Y-754472D01*
G01X1899212Y-755891D01*
G01X1900961Y-757310D01*
G01X1901262Y-761858D01*
G01X1901563Y-766407D01*
G01X1898366Y-771456D01*
G01X1896107Y-772361D01*
G01X1893848Y-773266D01*
G01X1894121Y-777531D01*
G01X1894395Y-781797D01*
G37*
G36*
G01X1853804Y-776181D02*
G01X1852611Y-776821D01*
G01X1851418Y-777460D01*
G01X1849878Y-775734D01*
G01X1848338Y-774009D01*
G01X1848769Y-770540D01*
G01X1849200Y-767072D01*
G01X1849250Y-762175D01*
G01X1849299Y-757279D01*
G01X1847756Y-753836D01*
G01X1846213Y-750394D01*
G01X1848421Y-747951D01*
G01X1851576Y-746317D01*
G01X1852919Y-746399D01*
G01X1854261Y-746482D01*
G01X1857181Y-746860D01*
G01X1860100Y-747238D01*
G01X1861274Y-747893D01*
G01X1862448Y-748547D01*
G01X1864526Y-750847D01*
G01X1862969Y-752700D01*
G01X1861412Y-754553D01*
G01X1859257Y-755654D01*
G01X1857102Y-756755D01*
G01X1855787Y-758342D01*
G01X1855228Y-761830D01*
G01X1854670Y-765318D01*
G01X1855102Y-769410D01*
G01X1855535Y-773503D01*
G01X1853804Y-776181D01*
G37*
G36*
G01X1829949Y-773684D02*
G01X1829451Y-775035D01*
G01X1828356Y-774357D01*
G01X1827380Y-769838D01*
G01X1826405Y-765318D01*
G01X1824402Y-761079D01*
G01X1822399Y-756841D01*
G01X1821250Y-756841D01*
G01X1817773Y-751350D01*
G01X1817773Y-749949D01*
G01X1819467Y-748133D01*
G01X1821160Y-746317D01*
G01X1821948Y-746331D01*
G01X1822735Y-746345D01*
G01X1829157Y-748952D01*
G01X1832952Y-748573D01*
G01X1836747Y-748194D01*
G01X1838722Y-749398D01*
G01X1840698Y-750602D01*
G01X1837973Y-751988D01*
G01X1835248Y-753375D01*
G01X1834434Y-755254D01*
G01X1833619Y-757133D01*
G01X1832033Y-764733D01*
G01X1830447Y-772334D01*
G01X1829949Y-773684D01*
G37*
G36*
G01X1868186Y-774290D02*
G01X1866930Y-774943D01*
G01X1866620Y-774133D01*
G01X1866310Y-773323D01*
G01X1866630Y-772098D01*
G01X1866950Y-770872D01*
G01X1867800Y-770872D01*
G01X1868860Y-772045D01*
G01X1869920Y-773218D01*
G01X1869680Y-773427D01*
G01X1869441Y-773637D01*
G01X1868186Y-774290D01*
G37*
G36*
G01X1328825Y-1028054D02*
G01X1320766Y-1028425D01*
G01X1312707Y-1028796D01*
G01X1310797Y-1026768D01*
G01X1308887Y-1024739D01*
G01X1310143Y-1016590D01*
G01X1311877Y-1014508D01*
G01X1314141Y-1013077D01*
G01X1316406Y-1011645D01*
G01X1318863Y-1009377D01*
G01X1321321Y-1007109D01*
G01X1331160Y-1002575D01*
G01X1332833Y-1000551D01*
G01X1334933Y-999478D01*
G01X1337033Y-998405D01*
G01X1340473Y-997404D01*
G01X1343913Y-996402D01*
G01X1346635Y-993853D01*
G01X1349357Y-991303D01*
G01X1351557Y-990382D01*
G01X1353758Y-989462D01*
G01X1356471Y-986961D01*
G01X1359183Y-984460D01*
G01X1362061Y-982509D01*
G01X1364940Y-980557D01*
G01X1370235Y-975658D01*
G01X1375530Y-970758D01*
G01X1377486Y-967448D01*
G01X1379441Y-964138D01*
G01X1382061Y-961220D01*
G01X1384681Y-958302D01*
G01X1387383Y-952988D01*
G01X1390555Y-950065D01*
G01X1392561Y-945684D01*
G01X1394567Y-941303D01*
G01X1395799Y-939990D01*
G01X1397032Y-938676D01*
G01X1400293Y-937440D01*
G01X1403554Y-936204D01*
G01X1411695Y-935156D01*
G01X1413867Y-932981D01*
G01X1411760Y-928790D01*
G01X1409652Y-924599D01*
G01X1408270Y-919500D01*
G01X1406888Y-914402D01*
G01X1406307Y-912940D01*
G01X1405727Y-911478D01*
G01X1403630Y-908367D01*
G01X1401533Y-905255D01*
G01X1400905Y-902813D01*
G01X1400278Y-900370D01*
G01X1399364Y-897523D01*
G01X1398451Y-894675D01*
G01X1389417Y-885629D01*
G01X1385101Y-885209D01*
G01X1380785Y-884789D01*
G01X1373914Y-883425D01*
G01X1367043Y-882061D01*
G01X1364281Y-880306D01*
G01X1361519Y-878551D01*
G01X1359284Y-877632D01*
G01X1357049Y-876714D01*
G01X1352950Y-872756D01*
G01X1348852Y-868799D01*
G01X1348033Y-867221D01*
G01X1347215Y-865642D01*
G01X1347215Y-856724D01*
G01X1350483Y-853452D01*
G01X1354833Y-852716D01*
G01X1359183Y-851980D01*
G01X1370998Y-852274D01*
G01X1382812Y-852568D01*
G01X1388790Y-849795D01*
G01X1388350Y-848774D01*
G01X1387910Y-847752D01*
G01X1385760Y-839567D01*
G01X1383419Y-822613D01*
G01X1382198Y-815889D01*
G01X1380976Y-809166D01*
G01X1381239Y-802443D01*
G01X1381502Y-795719D01*
G01X1384288Y-787534D01*
G01X1387921Y-783900D01*
G01X1391556Y-780265D01*
G01X1396209Y-777888D01*
G01X1396670Y-777911D01*
G01X1397132Y-777935D01*
G01X1398846Y-778864D01*
G01X1400560Y-779793D01*
G01X1407924Y-785588D01*
G01X1409027Y-787146D01*
G01X1410130Y-788704D01*
G01X1410802Y-791959D01*
G01X1411474Y-795215D01*
G01X1412902Y-799267D01*
G01X1414330Y-803320D01*
G01X1414344Y-817936D01*
G01X1415559Y-832552D01*
G01X1416797Y-846583D01*
G01X1417273Y-848813D01*
G01X1417750Y-851042D01*
G01X1419318Y-853308D01*
G01X1420886Y-855574D01*
G01X1422536Y-860345D01*
G01X1424185Y-865116D01*
G01X1425402Y-866413D01*
G01X1426619Y-867710D01*
G01X1429818Y-868720D01*
G01X1433017Y-869730D01*
G01X1435609Y-871711D01*
G01X1438200Y-873692D01*
G01X1439851Y-874528D01*
G01X1441502Y-875364D01*
G01X1447924Y-877401D01*
G01X1451782Y-879695D01*
G01X1455640Y-881988D01*
G01X1460831Y-883267D01*
G01X1466022Y-884546D01*
G01X1468649Y-887265D01*
G01X1471276Y-889985D01*
G01X1473784Y-891257D01*
G01X1476292Y-892528D01*
G01X1478692Y-894695D01*
G01X1481093Y-896862D01*
G01X1482419Y-899723D01*
G01X1483746Y-902584D01*
G01X1482864Y-903931D01*
G01X1481983Y-905278D01*
G01X1479256Y-907031D01*
G01X1476529Y-908783D01*
G01X1474389Y-912411D01*
G01X1469330Y-914757D01*
G01X1464271Y-917103D01*
G01X1460708Y-917538D01*
G01X1457144Y-917972D01*
G01X1455848Y-917110D01*
G01X1454551Y-916247D01*
G01X1448179Y-914122D01*
G01X1441807Y-911997D01*
G01X1440136Y-913525D01*
G01X1438465Y-915053D01*
G01X1437503Y-916523D01*
G01X1436541Y-917993D01*
G01X1437094Y-922336D01*
G01X1437647Y-926679D01*
G01X1439307Y-933780D01*
G01X1440051Y-935199D01*
G01X1440796Y-936618D01*
G01X1444107Y-941295D01*
G01X1447030Y-949924D01*
G01X1452230Y-955491D01*
G01X1453529Y-959775D01*
G01X1454829Y-964058D01*
G01X1457392Y-966802D01*
G01X1459955Y-969546D01*
G01X1461446Y-974421D01*
G01X1462937Y-979297D01*
G01X1464820Y-981928D01*
G01X1466703Y-984558D01*
G01X1470100Y-992743D01*
G01X1479113Y-1001805D01*
G01X1488126Y-1010867D01*
G01X1498036Y-1016129D01*
G01X1499174Y-1018175D01*
G01X1500313Y-1020222D01*
G01X1502067Y-1022223D01*
G01X1503821Y-1024225D01*
G01X1502846Y-1024940D01*
G01X1501870Y-1025654D01*
G01X1494629Y-1026965D01*
G01X1491237Y-1026147D01*
G01X1487844Y-1025328D01*
G01X1486566Y-1024156D01*
G01X1485288Y-1022984D01*
G01X1480618Y-1020672D01*
G01X1478562Y-1020007D01*
G01X1476507Y-1019343D01*
G01X1473644Y-1016973D01*
G01X1470780Y-1014604D01*
G01X1467233Y-1012530D01*
G01X1463687Y-1010457D01*
G01X1462038Y-1008469D01*
G01X1460390Y-1006481D01*
G01X1457872Y-1005004D01*
G01X1455355Y-1003527D01*
G01X1453824Y-1001209D01*
G01X1452292Y-998892D01*
G01X1449962Y-997348D01*
G01X1447631Y-995803D01*
G01X1446482Y-993942D01*
G01X1445334Y-992081D01*
G01X1442386Y-989592D01*
G01X1439438Y-987102D01*
G01X1438564Y-985007D01*
G01X1437690Y-982912D01*
G01X1431458Y-974620D01*
G01X1430133Y-971251D01*
G01X1428808Y-967882D01*
G01X1426841Y-965404D01*
G01X1424874Y-962927D01*
G01X1421903Y-954030D01*
G01X1419160Y-951450D01*
G01X1415444Y-952119D01*
G01X1411727Y-952788D01*
G01X1410362Y-954057D01*
G01X1408998Y-955326D01*
G01X1408245Y-957126D01*
G01X1407492Y-958926D01*
G01X1404841Y-961914D01*
G01X1402191Y-964902D01*
G01X1400089Y-968495D01*
G01X1397986Y-972087D01*
G01X1395974Y-973987D01*
G01X1393962Y-975888D01*
G01X1391544Y-981536D01*
G01X1389583Y-983388D01*
G01X1387621Y-985241D01*
G01X1386471Y-987531D01*
G01X1385321Y-989820D01*
G01X1384604Y-992040D01*
G01X1383887Y-994259D01*
G01X1379152Y-999738D01*
G01X1377507Y-1003680D01*
G01X1374986Y-1006397D01*
G01X1372464Y-1009113D01*
G01X1369593Y-1012713D01*
G01X1366722Y-1016312D01*
G01X1364152Y-1018462D01*
G01X1361582Y-1020612D01*
G01X1355097Y-1024064D01*
G01X1353345Y-1025174D01*
G01X1351594Y-1026284D01*
G01X1340209Y-1027169D01*
G01X1328825Y-1028054D01*
G37*
G36*
G01X1132103Y-1035715D02*
G01X1107688Y-1035715D01*
G01X1094130Y-1034492D01*
G01X1089489Y-1033932D01*
G01X1084848Y-1033372D01*
G01X1083359Y-1031983D01*
G01X1081869Y-1030594D01*
G01X1079451Y-1029094D01*
G01X1077032Y-1027594D01*
G01X1074762Y-1024314D01*
G01X1076096Y-1017298D01*
G01X1077484Y-1014757D01*
G01X1080553Y-1013264D01*
G01X1083621Y-1011772D01*
G01X1088738Y-1010297D01*
G01X1093855Y-1008821D01*
G01X1101290Y-1008802D01*
G01X1108725Y-1008783D01*
G01X1115147Y-1006521D01*
G01X1121470Y-1006502D01*
G01X1127792Y-1006483D01*
G01X1133438Y-1005832D01*
G01X1139084Y-1005182D01*
G01X1140951Y-1004049D01*
G01X1142818Y-1002917D01*
G01X1143122Y-1001923D01*
G01X1143426Y-1000928D01*
G01X1142323Y-996251D01*
G01X1142269Y-962927D01*
G01X1141200Y-960588D01*
G01X1140130Y-958250D01*
G01X1137213Y-955531D01*
G01X1134296Y-952813D01*
G01X1127819Y-949744D01*
G01X1126716Y-948311D01*
G01X1124945Y-944454D01*
G01X1123174Y-940597D01*
G01X1126946Y-932441D01*
G01X1129652Y-931168D01*
G01X1132357Y-929894D01*
G01X1133362Y-929894D01*
G01X1135785Y-928137D01*
G01X1138208Y-926379D01*
G01X1138213Y-922144D01*
G01X1138218Y-917909D01*
G01X1136718Y-911186D01*
G01X1135218Y-904463D01*
G01X1134638Y-902241D01*
G01X1134057Y-900019D01*
G01X1131316Y-896900D01*
G01X1128575Y-893780D01*
G01X1125840Y-890583D01*
G01X1123104Y-887385D01*
G01X1122140Y-883659D01*
G01X1121176Y-879933D01*
G01X1122921Y-878459D01*
G01X1124665Y-876984D01*
G01X1126620Y-875582D01*
G01X1128575Y-874179D01*
G01X1131202Y-871023D01*
G01X1133829Y-867867D01*
G01X1135144Y-865284D01*
G01X1136459Y-862701D01*
G01X1137612Y-862083D01*
G01X1138765Y-861465D01*
G01X1142719Y-862079D01*
G01X1146673Y-862693D01*
G01X1148717Y-865129D01*
G01X1148714Y-867841D01*
G01X1148711Y-870553D01*
G01X1149728Y-875465D01*
G01X1150744Y-880376D01*
G01X1154401Y-884075D01*
G01X1158058Y-887773D01*
G01X1158058Y-888835D01*
G01X1159572Y-889829D01*
G01X1161087Y-890823D01*
G01X1162464Y-890477D01*
G01X1163841Y-890131D01*
G01X1165306Y-888819D01*
G01X1166771Y-887508D01*
G01X1165574Y-882557D01*
G01X1164378Y-877605D01*
G01X1163491Y-875889D01*
G01X1162605Y-874173D01*
G01X1160934Y-871863D01*
G01X1159263Y-869553D01*
G01X1158067Y-866352D01*
G01X1156871Y-863150D01*
G01X1155919Y-861298D01*
G01X1154967Y-859445D01*
G01X1152987Y-857121D01*
G01X1151006Y-854797D01*
G01X1149009Y-849050D01*
G01X1146435Y-846939D01*
G01X1143862Y-844829D01*
G01X1142003Y-842935D01*
G01X1140428Y-841191D01*
G01X1138854Y-839446D01*
G01X1133131Y-837866D01*
G01X1127407Y-836286D01*
G01X1119818Y-832864D01*
G01X1115093Y-831396D01*
G01X1110368Y-829928D01*
G01X1108434Y-828609D01*
G01X1106501Y-827290D01*
G01X1101527Y-819061D01*
G01X1102490Y-815032D01*
G01X1103453Y-811002D01*
G01X1107249Y-807310D01*
G01X1109739Y-806580D01*
G01X1112228Y-805851D01*
G01X1114159Y-804731D01*
G01X1116090Y-803612D01*
G01X1123871Y-803612D01*
G01X1127268Y-800250D01*
G01X1130665Y-796889D01*
G01X1132121Y-792115D01*
G01X1133578Y-787342D01*
G01X1135895Y-785246D01*
G01X1138211Y-783149D01*
G01X1140964Y-783149D01*
G01X1146296Y-782418D01*
G01X1149633Y-785561D01*
G01X1152970Y-788704D01*
G01X1156305Y-795719D01*
G01X1156306Y-801834D01*
G01X1158239Y-811505D01*
G01X1159131Y-812881D01*
G01X1160023Y-814257D01*
G01X1163166Y-816681D01*
G01X1166310Y-819105D01*
G01X1168134Y-820438D01*
G01X1169958Y-821770D01*
G01X1173864Y-822958D01*
G01X1177770Y-824146D01*
G01X1180728Y-826675D01*
G01X1183687Y-829204D01*
G01X1187759Y-830443D01*
G01X1191831Y-831681D01*
G01X1195714Y-835928D01*
G01X1196839Y-836871D01*
G01X1197963Y-837813D01*
G01X1202408Y-841906D01*
G01X1202523Y-846291D01*
G01X1202637Y-850676D01*
G01X1201901Y-852043D01*
G01X1201164Y-853410D01*
G01X1197061Y-857958D01*
G01X1195001Y-859233D01*
G01X1192941Y-860508D01*
G01X1190537Y-860414D01*
G01X1188134Y-860319D01*
G01X1186195Y-859679D01*
G01X1184256Y-859038D01*
G01X1183179Y-860015D01*
G01X1182101Y-860991D01*
G01X1180650Y-864498D01*
G01X1182612Y-868618D01*
G01X1184340Y-870771D01*
G01X1186067Y-872923D01*
G01X1187834Y-878169D01*
G01X1189601Y-883416D01*
G01X1191629Y-886372D01*
G01X1193657Y-889328D01*
G01X1195450Y-896311D01*
G01X1197242Y-903293D01*
G01X1196855Y-907080D01*
G01X1196469Y-910866D01*
G01X1195319Y-913803D01*
G01X1194170Y-916740D01*
G01X1191149Y-919923D01*
G01X1184038Y-922215D01*
G01X1176791Y-922988D01*
G01X1168393Y-920833D01*
G01X1161397Y-914587D01*
G01X1159689Y-916298D01*
G01X1157981Y-918008D01*
G01X1157644Y-925600D01*
G01X1157307Y-933192D01*
G01X1158040Y-936366D01*
G01X1158773Y-939541D01*
G01X1159612Y-940880D01*
G01X1160450Y-942218D01*
G01X1165150Y-944518D01*
G01X1169850Y-946818D01*
G01X1172051Y-948809D01*
G01X1174252Y-950800D01*
G01X1178783Y-952270D01*
G01X1184111Y-954943D01*
G01X1185716Y-956879D01*
G01X1191044Y-959568D01*
G01X1199580Y-960998D01*
G01X1202597Y-963596D01*
G01X1199217Y-967367D01*
G01X1191627Y-968457D01*
G01X1187541Y-968468D01*
G01X1183454Y-968479D01*
G01X1178783Y-967651D01*
G01X1174113Y-966823D01*
G01X1171302Y-965610D01*
G01X1168491Y-964397D01*
G01X1165237Y-966083D01*
G01X1163399Y-968179D01*
G01X1161561Y-970275D01*
G01X1161568Y-970986D01*
G01X1161575Y-971696D01*
G01X1162456Y-974912D01*
G01X1163338Y-978127D01*
G01X1164077Y-994497D01*
G01X1165729Y-997047D01*
G01X1168638Y-998956D01*
G01X1172835Y-998340D01*
G01X1177032Y-997724D01*
G01X1190373Y-995888D01*
G01X1195379Y-993933D01*
G01X1200385Y-991978D01*
G01X1206807Y-991022D01*
G01X1213229Y-990065D01*
G01X1214442Y-989811D01*
G01X1215655Y-989556D01*
G01X1217069Y-988128D01*
G01X1218483Y-986700D01*
G01X1221694Y-982785D01*
G01X1224905Y-978870D01*
G01X1230743Y-973099D01*
G01X1231327Y-972470D01*
G01X1231911Y-971842D01*
G01X1236040Y-967676D01*
G01X1240168Y-963511D01*
G01X1242152Y-956134D01*
G01X1240895Y-945972D01*
G01X1240328Y-943428D01*
G01X1239761Y-940883D01*
G01X1238939Y-939293D01*
G01X1238118Y-937702D01*
G01X1237187Y-936928D01*
G01X1236256Y-936155D01*
G01X1231010Y-925983D01*
G01X1226498Y-922002D01*
G01X1221986Y-918021D01*
G01X1221172Y-916869D01*
G01X1220358Y-915718D01*
G01X1219350Y-913058D01*
G01X1218342Y-910398D01*
G01X1219167Y-906857D01*
G01X1219992Y-903316D01*
G01X1221181Y-902048D01*
G01X1222371Y-900780D01*
G01X1225919Y-899186D01*
G01X1229468Y-897591D01*
G01X1244171Y-898181D01*
G01X1245181Y-898603D01*
G01X1246191Y-899024D01*
G01X1247449Y-901064D01*
G01X1248708Y-903103D01*
G01X1248401Y-907875D01*
G01X1248093Y-912648D01*
G01X1246041Y-918952D01*
G01X1243988Y-925257D01*
G01X1245913Y-928458D01*
G01X1247838Y-931659D01*
G01X1248222Y-933846D01*
G01X1248606Y-936033D01*
G01X1249454Y-939048D01*
G01X1250302Y-942062D01*
G01X1252334Y-944497D01*
G01X1254365Y-946933D01*
G01X1254953Y-949120D01*
G01X1255541Y-951307D01*
G01X1256742Y-962902D01*
G01X1255474Y-972281D01*
G01X1252431Y-977543D01*
G01X1251116Y-980174D01*
G01X1249801Y-982805D01*
G01X1249048Y-986572D01*
G01X1250439Y-987965D01*
G01X1251830Y-989359D01*
G01X1259507Y-991917D01*
G01X1260478Y-992992D01*
G01X1261450Y-994067D01*
G01X1261102Y-1002087D01*
G01X1257599Y-1003810D01*
G01X1244171Y-1003660D01*
G01X1240376Y-1002481D01*
G01X1236581Y-1001302D01*
G01X1230159Y-998920D01*
G01X1226073Y-998904D01*
G01X1221986Y-998888D01*
G01X1213812Y-1000902D01*
G01X1205639Y-1002916D01*
G01X1194546Y-1005865D01*
G01X1192400Y-1006477D01*
G01X1190253Y-1007089D01*
G01X1185479Y-1011082D01*
G01X1182230Y-1012300D01*
G01X1178980Y-1013517D01*
G01X1177130Y-1014464D01*
G01X1175280Y-1015411D01*
G01X1171065Y-1019194D01*
G01X1166438Y-1020737D01*
G01X1161812Y-1022280D01*
G01X1159789Y-1023938D01*
G01X1157766Y-1025596D01*
G01X1156379Y-1026330D01*
G01X1154993Y-1027064D01*
G01X1149780Y-1028701D01*
G01X1144567Y-1030338D01*
G01X1139964Y-1033532D01*
G01X1136034Y-1034623D01*
G01X1132103Y-1035715D01*
G37*
G36*
G01X442771Y-1028805D02*
G01X435582Y-1029973D01*
G01X425063Y-1031914D01*
G01X422149Y-1030320D01*
G01X419235Y-1028726D01*
G01X418255Y-1028713D01*
G01X417275Y-1028699D01*
G01X415336Y-1026767D01*
G01X413397Y-1024836D01*
G01X410277Y-1021300D01*
G01X405415Y-1020007D01*
G01X400553Y-1018713D01*
G01X399273Y-1017714D01*
G01X397993Y-1016714D01*
G01X402776Y-1011686D01*
G01X407559Y-1006658D01*
G01X411646Y-1005338D01*
G01X415732Y-1004019D01*
G01X423322Y-999548D01*
G01X433591Y-996059D01*
G01X436166Y-994166D01*
G01X438175Y-992707D01*
G01X440185Y-991248D01*
G01X444305Y-989996D01*
G01X448426Y-988744D01*
G01X450882Y-986217D01*
G01X453337Y-983689D01*
G01X456428Y-982312D01*
G01X459519Y-980935D01*
G01X462123Y-978744D01*
G01X464727Y-976553D01*
G01X467377Y-974733D01*
G01X470028Y-972913D01*
G01X478921Y-964016D01*
G01X487815Y-955118D01*
G01X489632Y-952007D01*
G01X491449Y-948895D01*
G01X492643Y-947600D01*
G01X493837Y-946305D01*
G01X498457Y-944765D01*
G01X503077Y-943224D01*
G01X504276Y-941967D01*
G01X505476Y-940710D01*
G01X504839Y-928433D01*
G01X504183Y-925425D01*
G01X503527Y-922417D01*
G01X501553Y-919286D01*
G01X499579Y-916155D01*
G01X495288Y-909044D01*
G01X494135Y-908322D01*
G01X492981Y-907601D01*
G01X488601Y-906762D01*
G01X484222Y-905923D01*
G01X478292Y-905600D01*
G01X472363Y-905278D01*
G01X470514Y-904999D01*
G01X468665Y-904720D01*
G01X464384Y-901900D01*
G01X460103Y-899080D01*
G01X456483Y-894822D01*
G01X452864Y-890564D01*
G01X451677Y-887155D01*
G01X453636Y-885014D01*
G01X455596Y-882873D01*
G01X470693Y-882646D01*
G01X485791Y-882419D01*
G01X487057Y-881252D01*
G01X488324Y-880084D01*
G01X488721Y-877193D01*
G01X489118Y-874301D01*
G01X489118Y-870330D01*
G01X488111Y-867294D01*
G01X487104Y-864257D01*
G01X485451Y-861559D01*
G01X483798Y-858861D01*
G01X481282Y-850091D01*
G01X480982Y-835827D01*
G01X480682Y-821564D01*
G01X482737Y-811505D01*
G01X485717Y-808289D01*
G01X487086Y-808289D01*
G01X490368Y-806535D01*
G01X493650Y-804781D01*
G01X494548Y-804918D01*
G01X497630Y-805432D01*
G01X500712Y-805946D01*
G01X502184Y-806912D01*
G01X503657Y-807878D01*
G01X504503Y-809516D01*
G01X505349Y-811154D01*
G01X505349Y-816853D01*
G01X503466Y-827828D01*
G01X503809Y-832821D01*
G01X504151Y-837813D01*
G01X504699Y-845706D01*
G01X505246Y-853599D01*
G01X507209Y-862953D01*
G01X511106Y-871723D01*
G01X511989Y-876692D01*
G01X512871Y-881662D01*
G01X513260Y-884795D01*
G01X513649Y-887929D01*
G01X516462Y-891226D01*
G01X519275Y-894524D01*
G01X520967Y-896278D01*
G01X522659Y-898032D01*
G01X528745Y-899901D01*
G01X534831Y-901770D01*
G01X539188Y-903318D01*
G01X543544Y-904866D01*
G01X554396Y-905661D01*
G01X556125Y-907400D01*
G01X557855Y-909140D01*
G01X559258Y-913460D01*
G01X560660Y-917781D01*
G01X558741Y-921937D01*
G01X556822Y-926094D01*
G01X555460Y-927323D01*
G01X554097Y-928552D01*
G01X546807Y-929557D01*
G01X539516Y-930563D01*
G01X539143Y-930936D01*
G01X535528Y-929839D01*
G01X531912Y-928742D01*
G01X530906Y-929060D01*
G01X529899Y-929379D01*
G01X528673Y-931104D01*
G01X527447Y-932828D01*
G01X528726Y-936710D01*
G01X531303Y-940639D01*
G01X533880Y-944568D01*
G01X535136Y-948350D01*
G01X536393Y-952132D01*
G01X538381Y-954898D01*
G01X540368Y-957665D01*
G01X544358Y-965265D01*
G01X546481Y-967306D01*
G01X548605Y-969347D01*
G01X550026Y-971776D01*
G01X551447Y-974204D01*
G01X555158Y-977331D01*
G01X556840Y-979655D01*
G01X558521Y-981979D01*
G01X573947Y-997246D01*
G01X576920Y-998945D01*
G01X579893Y-1000643D01*
G01X583903Y-1004803D01*
G01X587913Y-1008962D01*
G01X586366Y-1010294D01*
G01X584820Y-1011627D01*
G01X580673Y-1012327D01*
G01X576526Y-1013027D01*
G01X572318Y-1012627D01*
G01X568109Y-1012226D01*
G01X564900Y-1010782D01*
G01X561691Y-1009338D01*
G01X560521Y-1008267D01*
G01X559352Y-1007196D01*
G01X552930Y-1004025D01*
G01X548099Y-999353D01*
G01X545414Y-997802D01*
G01X542728Y-996251D01*
G01X536150Y-990059D01*
G01X529572Y-983867D01*
G01X527870Y-980705D01*
G01X526168Y-977543D01*
G01X523494Y-974546D01*
G01X520820Y-971549D01*
G01X519425Y-967053D01*
G01X518029Y-962557D01*
G01X515263Y-958474D01*
G01X514105Y-956202D01*
G01X512948Y-953931D01*
G01X508648Y-949749D01*
G01X507025Y-951306D01*
G01X505403Y-952863D01*
G01X503548Y-956776D01*
G01X500799Y-959932D01*
G01X498051Y-963088D01*
G01X496053Y-968802D01*
G01X493968Y-971241D01*
G01X491882Y-973681D01*
G01X489889Y-978060D01*
G01X487897Y-982440D01*
G01X483784Y-986998D01*
G01X482013Y-990952D01*
G01X480241Y-994907D01*
G01X477990Y-997468D01*
G01X475739Y-1000029D01*
G01X474466Y-1003524D01*
G01X473193Y-1007020D01*
G01X463227Y-1017883D01*
G01X458746Y-1021224D01*
G01X454265Y-1024565D01*
G01X452112Y-1026101D01*
G01X449959Y-1027636D01*
G01X442771Y-1028805D01*
G37*
G36*
G01X940872Y-1011007D02*
G01X937269Y-1012019D01*
G01X933666Y-1013032D01*
G01X929244Y-1012644D01*
G01X924822Y-1012256D01*
G01X921027Y-1011627D01*
G01X917233Y-1010997D01*
G01X913146Y-1009369D01*
G01X909059Y-1007741D01*
G01X902753Y-1006527D01*
G01X896448Y-1005313D01*
G01X879453Y-1005313D01*
G01X875912Y-1006232D01*
G01X872372Y-1007151D01*
G01X868849Y-1008931D01*
G01X865327Y-1010712D01*
G01X861632Y-1010333D01*
G01X857938Y-1009954D01*
G01X855341Y-1007969D01*
G01X852744Y-1005984D01*
G01X851419Y-1005572D01*
G01X850094Y-1005160D01*
G01X848474Y-1004018D01*
G01X846855Y-1002875D01*
G01X844911Y-999856D01*
G01X842966Y-996836D01*
G01X840461Y-994608D01*
G01X840461Y-993483D01*
G01X843716Y-989151D01*
G01X846972Y-984819D01*
G01X848506Y-983812D01*
G01X850041Y-982805D01*
G01X890961Y-982150D01*
G01X893004Y-981392D01*
G01X895048Y-980635D01*
G01X896317Y-979254D01*
G01X897586Y-977873D01*
G01X898035Y-974492D01*
G01X898485Y-971112D01*
G01X898341Y-970235D01*
G01X898198Y-969358D01*
G01X896488Y-963264D01*
G01X888745Y-957732D01*
G01X884307Y-956706D01*
G01X879868Y-955680D01*
G01X875089Y-953992D01*
G01X870309Y-952304D01*
G01X867756Y-950341D01*
G01X865203Y-948379D01*
G01X866886Y-940710D01*
G01X868114Y-939163D01*
G01X870319Y-938037D01*
G01X872524Y-936910D01*
G01X888794Y-936910D01*
G01X890538Y-935279D01*
G01X892282Y-933647D01*
G01X891982Y-925486D01*
G01X891683Y-917325D01*
G01X889568Y-913232D01*
G01X884057Y-907310D01*
G01X878547Y-901387D01*
G01X876204Y-897955D01*
G01X873861Y-894524D01*
G01X870078Y-891016D01*
G01X868551Y-888657D01*
G01X867024Y-886297D01*
G01X862127Y-881877D01*
G01X861507Y-879996D01*
G01X877825Y-879996D01*
G01X880569Y-882577D01*
G01X881730Y-881077D01*
G01X882088Y-880441D01*
G01X882447Y-879806D01*
G01X881562Y-878541D01*
G01X880678Y-877277D01*
G01X880083Y-877277D01*
G01X878954Y-877882D01*
G01X877825Y-878487D01*
G01X877825Y-879996D01*
G01X877825Y-879996D01*
G01X861507Y-879996D01*
G01X861490Y-879945D01*
G01X860854Y-878014D01*
G01X858212Y-875534D01*
G01X855570Y-873055D01*
G01X855091Y-872015D01*
G01X869423Y-872015D01*
G01X870588Y-873578D01*
G01X871753Y-875140D01*
G01X872712Y-875745D01*
G01X872712Y-875745D01*
G01X873670Y-876351D01*
G01X874872Y-875262D01*
G01X876073Y-874172D01*
G01X876073Y-871787D01*
G01X872918Y-868489D01*
G01X872342Y-868681D01*
G01X871766Y-868873D01*
G01X870595Y-870444D01*
G01X869423Y-872015D01*
G01X855091Y-872015D01*
G01X853345Y-868231D01*
G01X851119Y-863407D01*
G01X850449Y-862993D01*
G01X849779Y-862578D01*
G01X848414Y-859842D01*
G01X847050Y-857107D01*
G01X845128Y-842491D01*
G01X845128Y-840152D01*
G01X854208Y-840152D01*
G01X856389Y-848792D01*
G01X859839Y-852806D01*
G01X863289Y-856820D01*
G01X863289Y-856820D01*
G01X863989Y-861056D01*
G01X864689Y-865292D01*
G01X866440Y-865292D01*
G01X867123Y-856522D01*
G01X868463Y-852722D01*
G01X869804Y-848922D01*
G01X871297Y-847314D01*
G01X872789Y-845706D01*
G01X874225Y-845706D01*
G01X877017Y-844507D01*
G01X879810Y-843309D01*
G01X882502Y-840787D01*
G01X885195Y-838265D01*
G01X886326Y-837683D01*
G01X887458Y-837101D01*
G01X891433Y-836345D01*
G01X893004Y-835039D01*
G01X893004Y-834069D01*
G01X885706Y-829818D01*
G01X881036Y-824776D01*
G01X877712Y-823809D01*
G01X874389Y-822842D01*
G01X870706Y-822363D01*
G01X867024Y-821884D01*
G01X864929Y-821736D01*
G01X857500Y-823605D01*
G01X854265Y-826986D01*
G01X854208Y-840152D01*
G01X845128Y-840152D01*
G01X845130Y-831310D01*
G01X845131Y-820129D01*
G01X846029Y-817571D01*
G01X846928Y-815012D01*
G01X849775Y-810692D01*
G01X852531Y-809075D01*
G01X855287Y-807458D01*
G01X859988Y-805743D01*
G01X864689Y-804029D01*
G01X868776Y-803870D01*
G01X872862Y-803711D01*
G01X881620Y-805827D01*
G01X885123Y-807041D01*
G01X891545Y-808835D01*
G01X894455Y-811254D01*
G01X897365Y-813673D01*
G01X904038Y-817046D01*
G01X906257Y-819450D01*
G01X908475Y-821854D01*
G01X910207Y-822752D01*
G01X911938Y-823650D01*
G01X916708Y-828503D01*
G01X921478Y-833355D01*
G01X922467Y-837808D01*
G01X923456Y-842261D01*
G01X922526Y-843683D01*
G01X921595Y-845105D01*
G01X920161Y-846046D01*
G01X918727Y-846987D01*
G01X914477Y-846277D01*
G01X910227Y-845566D01*
G01X908629Y-844748D01*
G01X907032Y-843930D01*
G01X903221Y-840582D01*
G01X896799Y-838868D01*
G01X895965Y-838633D01*
G01X895132Y-838398D01*
G01X894550Y-839975D01*
G01X893968Y-841552D01*
G01X895075Y-845211D01*
G01X896181Y-848870D01*
G01X901324Y-856522D01*
G01X904433Y-859551D01*
G01X907542Y-862579D01*
G01X909321Y-866110D01*
G01X911101Y-869640D01*
G01X912883Y-870960D01*
G01X914665Y-872279D01*
G01X913648Y-873024D01*
G01X912631Y-873769D01*
G01X910765Y-873769D01*
G01X902176Y-881618D01*
G01X899499Y-887405D01*
G01X900654Y-889673D01*
G01X901810Y-891941D01*
G01X906384Y-896521D01*
G01X908597Y-897626D01*
G01X910811Y-898731D01*
G01X914708Y-898462D01*
G01X918605Y-898193D01*
G01X919298Y-896516D01*
G01X919992Y-894839D01*
G01X918108Y-886488D01*
G01X918128Y-883490D01*
G01X918148Y-880492D01*
G01X919241Y-875878D01*
G01X920333Y-871263D01*
G01X926054Y-865533D01*
G01X929817Y-864653D01*
G01X933580Y-863772D01*
G01X936243Y-867046D01*
G01X939497Y-872176D01*
G01X942752Y-877307D01*
G01X943593Y-880069D01*
G01X944435Y-882831D01*
G01X945828Y-899785D01*
G01X945705Y-904605D01*
G01X945582Y-909424D01*
G01X943798Y-912879D01*
G01X941608Y-914508D01*
G01X939418Y-916136D01*
G01X936964Y-918714D01*
G01X934511Y-921291D01*
G01X925527Y-920476D01*
G01X918276Y-918092D01*
G01X916000Y-919255D01*
G01X913723Y-920418D01*
G01X911363Y-921055D01*
G01X909004Y-921691D01*
G01X907397Y-923370D01*
G01X905791Y-925049D01*
G01X906403Y-929941D01*
G01X907016Y-934833D01*
G01X907016Y-940572D01*
G01X909311Y-944292D01*
G01X910841Y-945112D01*
G01X912371Y-945932D01*
G01X915743Y-950195D01*
G01X919407Y-951955D01*
G01X923071Y-953715D01*
G01X924072Y-954836D01*
G01X925072Y-955957D01*
G01X924427Y-959856D01*
G01X923782Y-963755D01*
G01X921941Y-965680D01*
G01X920099Y-967604D01*
G01X918316Y-969081D01*
G01X916533Y-970559D01*
G01X915736Y-978712D01*
G01X916582Y-981517D01*
G01X917427Y-984323D01*
G01X918401Y-985811D01*
G01X919374Y-987299D01*
G01X921806Y-988374D01*
G01X924238Y-989448D01*
G01X929914Y-990607D01*
G01X935590Y-991766D01*
G01X939705Y-993992D01*
G01X943820Y-996218D01*
G01X946735Y-998771D01*
G01X949650Y-1001325D01*
G01X945261Y-1006166D01*
G01X940872Y-1011007D01*
G37*
G36*
G01X310645Y-1041447D02*
G01X307474Y-1042381D01*
G01X304303Y-1043315D01*
G01X295051Y-1043315D01*
G01X291486Y-1042390D01*
G01X287921Y-1041465D01*
G01X285985Y-1039763D01*
G01X284049Y-1038060D01*
G01X281821Y-1036922D01*
G01X279592Y-1035783D01*
G01X277799Y-1033738D01*
G01X276005Y-1031692D01*
G01X275519Y-1030894D01*
G01X275032Y-1030096D01*
G01X272892Y-1028489D01*
G01X270752Y-1026882D01*
G01X269490Y-1024191D01*
G01X268227Y-1021501D01*
G01X265931Y-1019225D01*
G01X263636Y-1016949D01*
G01X261826Y-1013324D01*
G01X260016Y-1009698D01*
G01X258707Y-1007944D01*
G01X257399Y-1006190D01*
G01X256343Y-1004144D01*
G01X255287Y-1002098D01*
G01X253115Y-992358D01*
G01X252016Y-990212D01*
G01X250917Y-988066D01*
G01X249547Y-986787D01*
G01X248177Y-985508D01*
G01X242922Y-983123D01*
G01X235916Y-983119D01*
G01X230587Y-984521D01*
G01X225257Y-985923D01*
G01X222705Y-986078D01*
G01X220153Y-986233D01*
G01X217526Y-985279D01*
G01X214899Y-984325D01*
G01X209908Y-982851D01*
G01X204918Y-981377D01*
G01X202408Y-978702D01*
G01X202002Y-974734D01*
G01X201596Y-970765D01*
G01X203248Y-969038D01*
G01X204901Y-967312D01*
G01X206785Y-967312D01*
G01X212594Y-964254D01*
G01X218402Y-961197D01*
G01X249928Y-960521D01*
G01X251820Y-959519D01*
G01X253712Y-958518D01*
G01X255387Y-955911D01*
G01X256619Y-952213D01*
G01X257851Y-948515D01*
G01X256027Y-943936D01*
G01X254202Y-939356D01*
G01X253149Y-938225D01*
G01X252097Y-937094D01*
G01X250667Y-935967D01*
G01X249237Y-934841D01*
G01X245997Y-929602D01*
G01X243956Y-927464D01*
G01X241915Y-925326D01*
G01X241103Y-921807D01*
G01X240291Y-918287D01*
G01X241464Y-915199D01*
G01X247009Y-908741D01*
G01X248616Y-907901D01*
G01X250223Y-907062D01*
G01X255622Y-906819D01*
G01X261021Y-906576D01*
G01X263962Y-907048D01*
G01X266904Y-907520D01*
G01X268925Y-908564D01*
G01X270945Y-909607D01*
G01X274740Y-912109D01*
G01X278535Y-914611D01*
G01X280183Y-916336D01*
G01X281831Y-918062D01*
G01X277118Y-921713D01*
G01X272405Y-925363D01*
G01X272429Y-929237D01*
G01X272452Y-933110D01*
G01X275887Y-937133D01*
G01X278324Y-944466D01*
G01X279701Y-946498D01*
G01X281078Y-948530D01*
G01X280308Y-949170D01*
G01X279539Y-949809D01*
G01X278302Y-952688D01*
G01X277065Y-955568D01*
G01X276702Y-959862D01*
G01X276340Y-964157D01*
G01X278126Y-965661D01*
G01X279912Y-967166D01*
G01X285062Y-967583D01*
G01X290211Y-967999D01*
G01X294298Y-968779D01*
G01X298385Y-969560D01*
G01X301695Y-971038D01*
G01X305005Y-972517D01*
G01X308409Y-973373D01*
G01X311813Y-974229D01*
G01X318235Y-974990D01*
G01X324657Y-976749D01*
G01X326700Y-978080D01*
G01X328744Y-979410D01*
G01X330652Y-980397D01*
G01X332561Y-981385D01*
G01X342285Y-983191D01*
G01X343839Y-984634D01*
G01X345393Y-986077D01*
G01X344858Y-987078D01*
G01X344323Y-988079D01*
G01X341914Y-990263D01*
G01X333414Y-993134D01*
G01X329911Y-993534D01*
G01X326408Y-993935D01*
G01X320570Y-992617D01*
G01X314732Y-991300D01*
G01X305256Y-989855D01*
G01X295780Y-988410D01*
G01X293288Y-987758D01*
G01X290795Y-987106D01*
G01X281537Y-984219D01*
G01X279744Y-984605D01*
G01X277951Y-984992D01*
G01X276389Y-985791D01*
G01X274827Y-986590D01*
G01X273380Y-993064D01*
G01X274916Y-997581D01*
G01X276451Y-1002098D01*
G01X277924Y-1009555D01*
G01X284075Y-1016714D01*
G01X288031Y-1020806D01*
G01X291457Y-1023795D01*
G01X294882Y-1026783D01*
G01X299417Y-1028877D01*
G01X303951Y-1030971D01*
G01X310937Y-1025148D01*
G01X310937Y-1023841D01*
G01X312187Y-1024954D01*
G01X313438Y-1026068D01*
G01X316103Y-1031778D01*
G01X315620Y-1033016D01*
G01X315136Y-1034253D01*
G01X312840Y-1039515D01*
G01X311742Y-1040481D01*
G01X310645Y-1041447D01*
G37*
G36*
G01X777331Y-987482D02*
G01X775764Y-988651D01*
G01X774197Y-989820D01*
G01X759018Y-989778D01*
G01X754269Y-987275D01*
G01X753525Y-986377D01*
G01X752781Y-985480D01*
G01X749766Y-984350D01*
G01X746751Y-983220D01*
G01X742084Y-982548D01*
G01X737417Y-981876D01*
G01X726908Y-979286D01*
G01X716399Y-976695D01*
G01X707642Y-975458D01*
G01X684289Y-974203D01*
G01X661228Y-973822D01*
G01X638167Y-973440D01*
G01X635540Y-971948D01*
G01X635540Y-970841D01*
G01X631812Y-966884D01*
G01X628085Y-962927D01*
G01X626008Y-959378D01*
G01X623931Y-955830D01*
G01X625772Y-947726D01*
G01X629785Y-943926D01*
G01X631745Y-943905D01*
G01X634904Y-942161D01*
G01X638062Y-940418D01*
G01X684498Y-940418D01*
G01X685380Y-939534D01*
G01X686263Y-938650D01*
G01X686672Y-935920D01*
G01X687081Y-933190D01*
G01X685200Y-931688D01*
G01X683319Y-930187D01*
G01X680885Y-927832D01*
G01X678451Y-925476D01*
G01X677507Y-924324D01*
G01X676564Y-923171D01*
G01X672329Y-919912D01*
G01X670367Y-916865D01*
G01X668405Y-913817D01*
G01X667145Y-912698D01*
G01X665886Y-911578D01*
G01X664725Y-907813D01*
G01X663563Y-904047D01*
G01X663563Y-894275D01*
G01X665911Y-887993D01*
G01X668526Y-885539D01*
G01X681370Y-878177D01*
G01X686624Y-878007D01*
G01X691879Y-877836D01*
G01X696549Y-879917D01*
G01X701220Y-881997D01*
G01X704471Y-882841D01*
G01X707722Y-883685D01*
G01X712757Y-885464D01*
G01X717421Y-889683D01*
G01X723478Y-892366D01*
G01X726934Y-896307D01*
G01X729145Y-897996D01*
G01X731355Y-899684D01*
G01X732197Y-901314D01*
G01X733038Y-902943D01*
G01X733038Y-910659D01*
G01X732192Y-912297D01*
G01X731346Y-913936D01*
G01X730003Y-914808D01*
G01X728659Y-915680D01*
G01X716399Y-919332D01*
G01X714796Y-919707D01*
G01X713193Y-920081D01*
G01X711077Y-918220D01*
G01X708960Y-916360D01*
G01X700455Y-912317D01*
G01X699033Y-910601D01*
G01X697449Y-910601D01*
G01X696282Y-912891D01*
G01X695116Y-915181D01*
G01X695000Y-916837D01*
G01X694884Y-918494D01*
G01X695893Y-920425D01*
G01X696903Y-922356D01*
G01X699380Y-924837D01*
G01X701760Y-928775D01*
G01X704139Y-932712D01*
G01X714064Y-942001D01*
G01X716535Y-943263D01*
G01X719007Y-944525D01*
G01X722957Y-945396D01*
G01X726908Y-946267D01*
G01X735665Y-948087D01*
G01X738435Y-949237D01*
G01X741205Y-950387D01*
G01X747076Y-951266D01*
G01X752947Y-952145D01*
G01X755691Y-953060D01*
G01X758434Y-953975D01*
G01X763688Y-957258D01*
G01X768252Y-959140D01*
G01X772817Y-961023D01*
G01X774452Y-962400D01*
G01X776087Y-963778D01*
G01X778511Y-967504D01*
G01X780935Y-971231D01*
G01X781873Y-979032D01*
G01X781155Y-979629D01*
G01X780436Y-980226D01*
G01X777331Y-987482D01*
G37*
G36*
G01X1007141Y-1010770D02*
G01X1004864Y-1012426D01*
G01X1002587Y-1014083D01*
G01X993713Y-1014082D01*
G01X990140Y-1012389D01*
G01X986567Y-1010697D01*
G01X985101Y-1008736D01*
G01X983634Y-1006775D01*
G01X982714Y-1004951D01*
G01X981794Y-1003128D01*
G01X979126Y-999998D01*
G01X976458Y-996868D01*
G01X975228Y-993489D01*
G01X973998Y-990110D01*
G01X971454Y-986232D01*
G01X968910Y-982354D01*
G01X967896Y-979132D01*
G01X966882Y-975910D01*
G01X964314Y-973050D01*
G01X961746Y-970189D01*
G01X960082Y-964876D01*
G01X958419Y-959563D01*
G01X956508Y-957702D01*
G01X954597Y-955841D01*
G01X953283Y-951742D01*
G01X951970Y-947643D01*
G01X951970Y-945238D01*
G01X951240Y-944645D01*
G01X950510Y-944052D01*
G01X948299Y-943634D01*
G01X946244Y-940710D01*
G01X945520Y-932863D01*
G01X946989Y-931899D01*
G01X948458Y-930935D01*
G01X949265Y-931245D01*
G01X950071Y-931555D01*
G01X953190Y-941239D01*
G01X953819Y-941998D01*
G01X954448Y-942757D01*
G01X956581Y-942757D01*
G01X958088Y-944735D01*
G01X959594Y-946713D01*
G01X961066Y-951804D01*
G01X965106Y-954529D01*
G01X965816Y-955805D01*
G01X966526Y-957080D01*
G01X968061Y-961040D01*
G01X969596Y-964999D01*
G01X971569Y-966506D01*
G01X973541Y-968012D01*
G01X975374Y-971901D01*
G01X977207Y-975789D01*
G01X979169Y-977967D01*
G01X981131Y-980144D01*
G01X985149Y-988134D01*
G01X986009Y-988848D01*
G01X986868Y-989563D01*
G01X990412Y-986577D01*
G01X991212Y-979097D01*
G01X989960Y-975332D01*
G01X988709Y-971566D01*
G01X986655Y-969163D01*
G01X984601Y-966760D01*
G01X982874Y-961643D01*
G01X981147Y-956527D01*
G01X979492Y-954465D01*
G01X977838Y-952403D01*
G01X976906Y-950598D01*
G01X975974Y-948793D01*
G01X974189Y-941055D01*
G01X972403Y-933318D01*
G01X972403Y-933037D01*
G01X999111Y-933037D01*
G01X1000407Y-934088D01*
G01X1001703Y-935139D01*
G01X1002816Y-934543D01*
G01X1003930Y-933946D01*
G01X1003930Y-932760D01*
G01X1003034Y-931025D01*
G01X1002138Y-929290D01*
G01X1001030Y-929884D01*
G01X999922Y-930478D01*
G01X999516Y-931758D01*
G01X999111Y-933037D01*
G01X999111Y-933037D01*
G01X972403Y-933037D01*
G01X972403Y-925787D01*
G01X973571Y-921568D01*
G01X974739Y-917348D01*
G01X974739Y-909062D01*
G01X974125Y-905736D01*
G01X973511Y-902411D01*
G01X971492Y-898153D01*
G01X969472Y-893895D01*
G01X968298Y-887486D01*
G01X967123Y-881077D01*
G01X966600Y-878672D01*
G01X963941Y-874618D01*
G01X961282Y-870564D01*
G01X960304Y-867458D01*
G01X959327Y-864353D01*
G01X955746Y-861205D01*
G01X952166Y-858057D01*
G01X951221Y-853749D01*
G01X950275Y-849440D01*
G01X950779Y-845965D01*
G01X951282Y-842491D01*
G01X951684Y-841479D01*
G01X952086Y-840468D01*
G01X953994Y-839287D01*
G01X955903Y-838106D01*
G01X958169Y-838179D01*
G01X960435Y-838252D01*
G01X966487Y-839138D01*
G01X976198Y-844386D01*
G01X981604Y-845917D01*
G01X987010Y-847448D01*
G01X992857Y-851476D01*
G01X996085Y-852685D01*
G01X999313Y-853895D01*
G01X1001475Y-855002D01*
G01X1003638Y-856109D01*
G01X1006071Y-860408D01*
G01X1008504Y-864707D01*
G01X1005755Y-872892D01*
G01X1003953Y-874293D01*
G01X1002151Y-875694D01*
G01X984956Y-876257D01*
G01X983367Y-877065D01*
G01X981779Y-877874D01*
G01X980577Y-880123D01*
G01X981077Y-881477D01*
G01X981578Y-882831D01*
G01X983580Y-894524D01*
G01X984774Y-898239D01*
G01X985967Y-901954D01*
G01X989765Y-905985D01*
G01X993562Y-910017D01*
G01X1001528Y-910017D01*
G01X1003458Y-911148D01*
G01X1005389Y-912279D01*
G01X1008733Y-913524D01*
G01X1012078Y-914768D01*
G01X1017434Y-920833D01*
G01X1018897Y-923293D01*
G01X1020360Y-925754D01*
G01X1020695Y-933317D01*
G01X1021031Y-940880D01*
G01X1019804Y-942868D01*
G01X1018577Y-944856D01*
G01X1011227Y-948755D01*
G01X1008522Y-950131D01*
G01X1005817Y-951507D01*
G01X997216Y-952839D01*
G01X995666Y-953400D01*
G01X994116Y-953961D01*
G01X993825Y-955075D01*
G01X993534Y-956189D01*
G01X994633Y-957589D01*
G01X995733Y-958989D01*
G01X996352Y-960619D01*
G01X996970Y-962248D01*
G01X998102Y-968092D01*
G01X999233Y-973937D01*
G01X1001528Y-977359D01*
G01X1003822Y-980781D01*
G01X1005947Y-989685D01*
G01X1008073Y-998590D01*
G01X1009551Y-1001285D01*
G01X1008629Y-1008959D01*
G01X1007141Y-1010770D01*
G37*
G36*
G01X230265Y-911021D02*
G01X229590Y-911834D01*
G01X227484Y-912963D01*
G01X223903Y-911755D01*
G01X220322Y-910547D01*
G01X217674Y-908810D01*
G01X210732Y-907995D01*
G01X203791Y-907181D01*
G01X200538Y-905962D01*
G01X197285Y-904743D01*
G01X194967Y-902124D01*
G01X190087Y-893869D01*
G01X190087Y-892477D01*
G01X186000Y-892477D01*
G01X186000Y-882539D01*
G01X187897Y-882515D01*
G01X189795Y-882492D01*
G01X194398Y-872534D01*
G01X197117Y-869812D01*
G01X208836Y-866593D01*
G01X213102Y-864415D01*
G01X224217Y-864508D01*
G01X235333Y-864602D01*
G01X237376Y-864820D01*
G01X239419Y-865037D01*
G01X254599Y-867898D01*
G01X266859Y-869101D01*
G01X272697Y-872028D01*
G01X278535Y-874956D01*
G01X289034Y-877938D01*
G01X290790Y-879277D01*
G01X292547Y-880616D01*
G01X295005Y-881870D01*
G01X297463Y-883123D01*
G01X298633Y-883123D01*
G01X301914Y-884352D01*
G01X305195Y-885582D01*
G01X307082Y-887241D01*
G01X308969Y-888900D01*
G01X318119Y-893076D01*
G01X320625Y-895389D01*
G01X323131Y-897702D01*
G01X325717Y-898919D01*
G01X328303Y-900137D01*
G01X329534Y-901449D01*
G01X330765Y-902761D01*
G01X328982Y-904927D01*
G01X327199Y-907093D01*
G01X318475Y-907093D01*
G01X314676Y-906138D01*
G01X310877Y-905182D01*
G01X309009Y-903819D01*
G01X307142Y-902455D01*
G01X304635Y-900607D01*
G01X299037Y-898655D01*
G01X293439Y-896703D01*
G01X287876Y-893236D01*
G01X286125Y-892599D01*
G01X284373Y-891962D01*
G01X275032Y-889494D01*
G01X270945Y-886810D01*
G01X268988Y-885798D01*
G01X267031Y-884785D01*
G01X259630Y-883653D01*
G01X252230Y-882521D01*
G01X242338Y-879709D01*
G01X239127Y-878493D01*
G01X235916Y-877277D01*
G01X231538Y-877612D01*
G01X227159Y-877948D01*
G01X223986Y-878829D01*
G01X220814Y-879711D01*
G01X216305Y-881981D01*
G01X211797Y-884250D01*
G01X209383Y-887646D01*
G01X211145Y-890208D01*
G01X212908Y-892770D01*
G01X216724Y-898032D01*
G01X222222Y-902124D01*
G01X222811Y-904299D01*
G01X223400Y-906473D01*
G01X225863Y-907128D01*
G01X228327Y-907783D01*
G01X230939Y-910207D01*
G01X230265Y-911021D01*
G37*
G36*
G01X265765Y-855060D02*
G01X257850Y-855060D01*
G01X255809Y-853266D01*
G01X253768Y-851471D01*
G01X252579Y-849545D01*
G01X251391Y-847619D01*
G01X247156Y-845807D01*
G01X242922Y-843995D01*
G01X239331Y-843095D01*
G01X235740Y-842196D01*
G01X233201Y-840734D01*
G01X230662Y-839271D01*
G01X228421Y-838652D01*
G01X226180Y-838033D01*
G01X223722Y-835585D01*
G01X221265Y-833136D01*
G01X218957Y-831402D01*
G01X216650Y-829667D01*
G01X209216Y-822073D01*
G01X201782Y-814479D01*
G01X200012Y-810743D01*
G01X200012Y-803755D01*
G01X200967Y-799520D01*
G01X201922Y-795285D01*
G01X211522Y-785671D01*
G01X217818Y-784914D01*
G01X221905Y-785042D01*
G01X224899Y-785591D01*
G01X227894Y-786139D01*
G01X229070Y-787422D01*
G01X230247Y-788704D01*
G01X232082Y-793381D01*
G01X233918Y-798058D01*
G01X234963Y-799519D01*
G01X236008Y-800981D01*
G01X240483Y-809542D01*
G01X243044Y-812393D01*
G01X245604Y-815245D01*
G01X247231Y-818344D01*
G01X248859Y-821444D01*
G01X253828Y-823880D01*
G01X255863Y-826104D01*
G01X257898Y-828329D01*
G01X259622Y-826602D01*
G01X260752Y-818615D01*
G01X262259Y-815252D01*
G01X263766Y-811890D01*
G01X265020Y-810768D01*
G01X266275Y-809646D01*
G01X269841Y-807187D01*
G01X273406Y-804729D01*
G01X280847Y-803904D01*
G01X285111Y-806749D01*
G01X289376Y-809595D01*
G01X290153Y-811134D01*
G01X290931Y-812674D01*
G01X291694Y-815889D01*
G01X292457Y-819105D01*
G01X292455Y-826413D01*
G01X292452Y-833721D01*
G01X291782Y-836075D01*
G01X291113Y-838429D01*
G01X289750Y-840279D01*
G01X288387Y-842129D01*
G01X285143Y-844803D01*
G01X281898Y-847478D01*
G01X273690Y-850273D01*
G01X269728Y-852667D01*
G01X265765Y-855060D01*
G37*
G36*
G01X324657Y-869113D02*
G01X321594Y-870804D01*
G01X318531Y-872495D01*
G01X317930Y-871521D01*
G01X314087Y-870241D01*
G01X310244Y-868960D01*
G01X308311Y-867261D01*
G01X306379Y-865561D01*
G01X305431Y-861294D01*
G01X304483Y-857027D01*
G01X305390Y-853110D01*
G01X306297Y-849193D01*
G01X305946Y-845257D01*
G01X305595Y-841321D01*
G01X303210Y-833136D01*
G01X303581Y-827750D01*
G01X303952Y-822364D01*
G01X304717Y-818535D01*
G01X307789Y-815458D01*
G01X310861Y-812382D01*
G01X311813Y-812538D01*
G01X319986Y-816766D01*
G01X324657Y-826357D01*
G01X326187Y-827993D01*
G01X327717Y-829628D01*
G01X328704Y-831189D01*
G01X329691Y-832749D01*
G01X330520Y-838204D01*
G01X331350Y-843660D01*
G01X331360Y-850628D01*
G01X331371Y-857596D01*
G01X330717Y-861357D01*
G01X330062Y-865119D01*
G01X328321Y-867105D01*
G01X326579Y-869092D01*
G01X324657Y-869113D01*
G37*
G36*
G01X750882Y-1149402D02*
G01X743641Y-1149427D01*
G01X740510Y-1146504D01*
G01X738185Y-1141579D01*
G01X737123Y-1141242D01*
G01X736061Y-1140904D01*
G01X735180Y-1139557D01*
G01X734299Y-1138210D01*
G01X733668Y-1134796D01*
G01X733038Y-1131381D01*
G01X733038Y-1123353D01*
G01X740628Y-1123353D01*
G01X740628Y-1130503D01*
G01X741297Y-1131780D01*
G01X741966Y-1133057D01*
G01X743486Y-1134871D01*
G01X745006Y-1136685D01*
G01X745938Y-1138416D01*
G01X746870Y-1140147D01*
G01X746870Y-1140147D01*
G01X749088Y-1141201D01*
G01X751306Y-1142255D01*
G01X753163Y-1141368D01*
G01X755020Y-1140481D01*
G01X756798Y-1136769D01*
G01X758576Y-1133057D01*
G01X761061Y-1130830D01*
G01X761061Y-1123007D01*
G01X758576Y-1120780D01*
G01X756813Y-1117099D01*
G01X755050Y-1113418D01*
G01X753531Y-1112578D01*
G01X752012Y-1111737D01*
G01X750638Y-1112046D01*
G01X749263Y-1112355D01*
G01X747831Y-1113295D01*
G01X746398Y-1114235D01*
G01X745307Y-1116377D01*
G01X744216Y-1118520D01*
G01X743259Y-1119315D01*
G01X742302Y-1120110D01*
G01X741465Y-1121731D01*
G01X740628Y-1123353D01*
G01X733038Y-1123353D01*
G01X733038Y-1122456D01*
G01X733668Y-1119042D01*
G01X734299Y-1115627D01*
G01X735180Y-1114280D01*
G01X736061Y-1112933D01*
G01X737123Y-1112595D01*
G01X738185Y-1112258D01*
G01X740510Y-1107333D01*
G01X741918Y-1106019D01*
G01X743327Y-1104705D01*
G01X748545Y-1104451D01*
G01X753763Y-1104197D01*
G01X756501Y-1104619D01*
G01X759238Y-1105040D01*
G01X761719Y-1107289D01*
G01X762892Y-1110020D01*
G01X764065Y-1112750D01*
G01X765788Y-1114403D01*
G01X767511Y-1116056D01*
G01X769235Y-1121869D01*
G01X769235Y-1131995D01*
G01X768390Y-1134804D01*
G01X767546Y-1137614D01*
G01X765812Y-1139428D01*
G01X764079Y-1141242D01*
G01X762716Y-1144112D01*
G01X761353Y-1146983D01*
G01X759738Y-1148180D01*
G01X758123Y-1149378D01*
G01X750882Y-1149402D01*
G37*
G36*
G01X325862Y-1149402D02*
G01X318621Y-1149427D01*
G01X315490Y-1146504D01*
G01X313165Y-1141579D01*
G01X312103Y-1141242D01*
G01X311042Y-1140904D01*
G01X310160Y-1139557D01*
G01X309279Y-1138210D01*
G01X308648Y-1134796D01*
G01X308018Y-1131381D01*
G01X308018Y-1123353D01*
G01X315608Y-1123353D01*
G01X315608Y-1130503D01*
G01X316277Y-1131780D01*
G01X316946Y-1133057D01*
G01X318466Y-1134871D01*
G01X319986Y-1136685D01*
G01X320918Y-1138416D01*
G01X321850Y-1140147D01*
G01X321850Y-1140147D01*
G01X324068Y-1141201D01*
G01X326286Y-1142255D01*
G01X328143Y-1141368D01*
G01X330000Y-1140481D01*
G01X331778Y-1136769D01*
G01X333556Y-1133057D01*
G01X336041Y-1130830D01*
G01X336041Y-1123007D01*
G01X333556Y-1120780D01*
G01X331793Y-1117099D01*
G01X330030Y-1113418D01*
G01X328511Y-1112578D01*
G01X326992Y-1111737D01*
G01X325618Y-1112046D01*
G01X324243Y-1112355D01*
G01X322811Y-1113295D01*
G01X321379Y-1114235D01*
G01X320287Y-1116377D01*
G01X319196Y-1118520D01*
G01X318239Y-1119315D01*
G01X317282Y-1120110D01*
G01X316445Y-1121731D01*
G01X315608Y-1123353D01*
G01X308018Y-1123353D01*
G01X308018Y-1122456D01*
G01X308648Y-1119042D01*
G01X309279Y-1115627D01*
G01X310160Y-1114280D01*
G01X311042Y-1112933D01*
G01X312103Y-1112595D01*
G01X313165Y-1112258D01*
G01X315490Y-1107333D01*
G01X316898Y-1106019D01*
G01X318307Y-1104705D01*
G01X323525Y-1104451D01*
G01X328744Y-1104197D01*
G01X331481Y-1104619D01*
G01X334218Y-1105040D01*
G01X336699Y-1107289D01*
G01X337872Y-1110020D01*
G01X339045Y-1112750D01*
G01X340768Y-1114403D01*
G01X342491Y-1116056D01*
G01X344215Y-1121869D01*
G01X344215Y-1131995D01*
G01X343370Y-1134804D01*
G01X342526Y-1137614D01*
G01X340792Y-1139428D01*
G01X339059Y-1141242D01*
G01X337696Y-1144112D01*
G01X336333Y-1146983D01*
G01X334718Y-1148180D01*
G01X333103Y-1149378D01*
G01X325862Y-1149402D01*
G37*
G36*
G01X367816Y-949857D02*
G01X366990Y-951455D01*
G01X364389Y-953280D01*
G01X359994Y-953259D01*
G01X355599Y-953237D01*
G01X351542Y-952451D01*
G01X347486Y-951666D01*
G01X345943Y-949937D01*
G01X344400Y-948208D01*
G01X344018Y-944090D01*
G01X343636Y-939972D01*
G01X342520Y-936249D01*
G01X341405Y-932525D01*
G01X340830Y-917909D01*
G01X339603Y-914456D01*
G01X338377Y-911003D01*
G01X338377Y-903743D01*
G01X339587Y-902203D01*
G01X340797Y-900662D01*
G01X341484Y-900665D01*
G01X342171Y-900668D01*
G01X345674Y-903596D01*
G01X350011Y-905647D01*
G01X354348Y-907698D01*
G01X356205Y-909117D01*
G01X358062Y-910535D01*
G01X360555Y-915392D01*
G01X363048Y-920248D01*
G01X365754Y-923171D01*
G01X367484Y-927320D01*
G01X369412Y-940126D01*
G01X368641Y-948259D01*
G01X367816Y-949857D01*
G37*
G36*
G01X1393045Y-1147487D02*
G01X1391057Y-1148319D01*
G01X1389069Y-1149151D01*
G01X1387744Y-1148282D01*
G01X1386419Y-1147412D01*
G01X1386051Y-1146250D01*
G01X1385683Y-1145087D01*
G01X1387233Y-1141411D01*
G01X1388784Y-1137735D01*
G01X1390255Y-1134255D01*
G01X1391727Y-1130775D01*
G01X1391792Y-1130395D01*
G01X1400634Y-1130395D01*
G01X1401250Y-1131384D01*
G01X1401866Y-1132373D01*
G01X1401866Y-1132373D01*
G01X1403121Y-1133207D01*
G01X1404376Y-1134041D01*
G01X1407421Y-1130992D01*
G01X1407009Y-1129686D01*
G01X1406596Y-1128380D01*
G01X1405720Y-1127038D01*
G01X1404844Y-1125696D01*
G01X1403990Y-1125869D01*
G01X1403137Y-1126042D01*
G01X1401886Y-1128218D01*
G01X1400634Y-1130395D01*
G01X1391792Y-1130395D01*
G01X1392581Y-1125778D01*
G01X1393436Y-1120780D01*
G01X1394485Y-1117857D01*
G01X1395535Y-1114934D01*
G01X1398414Y-1108205D01*
G01X1399523Y-1106979D01*
G01X1400632Y-1105752D01*
G01X1403787Y-1104118D01*
G01X1404972Y-1104118D01*
G01X1406988Y-1105890D01*
G01X1409003Y-1107662D01*
G01X1409404Y-1110039D01*
G01X1409805Y-1112416D01*
G01X1411422Y-1115493D01*
G01X1413039Y-1118571D01*
G01X1413958Y-1121429D01*
G01X1414876Y-1124288D01*
G01X1415615Y-1130134D01*
G01X1417406Y-1135981D01*
G01X1418188Y-1137234D01*
G01X1418971Y-1138488D01*
G01X1421435Y-1145812D01*
G01X1420376Y-1146842D01*
G01X1419317Y-1147871D01*
G01X1415848Y-1147256D01*
G01X1412379Y-1146642D01*
G01X1410110Y-1144995D01*
G01X1407840Y-1143349D01*
G01X1405849Y-1142691D01*
G01X1403858Y-1142033D01*
G01X1400735Y-1142942D01*
G01X1397612Y-1143851D01*
G01X1395328Y-1145669D01*
G01X1393045Y-1147487D01*
G37*
G36*
G01X417304Y-1149720D02*
G01X409233Y-1149720D01*
G01X405769Y-1149084D01*
G01X402305Y-1148448D01*
G01X401262Y-1147512D01*
G01X400219Y-1146577D01*
G01X397891Y-1141307D01*
G01X396452Y-1139418D01*
G01X395014Y-1137529D01*
G01X393273Y-1130134D01*
G01X393273Y-1123703D01*
G01X393414Y-1123103D01*
G01X400261Y-1123103D01*
G01X400261Y-1130734D01*
G01X401575Y-1131311D01*
G01X402888Y-1131888D01*
G01X404056Y-1134275D01*
G01X405224Y-1136663D01*
G01X405939Y-1138370D01*
G01X406653Y-1140076D01*
G01X406653Y-1140076D01*
G01X408223Y-1141030D01*
G01X409792Y-1141984D01*
G01X412371Y-1141104D01*
G01X414949Y-1140224D01*
G01X419361Y-1135626D01*
G01X420028Y-1133397D01*
G01X420695Y-1131168D01*
G01X420695Y-1122669D01*
G01X420028Y-1120440D01*
G01X419361Y-1118211D01*
G01X417146Y-1115903D01*
G01X414931Y-1113594D01*
G01X412412Y-1112734D01*
G01X409894Y-1111873D01*
G01X408280Y-1112804D01*
G01X406665Y-1113735D01*
G01X405944Y-1115455D01*
G01X405224Y-1117175D01*
G01X404056Y-1119562D01*
G01X402888Y-1121949D01*
G01X401575Y-1122526D01*
G01X400261Y-1123103D01*
G01X393414Y-1123103D01*
G01X395014Y-1116308D01*
G01X396452Y-1114419D01*
G01X397891Y-1112531D01*
G01X400219Y-1107261D01*
G01X401262Y-1106325D01*
G01X402305Y-1105389D01*
G01X405769Y-1104754D01*
G01X409233Y-1104118D01*
G01X413359Y-1104127D01*
G01X417484Y-1104137D01*
G01X419318Y-1105314D01*
G01X421151Y-1106490D01*
G01X421884Y-1108263D01*
G01X422618Y-1110035D01*
G01X424610Y-1111557D01*
G01X426602Y-1113079D01*
G01X427589Y-1114883D01*
G01X428576Y-1116687D01*
G01X428576Y-1137150D01*
G01X427564Y-1139004D01*
G01X426551Y-1140858D01*
G01X424777Y-1142123D01*
G01X423004Y-1143387D01*
G01X420806Y-1147673D01*
G01X419055Y-1148697D01*
G01X417304Y-1149720D01*
G37*
G36*
G01X283789Y-1149356D02*
G01X273228Y-1149849D01*
G01X269485Y-1148888D01*
G01X265741Y-1147928D01*
G01X264688Y-1146974D01*
G01X263635Y-1146019D01*
G01X262474Y-1142254D01*
G01X261312Y-1138488D01*
G01X261312Y-1130311D01*
G01X263126Y-1128615D01*
G01X264939Y-1126919D01*
G01X273885Y-1126919D01*
G01X276064Y-1128401D01*
G01X278243Y-1129884D01*
G01X278243Y-1131713D01*
G01X276262Y-1133554D01*
G01X274282Y-1135396D01*
G01X272434Y-1136784D01*
G01X270586Y-1138172D01*
G01X273057Y-1140806D01*
G01X281078Y-1141597D01*
G01X282277Y-1140848D01*
G01X283475Y-1140098D01*
G01X283869Y-1139209D01*
G01X284264Y-1138319D01*
G01X285086Y-1131888D01*
G01X285866Y-1127675D01*
G01X286646Y-1123461D01*
G01X284597Y-1116687D01*
G01X284009Y-1115158D01*
G01X283421Y-1113628D01*
G01X280698Y-1112169D01*
G01X277743Y-1113152D01*
G01X274789Y-1114134D01*
G01X270387Y-1117126D01*
G01X265878Y-1118719D01*
G01X264776Y-1118128D01*
G01X263674Y-1117538D01*
G01X262414Y-1115179D01*
G01X263626Y-1113214D01*
G01X264839Y-1111249D01*
G01X265714Y-1110913D01*
G01X266590Y-1110577D01*
G01X267793Y-1108535D01*
G01X268995Y-1106494D01*
G01X272835Y-1104118D01*
G01X277436Y-1104157D01*
G01X282038Y-1104196D01*
G01X286709Y-1105667D01*
G01X288025Y-1106376D01*
G01X289341Y-1107085D01*
G01X291105Y-1110585D01*
G01X292870Y-1114085D01*
G01X293719Y-1118894D01*
G01X294569Y-1123703D01*
G01X294569Y-1130134D01*
G01X293719Y-1134943D01*
G01X292870Y-1139753D01*
G01X289271Y-1146891D01*
G01X283789Y-1149356D01*
G37*
G36*
G01X1313897Y-1149720D02*
G01X1312653Y-1149720D01*
G01X1308975Y-1145749D01*
G01X1307333Y-1143934D01*
G01X1305691Y-1142119D01*
G01X1297549Y-1142119D01*
G01X1296121Y-1143057D01*
G01X1294692Y-1143994D01*
G01X1292232Y-1147981D01*
G01X1291150Y-1148560D01*
G01X1290068Y-1149140D01*
G01X1288429Y-1148428D01*
G01X1286790Y-1147716D01*
G01X1284331Y-1146188D01*
G01X1285811Y-1141242D01*
G01X1287715Y-1130841D01*
G01X1288848Y-1127612D01*
G01X1289981Y-1124384D01*
G01X1291106Y-1123167D01*
G01X1292232Y-1121949D01*
G01X1293377Y-1117272D01*
G01X1294113Y-1112707D01*
G01X1294848Y-1108143D01*
G01X1295970Y-1106715D01*
G01X1297091Y-1105287D01*
G01X1299530Y-1105380D01*
G01X1301969Y-1105474D01*
G01X1305642Y-1105937D01*
G01X1306582Y-1106977D01*
G01X1307522Y-1108018D01*
G01X1308993Y-1114984D01*
G01X1310463Y-1121949D01*
G01X1311700Y-1127796D01*
G01X1313062Y-1129550D01*
G01X1313845Y-1130942D01*
G01X1314627Y-1132335D01*
G01X1315491Y-1134742D01*
G01X1316355Y-1137150D01*
G01X1317832Y-1146260D01*
G01X1313897Y-1149720D01*
G37*
G36*
G01X1068030Y-1145920D02*
G01X1066109Y-1148085D01*
G01X1062953Y-1149720D01*
G01X1061768Y-1149720D01*
G01X1057641Y-1146091D01*
G01X1057616Y-1144166D01*
G01X1056121Y-1140073D01*
G01X1054626Y-1135981D01*
G01X1051317Y-1124872D01*
G01X1050933Y-1122534D01*
G01X1050549Y-1120195D01*
G01X1048735Y-1111426D01*
G01X1046887Y-1108222D01*
G01X1047448Y-1107696D01*
G01X1048008Y-1107171D01*
G01X1051511Y-1106569D01*
G01X1055014Y-1105967D01*
G01X1056029Y-1106952D01*
G01X1057044Y-1107937D01*
G01X1058522Y-1115375D01*
G01X1060000Y-1122814D01*
G01X1060511Y-1124159D01*
G01X1061022Y-1125505D01*
G01X1061881Y-1126219D01*
G01X1062740Y-1126933D01*
G01X1063534Y-1125976D01*
G01X1064327Y-1125019D01*
G01X1066968Y-1117053D01*
G01X1069609Y-1109087D01*
G01X1072236Y-1107829D01*
G01X1074864Y-1106571D01*
G01X1076387Y-1106231D01*
G01X1077911Y-1105890D01*
G01X1079796Y-1107977D01*
G01X1079161Y-1110286D01*
G01X1078526Y-1112595D01*
G01X1075830Y-1117930D01*
G01X1074563Y-1124872D01*
G01X1072883Y-1131011D01*
G01X1071203Y-1137150D01*
G01X1068030Y-1145920D01*
G37*
G36*
G01X1462976Y-1146453D02*
G01X1461044Y-1147940D01*
G01X1459113Y-1149427D01*
G01X1441845Y-1149403D01*
G01X1438401Y-1146099D01*
G01X1437783Y-1143639D01*
G01X1437164Y-1141180D01*
G01X1435450Y-1139650D01*
G01X1433735Y-1138120D01*
G01X1432802Y-1134012D01*
G01X1431869Y-1129903D01*
G01X1431869Y-1123934D01*
G01X1432067Y-1123060D01*
G01X1441210Y-1123060D01*
G01X1441247Y-1131303D01*
G01X1442057Y-1132374D01*
G01X1442868Y-1133445D01*
G01X1444246Y-1139200D01*
G01X1445793Y-1140291D01*
G01X1445793Y-1140291D01*
G01X1447340Y-1141381D01*
G01X1450045Y-1142223D01*
G01X1454638Y-1139180D01*
G01X1454638Y-1114683D01*
G01X1452459Y-1113201D01*
G01X1450280Y-1111718D01*
G01X1448972Y-1111718D01*
G01X1447016Y-1113038D01*
G01X1445060Y-1114358D01*
G01X1442362Y-1121907D01*
G01X1441210Y-1123060D01*
G01X1432067Y-1123060D01*
G01X1432780Y-1119922D01*
G01X1433691Y-1115909D01*
G01X1435371Y-1114150D01*
G01X1437050Y-1112390D01*
G01X1437754Y-1110037D01*
G01X1438458Y-1107684D01*
G01X1441729Y-1104545D01*
G01X1457849Y-1104039D01*
G01X1459600Y-1104989D01*
G01X1461352Y-1105938D01*
G01X1462164Y-1106739D01*
G01X1462976Y-1107540D01*
G01X1462976Y-1146453D01*
G37*
G36*
G01X835666Y-1149720D02*
G01X834533Y-1149720D01*
G01X831119Y-1146302D01*
G01X831096Y-1135396D01*
G01X830524Y-1131430D01*
G01X829951Y-1127464D01*
G01X829087Y-1125583D01*
G01X828223Y-1123703D01*
G01X826241Y-1120968D01*
G01X824259Y-1118233D01*
G01X822345Y-1109745D01*
G01X821448Y-1108753D01*
G01X820552Y-1107760D01*
G01X824405Y-1106352D01*
G01X825961Y-1105875D01*
G01X827516Y-1105397D01*
G01X828661Y-1106658D01*
G01X829805Y-1107918D01*
G01X832422Y-1116103D01*
G01X833458Y-1117191D01*
G01X834493Y-1118280D01*
G01X836656Y-1117068D01*
G01X841920Y-1106749D01*
G01X850100Y-1106411D01*
G01X851226Y-1107235D01*
G01X852352Y-1108060D01*
G01X849920Y-1109597D01*
G01X847488Y-1111134D01*
G01X847159Y-1112741D01*
G01X846829Y-1114349D01*
G01X846226Y-1116687D01*
G01X845622Y-1119026D01*
G01X842710Y-1124942D01*
G01X839799Y-1130857D01*
G01X839451Y-1138681D01*
G01X839104Y-1146504D01*
G01X835666Y-1149720D01*
G37*
G36*
G01X969160Y-1146153D02*
G01X966554Y-1147321D01*
G01X963948Y-1148489D01*
G01X962629Y-1147248D01*
G01X961310Y-1146007D01*
G01X962266Y-1144502D01*
G01X963222Y-1142996D01*
G01X964622Y-1141827D01*
G01X966022Y-1140658D01*
G01X967385Y-1135679D01*
G01X968747Y-1130700D01*
G01X967176Y-1125070D01*
G01X965604Y-1119440D01*
G01X962464Y-1115703D01*
G01X962692Y-1115250D01*
G01X973033Y-1115250D01*
G01X973354Y-1116088D01*
G01X973675Y-1116926D01*
G01X973675Y-1116926D01*
G01X976143Y-1118122D01*
G01X978610Y-1119318D01*
G01X979722Y-1119318D01*
G01X981901Y-1117836D01*
G01X984080Y-1116353D01*
G01X984080Y-1114683D01*
G01X979701Y-1111681D01*
G01X976782Y-1112394D01*
G01X973033Y-1115250D01*
G01X962692Y-1115250D01*
G01X963984Y-1112688D01*
G01X965505Y-1109672D01*
G01X966196Y-1108223D01*
G01X966887Y-1106775D01*
G01X970825Y-1104118D01*
G01X979058Y-1104121D01*
G01X987291Y-1104125D01*
G01X989041Y-1105039D01*
G01X990791Y-1105953D01*
G01X992633Y-1107622D01*
G01X992552Y-1118001D01*
G01X992471Y-1128380D01*
G01X992253Y-1146063D01*
G01X989480Y-1147267D01*
G01X986707Y-1148472D01*
G01X985393Y-1147240D01*
G01X984080Y-1146008D01*
G01X984073Y-1138319D01*
G01X983470Y-1136145D01*
G01X982867Y-1133971D01*
G01X981378Y-1132199D01*
G01X979889Y-1130427D01*
G01X978376Y-1130427D01*
G01X977455Y-1131834D01*
G01X976534Y-1133241D01*
G01X975842Y-1136073D01*
G01X975150Y-1138904D01*
G01X974061Y-1141088D01*
G01X972972Y-1143272D01*
G01X971374Y-1144290D01*
G01X969776Y-1145308D01*
G01X969468Y-1145730D01*
G01X969160Y-1146153D01*
G37*
G36*
G01X1268276Y-1149720D02*
G01X1267142Y-1149720D01*
G01X1265524Y-1148099D01*
G01X1263906Y-1146479D01*
G01X1263054Y-1137820D01*
G01X1261864Y-1135285D01*
G01X1260674Y-1132750D01*
G01X1260222Y-1132470D01*
G01X1259770Y-1132190D01*
G01X1258888Y-1133538D01*
G01X1258006Y-1134886D01*
G01X1256439Y-1139307D01*
G01X1254871Y-1143729D01*
G01X1252795Y-1147148D01*
G01X1248258Y-1148450D01*
G01X1244496Y-1149221D01*
G01X1241544Y-1146265D01*
G01X1241544Y-1107572D01*
G01X1242977Y-1106137D01*
G01X1244410Y-1104702D01*
G01X1244874Y-1104719D01*
G01X1245339Y-1104735D01*
G01X1247966Y-1106078D01*
G01X1250593Y-1107420D01*
G01X1251177Y-1117272D01*
G01X1251799Y-1118322D01*
G01X1252421Y-1119373D01*
G01X1254060Y-1116358D01*
G01X1255699Y-1113343D01*
G01X1258132Y-1112265D01*
G01X1260565Y-1111187D01*
G01X1261871Y-1108859D01*
G01X1263178Y-1106532D01*
G01X1265128Y-1105325D01*
G01X1267078Y-1104118D01*
G01X1268276Y-1104118D01*
G01X1270089Y-1105814D01*
G01X1271902Y-1107510D01*
G01X1271902Y-1146327D01*
G01X1270089Y-1148024D01*
G01X1268276Y-1149720D01*
G37*
G36*
G01X1115647Y-1149716D02*
G01X1114979Y-1149720D01*
G01X1113166Y-1148024D01*
G01X1111352Y-1146327D01*
G01X1111352Y-1107510D01*
G01X1113166Y-1105814D01*
G01X1114979Y-1104118D01*
G01X1115647Y-1104121D01*
G01X1116315Y-1104123D01*
G01X1118038Y-1105504D01*
G01X1119762Y-1106885D01*
G01X1120559Y-1116178D01*
G01X1123174Y-1121312D01*
G01X1124255Y-1119976D01*
G01X1125336Y-1118639D01*
G01X1126648Y-1115032D01*
G01X1127960Y-1111426D01*
G01X1132945Y-1106569D01*
G01X1135640Y-1105649D01*
G01X1138336Y-1104730D01*
G01X1139426Y-1105314D01*
G01X1140517Y-1105898D01*
G01X1141114Y-1107016D01*
G01X1141711Y-1108133D01*
G01X1141711Y-1145704D01*
G01X1141114Y-1146822D01*
G01X1140517Y-1147939D01*
G01X1138161Y-1149201D01*
G01X1136141Y-1147951D01*
G01X1134121Y-1146701D01*
G01X1134121Y-1138477D01*
G01X1131005Y-1132745D01*
G01X1129945Y-1134363D01*
G01X1128885Y-1135981D01*
G01X1127685Y-1138941D01*
G01X1126485Y-1141901D01*
G01X1123005Y-1144968D01*
G01X1119525Y-1148036D01*
G01X1117920Y-1148874D01*
G01X1116315Y-1149712D01*
G01X1115647Y-1149716D01*
G37*
G36*
G01X236085Y-1149720D02*
G01X234951Y-1149720D01*
G01X231538Y-1146302D01*
G01X231515Y-1135396D01*
G01X230942Y-1131430D01*
G01X230369Y-1127464D01*
G01X229505Y-1125583D01*
G01X228641Y-1123703D01*
G01X226659Y-1120968D01*
G01X224678Y-1118233D01*
G01X222763Y-1109745D01*
G01X221867Y-1108753D01*
G01X220970Y-1107760D01*
G01X224824Y-1106352D01*
G01X226379Y-1105875D01*
G01X227935Y-1105397D01*
G01X229079Y-1106658D01*
G01X230223Y-1107918D01*
G01X232841Y-1116103D01*
G01X233876Y-1117191D01*
G01X234912Y-1118280D01*
G01X237074Y-1117068D01*
G01X242338Y-1106749D01*
G01X246332Y-1106574D01*
G01X250325Y-1106400D01*
G01X252042Y-1107827D01*
G01X249671Y-1109998D01*
G01X247301Y-1112168D01*
G01X247301Y-1115079D01*
G01X246412Y-1117637D01*
G01X245523Y-1120195D01*
G01X242871Y-1125502D01*
G01X240219Y-1130809D01*
G01X239522Y-1146504D01*
G01X236085Y-1149720D01*
G37*
G36*
G01X1176310Y-1149720D02*
G01X1168370Y-1149720D01*
G01X1164728Y-1149085D01*
G01X1161086Y-1148449D01*
G01X1159937Y-1147184D01*
G01X1158789Y-1145920D01*
G01X1157591Y-1142119D01*
G01X1156393Y-1138319D01*
G01X1155053Y-1128380D01*
G01X1155431Y-1107425D01*
G01X1158058Y-1106080D01*
G01X1160685Y-1104735D01*
G01X1161058Y-1104719D01*
G01X1161431Y-1104702D01*
G01X1164188Y-1106935D01*
G01X1164494Y-1122834D01*
G01X1164799Y-1138732D01*
G01X1166699Y-1140432D01*
G01X1168599Y-1142132D01*
G01X1170190Y-1141309D01*
G01X1171780Y-1140485D01*
G01X1173732Y-1138319D01*
G01X1174975Y-1134987D01*
G01X1176218Y-1131655D01*
G01X1178491Y-1130932D01*
G01X1178491Y-1107780D01*
G01X1181383Y-1107208D01*
G01X1184275Y-1106635D01*
G01X1185497Y-1107859D01*
G01X1185446Y-1130134D01*
G01X1184951Y-1134414D01*
G01X1184456Y-1138694D01*
G01X1183292Y-1139968D01*
G01X1182129Y-1141242D01*
G01X1181332Y-1144166D01*
G01X1180719Y-1145768D01*
G01X1180106Y-1147371D01*
G01X1178208Y-1148545D01*
G01X1176310Y-1149720D01*
G37*
G36*
G01X449609Y-1148779D02*
G01X448081Y-1149782D01*
G01X446794Y-1149390D01*
G01X445507Y-1148999D01*
G01X443602Y-1147570D01*
G01X441697Y-1146140D01*
G01X442004Y-1107425D01*
G01X444632Y-1106080D01*
G01X447259Y-1104735D01*
G01X447723Y-1104719D01*
G01X448187Y-1104702D01*
G01X450897Y-1107416D01*
G01X451601Y-1111467D01*
G01X452306Y-1115518D01*
G01X453821Y-1117507D01*
G01X455336Y-1119497D01*
G01X456306Y-1118296D01*
G01X457277Y-1117096D01*
G01X460562Y-1107918D01*
G01X461653Y-1106703D01*
G01X462744Y-1105489D01*
G01X466670Y-1106015D01*
G01X470595Y-1106542D01*
G01X471333Y-1107155D01*
G01X472071Y-1107769D01*
G01X472071Y-1145978D01*
G01X470849Y-1147202D01*
G01X467957Y-1146629D01*
G01X465065Y-1146057D01*
G01X465065Y-1138208D01*
G01X462730Y-1136092D01*
G01X462730Y-1137308D01*
G01X461124Y-1138371D01*
G01X459519Y-1139434D01*
G01X457219Y-1139754D01*
G01X454918Y-1140073D01*
G01X451136Y-1147777D01*
G01X449609Y-1148779D01*
G37*
G36*
G01X872982Y-1149119D02*
G01X872517Y-1149135D01*
G01X871084Y-1147700D01*
G01X869651Y-1146265D01*
G01X869651Y-1115110D01*
G01X867838Y-1113414D01*
G01X866025Y-1111718D01*
G01X864668Y-1111718D01*
G01X862489Y-1110235D01*
G01X860310Y-1108753D01*
G01X860310Y-1107083D01*
G01X862489Y-1105600D01*
G01X864668Y-1104118D01*
G01X873436Y-1104183D01*
G01X882204Y-1104248D01*
G01X885123Y-1104805D01*
G01X888042Y-1105361D01*
G01X890667Y-1107828D01*
G01X888626Y-1110116D01*
G01X883796Y-1112204D01*
G01X881404Y-1113716D01*
G01X879012Y-1115228D01*
G01X878856Y-1130820D01*
G01X878701Y-1146412D01*
G01X876073Y-1147757D01*
G01X873446Y-1149102D01*
G01X872982Y-1149119D01*
G37*
G36*
G01X633205Y-1146265D02*
G01X631772Y-1147700D01*
G01X630339Y-1149135D01*
G01X629875Y-1149119D01*
G01X629410Y-1149102D01*
G01X626783Y-1147757D01*
G01X624156Y-1146412D01*
G01X624000Y-1130820D01*
G01X623845Y-1115228D01*
G01X621453Y-1113716D01*
G01X619061Y-1112204D01*
G01X614231Y-1110116D01*
G01X612189Y-1107828D01*
G01X614815Y-1105385D01*
G01X618279Y-1104751D01*
G01X621743Y-1104118D01*
G01X638188Y-1104118D01*
G01X640367Y-1105600D01*
G01X642546Y-1107083D01*
G01X642546Y-1108753D01*
G01X640367Y-1110235D01*
G01X638188Y-1111718D01*
G01X636831Y-1111718D01*
G01X635018Y-1113414D01*
G01X633205Y-1115110D01*
G01X633205Y-1146265D01*
G37*
G36*
G01X586017Y-1149694D02*
G01X576485Y-1149720D01*
G01X574749Y-1147982D01*
G01X573014Y-1146244D01*
G01X574248Y-1143933D01*
G01X575541Y-1143026D01*
G01X576834Y-1142119D01*
G01X585117Y-1142119D01*
G01X588567Y-1141481D01*
G01X592017Y-1140842D01*
G01X593637Y-1139687D01*
G01X595257Y-1138532D01*
G01X595257Y-1130506D01*
G01X593612Y-1129334D01*
G01X591968Y-1128161D01*
G01X586461Y-1127220D01*
G01X580953Y-1126279D01*
G01X578326Y-1124991D01*
G01X575699Y-1123703D01*
G01X575699Y-1122534D01*
G01X578326Y-1121246D01*
G01X580953Y-1119958D01*
G01X586461Y-1119017D01*
G01X591968Y-1118076D01*
G01X593700Y-1116841D01*
G01X595432Y-1115606D01*
G01X593771Y-1114280D01*
G01X592111Y-1112955D01*
G01X588283Y-1112365D01*
G01X584456Y-1111775D01*
G01X580434Y-1111399D01*
G01X576411Y-1111023D01*
G01X573610Y-1108218D01*
G01X574230Y-1107058D01*
G01X574850Y-1105898D01*
G01X576150Y-1105183D01*
G01X577450Y-1104468D01*
G01X596132Y-1104186D01*
G01X600731Y-1105139D01*
G01X601789Y-1106447D01*
G01X602846Y-1107755D01*
G01X602846Y-1146082D01*
G01X600761Y-1148662D01*
G01X598155Y-1149165D01*
G01X595549Y-1149669D01*
G01X586017Y-1149694D01*
G37*
G36*
G01X1018626Y-1149694D02*
G01X1009094Y-1149720D01*
G01X1007359Y-1147982D01*
G01X1005623Y-1146244D01*
G01X1006858Y-1143933D01*
G01X1008151Y-1143026D01*
G01X1009444Y-1142119D01*
G01X1017727Y-1142119D01*
G01X1021177Y-1141481D01*
G01X1024626Y-1140842D01*
G01X1026246Y-1139687D01*
G01X1027866Y-1138532D01*
G01X1027866Y-1130506D01*
G01X1026222Y-1129334D01*
G01X1024578Y-1128161D01*
G01X1019070Y-1127220D01*
G01X1013563Y-1126279D01*
G01X1010936Y-1124991D01*
G01X1008308Y-1123703D01*
G01X1008308Y-1122534D01*
G01X1010936Y-1121246D01*
G01X1013563Y-1119958D01*
G01X1019070Y-1119017D01*
G01X1024578Y-1118076D01*
G01X1026309Y-1116841D01*
G01X1028041Y-1115606D01*
G01X1026381Y-1114280D01*
G01X1024720Y-1112955D01*
G01X1020893Y-1112365D01*
G01X1017066Y-1111775D01*
G01X1013043Y-1111399D01*
G01X1009021Y-1111023D01*
G01X1006220Y-1108218D01*
G01X1006840Y-1107058D01*
G01X1007459Y-1105898D01*
G01X1008760Y-1105183D01*
G01X1010060Y-1104468D01*
G01X1028742Y-1104186D01*
G01X1033340Y-1105139D01*
G01X1034398Y-1106447D01*
G01X1035456Y-1107755D01*
G01X1035456Y-1146082D01*
G01X1033370Y-1148662D01*
G01X1030764Y-1149165D01*
G01X1028158Y-1149669D01*
G01X1018626Y-1149694D01*
G37*
G36*
G01X945584Y-1147263D02*
G01X943489Y-1148560D01*
G01X941395Y-1149856D01*
G01X930660Y-1149356D01*
G01X925071Y-1146843D01*
G01X921903Y-1140073D01*
G01X922038Y-1135696D01*
G01X922173Y-1131320D01*
G01X923259Y-1129850D01*
G01X924346Y-1128380D01*
G01X931652Y-1126020D01*
G01X933199Y-1124193D01*
G01X934747Y-1122366D01*
G01X937476Y-1118838D01*
G01X940205Y-1115309D01*
G01X938352Y-1114631D01*
G01X936499Y-1113952D01*
G01X934936Y-1113473D01*
G01X933373Y-1112993D01*
G01X931348Y-1115234D01*
G01X930695Y-1116545D01*
G01X930042Y-1117857D01*
G01X928388Y-1118651D01*
G01X926733Y-1119446D01*
G01X925371Y-1118824D01*
G01X924008Y-1118202D01*
G01X922133Y-1115337D01*
G01X923058Y-1113120D01*
G01X923983Y-1110904D01*
G01X925408Y-1109033D01*
G01X926833Y-1107162D01*
G01X932933Y-1104118D01*
G01X941774Y-1104118D01*
G01X943946Y-1105596D01*
G01X946118Y-1107073D01*
G01X946492Y-1108665D01*
G01X946866Y-1110256D01*
G01X949492Y-1113180D01*
G01X950134Y-1114432D01*
G01X950776Y-1115685D01*
G01X949863Y-1118767D01*
G01X948949Y-1121848D01*
G01X945643Y-1125123D01*
G01X942337Y-1128398D01*
G01X940231Y-1130874D01*
G01X938125Y-1133350D01*
G01X935115Y-1133350D01*
G01X933614Y-1133921D01*
G01X932114Y-1134492D01*
G01X930157Y-1138602D01*
G01X931532Y-1140069D01*
G01X932907Y-1141535D01*
G01X933827Y-1141521D01*
G01X934747Y-1141507D01*
G01X938120Y-1140118D01*
G01X941492Y-1138729D01*
G01X942687Y-1137209D01*
G01X943881Y-1135688D01*
G01X949454Y-1135688D01*
G01X950522Y-1136870D01*
G01X951590Y-1138052D01*
G01X950613Y-1140104D01*
G01X949636Y-1142155D01*
G01X948735Y-1142502D01*
G01X947833Y-1142848D01*
G01X945584Y-1147263D01*
G37*
G36*
G01X559352Y-1138319D02*
G01X554912Y-1146889D01*
G01X549427Y-1149427D01*
G01X538579Y-1149308D01*
G01X535291Y-1146154D01*
G01X534620Y-1143911D01*
G01X533949Y-1141668D01*
G01X531880Y-1140088D01*
G01X529812Y-1138508D01*
G01X530496Y-1137683D01*
G01X531180Y-1136858D01*
G01X538863Y-1136858D01*
G01X542421Y-1140306D01*
G01X544511Y-1141179D01*
G01X546601Y-1142052D01*
G01X548436Y-1140935D01*
G01X550271Y-1139817D01*
G01X550984Y-1136565D01*
G01X551811Y-1133976D01*
G01X552638Y-1131387D01*
G01X552638Y-1122450D01*
G01X551811Y-1119861D01*
G01X550984Y-1117272D01*
G01X550271Y-1114020D01*
G01X548436Y-1112903D01*
G01X546601Y-1111785D01*
G01X544511Y-1112658D01*
G01X542421Y-1113531D01*
G01X538863Y-1116980D01*
G01X531180Y-1116980D01*
G01X530496Y-1116154D01*
G01X529812Y-1115329D01*
G01X531880Y-1113749D01*
G01X533949Y-1112169D01*
G01X534620Y-1109926D01*
G01X535291Y-1107684D01*
G01X536818Y-1106218D01*
G01X538345Y-1104753D01*
G01X543010Y-1104437D01*
G01X547675Y-1104122D01*
G01X552346Y-1105667D01*
G01X553664Y-1106377D01*
G01X554981Y-1107086D01*
G01X557167Y-1111302D01*
G01X559352Y-1115518D01*
G01X559352Y-1138319D01*
G37*
G36*
G01X496591Y-1146265D02*
G01X495158Y-1147700D01*
G01X493725Y-1149135D01*
G01X493261Y-1149119D01*
G01X492797Y-1149102D01*
G01X487542Y-1146412D01*
G01X487542Y-1107426D01*
G01X492797Y-1104735D01*
G01X493261Y-1104719D01*
G01X493725Y-1104702D01*
G01X495158Y-1106137D01*
G01X496591Y-1107572D01*
G01X496591Y-1115926D01*
G01X498405Y-1117622D01*
G01X500218Y-1119318D01*
G01X502265Y-1119318D01*
G01X505704Y-1117572D01*
G01X509143Y-1115825D01*
G01X509873Y-1115818D01*
G01X510603Y-1115810D01*
G01X510603Y-1107780D01*
G01X513495Y-1107208D01*
G01X516386Y-1106635D01*
G01X517609Y-1107859D01*
G01X517609Y-1145978D01*
G01X516386Y-1147202D01*
G01X513495Y-1146629D01*
G01X510603Y-1146057D01*
G01X510603Y-1130427D01*
G01X509873Y-1130419D01*
G01X509143Y-1130412D01*
G01X505704Y-1128665D01*
G01X502265Y-1126919D01*
G01X500218Y-1126919D01*
G01X498405Y-1128615D01*
G01X496591Y-1130311D01*
G01X496591Y-1146265D01*
G37*
G36*
G01X374865Y-1149427D02*
G01X365940Y-1149626D01*
G01X357015Y-1149825D01*
G01X355598Y-1148896D01*
G01X354181Y-1147966D01*
G01X352968Y-1145697D01*
G01X355788Y-1142413D01*
G01X361024Y-1142097D01*
G01X366259Y-1141781D01*
G01X368373Y-1140166D01*
G01X370487Y-1138552D01*
G01X370487Y-1107859D01*
G01X371888Y-1106456D01*
G01X379685Y-1106456D01*
G01X380348Y-1107257D01*
G01X381011Y-1108057D01*
G01X380857Y-1127281D01*
G01X380703Y-1146504D01*
G01X374865Y-1149427D01*
G37*
G36*
G01X1369108Y-1149427D02*
G01X1360183Y-1149626D01*
G01X1351258Y-1149825D01*
G01X1349841Y-1148896D01*
G01X1348424Y-1147966D01*
G01X1347211Y-1145697D01*
G01X1350031Y-1142413D01*
G01X1355267Y-1142097D01*
G01X1360502Y-1141781D01*
G01X1362616Y-1140166D01*
G01X1364730Y-1138552D01*
G01X1364730Y-1107859D01*
G01X1366131Y-1106456D01*
G01X1373928Y-1106456D01*
G01X1374591Y-1107257D01*
G01X1375254Y-1108057D01*
G01X1375100Y-1127281D01*
G01X1374946Y-1146504D01*
G01X1369108Y-1149427D01*
G37*
G36*
G01X716253Y-1147267D02*
G01X713480Y-1148472D01*
G01X712166Y-1147240D01*
G01X710853Y-1146008D01*
G01X710853Y-1129858D01*
G01X708663Y-1128442D01*
G01X706474Y-1127025D01*
G01X702304Y-1126345D01*
G01X698133Y-1125665D01*
G01X696900Y-1124350D01*
G01X695667Y-1123036D01*
G01X696984Y-1121802D01*
G01X698301Y-1120568D01*
G01X706474Y-1119203D01*
G01X708663Y-1117791D01*
G01X710853Y-1116379D01*
G01X710853Y-1114683D01*
G01X708674Y-1113201D01*
G01X706495Y-1111718D01*
G01X697968Y-1111718D01*
G01X695042Y-1109798D01*
G01X694448Y-1108686D01*
G01X693853Y-1107574D01*
G01X695701Y-1105846D01*
G01X697548Y-1104118D01*
G01X705806Y-1104121D01*
G01X714064Y-1104125D01*
G01X715814Y-1105039D01*
G01X717564Y-1105953D01*
G01X719406Y-1107622D01*
G01X719325Y-1118001D01*
G01X719244Y-1128380D01*
G01X719026Y-1146063D01*
G01X716253Y-1147267D01*
G37*
G36*
G01X1093714Y-1149720D02*
G01X1092580Y-1149720D01*
G01X1089167Y-1146302D01*
G01X1089167Y-1107536D01*
G01X1092580Y-1104118D01*
G01X1093714Y-1104118D01*
G01X1095527Y-1105814D01*
G01X1097341Y-1107510D01*
G01X1097341Y-1146327D01*
G01X1095527Y-1148024D01*
G01X1093714Y-1149720D01*
G37*
G36*
G01X903973Y-1149720D02*
G01X902839Y-1149720D01*
G01X899426Y-1146302D01*
G01X899426Y-1107536D01*
G01X902839Y-1104118D01*
G01X903973Y-1104118D01*
G01X905786Y-1105814D01*
G01X907600Y-1107510D01*
G01X907600Y-1146327D01*
G01X905786Y-1148024D01*
G01X903973Y-1149720D01*
G37*
G36*
G01X1337290Y-1107859D02*
G01X1337290Y-1145978D01*
G01X1336068Y-1147202D01*
G01X1333176Y-1146629D01*
G01X1330284Y-1146057D01*
G01X1330284Y-1107780D01*
G01X1333176Y-1107208D01*
G01X1336068Y-1106635D01*
G01X1337290Y-1107859D01*
G37*
G04 Image End*

G04 Text Start*
G36*
G01X1118776Y909139D02*
G01X1102612Y902212D01*
G01X1097224Y900673D01*
G01X1090297Y898363D01*
G01X1084139Y896054D01*
G01X1074133Y895285D01*
G01X1067206Y896054D01*
G01X1063357Y898363D01*
G01X1061626Y903751D01*
G01X1061048Y913757D01*
G01X1061818Y928382D01*
G01X1063357Y948394D01*
G01X1064897Y957630D01*
G01X1065666Y974563D01*
G01X1066436Y986879D01*
G01X1067976Y1022285D01*
G01X1069515Y1082321D01*
G01X1070285Y1110800D01*
G01X1069707Y1131197D01*
G01X1067976Y1140049D01*
G01X1061818Y1143897D01*
G01X1051812Y1144666D01*
G01X1043345Y1145436D01*
G01X1029491Y1146206D01*
G01X1001782Y1144666D01*
G01X990236Y1144666D01*
G01X989466Y1148515D01*
G01X989466Y1156212D01*
G01X991776Y1163139D01*
G01X994085Y1169297D01*
G01X996394Y1174685D01*
G01X999472Y1180842D01*
G01X1003321Y1186230D01*
G01X1007939Y1189309D01*
G01X1014097Y1190079D01*
G01X1034879Y1183151D01*
G01X1043345Y1180842D01*
G01X1051042Y1179303D01*
G01X1060279Y1178533D01*
G01X1067206Y1178533D01*
G01X1068745Y1183151D01*
G01X1070285Y1227024D01*
G01X1069515Y1268588D01*
G01X1066436Y1280903D01*
G01X1064127Y1287060D01*
G01X1063357Y1293988D01*
G01X1066436Y1298606D01*
G01X1071054Y1300915D01*
G01X1077982Y1303224D01*
G01X1087218Y1305533D01*
G01X1094145Y1307073D01*
G01X1100303Y1308612D01*
G01X1107230Y1309382D01*
G01X1111848Y1307073D01*
G01X1112618Y1299376D01*
G01X1108000Y1283982D01*
G01X1105691Y1273206D01*
G01X1104151Y1221636D01*
G01X1104729Y1186423D01*
G01X1106460Y1173145D01*
G01X1113388Y1169297D01*
G01X1122624Y1167757D01*
G01X1130321Y1166218D01*
G01X1137248Y1164679D01*
G01X1143406Y1163909D01*
G01X1157260Y1160830D01*
G01X1169576Y1157751D01*
G01X1177272Y1156212D01*
G01X1185739Y1153903D01*
G01X1194976Y1152363D01*
G01X1203442Y1151594D01*
G01X1209600Y1150054D01*
G01X1218066Y1149285D01*
G01X1221915Y1150247D01*
G01X1224224Y1153133D01*
G01X1225763Y1161600D01*
G01X1224994Y1168527D01*
G01X1223454Y1183921D01*
G01X1222685Y1190849D01*
G01X1221145Y1198545D01*
G01X1218836Y1206242D01*
G01X1216527Y1213170D01*
G01X1214988Y1219327D01*
G01X1215565Y1222406D01*
G01X1217297Y1223945D01*
G01X1221915Y1226254D01*
G01X1229612Y1229333D01*
G01X1237309Y1231642D01*
G01X1252703Y1234721D01*
G01X1258091Y1235491D01*
G01X1263479Y1234721D01*
G01X1278872Y1230103D01*
G01X1285030Y1227794D01*
G01X1294266Y1224715D01*
G01X1301963Y1222406D01*
G01X1307351Y1220097D01*
G01X1315818Y1217018D01*
G01X1326594Y1215479D01*
G01X1335060Y1217018D01*
G01X1337947Y1217595D01*
G01X1340448Y1216249D01*
G01X1343527Y1208551D01*
G01X1344297Y1163909D01*
G01X1343527Y1122345D01*
G01X1342757Y1082321D01*
G01X1343335Y1053457D01*
G01X1345066Y1042297D01*
G01X1351224Y1038449D01*
G01X1362000Y1033060D01*
G01X1367388Y1030751D01*
G01X1381242Y1024594D01*
G01X1387400Y1021515D01*
G01X1389516Y1019591D01*
G01X1389709Y1016897D01*
G01X1385860Y1010739D01*
G01X1380472Y1006121D01*
G01X1376624Y1002273D01*
G01X1372006Y998424D01*
G01X1365848Y994576D01*
G01X1359691Y991497D01*
G01X1356997Y991497D01*
G01X1355072Y993036D01*
G01X1343527Y1004582D01*
G01X1335830Y1010739D01*
G01X1329672Y1015357D01*
G01X1321976Y1020745D01*
G01X1311200Y1028442D01*
G01X1298885Y1036139D01*
G01X1288109Y1043836D01*
G01X1267327Y1057691D01*
G01X1260400Y1060770D01*
G01X1256551Y1061539D01*
G01X1256551Y1035370D01*
G01X1257321Y1006891D01*
G01X1258860Y1000733D01*
G01X1260400Y997654D01*
G01X1263479Y996115D01*
G01X1271945Y995345D01*
G01X1278872Y996115D01*
G01X1283491Y996115D01*
G01X1285800Y993806D01*
G01X1282721Y988418D01*
G01X1273485Y979182D01*
G01X1268097Y974563D01*
G01X1257321Y966866D01*
G01X1249624Y962249D01*
G01X1242697Y959939D01*
G01X1240003Y960901D01*
G01X1238079Y963788D01*
G01X1235000Y970715D01*
G01X1232691Y977642D01*
G01X1231151Y983800D01*
G01X1229612Y1059230D01*
G01X1228072Y1083860D01*
G01X1227303Y1106182D01*
G01X1226726Y1121383D01*
G01X1224994Y1126963D01*
G01X1222685Y1126579D01*
G01X1220376Y1123885D01*
G01X1217297Y1120806D01*
G01X1212679Y1119266D01*
G01X1199594Y1119266D01*
G01X1197092Y1117535D01*
G01X1195745Y1113879D01*
G01X1193436Y1106182D01*
G01X1191897Y1099254D01*
G01X1190357Y1093097D01*
G01X1188818Y1087709D01*
G01X1188048Y1082321D01*
G01X1184969Y1066927D01*
G01X1184200Y1060770D01*
G01X1181121Y1046915D01*
G01X1179582Y1040757D01*
G01X1176503Y1036139D01*
G01X1171885Y1033830D01*
G01X1167266Y1035370D01*
G01X1159569Y1039988D01*
G01X1155721Y1043066D01*
G01X1150333Y1048454D01*
G01X1146485Y1054612D01*
G01X1144176Y1060770D01*
G01X1144176Y1067697D01*
G01X1146485Y1074624D01*
G01X1148794Y1080782D01*
G01X1151872Y1085400D01*
G01X1158030Y1093097D01*
G01X1177272Y1112339D01*
G01X1180351Y1116188D01*
G01X1182660Y1120036D01*
G01X1184200Y1124654D01*
G01X1182853Y1127156D01*
G01X1178812Y1128503D01*
G01X1170345Y1130812D01*
G01X1163418Y1132351D01*
G01X1157260Y1133121D01*
G01X1146485Y1134660D01*
G01X1140327Y1136200D01*
G01X1131860Y1136970D01*
G01X1256551Y1136970D01*
G01X1257321Y1093674D01*
G01X1259630Y1077703D01*
G01X1267327Y1073854D01*
G01X1275794Y1070776D01*
G01X1283491Y1067697D01*
G01X1290418Y1064618D01*
G01X1290418Y1064618D01*
G01X1298115Y1061539D01*
G01X1305042Y1058460D01*
G01X1311969Y1056151D01*
G01X1317357Y1056151D01*
G01X1318897Y1062309D01*
G01X1319666Y1085400D01*
G01X1318897Y1105412D01*
G01X1316588Y1110030D01*
G01X1311200Y1113879D01*
G01X1305042Y1116957D01*
G01X1299654Y1119266D01*
G01X1292727Y1122345D01*
G01X1285800Y1126194D01*
G01X1279642Y1130042D01*
G01X1274254Y1133891D01*
G01X1271176Y1139279D01*
G01X1271368Y1142935D01*
G01X1273485Y1146206D01*
G01X1280412Y1150054D01*
G01X1291188Y1150054D01*
G01X1300424Y1148515D01*
G01X1308891Y1146976D01*
G01X1313894Y1146976D01*
G01X1316588Y1148515D01*
G01X1318127Y1162370D01*
G01X1317357Y1176224D01*
G01X1315818Y1184691D01*
G01X1312739Y1194697D01*
G01X1308891Y1200085D01*
G01X1303503Y1203163D01*
G01X1291188Y1209321D01*
G01X1285030Y1211630D01*
G01X1277333Y1213170D01*
G01X1268866Y1213939D01*
G01X1261939Y1210860D01*
G01X1258860Y1206820D01*
G01X1257321Y1200854D01*
G01X1256551Y1136970D01*
G01X1131860Y1136970D01*
G01X1124933Y1137739D01*
G01X1117236Y1139279D01*
G01X1109539Y1139279D01*
G01X1105691Y1135430D01*
G01X1104151Y1045376D01*
G01X1104729Y979182D01*
G01X1106460Y954551D01*
G01X1112618Y949163D01*
G01X1118776Y946854D01*
G01X1132630Y946085D01*
G01X1147254Y947624D01*
G01X1154182Y949163D01*
G01X1160339Y949933D01*
G01X1166497Y952242D01*
G01X1173424Y954551D01*
G01X1185739Y959170D01*
G01X1187856Y959170D01*
G01X1188048Y957630D01*
G01X1184969Y953782D01*
G01X1181121Y950703D01*
G01X1175733Y946854D01*
G01X1168036Y941466D01*
G01X1149563Y927612D01*
G01X1144176Y923763D01*
G01X1137248Y919145D01*
G01X1131091Y915297D01*
G01X1118776Y909139D01*
G37*
G36*
G01X541503Y896824D02*
G01X535345Y893745D01*
G01X527648Y890666D01*
G01X520721Y888357D01*
G01X513794Y885279D01*
G01X503018Y882970D01*
G01X497438Y883739D01*
G01X494551Y886049D01*
G01X493012Y902982D01*
G01X492242Y919145D01*
G01X490703Y933000D01*
G01X489933Y953012D01*
G01X490703Y973024D01*
G01X492242Y983800D01*
G01X493782Y1002273D01*
G01X495321Y1008430D01*
G01X496091Y1015357D01*
G01X499169Y1027673D01*
G01X499939Y1033060D01*
G01X502248Y1040757D01*
G01X503788Y1049224D01*
G01X506097Y1054612D01*
G01X508021Y1055766D01*
G01X509176Y1054612D01*
G01X510715Y1013049D01*
G01X512254Y1005351D01*
G01X513024Y990727D01*
G01X513794Y979182D01*
G01X515333Y966866D01*
G01X516872Y958400D01*
G01X519182Y949933D01*
G01X521491Y945315D01*
G01X526109Y941466D01*
G01X532266Y938388D01*
G01X539194Y937618D01*
G01X553048Y940697D01*
G01X559976Y943006D01*
G01X565363Y945315D01*
G01X571521Y947624D01*
G01X578448Y950703D01*
G01X583836Y953782D01*
G01X589224Y957630D01*
G01X596151Y961479D01*
G01X603079Y966097D01*
G01X608466Y970715D01*
G01X620012Y979951D01*
G01X623860Y983800D01*
G01X626939Y987649D01*
G01X627709Y992266D01*
G01X623091Y997654D01*
G01X615394Y1003042D01*
G01X609236Y1007660D01*
G01X604618Y1010739D01*
G01X600769Y1013818D01*
G01X595382Y1017666D01*
G01X589224Y1021515D01*
G01X576909Y1027673D01*
G01X571521Y1029982D01*
G01X566133Y1031521D01*
G01X558436Y1033060D01*
G01X553048Y1033830D01*
G01X553818Y1038449D01*
G01X556897Y1046145D01*
G01X560745Y1051533D01*
G01X564594Y1055382D01*
G01X567672Y1059230D01*
G01X572291Y1062309D01*
G01X578448Y1062309D01*
G01X582297Y1059230D01*
G01X586915Y1055382D01*
G01X591533Y1052303D01*
G01X595382Y1049224D01*
G01X606157Y1041527D01*
G01X613854Y1035370D01*
G01X624630Y1027673D01*
G01X630788Y1023054D01*
G01X638485Y1018436D01*
G01X643872Y1016127D01*
G01X649260Y1018436D01*
G01X653879Y1024594D01*
G01X656188Y1029982D01*
G01X659266Y1036909D01*
G01X660036Y1043836D01*
G01X656188Y1047685D01*
G01X649260Y1050763D01*
G01X638485Y1056151D01*
G01X633097Y1058460D01*
G01X608466Y1070776D01*
G01X601539Y1074624D01*
G01X593842Y1078473D01*
G01X588454Y1081551D01*
G01X585376Y1084630D01*
G01X583836Y1092327D01*
G01X584606Y1100794D01*
G01X586915Y1104642D01*
G01X593072Y1105412D01*
G01X599230Y1103103D01*
G01X604618Y1100794D01*
G01X611545Y1098485D01*
G01X623860Y1093866D01*
G01X646951Y1084630D01*
G01X655418Y1081551D01*
G01X663115Y1078473D01*
G01X670042Y1076933D01*
G01X672929Y1077895D01*
G01X675430Y1080782D01*
G01X678509Y1088479D01*
G01X680048Y1094636D01*
G01X680818Y1100024D01*
G01X678509Y1105412D01*
G01X672351Y1108491D01*
G01X666194Y1110030D01*
G01X653879Y1114649D01*
G01X648491Y1116957D01*
G01X642333Y1120036D01*
G01X636945Y1123115D01*
G01X632327Y1126194D01*
G01X629248Y1130812D01*
G01X627709Y1136200D01*
G01X626939Y1143897D01*
G01X626939Y1149285D01*
G01X632327Y1149285D01*
G01X640024Y1147745D01*
G01X646951Y1144666D01*
G01X656957Y1141588D01*
G01X664654Y1139279D01*
G01X670812Y1136970D01*
G01X678509Y1134660D01*
G01X684666Y1134660D01*
G01X687745Y1139279D01*
G01X688515Y1150054D01*
G01X687745Y1159291D01*
G01X684666Y1171606D01*
G01X682357Y1177763D01*
G01X680818Y1184691D01*
G01X683127Y1189309D01*
G01X686976Y1192388D01*
G01X692363Y1195466D01*
G01X700060Y1198545D01*
G01X706218Y1201624D01*
G01X709297Y1206242D01*
G01X711606Y1211630D01*
G01X714685Y1217018D01*
G01X718533Y1223176D01*
G01X722382Y1230103D01*
G01X724691Y1237030D01*
G01X723151Y1243188D01*
G01X719688Y1245689D01*
G01X713915Y1247036D01*
G01X703139Y1247806D01*
G01X696982Y1248576D01*
G01X690824Y1250115D01*
G01X682357Y1251654D01*
G01X675430Y1253194D01*
G01X669272Y1256273D01*
G01X663115Y1262430D01*
G01X660036Y1270127D01*
G01X660036Y1277054D01*
G01X661768Y1279363D01*
G01X665424Y1280133D01*
G01X672351Y1279363D01*
G01X684666Y1277824D01*
G01X700060Y1274745D01*
G01X715454Y1273206D01*
G01X723151Y1271666D01*
G01X734697Y1270897D01*
G01X739315Y1271666D01*
G01X740854Y1273976D01*
G01X739315Y1278594D01*
G01X736236Y1282442D01*
G01X724691Y1293988D01*
G01X716994Y1303224D01*
G01X715262Y1305726D01*
G01X714685Y1310151D01*
G01X715262Y1314577D01*
G01X716994Y1317079D01*
G01X720842Y1320157D01*
G01X726230Y1324006D01*
G01X735466Y1326315D01*
G01X739892Y1325738D01*
G01X742394Y1324006D01*
G01X746242Y1317849D01*
G01X753939Y1302454D01*
G01X757018Y1297066D01*
G01X760866Y1290139D01*
G01X763945Y1284751D01*
G01X767794Y1279363D01*
G01X778569Y1263970D01*
G01X783188Y1258582D01*
G01X786266Y1254733D01*
G01X788576Y1250885D01*
G01X794733Y1243188D01*
G01X797812Y1238570D01*
G01X801660Y1233951D01*
G01X832448Y1203163D01*
G01X834757Y1199315D01*
G01X833410Y1197583D01*
G01X829369Y1197006D01*
G01X821672Y1197776D01*
G01X813976Y1199315D01*
G01X805509Y1201624D01*
G01X798582Y1204703D01*
G01X793194Y1207782D01*
G01X789345Y1210860D01*
G01X785497Y1216249D01*
G01X781648Y1223945D01*
G01X776260Y1231642D01*
G01X771642Y1237800D01*
G01X763945Y1248576D01*
G01X762021Y1250115D01*
G01X759327Y1250115D01*
G01X756826Y1248576D01*
G01X754132Y1242418D01*
G01X751630Y1240879D01*
G01X744318Y1240879D01*
G01X743163Y1239339D01*
G01X743163Y1233182D01*
G01X744703Y1227024D01*
G01X747012Y1220097D01*
G01X747782Y1211630D01*
G01X746242Y1208166D01*
G01X743163Y1205473D01*
G01X735466Y1201624D01*
G01X727769Y1198545D01*
G01X722382Y1193927D01*
G01X720842Y1185460D01*
G01X720072Y1177763D01*
G01X718533Y1170066D01*
G01X717763Y1153133D01*
G01X716994Y1139279D01*
G01X716224Y1131582D01*
G01X716801Y1127156D01*
G01X718533Y1124654D01*
G01X723151Y1121576D01*
G01X728539Y1120036D01*
G01X733927Y1119266D01*
G01X741624Y1117727D01*
G01X752400Y1116188D01*
G01X760097Y1114649D01*
G01X770103Y1113879D01*
G01X776453Y1113109D01*
G01X780109Y1110800D01*
G01X781648Y1107144D01*
G01X781648Y1102333D01*
G01X780109Y1094636D01*
G01X777800Y1088479D01*
G01X772412Y1082321D01*
G01X768563Y1080974D01*
G01X764715Y1081551D01*
G01X757788Y1083860D01*
G01X751630Y1086170D01*
G01X728539Y1093097D01*
G01X721612Y1095406D01*
G01X715454Y1096176D01*
G01X712183Y1094636D01*
G01X710066Y1091557D01*
G01X706988Y1083091D01*
G01X704679Y1073085D01*
G01X704679Y1065388D01*
G01X708527Y1062309D01*
G01X714685Y1060000D01*
G01X722382Y1056921D01*
G01X731618Y1053842D01*
G01X739315Y1050763D01*
G01X745472Y1048454D01*
G01X750860Y1046915D01*
G01X757018Y1044606D01*
G01X763945Y1042297D01*
G01X769333Y1040757D01*
G01X776260Y1038449D01*
G01X785497Y1036139D01*
G01X792424Y1033830D01*
G01X803200Y1030751D01*
G01X807818Y1027673D01*
G01X810897Y1022285D01*
G01X810897Y1016127D01*
G01X809357Y1010739D01*
G01X806279Y1003812D01*
G01X801660Y998424D01*
G01X797042Y996115D01*
G01X792424Y996885D01*
G01X781648Y1002273D01*
G01X774721Y1005351D01*
G01X769333Y1007660D01*
G01X763176Y1010739D01*
G01X755479Y1013818D01*
G01X741624Y1019976D01*
G01X733157Y1023054D01*
G01X719303Y1027673D01*
G01X711606Y1029982D01*
G01X706218Y1031521D01*
G01X698521Y1033060D01*
G01X690824Y1032291D01*
G01X686206Y1026903D01*
G01X680048Y1014588D01*
G01X675430Y1006891D01*
G01X673121Y998424D01*
G01X673698Y994576D01*
G01X675430Y992266D01*
G01X679279Y989188D01*
G01X684666Y985339D01*
G01X698521Y976103D01*
G01X706218Y971485D01*
G01X720072Y962249D01*
G01X727000Y958400D01*
G01X739315Y950703D01*
G01X744703Y947624D01*
G01X761636Y939157D01*
G01X767024Y936849D01*
G01X773951Y933770D01*
G01X786266Y929151D01*
G01X793963Y926842D01*
G01X800891Y924533D01*
G01X808588Y922224D01*
G01X815515Y920685D01*
G01X821672Y919145D01*
G01X825136Y917413D01*
G01X827830Y913757D01*
G01X830139Y909139D01*
G01X824751Y907600D01*
G01X807818Y906060D01*
G01X793963Y905291D01*
G01X783957Y904521D01*
G01X773951Y905291D01*
G01X741624Y906830D01*
G01X734697Y908370D01*
G01X727769Y910679D01*
G01X722382Y913757D01*
G01X717763Y917606D01*
G01X713915Y921454D01*
G01X710066Y926842D01*
G01X706218Y933770D01*
G01X702369Y939927D01*
G01X698521Y944545D01*
G01X692363Y952242D01*
G01X688515Y956091D01*
G01X680818Y962249D01*
G01X670042Y969945D01*
G01X663115Y973024D01*
G01X654648Y973024D01*
G01X650030Y969945D01*
G01X642333Y962249D01*
G01X638485Y957630D01*
G01X632327Y952242D01*
G01X624630Y946085D01*
G01X601539Y929921D01*
G01X594612Y925303D01*
G01X588454Y921454D01*
G01X581527Y917606D01*
G01X569212Y909909D01*
G01X553818Y902212D01*
G01X546891Y899133D01*
G01X541503Y896824D01*
G37*
G36*
G01X586915Y1210091D02*
G01X579218Y1207782D01*
G01X570751Y1206242D01*
G01X563054Y1205473D01*
G01X559206Y1203933D01*
G01X554588Y1204703D01*
G01X552279Y1207012D01*
G01X551509Y1210860D01*
G01X552086Y1214709D01*
G01X553818Y1217018D01*
G01X557666Y1220866D01*
G01X561515Y1223945D01*
G01X567672Y1227794D01*
G01X573060Y1233182D01*
G01X576139Y1237030D01*
G01X579988Y1242418D01*
G01X583066Y1250115D01*
G01X583836Y1253963D01*
G01X578448Y1255503D01*
G01X567672Y1257042D01*
G01X559206Y1258582D01*
G01X552279Y1260121D01*
G01X546121Y1260891D01*
G01X539963Y1262430D01*
G01X532266Y1263970D01*
G01X523030Y1266279D01*
G01X514563Y1268588D01*
G01X509945Y1271666D01*
G01X507636Y1276285D01*
G01X506866Y1281673D01*
G01X508406Y1287060D01*
G01X511485Y1290909D01*
G01X516103Y1293988D01*
G01X521491Y1294757D01*
G01X527648Y1293218D01*
G01X534576Y1290909D01*
G01X549969Y1286291D01*
G01X563824Y1283212D01*
G01X571521Y1281673D01*
G01X578448Y1280903D01*
G01X587685Y1279363D01*
G01X598460Y1278594D01*
G01X601154Y1279363D01*
G01X601539Y1281673D01*
G01X598460Y1286291D01*
G01X594612Y1290139D01*
G01X589994Y1296297D01*
G01X576909Y1309382D01*
G01X573060Y1314000D01*
G01X573060Y1319388D01*
G01X576139Y1323236D01*
G01X580757Y1327085D01*
G01X586915Y1330933D01*
G01X593072Y1334012D01*
G01X600000Y1334782D01*
G01X603271Y1333242D01*
G01X605388Y1330163D01*
G01X611545Y1319388D01*
G01X614624Y1313230D01*
G01X618472Y1307073D01*
G01X623091Y1299376D01*
G01X627709Y1292449D01*
G01X631557Y1285521D01*
G01X634636Y1280133D01*
G01X637715Y1276285D01*
G01X641563Y1270897D01*
G01X646182Y1263970D01*
G01X657727Y1247806D01*
G01X660806Y1243957D01*
G01X668503Y1233182D01*
G01X674660Y1225485D01*
G01X682357Y1214709D01*
G01X682357Y1212977D01*
G01X679279Y1212400D01*
G01X673121Y1213939D01*
G01X669272Y1216249D01*
G01X664654Y1218557D01*
G01X658497Y1222406D01*
G01X653109Y1226254D01*
G01X649260Y1229333D01*
G01X641563Y1237030D01*
G01X635406Y1244727D01*
G01X631557Y1247806D01*
G01X627709Y1250115D01*
G01X615394Y1250115D01*
G01X604618Y1251654D01*
G01X600385Y1251462D01*
G01X598460Y1249345D01*
G01X598460Y1243957D01*
G01X600769Y1238570D01*
G01X603079Y1231642D01*
G01X604618Y1226254D01*
G01X603848Y1222406D01*
G01X600769Y1217788D01*
G01X595382Y1213170D01*
G01X586915Y1210091D01*
G37*
G36*
G01X621551Y1166218D02*
G01X617703Y1160060D01*
G01X613854Y1153133D01*
G01X609236Y1146206D01*
G01X604618Y1140818D01*
G01X602116Y1139471D01*
G01X599230Y1140049D01*
G01X594612Y1143897D01*
G01X590763Y1149285D01*
G01X587685Y1155442D01*
G01X586145Y1160830D01*
G01X584606Y1168527D01*
G01X584606Y1172953D01*
G01X586145Y1175454D01*
G01X589994Y1179303D01*
G01X594612Y1182382D01*
G01X603848Y1187000D01*
G01X610006Y1189309D01*
G01X616933Y1191618D01*
G01X625400Y1193927D01*
G01X635406Y1196236D01*
G01X639639Y1196236D01*
G01X641563Y1194697D01*
G01X641563Y1192580D01*
G01X640024Y1190849D01*
G01X636945Y1187000D01*
G01X634636Y1183151D01*
G01X625400Y1171606D01*
G01X621551Y1166218D01*
G37*
G36*
G01X1208755Y285082D02*
G01X1198364Y281618D01*
G01X1186818Y278154D01*
G01X1168346Y274691D01*
G01X1155646Y272382D01*
G01X1140637Y271227D01*
G01X1124473Y272382D01*
G01X1099073Y274691D01*
G01X1087527Y277000D01*
G01X1074827Y280463D01*
G01X1054046Y287391D01*
G01X1044809Y290854D01*
G01X1036727Y294318D01*
G01X1027491Y298936D01*
G01X1019409Y304709D01*
G01X1014791Y310482D01*
G01X1011327Y318563D01*
G01X1012482Y330109D01*
G01X1018255Y338191D01*
G01X1026337Y342809D01*
G01X1037882Y343963D01*
G01X1048273Y340500D01*
G01X1058664Y335882D01*
G01X1070209Y331263D01*
G01X1080600Y327800D01*
G01X1089837Y325491D01*
G01X1103691Y323182D01*
G01X1124473Y320873D01*
G01X1142946Y320873D01*
G01X1155646Y322027D01*
G01X1163727Y323182D01*
G01X1174118Y326646D01*
G01X1186818Y331263D01*
G01X1196055Y335882D01*
G01X1204137Y340500D01*
G01X1211064Y345118D01*
G01X1216837Y349736D01*
G01X1228382Y361282D01*
G01X1235309Y369363D01*
G01X1246855Y385527D01*
G01X1252627Y397073D01*
G01X1257246Y407463D01*
G01X1260709Y417854D01*
G01X1265327Y436327D01*
G01X1267637Y450182D01*
G01X1268791Y465191D01*
G01X1267348Y470675D01*
G01X1263018Y473273D01*
G01X1138327Y474427D01*
G01X1014791Y476736D01*
G01X1006709Y481354D01*
G01X999782Y487127D01*
G01X992855Y496363D01*
G01X988237Y507909D01*
G01X987197Y528691D01*
G01X1041346Y528691D01*
G01X1041346Y521763D01*
G01X1070209Y519166D01*
G01X1154491Y518300D01*
G01X1267637Y519454D01*
G01X1269946Y524073D01*
G01X1269946Y537927D01*
G01X1266482Y556400D01*
G01X1261864Y570254D01*
G01X1257246Y581800D01*
G01X1252627Y589882D01*
G01X1241082Y606046D01*
G01X1236464Y611818D01*
G01X1230691Y617591D01*
G01X1213373Y631446D01*
G01X1205291Y637218D01*
G01X1193746Y642991D01*
G01X1181046Y647609D01*
G01X1168346Y651073D01*
G01X1156800Y652227D01*
G01X1148718Y653382D01*
G01X1142946Y653382D01*
G01X1119855Y651073D01*
G01X1109464Y647609D01*
G01X1097918Y642991D01*
G01X1089837Y638373D01*
G01X1082909Y633754D01*
G01X1071364Y622209D01*
G01X1065591Y615282D01*
G01X1060973Y607200D01*
G01X1056355Y597963D01*
G01X1051737Y587573D01*
G01X1048273Y576027D01*
G01X1045964Y565636D01*
G01X1043655Y554091D01*
G01X1042500Y539082D01*
G01X1041346Y528691D01*
G01X1041346Y528691D01*
G01X987197Y528691D01*
G01X987082Y531000D01*
G01X988237Y551782D01*
G01X990546Y567946D01*
G01X992855Y578336D01*
G01X996318Y589882D01*
G01X999782Y600273D01*
G01X1003246Y609509D01*
G01X1012482Y627982D01*
G01X1018255Y637218D01*
G01X1024027Y645300D01*
G01X1028646Y651073D01*
G01X1040191Y662618D01*
G01X1048273Y669546D01*
G01X1064437Y681091D01*
G01X1075982Y686863D01*
G01X1086373Y691482D01*
G01X1096764Y694946D01*
G01X1106000Y697254D01*
G01X1117546Y699563D01*
G01X1133709Y701873D01*
G01X1154491Y703027D01*
G01X1170655Y701873D01*
G01X1182200Y699563D01*
G01X1194900Y696100D01*
G01X1213373Y689173D01*
G01X1223764Y684554D01*
G01X1231846Y679936D01*
G01X1239927Y674163D01*
G01X1249164Y668391D01*
G01X1260709Y659154D01*
G01X1272255Y647609D01*
G01X1286109Y631446D01*
G01X1290727Y625673D01*
G01X1295346Y617591D01*
G01X1301118Y607200D01*
G01X1310355Y588727D01*
G01X1314973Y577182D01*
G01X1319591Y563327D01*
G01X1324209Y547163D01*
G01X1327673Y528691D01*
G01X1329982Y512527D01*
G01X1331137Y480200D01*
G01X1329982Y450182D01*
G01X1327673Y431709D01*
G01X1325364Y421318D01*
G01X1321900Y409773D01*
G01X1314973Y388991D01*
G01X1310355Y378600D01*
G01X1305737Y369363D01*
G01X1299964Y360127D01*
G01X1293037Y349736D01*
G01X1287264Y341654D01*
G01X1264173Y318563D01*
G01X1250318Y307018D01*
G01X1243391Y302400D01*
G01X1236464Y298936D01*
G01X1228382Y294318D01*
G01X1219146Y289700D01*
G01X1208755Y285082D01*
G37*
G36*
G01X1618618Y283927D02*
G01X1609382Y281618D01*
G01X1597837Y278154D01*
G01X1579364Y274691D01*
G01X1566664Y272382D01*
G01X1547037Y271227D01*
G01X1526255Y272382D01*
G01X1507782Y274691D01*
G01X1497391Y277000D01*
G01X1485846Y280463D01*
G01X1476609Y283927D01*
G01X1468527Y287391D01*
G01X1460446Y292009D01*
G01X1451209Y297782D01*
G01X1443127Y303554D01*
G01X1431582Y315100D01*
G01X1424655Y323182D01*
G01X1418882Y331263D01*
G01X1414264Y339346D01*
G01X1409646Y348582D01*
G01X1406182Y358973D01*
G01X1403873Y369363D01*
G01X1401564Y383218D01*
G01X1401564Y404000D01*
G01X1405027Y421318D01*
G01X1409646Y434018D01*
G01X1414264Y443254D01*
G01X1418882Y451336D01*
G01X1423500Y458263D01*
G01X1428118Y464036D01*
G01X1435046Y469809D01*
G01X1441973Y474427D01*
G01X1450055Y480200D01*
G01X1468527Y491746D01*
G01X1480073Y497518D01*
G01X1490464Y502136D01*
G01X1502009Y506754D01*
G01X1514709Y511373D01*
G01X1526255Y515991D01*
G01X1538955Y520609D01*
G01X1562046Y529846D01*
G01X1572437Y534463D01*
G01X1581673Y539082D01*
G01X1592064Y544854D01*
G01X1600146Y550627D01*
G01X1605918Y556400D01*
G01X1611691Y564482D01*
G01X1617464Y576027D01*
G01X1619773Y595654D01*
G01X1617464Y612973D01*
G01X1612846Y622209D01*
G01X1608227Y629136D01*
G01X1603609Y633754D01*
G01X1597837Y638373D01*
G01X1590909Y642991D01*
G01X1580518Y647609D01*
G01X1565509Y651073D01*
G01X1551655Y653382D01*
G01X1537800Y654536D01*
G01X1526255Y653382D01*
G01X1510091Y651073D01*
G01X1499700Y647609D01*
G01X1487000Y642991D01*
G01X1468527Y633754D01*
G01X1458137Y629136D01*
G01X1446591Y627982D01*
G01X1437355Y632600D01*
G01X1431582Y638373D01*
G01X1426964Y648763D01*
G01X1428118Y662618D01*
G01X1433891Y669546D01*
G01X1441973Y674163D01*
G01X1452364Y679936D01*
G01X1461600Y684554D01*
G01X1469682Y688018D01*
G01X1478918Y691482D01*
G01X1489309Y694946D01*
G01X1503164Y698409D01*
G01X1518173Y700718D01*
G01X1528564Y701873D01*
G01X1545882Y703027D01*
G01X1563200Y701873D01*
G01X1579364Y699563D01*
G01X1589755Y697254D01*
G01X1601300Y693791D01*
G01X1611691Y689173D01*
G01X1620927Y684554D01*
G01X1629009Y679936D01*
G01X1635937Y675318D01*
G01X1641709Y670700D01*
G01X1653255Y659154D01*
G01X1659027Y652227D01*
G01X1664800Y642991D01*
G01X1670573Y632600D01*
G01X1675191Y619900D01*
G01X1678655Y602582D01*
G01X1679809Y582954D01*
G01X1678655Y570254D01*
G01X1675191Y559863D01*
G01X1670573Y547163D01*
G01X1663646Y535618D01*
G01X1656718Y526382D01*
G01X1645173Y514836D01*
G01X1639400Y510218D01*
G01X1631318Y505600D01*
G01X1620927Y499827D01*
G01X1604764Y490591D01*
G01X1595527Y485973D01*
G01X1579364Y479046D01*
G01X1551655Y468654D01*
G01X1541264Y465191D01*
G01X1518173Y455954D01*
G01X1497391Y444409D01*
G01X1487000Y437482D01*
G01X1476609Y427091D01*
G01X1468527Y416700D01*
G01X1462755Y405154D01*
G01X1460446Y385527D01*
G01X1462755Y368209D01*
G01X1466218Y358973D01*
G01X1469682Y352046D01*
G01X1474300Y346273D01*
G01X1480073Y340500D01*
G01X1488155Y334727D01*
G01X1498546Y328954D01*
G01X1507782Y325491D01*
G01X1517018Y323182D01*
G01X1528564Y320873D01*
G01X1547037Y319718D01*
G01X1563200Y320873D01*
G01X1581673Y323182D01*
G01X1593218Y326646D01*
G01X1607073Y331263D01*
G01X1618618Y335882D01*
G01X1627855Y340500D01*
G01X1637091Y346273D01*
G01X1648637Y353200D01*
G01X1660182Y357818D01*
G01X1672882Y356663D01*
G01X1682118Y350891D01*
G01X1686737Y343963D01*
G01X1689046Y332418D01*
G01X1687891Y324913D01*
G01X1684427Y318563D01*
G01X1675191Y310482D01*
G01X1667109Y305863D01*
G01X1639400Y292009D01*
G01X1629009Y287391D01*
G01X1618618Y283927D01*
G37*
G36*
G01X1852991Y301246D02*
G01X1846064Y290854D01*
G01X1835673Y282773D01*
G01X1826437Y278154D01*
G01X1813737Y273536D01*
G01X1794109Y271227D01*
G01X1777946Y274691D01*
G01X1768709Y283927D01*
G01X1765246Y296627D01*
G01X1766400Y303266D01*
G01X1769864Y309327D01*
G01X1780255Y317409D01*
G01X1791800Y324336D01*
G01X1799882Y334727D01*
G01X1802191Y599118D01*
G01X1803346Y861200D01*
G01X1805655Y869282D01*
G01X1810273Y876209D01*
G01X1816046Y880827D01*
G01X1825282Y885446D01*
G01X1839137Y886600D01*
G01X1851837Y880827D01*
G01X1859918Y871591D01*
G01X1863382Y861200D01*
G01X1864537Y595654D01*
G01X1863382Y332418D01*
G01X1861073Y322027D01*
G01X1857609Y310482D01*
G01X1852991Y301246D01*
G37*
G36*
G01X2270937Y288546D02*
G01X2260546Y282773D01*
G01X2247846Y278154D01*
G01X2232837Y274691D01*
G01X2222446Y272382D01*
G01X2207437Y271227D01*
G01X2191273Y272382D01*
G01X2172800Y274691D01*
G01X2163564Y277000D01*
G01X2154327Y280463D01*
G01X2138164Y287391D01*
G01X2119691Y298936D01*
G01X2110455Y305863D01*
G01X2098909Y315100D01*
G01X2073509Y340500D01*
G01X2066582Y343963D01*
G01X2063984Y341366D01*
G01X2063118Y331263D01*
G01X2061964Y313946D01*
G01X2060809Y305863D01*
G01X2057346Y295473D01*
G01X2048109Y286236D01*
G01X2033100Y282773D01*
G01X2021555Y285082D01*
G01X2016937Y289700D01*
G01X2012318Y296627D01*
G01X2008855Y309327D01*
G01X2007700Y489436D01*
G01X2008855Y664927D01*
G01X2011164Y673009D01*
G01X2014627Y679936D01*
G01X2021555Y685709D01*
G01X2031946Y690327D01*
G01X2043491Y691482D01*
G01X2052727Y689173D01*
G01X2059655Y684554D01*
G01X2065427Y676473D01*
G01X2068891Y664927D01*
G01X2070046Y527536D01*
G01X2070912Y428246D01*
G01X2073509Y393609D01*
G01X2082746Y382063D01*
G01X2111609Y353200D01*
G01X2117382Y348582D01*
G01X2125464Y343963D01*
G01X2134700Y338191D01*
G01X2143937Y333573D01*
G01X2154327Y330109D01*
G01X2163564Y327800D01*
G01X2179727Y325491D01*
G01X2188964Y324336D01*
G01X2198200Y325491D01*
G01X2214364Y327800D01*
G01X2223600Y331263D01*
G01X2235146Y338191D01*
G01X2243227Y346273D01*
G01X2247846Y352046D01*
G01X2253618Y360127D01*
G01X2258237Y371673D01*
G01X2262855Y390146D01*
G01X2265164Y401691D01*
G01X2266318Y419009D01*
G01X2267473Y434018D01*
G01X2268627Y555246D01*
G01X2269782Y645011D01*
G01X2273246Y678782D01*
G01X2283637Y688018D01*
G01X2299800Y691482D01*
G01X2309037Y690327D01*
G01X2315964Y686863D01*
G01X2324046Y676473D01*
G01X2327509Y664927D01*
G01X2328664Y528691D01*
G01X2327509Y394763D01*
G01X2325200Y376291D01*
G01X2322891Y365900D01*
G01X2319427Y354354D01*
G01X2312500Y335882D01*
G01X2307882Y326646D01*
G01X2302109Y317409D01*
G01X2296337Y309327D01*
G01X2284791Y297782D01*
G01X2279018Y293163D01*
G01X2270937Y288546D01*
G37*
G36*
G01X2795100Y548318D02*
G01X2792791Y301246D01*
G01X2788173Y293163D01*
G01X2780091Y286236D01*
G01X2769700Y281618D01*
G01X2759309Y281618D01*
G01X2748918Y285082D01*
G01X2741991Y290854D01*
G01X2737373Y297782D01*
G01X2733909Y307018D01*
G01X2732755Y408618D01*
G01X2732755Y504446D01*
G01X2726982Y505600D01*
G01X2666946Y506754D01*
G01X2609218Y507909D01*
G01X2586127Y510218D01*
G01X2563037Y514836D01*
G01X2553800Y517146D01*
G01X2543409Y520609D01*
G01X2534173Y524073D01*
G01X2518009Y531000D01*
G01X2511082Y534463D01*
G01X2493764Y546009D01*
G01X2484527Y552936D01*
G01X2467209Y570254D01*
G01X2461437Y578336D01*
G01X2454509Y588727D01*
G01X2448737Y600273D01*
G01X2444118Y611818D01*
G01X2439500Y625673D01*
G01X2436037Y644146D01*
G01X2433727Y660309D01*
G01X2433022Y673009D01*
G01X2494918Y673009D01*
G01X2496073Y653382D01*
G01X2498382Y637218D01*
G01X2501846Y626827D01*
G01X2506464Y616436D01*
G01X2512237Y607200D01*
G01X2519164Y599118D01*
G01X2524937Y593346D01*
G01X2533018Y586418D01*
G01X2542255Y580646D01*
G01X2551491Y576027D01*
G01X2561882Y571409D01*
G01X2572273Y567946D01*
G01X2581509Y565636D01*
G01X2593055Y563327D01*
G01X2593055Y563327D01*
G01X2606909Y561018D01*
G01X2626537Y559863D01*
G01X2643855Y558709D01*
G01X2686573Y557554D01*
G01X2716880Y558421D01*
G01X2729291Y561018D01*
G01X2731889Y591036D01*
G01X2732755Y674163D01*
G01X2731889Y757002D01*
G01X2729291Y786154D01*
G01X2675027Y788463D01*
G01X2620764Y787309D01*
G01X2595364Y785000D01*
G01X2569964Y780382D01*
G01X2560727Y776918D01*
G01X2549182Y772300D01*
G01X2537637Y766527D01*
G01X2528400Y760754D01*
G01X2516855Y749209D01*
G01X2512237Y743436D01*
G01X2504155Y727273D01*
G01X2499537Y713418D01*
G01X2497227Y700718D01*
G01X2496073Y692636D01*
G01X2494918Y673009D01*
G01X2433022Y673009D01*
G01X2432573Y681091D01*
G01X2433727Y699563D01*
G01X2436037Y718036D01*
G01X2438346Y728427D01*
G01X2441809Y738818D01*
G01X2445273Y748054D01*
G01X2449891Y758446D01*
G01X2455664Y767682D01*
G01X2462591Y778073D01*
G01X2476446Y791927D01*
G01X2484527Y798854D01*
G01X2503000Y810400D01*
G01X2514546Y816173D01*
G01X2527246Y820791D01*
G01X2548027Y827718D01*
G01X2563037Y831182D01*
G01X2574582Y833491D01*
G01X2590746Y835800D01*
G01X2616146Y838109D01*
G01X2690037Y839263D01*
G01X2765082Y836954D01*
G01X2775473Y831182D01*
G01X2784709Y821946D01*
G01X2790482Y811554D01*
G01X2793946Y798854D01*
G01X2795100Y548318D01*
G37*
G04 Text End*

G04 PolygonModel Start*
G54D10*
G01X3394299Y-976067D02*
G01X3394299Y-1055838D01*
G01X3226136Y10398D02*
G01X2263999Y10398D01*
G01X2837366Y-1196102D02*
G01X3271132Y-1196102D01*
G01X2467366Y-1196102D02*
G01X2691135Y-1196102D01*
G01X2263999Y-942072D02*
G01X2263999Y-1196102D01*
G01X2263999Y-1196102D02*
G01X2321136Y-1196102D01*
G01X2263999Y-345072D02*
G01X2263999Y-705839D01*
G01X2263999Y10398D02*
G01X2263999Y-108840D01*

M02*

